G04*
G04 #@! TF.GenerationSoftware,Altium Limited,Altium Designer,24.2.2 (26)*
G04*
G04 Layer_Color=16711935*
%FSLAX44Y44*%
%MOMM*%
G71*
G04*
G04 #@! TF.SameCoordinates,E4E63788-C9BD-4034-8D98-A8616A57BAF2*
G04*
G04*
G04 #@! TF.FilePolarity,Positive*
G04*
G01*
G75*
%ADD12C,0.1500*%
%ADD18C,0.1000*%
D12*
X672750Y466747D02*
Y460083D01*
X671417Y458750D01*
X668751D01*
X667418Y460083D01*
Y466747D01*
X664753Y458750D02*
X662087D01*
X663420D01*
Y466747D01*
X664753Y465415D01*
X593250Y466747D02*
Y460083D01*
X591917Y458750D01*
X589251D01*
X587918Y460083D01*
Y466747D01*
X585253Y465415D02*
X583920Y466747D01*
X581254D01*
X579921Y465415D01*
Y464082D01*
X581254Y462749D01*
X579921Y461416D01*
Y460083D01*
X581254Y458750D01*
X583920D01*
X585253Y460083D01*
Y461416D01*
X583920Y462749D01*
X585253Y464082D01*
Y465415D01*
X583920Y462749D02*
X581254D01*
D18*
X0Y20000D02*
G03*
X30000Y-10000I30000J-0D01*
G01*
X720000Y-10000D02*
G03*
X750000Y20000I0J30000D01*
G01*
Y520000D02*
G03*
X720000Y550000I-30000J0D01*
G01*
X30000D02*
G03*
X-0Y520000I0J-30000D01*
G01*
X30000Y-10000D02*
X720000Y-10000D01*
X750000Y20000D02*
Y520000D01*
X30000Y550000D02*
X720000D01*
X-0Y520000D02*
X0Y20000D01*
M02*
