G04*
G04 #@! TF.GenerationSoftware,Altium Limited,Altium Designer,24.2.2 (26)*
G04*
G04 Layer_Color=2752767*
%FSLAX44Y44*%
%MOMM*%
G71*
G04*
G04 #@! TF.SameCoordinates,E4E63788-C9BD-4034-8D98-A8616A57BAF2*
G04*
G04*
G04 #@! TF.FilePolarity,Positive*
G04*
G01*
G75*
%ADD11C,0.1270*%
%ADD111C,0.1693*%
D11*
X364650Y132220D02*
X367190Y134760D01*
X369730D01*
X367190Y137300D01*
X369730Y139840D01*
X367190D01*
X364650Y142380D01*
X362110Y139840D01*
X359570D01*
X362110Y137300D01*
X359570Y134760D01*
X362110D01*
X364650Y132220D01*
Y157620D02*
X367190Y160160D01*
X369730D01*
X367190Y162700D01*
X369730Y165240D01*
X367190D01*
X364650Y167780D01*
X362110Y165240D01*
X359570D01*
X362110Y162700D01*
X359570Y160160D01*
X362110D01*
X364650Y157620D01*
X390050Y132220D02*
X392590Y134760D01*
X395130D01*
X392590Y137300D01*
X395130Y139840D01*
X392590D01*
X390050Y142380D01*
X387510Y139840D01*
X384970D01*
X387510Y137300D01*
X384970Y134760D01*
X387510D01*
X390050Y132220D01*
X415450D02*
X417990Y134760D01*
X420530D01*
X417990Y137300D01*
X420530Y139840D01*
X417990D01*
X415450Y142380D01*
X412910Y139840D01*
X410370D01*
X412910Y137300D01*
X410370Y134760D01*
X412910D01*
X415450Y132220D01*
X390050Y157620D02*
X392590Y160160D01*
X395130D01*
X392590Y162700D01*
X395130Y165240D01*
X392590D01*
X390050Y167780D01*
X387510Y165240D01*
X384970D01*
X387510Y162700D01*
X384970Y160160D01*
X387510D01*
X390050Y157620D01*
X415450D02*
X417990Y160160D01*
X420530D01*
X417990Y162700D01*
X420530Y165240D01*
X417990D01*
X415450Y167780D01*
X412910Y165240D01*
X410370D01*
X412910Y162700D01*
X410370Y160160D01*
X412910D01*
X415450Y157620D01*
X440850Y132220D02*
X443390Y134760D01*
X445930D01*
X443390Y137300D01*
X445930Y139840D01*
X443390D01*
X440850Y142380D01*
X438310Y139840D01*
X435770D01*
X438310Y137300D01*
X435770Y134760D01*
X438310D01*
X440850Y132220D01*
Y157620D02*
X443390Y160160D01*
X445930D01*
X443390Y162700D01*
X445930Y165240D01*
X443390D01*
X440850Y167780D01*
X438310Y165240D01*
X435770D01*
X438310Y162700D01*
X435770Y160160D01*
X438310D01*
X440850Y157620D01*
X247670Y146670D02*
Y156830D01*
X257830D01*
Y146670D01*
X247670D01*
X97670D02*
Y156830D01*
X107830D01*
Y146670D01*
X97670D01*
X72000Y342170D02*
X66920Y352330D01*
X77080D01*
X72000Y342170D01*
Y426170D02*
X66920Y436330D01*
X77080D01*
X72000Y426170D01*
X678000Y72920D02*
X672920Y83080D01*
X683080D01*
X678000Y72920D01*
Y156920D02*
X672920Y167080D01*
X683080D01*
X678000Y156920D01*
X364700Y8270D02*
X367240Y10810D01*
X369780D01*
X367240Y13350D01*
X369780Y15890D01*
X367240D01*
X364700Y18430D01*
X362160Y15890D01*
X359620D01*
X362160Y13350D01*
X359620Y10810D01*
X362160D01*
X364700Y8270D01*
Y33670D02*
X367240Y36210D01*
X369780D01*
X367240Y38750D01*
X369780Y41290D01*
X367240D01*
X364700Y43830D01*
X362160Y41290D01*
X359620D01*
X362160Y38750D01*
X359620Y36210D01*
X362160D01*
X364700Y33670D01*
X390100Y8270D02*
X392640Y10810D01*
X395180D01*
X392640Y13350D01*
X395180Y15890D01*
X392640D01*
X390100Y18430D01*
X387560Y15890D01*
X385020D01*
X387560Y13350D01*
X385020Y10810D01*
X387560D01*
X390100Y8270D01*
X415500D02*
X418040Y10810D01*
X420580D01*
X418040Y13350D01*
X420580Y15890D01*
X418040D01*
X415500Y18430D01*
X412960Y15890D01*
X410420D01*
X412960Y13350D01*
X410420Y10810D01*
X412960D01*
X415500Y8270D01*
X390100Y33670D02*
X392640Y36210D01*
X395180D01*
X392640Y38750D01*
X395180Y41290D01*
X392640D01*
X390100Y43830D01*
X387560Y41290D01*
X385020D01*
X387560Y38750D01*
X385020Y36210D01*
X387560D01*
X390100Y33670D01*
X415500D02*
X418040Y36210D01*
X420580D01*
X418040Y38750D01*
X420580Y41290D01*
X418040D01*
X415500Y43830D01*
X412960Y41290D01*
X410420D01*
X412960Y38750D01*
X410420Y36210D01*
X412960D01*
X415500Y33670D01*
X440900Y8270D02*
X443440Y10810D01*
X445980D01*
X443440Y13350D01*
X445980Y15890D01*
X443440D01*
X440900Y18430D01*
X438360Y15890D01*
X435820D01*
X438360Y13350D01*
X435820Y10810D01*
X438360D01*
X440900Y8270D01*
Y33670D02*
X443440Y36210D01*
X445980D01*
X443440Y38750D01*
X445980Y41290D01*
X443440D01*
X440900Y43830D01*
X438360Y41290D01*
X435820D01*
X438360Y38750D01*
X435820Y36210D01*
X438360D01*
X440900Y33670D01*
X408960Y471711D02*
Y469171D01*
X414040D01*
Y471711D01*
X416580D01*
Y476791D01*
X414040D01*
Y479331D01*
X408960D01*
Y476791D01*
X406420D01*
Y471711D01*
X408960D01*
X498960Y491711D02*
Y489171D01*
X504040D01*
Y491711D01*
X506580D01*
Y496791D01*
X504040D01*
Y499331D01*
X498960D01*
Y496791D01*
X496420D01*
Y491711D01*
X498960D01*
X508960Y471711D02*
Y469171D01*
X514040D01*
Y471711D01*
X516580D01*
Y476791D01*
X514040D01*
Y479331D01*
X508960D01*
Y476791D01*
X506420D01*
Y471711D01*
X508960D01*
X398960Y491711D02*
Y489171D01*
X404040D01*
Y491711D01*
X406580D01*
Y496791D01*
X404040D01*
Y499331D01*
X398960D01*
Y496791D01*
X396420D01*
Y491711D01*
X398960D01*
X718960Y291710D02*
Y289170D01*
X724041D01*
Y291710D01*
X726581D01*
Y296791D01*
X724041D01*
Y299331D01*
X718960D01*
Y296791D01*
X716421D01*
Y291710D01*
X718960D01*
X728960Y311711D02*
Y309171D01*
X734041D01*
Y311711D01*
X736581D01*
Y316791D01*
X734041D01*
Y319331D01*
X728960D01*
Y316791D01*
X726421D01*
Y311711D01*
X728960D01*
X708960D02*
Y309171D01*
X714041D01*
Y311711D01*
X716581D01*
Y316791D01*
X714041D01*
Y319331D01*
X708960D01*
Y316791D01*
X706421D01*
Y311711D01*
X708960D01*
X688960D02*
Y309171D01*
X694041D01*
Y311711D01*
X696581D01*
Y316791D01*
X694041D01*
Y319331D01*
X688960D01*
Y316791D01*
X686421D01*
Y311711D01*
X688960D01*
X698960Y331711D02*
Y329171D01*
X704041D01*
Y331711D01*
X706581D01*
Y336791D01*
X704041D01*
Y339331D01*
X698960D01*
Y336791D01*
X696421D01*
Y331711D01*
X698960D01*
X718960D02*
Y329171D01*
X724041D01*
Y331711D01*
X726581D01*
Y336791D01*
X724041D01*
Y339331D01*
X718960D01*
Y336791D01*
X716421D01*
Y331711D01*
X718960D01*
X708960Y351711D02*
Y349171D01*
X714041D01*
Y351711D01*
X716581D01*
Y356791D01*
X714041D01*
Y359331D01*
X708960D01*
Y356791D01*
X706421D01*
Y351711D01*
X708960D01*
X728960D02*
Y349171D01*
X734041D01*
Y351711D01*
X736581D01*
Y356791D01*
X734041D01*
Y359331D01*
X728960D01*
Y356791D01*
X726421D01*
Y351711D01*
X728960D01*
X718960Y371711D02*
Y369171D01*
X724041D01*
Y371711D01*
X726581D01*
Y376791D01*
X724041D01*
Y379331D01*
X718960D01*
Y376791D01*
X716421D01*
Y371711D01*
X718960D01*
X708960Y391711D02*
Y389171D01*
X714041D01*
Y391711D01*
X716581D01*
Y396791D01*
X714041D01*
Y399331D01*
X708960D01*
Y396791D01*
X706421D01*
Y391711D01*
X708960D01*
X728960D02*
Y389171D01*
X734041D01*
Y391711D01*
X736581D01*
Y396791D01*
X734041D01*
Y399331D01*
X728960D01*
Y396791D01*
X726421D01*
Y391711D01*
X728960D01*
X718960Y411711D02*
Y409171D01*
X724041D01*
Y411711D01*
X726581D01*
Y416791D01*
X724041D01*
Y419331D01*
X718960D01*
Y416791D01*
X716421D01*
Y411711D01*
X718960D01*
X588960Y391711D02*
Y389171D01*
X594040D01*
Y391711D01*
X596581D01*
Y396791D01*
X594040D01*
Y399331D01*
X588960D01*
Y396791D01*
X586421D01*
Y391711D01*
X588960D01*
Y351711D02*
Y349171D01*
X594040D01*
Y351711D01*
X596581D01*
Y356791D01*
X594040D01*
Y359331D01*
X588960D01*
Y356791D01*
X586421D01*
Y351711D01*
X588960D01*
X506230Y97980D02*
Y95440D01*
X511310D01*
Y97980D01*
X513850D01*
Y103060D01*
X511310D01*
Y105600D01*
X506230D01*
Y103060D01*
X503690D01*
Y97980D01*
X506230D01*
X512960Y94710D02*
Y92170D01*
X518040D01*
Y94710D01*
X520580D01*
Y99790D01*
X518040D01*
Y102330D01*
X512960D01*
Y99790D01*
X510420D01*
Y94710D01*
X512960D01*
X498710Y125460D02*
Y122920D01*
X503790D01*
Y125460D01*
X506330D01*
Y130540D01*
X503790D01*
Y133080D01*
X498710D01*
Y130540D01*
X496170D01*
Y125460D01*
X498710D01*
X728960Y471711D02*
Y469171D01*
X734041D01*
Y471711D01*
X736581D01*
Y476791D01*
X734041D01*
Y479331D01*
X728960D01*
Y476791D01*
X726421D01*
Y471711D01*
X728960D01*
X718960Y451711D02*
Y449171D01*
X724041D01*
Y451711D01*
X726581D01*
Y456791D01*
X724041D01*
Y459331D01*
X718960D01*
Y456791D01*
X716421D01*
Y451711D01*
X718960D01*
X728960Y431711D02*
Y429171D01*
X734041D01*
Y431711D01*
X736581D01*
Y436791D01*
X734041D01*
Y439331D01*
X728960D01*
Y436791D01*
X726421D01*
Y431711D01*
X728960D01*
Y271710D02*
Y269170D01*
X734041D01*
Y271710D01*
X736581D01*
Y276791D01*
X734041D01*
Y279331D01*
X728960D01*
Y276791D01*
X726421D01*
Y271710D01*
X728960D01*
X718960Y251710D02*
Y249170D01*
X724041D01*
Y251710D01*
X726581D01*
Y256791D01*
X724041D01*
Y259331D01*
X718960D01*
Y256791D01*
X716421D01*
Y251710D01*
X718960D01*
X728960Y231710D02*
Y229170D01*
X734041D01*
Y231710D01*
X736581D01*
Y236791D01*
X734041D01*
Y239331D01*
X728960D01*
Y236791D01*
X726421D01*
Y231710D01*
X728960D01*
X718960Y211710D02*
Y209170D01*
X724041D01*
Y211710D01*
X726581D01*
Y216791D01*
X724041D01*
Y219331D01*
X718960D01*
Y216791D01*
X716421D01*
Y211710D01*
X718960D01*
X728960Y191710D02*
Y189170D01*
X734041D01*
Y191710D01*
X736581D01*
Y196791D01*
X734041D01*
Y199331D01*
X728960D01*
Y196791D01*
X726421D01*
Y191710D01*
X728960D01*
X718960Y171710D02*
Y169170D01*
X724041D01*
Y171710D01*
X726581D01*
Y176791D01*
X724041D01*
Y179331D01*
X718960D01*
Y176791D01*
X716421D01*
Y171710D01*
X718960D01*
X728960Y151711D02*
Y149171D01*
X734041D01*
Y151711D01*
X736581D01*
Y156791D01*
X734041D01*
Y159331D01*
X728960D01*
Y156791D01*
X726421D01*
Y151711D01*
X728960D01*
X718960Y131711D02*
Y129171D01*
X724041D01*
Y131711D01*
X726581D01*
Y136791D01*
X724041D01*
Y139331D01*
X718960D01*
Y136791D01*
X716421D01*
Y131711D01*
X718960D01*
X728960Y111710D02*
Y109170D01*
X734041D01*
Y111710D01*
X736581D01*
Y116790D01*
X734041D01*
Y119330D01*
X728960D01*
Y116790D01*
X726421D01*
Y111710D01*
X728960D01*
X718960Y91710D02*
Y89170D01*
X724041D01*
Y91710D01*
X726581D01*
Y96790D01*
X724041D01*
Y99330D01*
X718960D01*
Y96790D01*
X716421D01*
Y91710D01*
X718960D01*
X728960Y71710D02*
Y69170D01*
X734041D01*
Y71710D01*
X736581D01*
Y76790D01*
X734041D01*
Y79330D01*
X728960D01*
Y76790D01*
X726421D01*
Y71710D01*
X728960D01*
X718960Y51710D02*
Y49170D01*
X724041D01*
Y51710D01*
X726581D01*
Y56790D01*
X724041D01*
Y59330D01*
X718960D01*
Y56790D01*
X716421D01*
Y51710D01*
X718960D01*
X698960Y491711D02*
Y489171D01*
X704041D01*
Y491711D01*
X706581D01*
Y496791D01*
X704041D01*
Y499331D01*
X698960D01*
Y496791D01*
X696421D01*
Y491711D01*
X698960D01*
X708960Y471711D02*
Y469171D01*
X714041D01*
Y471711D01*
X716581D01*
Y476791D01*
X714041D01*
Y479331D01*
X708960D01*
Y476791D01*
X706421D01*
Y471711D01*
X708960D01*
Y271710D02*
Y269170D01*
X714041D01*
Y271710D01*
X716581D01*
Y276791D01*
X714041D01*
Y279331D01*
X708960D01*
Y276791D01*
X706421D01*
Y271710D01*
X708960D01*
X698960Y251710D02*
Y249170D01*
X704041D01*
Y251710D01*
X706581D01*
Y256791D01*
X704041D01*
Y259331D01*
X698960D01*
Y256791D01*
X696421D01*
Y251710D01*
X698960D01*
X708960Y231710D02*
Y229170D01*
X714041D01*
Y231710D01*
X716581D01*
Y236791D01*
X714041D01*
Y239331D01*
X708960D01*
Y236791D01*
X706421D01*
Y231710D01*
X708960D01*
X678960Y531711D02*
Y529171D01*
X684041D01*
Y531711D01*
X686581D01*
Y536791D01*
X684041D01*
Y539331D01*
X678960D01*
Y536791D01*
X676421D01*
Y531711D01*
X678960D01*
X688960Y511711D02*
Y509171D01*
X694041D01*
Y511711D01*
X696581D01*
Y516791D01*
X694041D01*
Y519331D01*
X688960D01*
Y516791D01*
X686421D01*
Y511711D01*
X688960D01*
X678960Y251710D02*
Y249170D01*
X684041D01*
Y251710D01*
X686581D01*
Y256791D01*
X684041D01*
Y259331D01*
X678960D01*
Y256791D01*
X676421D01*
Y251710D01*
X678960D01*
Y211710D02*
Y209170D01*
X684041D01*
Y211710D01*
X686581D01*
Y216791D01*
X684041D01*
Y219331D01*
X678960D01*
Y216791D01*
X676421D01*
Y211710D01*
X678960D01*
Y131711D02*
Y129171D01*
X684041D01*
Y131711D01*
X686581D01*
Y136791D01*
X684041D01*
Y139331D01*
X678960D01*
Y136791D01*
X676421D01*
Y131711D01*
X678960D01*
X688960Y111710D02*
Y109170D01*
X694041D01*
Y111710D01*
X696581D01*
Y116790D01*
X694041D01*
Y119330D01*
X688960D01*
Y116790D01*
X686421D01*
Y111710D01*
X688960D01*
X678960Y51710D02*
Y49170D01*
X684041D01*
Y51710D01*
X686581D01*
Y56790D01*
X684041D01*
Y59330D01*
X678960D01*
Y56790D01*
X676421D01*
Y51710D01*
X678960D01*
X688960Y31710D02*
Y29170D01*
X694041D01*
Y31710D01*
X696581D01*
Y36790D01*
X694041D01*
Y39330D01*
X688960D01*
Y36790D01*
X686421D01*
Y31710D01*
X688960D01*
X658960Y531711D02*
Y529171D01*
X664041D01*
Y531711D01*
X666581D01*
Y536791D01*
X664041D01*
Y539331D01*
X658960D01*
Y536791D01*
X656421D01*
Y531711D01*
X658960D01*
X668960Y511711D02*
Y509171D01*
X674041D01*
Y511711D01*
X676581D01*
Y516791D01*
X674041D01*
Y519331D01*
X668960D01*
Y516791D01*
X666421D01*
Y511711D01*
X668960D01*
Y471711D02*
Y469171D01*
X674041D01*
Y471711D01*
X676581D01*
Y476791D01*
X674041D01*
Y479331D01*
X668960D01*
Y476791D01*
X666421D01*
Y471711D01*
X668960D01*
Y271710D02*
Y269170D01*
X674041D01*
Y271710D01*
X676581D01*
Y276791D01*
X674041D01*
Y279331D01*
X668960D01*
Y276791D01*
X666421D01*
Y271710D01*
X668960D01*
X658960Y251710D02*
Y249170D01*
X664041D01*
Y251710D01*
X666581D01*
Y256791D01*
X664041D01*
Y259331D01*
X658960D01*
Y256791D01*
X656421D01*
Y251710D01*
X658960D01*
X668960Y231710D02*
Y229170D01*
X674041D01*
Y231710D01*
X676581D01*
Y236791D01*
X674041D01*
Y239331D01*
X668960D01*
Y236791D01*
X666421D01*
Y231710D01*
X668960D01*
Y191710D02*
Y189170D01*
X674041D01*
Y191710D01*
X676581D01*
Y196791D01*
X674041D01*
Y199331D01*
X668960D01*
Y196791D01*
X666421D01*
Y191710D01*
X668960D01*
X658960Y171710D02*
Y169170D01*
X664041D01*
Y171710D01*
X666581D01*
Y176791D01*
X664041D01*
Y179331D01*
X658960D01*
Y176791D01*
X656421D01*
Y171710D01*
X658960D01*
Y131711D02*
Y129171D01*
X664041D01*
Y131711D01*
X666581D01*
Y136791D01*
X664041D01*
Y139331D01*
X658960D01*
Y136791D01*
X656421D01*
Y131711D01*
X658960D01*
X668960Y111710D02*
Y109170D01*
X674041D01*
Y111710D01*
X676581D01*
Y116790D01*
X674041D01*
Y119330D01*
X668960D01*
Y116790D01*
X666421D01*
Y111710D01*
X668960D01*
X658960Y91710D02*
Y89170D01*
X664041D01*
Y91710D01*
X666581D01*
Y96790D01*
X664041D01*
Y99330D01*
X658960D01*
Y96790D01*
X656421D01*
Y91710D01*
X658960D01*
Y51710D02*
Y49170D01*
X664041D01*
Y51710D01*
X666581D01*
Y56790D01*
X664041D01*
Y59330D01*
X658960D01*
Y56790D01*
X656421D01*
Y51710D01*
X658960D01*
X638960Y531711D02*
Y529171D01*
X644041D01*
Y531711D01*
X646581D01*
Y536791D01*
X644041D01*
Y539331D01*
X638960D01*
Y536791D01*
X636421D01*
Y531711D01*
X638960D01*
X648960Y471711D02*
Y469171D01*
X654041D01*
Y471711D01*
X656581D01*
Y476791D01*
X654041D01*
Y479331D01*
X648960D01*
Y476791D01*
X646421D01*
Y471711D01*
X648960D01*
Y271710D02*
Y269170D01*
X654041D01*
Y271710D01*
X656581D01*
Y276791D01*
X654041D01*
Y279331D01*
X648960D01*
Y276791D01*
X646421D01*
Y271710D01*
X648960D01*
Y231710D02*
Y229170D01*
X654041D01*
Y231710D01*
X656581D01*
Y236791D01*
X654041D01*
Y239331D01*
X648960D01*
Y236791D01*
X646421D01*
Y231710D01*
X648960D01*
Y191710D02*
Y189170D01*
X654041D01*
Y191710D01*
X656581D01*
Y196791D01*
X654041D01*
Y199331D01*
X648960D01*
Y196791D01*
X646421D01*
Y191710D01*
X648960D01*
X638960Y171710D02*
Y169170D01*
X644041D01*
Y171710D01*
X646581D01*
Y176791D01*
X644041D01*
Y179331D01*
X638960D01*
Y176791D01*
X636421D01*
Y171710D01*
X638960D01*
X648960Y111710D02*
Y109170D01*
X654041D01*
Y111710D01*
X656581D01*
Y116790D01*
X654041D01*
Y119330D01*
X648960D01*
Y116790D01*
X646421D01*
Y111710D01*
X648960D01*
Y71710D02*
Y69170D01*
X654041D01*
Y71710D01*
X656581D01*
Y76790D01*
X654041D01*
Y79330D01*
X648960D01*
Y76790D01*
X646421D01*
Y71710D01*
X648960D01*
X618960Y531711D02*
Y529171D01*
X624040D01*
Y531711D01*
X626581D01*
Y536791D01*
X624040D01*
Y539331D01*
X618960D01*
Y536791D01*
X616421D01*
Y531711D01*
X618960D01*
X628960Y191710D02*
Y189170D01*
X634040D01*
Y191710D01*
X636581D01*
Y196791D01*
X634040D01*
Y199331D01*
X628960D01*
Y196791D01*
X626421D01*
Y191710D01*
X628960D01*
X598960Y531711D02*
Y529171D01*
X604040D01*
Y531711D01*
X606581D01*
Y536791D01*
X604040D01*
Y539331D01*
X598960D01*
Y536791D01*
X596421D01*
Y531711D01*
X598960D01*
Y211710D02*
Y209170D01*
X604040D01*
Y211710D01*
X606581D01*
Y216791D01*
X604040D01*
Y219331D01*
X598960D01*
Y216791D01*
X596421D01*
Y211710D01*
X598960D01*
X588960Y471711D02*
Y469171D01*
X594040D01*
Y471711D01*
X596581D01*
Y476791D01*
X594040D01*
Y479331D01*
X588960D01*
Y476791D01*
X586421D01*
Y471711D01*
X588960D01*
Y431711D02*
Y429171D01*
X594040D01*
Y431711D01*
X596581D01*
Y436791D01*
X594040D01*
Y439331D01*
X588960D01*
Y436791D01*
X586421D01*
Y431711D01*
X588960D01*
X578960Y331711D02*
Y329171D01*
X584040D01*
Y331711D01*
X586581D01*
Y336791D01*
X584040D01*
Y339331D01*
X578960D01*
Y336791D01*
X576421D01*
Y331711D01*
X578960D01*
X588960Y311711D02*
Y309171D01*
X594040D01*
Y311711D01*
X596581D01*
Y316791D01*
X594040D01*
Y319331D01*
X588960D01*
Y316791D01*
X586421D01*
Y311711D01*
X588960D01*
Y271710D02*
Y269170D01*
X594040D01*
Y271710D01*
X596581D01*
Y276791D01*
X594040D01*
Y279331D01*
X588960D01*
Y276791D01*
X586421D01*
Y271710D01*
X588960D01*
X568960Y511711D02*
Y509171D01*
X574040D01*
Y511711D01*
X576581D01*
Y516791D01*
X574040D01*
Y519331D01*
X568960D01*
Y516791D01*
X566421D01*
Y511711D01*
X568960D01*
Y471711D02*
Y469171D01*
X574040D01*
Y471711D01*
X576581D01*
Y476791D01*
X574040D01*
Y479331D01*
X568960D01*
Y476791D01*
X566421D01*
Y471711D01*
X568960D01*
Y431711D02*
Y429171D01*
X574040D01*
Y431711D01*
X576581D01*
Y436791D01*
X574040D01*
Y439331D01*
X568960D01*
Y436791D01*
X566421D01*
Y431711D01*
X568960D01*
Y391711D02*
Y389171D01*
X574040D01*
Y391711D01*
X576581D01*
Y396791D01*
X574040D01*
Y399331D01*
X568960D01*
Y396791D01*
X566421D01*
Y391711D01*
X568960D01*
Y351711D02*
Y349171D01*
X574040D01*
Y351711D01*
X576581D01*
Y356791D01*
X574040D01*
Y359331D01*
X568960D01*
Y356791D01*
X566421D01*
Y351711D01*
X568960D01*
X558960Y331711D02*
Y329171D01*
X564040D01*
Y331711D01*
X566581D01*
Y336791D01*
X564040D01*
Y339331D01*
X558960D01*
Y336791D01*
X556421D01*
Y331711D01*
X558960D01*
X568960Y311711D02*
Y309171D01*
X574040D01*
Y311711D01*
X576581D01*
Y316791D01*
X574040D01*
Y319331D01*
X568960D01*
Y316791D01*
X566421D01*
Y311711D01*
X568960D01*
X558960Y211710D02*
Y209170D01*
X564040D01*
Y211710D01*
X566581D01*
Y216791D01*
X564040D01*
Y219331D01*
X558960D01*
Y216791D01*
X556421D01*
Y211710D01*
X558960D01*
X538960Y491711D02*
Y489171D01*
X544040D01*
Y491711D01*
X546580D01*
Y496791D01*
X544040D01*
Y499331D01*
X538960D01*
Y496791D01*
X536420D01*
Y491711D01*
X538960D01*
X548960Y351711D02*
Y349171D01*
X554040D01*
Y351711D01*
X556580D01*
Y356791D01*
X554040D01*
Y359331D01*
X548960D01*
Y356791D01*
X546420D01*
Y351711D01*
X548960D01*
Y311711D02*
Y309171D01*
X554040D01*
Y311711D01*
X556580D01*
Y316791D01*
X554040D01*
Y319331D01*
X548960D01*
Y316791D01*
X546420D01*
Y311711D01*
X548960D01*
Y271710D02*
Y269170D01*
X554040D01*
Y271710D01*
X556580D01*
Y276791D01*
X554040D01*
Y279331D01*
X548960D01*
Y276791D01*
X546420D01*
Y271710D01*
X548960D01*
X538960Y251710D02*
Y249170D01*
X544040D01*
Y251710D01*
X546580D01*
Y256791D01*
X544040D01*
Y259331D01*
X538960D01*
Y256791D01*
X536420D01*
Y251710D01*
X538960D01*
Y211710D02*
Y209170D01*
X544040D01*
Y211710D01*
X546580D01*
Y216791D01*
X544040D01*
Y219331D01*
X538960D01*
Y216791D01*
X536420D01*
Y211710D01*
X538960D01*
X548960Y191710D02*
Y189170D01*
X554040D01*
Y191710D01*
X556580D01*
Y196791D01*
X554040D01*
Y199331D01*
X548960D01*
Y196791D01*
X546420D01*
Y191710D01*
X548960D01*
X538960Y51710D02*
Y49170D01*
X544040D01*
Y51710D01*
X546580D01*
Y56790D01*
X544040D01*
Y59330D01*
X538960D01*
Y56790D01*
X536420D01*
Y51710D01*
X538960D01*
X518960Y211710D02*
Y209170D01*
X524040D01*
Y211710D01*
X526580D01*
Y216791D01*
X524040D01*
Y219331D01*
X518960D01*
Y216791D01*
X516420D01*
Y211710D01*
X518960D01*
X528960Y71710D02*
Y69170D01*
X534040D01*
Y71710D01*
X536580D01*
Y76790D01*
X534040D01*
Y79330D01*
X528960D01*
Y76790D01*
X526420D01*
Y71710D01*
X528960D01*
X518960Y51710D02*
Y49170D01*
X524040D01*
Y51710D01*
X526580D01*
Y56790D01*
X524040D01*
Y59330D01*
X518960D01*
Y56790D01*
X516420D01*
Y51710D01*
X518960D01*
X508960Y511711D02*
Y509171D01*
X514040D01*
Y511711D01*
X516580D01*
Y516791D01*
X514040D01*
Y519331D01*
X508960D01*
Y516791D01*
X506420D01*
Y511711D01*
X508960D01*
X498960Y331711D02*
Y329171D01*
X504040D01*
Y331711D01*
X506580D01*
Y336791D01*
X504040D01*
Y339331D01*
X498960D01*
Y336791D01*
X496420D01*
Y331711D01*
X498960D01*
X508960Y311711D02*
Y309171D01*
X514040D01*
Y311711D01*
X516580D01*
Y316791D01*
X514040D01*
Y319331D01*
X508960D01*
Y316791D01*
X506420D01*
Y311711D01*
X508960D01*
X498960Y211710D02*
Y209170D01*
X504040D01*
Y211710D01*
X506580D01*
Y216791D01*
X504040D01*
Y219331D01*
X498960D01*
Y216791D01*
X496420D01*
Y211710D01*
X498960D01*
Y51710D02*
Y49170D01*
X504040D01*
Y51710D01*
X506580D01*
Y56790D01*
X504040D01*
Y59330D01*
X498960D01*
Y56790D01*
X496420D01*
Y51710D01*
X498960D01*
X478960Y371711D02*
Y369171D01*
X484040D01*
Y371711D01*
X486580D01*
Y376791D01*
X484040D01*
Y379331D01*
X478960D01*
Y376791D01*
X476420D01*
Y371711D01*
X478960D01*
X488960Y351711D02*
Y349171D01*
X494040D01*
Y351711D01*
X496580D01*
Y356791D01*
X494040D01*
Y359331D01*
X488960D01*
Y356791D01*
X486420D01*
Y351711D01*
X488960D01*
X478960Y331711D02*
Y329171D01*
X484040D01*
Y331711D01*
X486580D01*
Y336791D01*
X484040D01*
Y339331D01*
X478960D01*
Y336791D01*
X476420D01*
Y331711D01*
X478960D01*
X488960Y311711D02*
Y309171D01*
X494040D01*
Y311711D01*
X496580D01*
Y316791D01*
X494040D01*
Y319331D01*
X488960D01*
Y316791D01*
X486420D01*
Y311711D01*
X488960D01*
X478960Y291710D02*
Y289170D01*
X484040D01*
Y291710D01*
X486580D01*
Y296791D01*
X484040D01*
Y299331D01*
X478960D01*
Y296791D01*
X476420D01*
Y291710D01*
X478960D01*
X488960Y231710D02*
Y229170D01*
X494040D01*
Y231710D01*
X496580D01*
Y236791D01*
X494040D01*
Y239331D01*
X488960D01*
Y236791D01*
X486420D01*
Y231710D01*
X488960D01*
X478960Y211710D02*
Y209170D01*
X484040D01*
Y211710D01*
X486580D01*
Y216791D01*
X484040D01*
Y219331D01*
X478960D01*
Y216791D01*
X476420D01*
Y211710D01*
X478960D01*
X488960Y191710D02*
Y189170D01*
X494040D01*
Y191710D01*
X496580D01*
Y196791D01*
X494040D01*
Y199331D01*
X488960D01*
Y196791D01*
X486420D01*
Y191710D01*
X488960D01*
X458960Y371711D02*
Y369171D01*
X464040D01*
Y371711D01*
X466580D01*
Y376791D01*
X464040D01*
Y379331D01*
X458960D01*
Y376791D01*
X456420D01*
Y371711D01*
X458960D01*
X468960Y351711D02*
Y349171D01*
X474040D01*
Y351711D01*
X476580D01*
Y356791D01*
X474040D01*
Y359331D01*
X468960D01*
Y356791D01*
X466420D01*
Y351711D01*
X468960D01*
X458960Y331711D02*
Y329171D01*
X464040D01*
Y331711D01*
X466580D01*
Y336791D01*
X464040D01*
Y339331D01*
X458960D01*
Y336791D01*
X456420D01*
Y331711D01*
X458960D01*
X468960Y311711D02*
Y309171D01*
X474040D01*
Y311711D01*
X476580D01*
Y316791D01*
X474040D01*
Y319331D01*
X468960D01*
Y316791D01*
X466420D01*
Y311711D01*
X468960D01*
X458960Y291710D02*
Y289170D01*
X464040D01*
Y291710D01*
X466580D01*
Y296791D01*
X464040D01*
Y299331D01*
X458960D01*
Y296791D01*
X456420D01*
Y291710D01*
X458960D01*
X468960Y31710D02*
Y29170D01*
X474040D01*
Y31710D01*
X476580D01*
Y36790D01*
X474040D01*
Y39330D01*
X468960D01*
Y36790D01*
X466420D01*
Y31710D01*
X468960D01*
X438960Y371711D02*
Y369171D01*
X444040D01*
Y371711D01*
X446580D01*
Y376791D01*
X444040D01*
Y379331D01*
X438960D01*
Y376791D01*
X436420D01*
Y371711D01*
X438960D01*
X448960Y351711D02*
Y349171D01*
X454040D01*
Y351711D01*
X456580D01*
Y356791D01*
X454040D01*
Y359331D01*
X448960D01*
Y356791D01*
X446420D01*
Y351711D01*
X448960D01*
X438960Y331711D02*
Y329171D01*
X444040D01*
Y331711D01*
X446580D01*
Y336791D01*
X444040D01*
Y339331D01*
X438960D01*
Y336791D01*
X436420D01*
Y331711D01*
X438960D01*
X448960Y311711D02*
Y309171D01*
X454040D01*
Y311711D01*
X456580D01*
Y316791D01*
X454040D01*
Y319331D01*
X448960D01*
Y316791D01*
X446420D01*
Y311711D01*
X448960D01*
X438960Y291710D02*
Y289170D01*
X444040D01*
Y291710D01*
X446580D01*
Y296791D01*
X444040D01*
Y299331D01*
X438960D01*
Y296791D01*
X436420D01*
Y291710D01*
X438960D01*
Y251710D02*
Y249170D01*
X444040D01*
Y251710D01*
X446580D01*
Y256791D01*
X444040D01*
Y259331D01*
X438960D01*
Y256791D01*
X436420D01*
Y251710D01*
X438960D01*
X428960Y351711D02*
Y349171D01*
X434040D01*
Y351711D01*
X436580D01*
Y356791D01*
X434040D01*
Y359331D01*
X428960D01*
Y356791D01*
X426420D01*
Y351711D01*
X428960D01*
X418960Y331711D02*
Y329171D01*
X424040D01*
Y331711D01*
X426580D01*
Y336791D01*
X424040D01*
Y339331D01*
X418960D01*
Y336791D01*
X416420D01*
Y331711D01*
X418960D01*
X428960Y311711D02*
Y309171D01*
X434040D01*
Y311711D01*
X436580D01*
Y316791D01*
X434040D01*
Y319331D01*
X428960D01*
Y316791D01*
X426420D01*
Y311711D01*
X428960D01*
X378960Y491711D02*
Y489171D01*
X384040D01*
Y491711D01*
X386580D01*
Y496791D01*
X384040D01*
Y499331D01*
X378960D01*
Y496791D01*
X376420D01*
Y491711D01*
X378960D01*
X388960Y431711D02*
Y429171D01*
X394040D01*
Y431711D01*
X396580D01*
Y436791D01*
X394040D01*
Y439331D01*
X388960D01*
Y436791D01*
X386420D01*
Y431711D01*
X388960D01*
X338960Y491711D02*
Y489171D01*
X344040D01*
Y491711D01*
X346580D01*
Y496791D01*
X344040D01*
Y499331D01*
X338960D01*
Y496791D01*
X336420D01*
Y491711D01*
X338960D01*
Y291710D02*
Y289170D01*
X344040D01*
Y291710D01*
X346580D01*
Y296791D01*
X344040D01*
Y299331D01*
X338960D01*
Y296791D01*
X336420D01*
Y291710D01*
X338960D01*
X348960Y191710D02*
Y189170D01*
X354040D01*
Y191710D01*
X356580D01*
Y196791D01*
X354040D01*
Y199331D01*
X348960D01*
Y196791D01*
X346420D01*
Y191710D01*
X348960D01*
X338960Y171710D02*
Y169170D01*
X344040D01*
Y171710D01*
X346580D01*
Y176791D01*
X344040D01*
Y179331D01*
X338960D01*
Y176791D01*
X336420D01*
Y171710D01*
X338960D01*
X328960Y271710D02*
Y269170D01*
X334040D01*
Y271710D01*
X336580D01*
Y276791D01*
X334040D01*
Y279331D01*
X328960D01*
Y276791D01*
X326420D01*
Y271710D01*
X328960D01*
X318960Y211710D02*
Y209170D01*
X324040D01*
Y211710D01*
X326580D01*
Y216791D01*
X324040D01*
Y219331D01*
X318960D01*
Y216791D01*
X316420D01*
Y211710D01*
X318960D01*
Y171710D02*
Y169170D01*
X324040D01*
Y171710D01*
X326580D01*
Y176791D01*
X324040D01*
Y179331D01*
X318960D01*
Y176791D01*
X316420D01*
Y171710D01*
X318960D01*
Y131711D02*
Y129171D01*
X324040D01*
Y131711D01*
X326580D01*
Y136791D01*
X324040D01*
Y139331D01*
X318960D01*
Y136791D01*
X316420D01*
Y131711D01*
X318960D01*
Y91710D02*
Y89170D01*
X324040D01*
Y91710D01*
X326580D01*
Y96790D01*
X324040D01*
Y99330D01*
X318960D01*
Y96790D01*
X316420D01*
Y91710D01*
X318960D01*
Y51710D02*
Y49170D01*
X324040D01*
Y51710D01*
X326580D01*
Y56790D01*
X324040D01*
Y59330D01*
X318960D01*
Y56790D01*
X316420D01*
Y51710D01*
X318960D01*
X298960Y491711D02*
Y489171D01*
X304040D01*
Y491711D01*
X306580D01*
Y496791D01*
X304040D01*
Y499331D01*
X298960D01*
Y496791D01*
X296420D01*
Y491711D01*
X298960D01*
Y211710D02*
Y209170D01*
X304040D01*
Y211710D01*
X306580D01*
Y216791D01*
X304040D01*
Y219331D01*
X298960D01*
Y216791D01*
X296420D01*
Y211710D01*
X298960D01*
Y171710D02*
Y169170D01*
X304040D01*
Y171710D01*
X306580D01*
Y176791D01*
X304040D01*
Y179331D01*
X298960D01*
Y176791D01*
X296420D01*
Y171710D01*
X298960D01*
X308960Y151711D02*
Y149171D01*
X314040D01*
Y151711D01*
X316580D01*
Y156791D01*
X314040D01*
Y159331D01*
X308960D01*
Y156791D01*
X306420D01*
Y151711D01*
X308960D01*
X298960Y131711D02*
Y129171D01*
X304040D01*
Y131711D01*
X306580D01*
Y136791D01*
X304040D01*
Y139331D01*
X298960D01*
Y136791D01*
X296420D01*
Y131711D01*
X298960D01*
X308960Y111710D02*
Y109170D01*
X314040D01*
Y111710D01*
X316580D01*
Y116790D01*
X314040D01*
Y119330D01*
X308960D01*
Y116790D01*
X306420D01*
Y111710D01*
X308960D01*
Y71710D02*
Y69170D01*
X314040D01*
Y71710D01*
X316580D01*
Y76790D01*
X314040D01*
Y79330D01*
X308960D01*
Y76790D01*
X306420D01*
Y71710D01*
X308960D01*
X278960Y371711D02*
Y369171D01*
X284040D01*
Y371711D01*
X286580D01*
Y376791D01*
X284040D01*
Y379331D01*
X278960D01*
Y376791D01*
X276420D01*
Y371711D01*
X278960D01*
X288960Y151711D02*
Y149171D01*
X294040D01*
Y151711D01*
X296580D01*
Y156791D01*
X294040D01*
Y159331D01*
X288960D01*
Y156791D01*
X286420D01*
Y151711D01*
X288960D01*
Y111710D02*
Y109170D01*
X294040D01*
Y111710D01*
X296580D01*
Y116790D01*
X294040D01*
Y119330D01*
X288960D01*
Y116790D01*
X286420D01*
Y111710D01*
X288960D01*
Y71710D02*
Y69170D01*
X294040D01*
Y71710D01*
X296580D01*
Y76790D01*
X294040D01*
Y79330D01*
X288960D01*
Y76790D01*
X286420D01*
Y71710D01*
X288960D01*
X278960Y11710D02*
Y9170D01*
X284040D01*
Y11710D01*
X286580D01*
Y16790D01*
X284040D01*
Y19330D01*
X278960D01*
Y16790D01*
X276420D01*
Y11710D01*
X278960D01*
X258960Y491711D02*
Y489171D01*
X264040D01*
Y491711D01*
X266580D01*
Y496791D01*
X264040D01*
Y499331D01*
X258960D01*
Y496791D01*
X256420D01*
Y491711D01*
X258960D01*
Y291710D02*
Y289170D01*
X264040D01*
Y291710D01*
X266580D01*
Y296791D01*
X264040D01*
Y299331D01*
X258960D01*
Y296791D01*
X256420D01*
Y291710D01*
X258960D01*
Y251710D02*
Y249170D01*
X264040D01*
Y251710D01*
X266580D01*
Y256791D01*
X264040D01*
Y259331D01*
X258960D01*
Y256791D01*
X256420D01*
Y251710D01*
X258960D01*
Y211710D02*
Y209170D01*
X264040D01*
Y211710D01*
X266580D01*
Y216791D01*
X264040D01*
Y219331D01*
X258960D01*
Y216791D01*
X256420D01*
Y211710D01*
X258960D01*
X268960Y111710D02*
Y109170D01*
X274040D01*
Y111710D01*
X276580D01*
Y116790D01*
X274040D01*
Y119330D01*
X268960D01*
Y116790D01*
X266420D01*
Y111710D01*
X268960D01*
X258960Y51710D02*
Y49170D01*
X264040D01*
Y51710D01*
X266580D01*
Y56790D01*
X264040D01*
Y59330D01*
X258960D01*
Y56790D01*
X256420D01*
Y51710D01*
X258960D01*
X268960Y31710D02*
Y29170D01*
X274040D01*
Y31710D01*
X276580D01*
Y36790D01*
X274040D01*
Y39330D01*
X268960D01*
Y36790D01*
X266420D01*
Y31710D01*
X268960D01*
X258960Y11710D02*
Y9170D01*
X264040D01*
Y11710D01*
X266580D01*
Y16790D01*
X264040D01*
Y19330D01*
X258960D01*
Y16790D01*
X256420D01*
Y11710D01*
X258960D01*
X248960Y111710D02*
Y109170D01*
X254040D01*
Y111710D01*
X256580D01*
Y116790D01*
X254040D01*
Y119330D01*
X248960D01*
Y116790D01*
X246420D01*
Y111710D01*
X248960D01*
X238960Y91710D02*
Y89170D01*
X244040D01*
Y91710D01*
X246580D01*
Y96790D01*
X244040D01*
Y99330D01*
X238960D01*
Y96790D01*
X236420D01*
Y91710D01*
X238960D01*
X248960Y71710D02*
Y69170D01*
X254040D01*
Y71710D01*
X256580D01*
Y76790D01*
X254040D01*
Y79330D01*
X248960D01*
Y76790D01*
X246420D01*
Y71710D01*
X248960D01*
X238960Y51710D02*
Y49170D01*
X244040D01*
Y51710D01*
X246580D01*
Y56790D01*
X244040D01*
Y59330D01*
X238960D01*
Y56790D01*
X236420D01*
Y51710D01*
X238960D01*
X248960Y31710D02*
Y29170D01*
X254040D01*
Y31710D01*
X256580D01*
Y36790D01*
X254040D01*
Y39330D01*
X248960D01*
Y36790D01*
X246420D01*
Y31710D01*
X248960D01*
X238960Y11710D02*
Y9170D01*
X244040D01*
Y11710D01*
X246580D01*
Y16790D01*
X244040D01*
Y19330D01*
X238960D01*
Y16790D01*
X236420D01*
Y11710D01*
X238960D01*
X218960Y451711D02*
Y449171D01*
X224040D01*
Y451711D01*
X226580D01*
Y456791D01*
X224040D01*
Y459331D01*
X218960D01*
Y456791D01*
X216420D01*
Y451711D01*
X218960D01*
Y291710D02*
Y289170D01*
X224040D01*
Y291710D01*
X226580D01*
Y296791D01*
X224040D01*
Y299331D01*
X218960D01*
Y296791D01*
X216420D01*
Y291710D01*
X218960D01*
X228960Y191710D02*
Y189170D01*
X234040D01*
Y191710D01*
X236580D01*
Y196791D01*
X234040D01*
Y199331D01*
X228960D01*
Y196791D01*
X226420D01*
Y191710D01*
X228960D01*
X218960Y91710D02*
Y89170D01*
X224040D01*
Y91710D01*
X226580D01*
Y96790D01*
X224040D01*
Y99330D01*
X218960D01*
Y96790D01*
X216420D01*
Y91710D01*
X218960D01*
X228960Y71710D02*
Y69170D01*
X234040D01*
Y71710D01*
X236580D01*
Y76790D01*
X234040D01*
Y79330D01*
X228960D01*
Y76790D01*
X226420D01*
Y71710D01*
X228960D01*
X218960Y51710D02*
Y49170D01*
X224040D01*
Y51710D01*
X226580D01*
Y56790D01*
X224040D01*
Y59330D01*
X218960D01*
Y56790D01*
X216420D01*
Y51710D01*
X218960D01*
X228960Y31710D02*
Y29170D01*
X234040D01*
Y31710D01*
X236580D01*
Y36790D01*
X234040D01*
Y39330D01*
X228960D01*
Y36790D01*
X226420D01*
Y31710D01*
X228960D01*
X218960Y11710D02*
Y9170D01*
X224040D01*
Y11710D01*
X226580D01*
Y16790D01*
X224040D01*
Y19330D01*
X218960D01*
Y16790D01*
X216420D01*
Y11710D01*
X218960D01*
X208960Y231710D02*
Y229170D01*
X214040D01*
Y231710D01*
X216580D01*
Y236791D01*
X214040D01*
Y239331D01*
X208960D01*
Y236791D01*
X206420D01*
Y231710D01*
X208960D01*
Y191710D02*
Y189170D01*
X214040D01*
Y191710D01*
X216580D01*
Y196791D01*
X214040D01*
Y199331D01*
X208960D01*
Y196791D01*
X206420D01*
Y191710D01*
X208960D01*
Y151711D02*
Y149171D01*
X214040D01*
Y151711D01*
X216580D01*
Y156791D01*
X214040D01*
Y159331D01*
X208960D01*
Y156791D01*
X206420D01*
Y151711D01*
X208960D01*
X198960Y131711D02*
Y129171D01*
X204040D01*
Y131711D01*
X206580D01*
Y136791D01*
X204040D01*
Y139331D01*
X198960D01*
Y136791D01*
X196420D01*
Y131711D01*
X198960D01*
X208960Y111710D02*
Y109170D01*
X214040D01*
Y111710D01*
X216580D01*
Y116790D01*
X214040D01*
Y119330D01*
X208960D01*
Y116790D01*
X206420D01*
Y111710D01*
X208960D01*
X198960Y91710D02*
Y89170D01*
X204040D01*
Y91710D01*
X206580D01*
Y96790D01*
X204040D01*
Y99330D01*
X198960D01*
Y96790D01*
X196420D01*
Y91710D01*
X198960D01*
X208960Y71710D02*
Y69170D01*
X214040D01*
Y71710D01*
X216580D01*
Y76790D01*
X214040D01*
Y79330D01*
X208960D01*
Y76790D01*
X206420D01*
Y71710D01*
X208960D01*
X198960Y51710D02*
Y49170D01*
X204040D01*
Y51710D01*
X206580D01*
Y56790D01*
X204040D01*
Y59330D01*
X198960D01*
Y56790D01*
X196420D01*
Y51710D01*
X198960D01*
X208960Y31710D02*
Y29170D01*
X214040D01*
Y31710D01*
X216580D01*
Y36790D01*
X214040D01*
Y39330D01*
X208960D01*
Y36790D01*
X206420D01*
Y31710D01*
X208960D01*
X198960Y11710D02*
Y9170D01*
X204040D01*
Y11710D01*
X206580D01*
Y16790D01*
X204040D01*
Y19330D01*
X198960D01*
Y16790D01*
X196420D01*
Y11710D01*
X198960D01*
X178960Y251710D02*
Y249170D01*
X184040D01*
Y251710D01*
X186580D01*
Y256791D01*
X184040D01*
Y259331D01*
X178960D01*
Y256791D01*
X176420D01*
Y251710D01*
X178960D01*
Y211710D02*
Y209170D01*
X184040D01*
Y211710D01*
X186580D01*
Y216791D01*
X184040D01*
Y219331D01*
X178960D01*
Y216791D01*
X176420D01*
Y211710D01*
X178960D01*
Y131711D02*
Y129171D01*
X184040D01*
Y131711D01*
X186580D01*
Y136791D01*
X184040D01*
Y139331D01*
X178960D01*
Y136791D01*
X176420D01*
Y131711D01*
X178960D01*
X188960Y111710D02*
Y109170D01*
X194040D01*
Y111710D01*
X196580D01*
Y116790D01*
X194040D01*
Y119330D01*
X188960D01*
Y116790D01*
X186420D01*
Y111710D01*
X188960D01*
X178960Y91710D02*
Y89170D01*
X184040D01*
Y91710D01*
X186580D01*
Y96790D01*
X184040D01*
Y99330D01*
X178960D01*
Y96790D01*
X176420D01*
Y91710D01*
X178960D01*
X188960Y71710D02*
Y69170D01*
X194040D01*
Y71710D01*
X196580D01*
Y76790D01*
X194040D01*
Y79330D01*
X188960D01*
Y76790D01*
X186420D01*
Y71710D01*
X188960D01*
X178960Y51710D02*
Y49170D01*
X184040D01*
Y51710D01*
X186580D01*
Y56790D01*
X184040D01*
Y59330D01*
X178960D01*
Y56790D01*
X176420D01*
Y51710D01*
X178960D01*
X188960Y31710D02*
Y29170D01*
X194040D01*
Y31710D01*
X196580D01*
Y36790D01*
X194040D01*
Y39330D01*
X188960D01*
Y36790D01*
X186420D01*
Y31710D01*
X188960D01*
X178960Y11710D02*
Y9170D01*
X184040D01*
Y11710D01*
X186580D01*
Y16790D01*
X184040D01*
Y19330D01*
X178960D01*
Y16790D01*
X176420D01*
Y11710D01*
X178960D01*
X168960Y311711D02*
Y309171D01*
X174040D01*
Y311711D01*
X176580D01*
Y316791D01*
X174040D01*
Y319331D01*
X168960D01*
Y316791D01*
X166420D01*
Y311711D01*
X168960D01*
X158960Y251710D02*
Y249170D01*
X164040D01*
Y251710D01*
X166580D01*
Y256791D01*
X164040D01*
Y259331D01*
X158960D01*
Y256791D01*
X156420D01*
Y251710D01*
X158960D01*
X168960Y231710D02*
Y229170D01*
X174040D01*
Y231710D01*
X176580D01*
Y236791D01*
X174040D01*
Y239331D01*
X168960D01*
Y236791D01*
X166420D01*
Y231710D01*
X168960D01*
X158960Y211710D02*
Y209170D01*
X164040D01*
Y211710D01*
X166580D01*
Y216791D01*
X164040D01*
Y219331D01*
X158960D01*
Y216791D01*
X156420D01*
Y211710D01*
X158960D01*
X168960Y191710D02*
Y189170D01*
X174040D01*
Y191710D01*
X176580D01*
Y196791D01*
X174040D01*
Y199331D01*
X168960D01*
Y196791D01*
X166420D01*
Y191710D01*
X168960D01*
Y151711D02*
Y149171D01*
X174040D01*
Y151711D01*
X176580D01*
Y156791D01*
X174040D01*
Y159331D01*
X168960D01*
Y156791D01*
X166420D01*
Y151711D01*
X168960D01*
X158960Y131711D02*
Y129171D01*
X164040D01*
Y131711D01*
X166580D01*
Y136791D01*
X164040D01*
Y139331D01*
X158960D01*
Y136791D01*
X156420D01*
Y131711D01*
X158960D01*
X168960Y111710D02*
Y109170D01*
X174040D01*
Y111710D01*
X176580D01*
Y116790D01*
X174040D01*
Y119330D01*
X168960D01*
Y116790D01*
X166420D01*
Y111710D01*
X168960D01*
X158960Y91710D02*
Y89170D01*
X164040D01*
Y91710D01*
X166580D01*
Y96790D01*
X164040D01*
Y99330D01*
X158960D01*
Y96790D01*
X156420D01*
Y91710D01*
X158960D01*
X168960Y71710D02*
Y69170D01*
X174040D01*
Y71710D01*
X176580D01*
Y76790D01*
X174040D01*
Y79330D01*
X168960D01*
Y76790D01*
X166420D01*
Y71710D01*
X168960D01*
X158960Y51710D02*
Y49170D01*
X164040D01*
Y51710D01*
X166580D01*
Y56790D01*
X164040D01*
Y59330D01*
X158960D01*
Y56790D01*
X156420D01*
Y51710D01*
X158960D01*
X168960Y31710D02*
Y29170D01*
X174040D01*
Y31710D01*
X176580D01*
Y36790D01*
X174040D01*
Y39330D01*
X168960D01*
Y36790D01*
X166420D01*
Y31710D01*
X168960D01*
X158960Y11710D02*
Y9170D01*
X164040D01*
Y11710D01*
X166580D01*
Y16790D01*
X164040D01*
Y19330D01*
X158960D01*
Y16790D01*
X156420D01*
Y11710D01*
X158960D01*
X138960Y291710D02*
Y289170D01*
X144040D01*
Y291710D01*
X146580D01*
Y296791D01*
X144040D01*
Y299331D01*
X138960D01*
Y296791D01*
X136420D01*
Y291710D01*
X138960D01*
Y251710D02*
Y249170D01*
X144040D01*
Y251710D01*
X146580D01*
Y256791D01*
X144040D01*
Y259331D01*
X138960D01*
Y256791D01*
X136420D01*
Y251710D01*
X138960D01*
X148960Y231710D02*
Y229170D01*
X154040D01*
Y231710D01*
X156580D01*
Y236791D01*
X154040D01*
Y239331D01*
X148960D01*
Y236791D01*
X146420D01*
Y231710D01*
X148960D01*
X138960Y211710D02*
Y209170D01*
X144040D01*
Y211710D01*
X146580D01*
Y216791D01*
X144040D01*
Y219331D01*
X138960D01*
Y216791D01*
X136420D01*
Y211710D01*
X138960D01*
X148960Y191710D02*
Y189170D01*
X154040D01*
Y191710D01*
X156580D01*
Y196791D01*
X154040D01*
Y199331D01*
X148960D01*
Y196791D01*
X146420D01*
Y191710D01*
X148960D01*
Y151711D02*
Y149171D01*
X154040D01*
Y151711D01*
X156580D01*
Y156791D01*
X154040D01*
Y159331D01*
X148960D01*
Y156791D01*
X146420D01*
Y151711D01*
X148960D01*
X138960Y131711D02*
Y129171D01*
X144040D01*
Y131711D01*
X146580D01*
Y136791D01*
X144040D01*
Y139331D01*
X138960D01*
Y136791D01*
X136420D01*
Y131711D01*
X138960D01*
X148960Y111710D02*
Y109170D01*
X154040D01*
Y111710D01*
X156580D01*
Y116790D01*
X154040D01*
Y119330D01*
X148960D01*
Y116790D01*
X146420D01*
Y111710D01*
X148960D01*
X138960Y91710D02*
Y89170D01*
X144040D01*
Y91710D01*
X146580D01*
Y96790D01*
X144040D01*
Y99330D01*
X138960D01*
Y96790D01*
X136420D01*
Y91710D01*
X138960D01*
X148960Y71710D02*
Y69170D01*
X154040D01*
Y71710D01*
X156580D01*
Y76790D01*
X154040D01*
Y79330D01*
X148960D01*
Y76790D01*
X146420D01*
Y71710D01*
X148960D01*
X138960Y51710D02*
Y49170D01*
X144040D01*
Y51710D01*
X146580D01*
Y56790D01*
X144040D01*
Y59330D01*
X138960D01*
Y56790D01*
X136420D01*
Y51710D01*
X138960D01*
X148960Y31710D02*
Y29170D01*
X154040D01*
Y31710D01*
X156580D01*
Y36790D01*
X154040D01*
Y39330D01*
X148960D01*
Y36790D01*
X146420D01*
Y31710D01*
X148960D01*
X138960Y11710D02*
Y9170D01*
X144040D01*
Y11710D01*
X146580D01*
Y16790D01*
X144040D01*
Y19330D01*
X138960D01*
Y16790D01*
X136420D01*
Y11710D01*
X138960D01*
X118960Y451711D02*
Y449171D01*
X124040D01*
Y451711D01*
X126580D01*
Y456791D01*
X124040D01*
Y459331D01*
X118960D01*
Y456791D01*
X116420D01*
Y451711D01*
X118960D01*
Y291710D02*
Y289170D01*
X124040D01*
Y291710D01*
X126580D01*
Y296791D01*
X124040D01*
Y299331D01*
X118960D01*
Y296791D01*
X116420D01*
Y291710D01*
X118960D01*
Y251710D02*
Y249170D01*
X124040D01*
Y251710D01*
X126580D01*
Y256791D01*
X124040D01*
Y259331D01*
X118960D01*
Y256791D01*
X116420D01*
Y251710D01*
X118960D01*
X128960Y231710D02*
Y229170D01*
X134040D01*
Y231710D01*
X136580D01*
Y236791D01*
X134040D01*
Y239331D01*
X128960D01*
Y236791D01*
X126420D01*
Y231710D01*
X128960D01*
X118960Y211710D02*
Y209170D01*
X124040D01*
Y211710D01*
X126580D01*
Y216791D01*
X124040D01*
Y219331D01*
X118960D01*
Y216791D01*
X116420D01*
Y211710D01*
X118960D01*
X128960Y191710D02*
Y189170D01*
X134040D01*
Y191710D01*
X136580D01*
Y196791D01*
X134040D01*
Y199331D01*
X128960D01*
Y196791D01*
X126420D01*
Y191710D01*
X128960D01*
Y111710D02*
Y109170D01*
X134040D01*
Y111710D01*
X136580D01*
Y116790D01*
X134040D01*
Y119330D01*
X128960D01*
Y116790D01*
X126420D01*
Y111710D01*
X128960D01*
X118960Y91710D02*
Y89170D01*
X124040D01*
Y91710D01*
X126580D01*
Y96790D01*
X124040D01*
Y99330D01*
X118960D01*
Y96790D01*
X116420D01*
Y91710D01*
X118960D01*
X128960Y71710D02*
Y69170D01*
X134040D01*
Y71710D01*
X136580D01*
Y76790D01*
X134040D01*
Y79330D01*
X128960D01*
Y76790D01*
X126420D01*
Y71710D01*
X128960D01*
X118960Y51710D02*
Y49170D01*
X124040D01*
Y51710D01*
X126580D01*
Y56790D01*
X124040D01*
Y59330D01*
X118960D01*
Y56790D01*
X116420D01*
Y51710D01*
X118960D01*
X128960Y31710D02*
Y29170D01*
X134040D01*
Y31710D01*
X136580D01*
Y36790D01*
X134040D01*
Y39330D01*
X128960D01*
Y36790D01*
X126420D01*
Y31710D01*
X128960D01*
X118960Y11710D02*
Y9170D01*
X124040D01*
Y11710D01*
X126580D01*
Y16790D01*
X124040D01*
Y19330D01*
X118960D01*
Y16790D01*
X116420D01*
Y11710D01*
X118960D01*
X98960Y451711D02*
Y449171D01*
X104040D01*
Y451711D01*
X106580D01*
Y456791D01*
X104040D01*
Y459331D01*
X98960D01*
Y456791D01*
X96420D01*
Y451711D01*
X98960D01*
X108960Y311711D02*
Y309171D01*
X114040D01*
Y311711D01*
X116580D01*
Y316791D01*
X114040D01*
Y319331D01*
X108960D01*
Y316791D01*
X106420D01*
Y311711D01*
X108960D01*
X98960Y251710D02*
Y249170D01*
X104040D01*
Y251710D01*
X106580D01*
Y256791D01*
X104040D01*
Y259331D01*
X98960D01*
Y256791D01*
X96420D01*
Y251710D01*
X98960D01*
X108960Y231710D02*
Y229170D01*
X114040D01*
Y231710D01*
X116580D01*
Y236791D01*
X114040D01*
Y239331D01*
X108960D01*
Y236791D01*
X106420D01*
Y231710D01*
X108960D01*
X98960Y211710D02*
Y209170D01*
X104040D01*
Y211710D01*
X106580D01*
Y216791D01*
X104040D01*
Y219331D01*
X98960D01*
Y216791D01*
X96420D01*
Y211710D01*
X98960D01*
X108960Y191710D02*
Y189170D01*
X114040D01*
Y191710D01*
X116580D01*
Y196791D01*
X114040D01*
Y199331D01*
X108960D01*
Y196791D01*
X106420D01*
Y191710D01*
X108960D01*
Y111710D02*
Y109170D01*
X114040D01*
Y111710D01*
X116580D01*
Y116790D01*
X114040D01*
Y119330D01*
X108960D01*
Y116790D01*
X106420D01*
Y111710D01*
X108960D01*
X98960Y91710D02*
Y89170D01*
X104040D01*
Y91710D01*
X106580D01*
Y96790D01*
X104040D01*
Y99330D01*
X98960D01*
Y96790D01*
X96420D01*
Y91710D01*
X98960D01*
X108960Y71710D02*
Y69170D01*
X114040D01*
Y71710D01*
X116580D01*
Y76790D01*
X114040D01*
Y79330D01*
X108960D01*
Y76790D01*
X106420D01*
Y71710D01*
X108960D01*
X98960Y51710D02*
Y49170D01*
X104040D01*
Y51710D01*
X106580D01*
Y56790D01*
X104040D01*
Y59330D01*
X98960D01*
Y56790D01*
X96420D01*
Y51710D01*
X98960D01*
X108960Y31710D02*
Y29170D01*
X114040D01*
Y31710D01*
X116580D01*
Y36790D01*
X114040D01*
Y39330D01*
X108960D01*
Y36790D01*
X106420D01*
Y31710D01*
X108960D01*
X98960Y11710D02*
Y9170D01*
X104040D01*
Y11710D01*
X106580D01*
Y16790D01*
X104040D01*
Y19330D01*
X98960D01*
Y16790D01*
X96420D01*
Y11710D01*
X98960D01*
X78960Y451711D02*
Y449171D01*
X84040D01*
Y451711D01*
X86580D01*
Y456791D01*
X84040D01*
Y459331D01*
X78960D01*
Y456791D01*
X76420D01*
Y451711D01*
X78960D01*
X88960Y391711D02*
Y389171D01*
X94040D01*
Y391711D01*
X96580D01*
Y396791D01*
X94040D01*
Y399331D01*
X88960D01*
Y396791D01*
X86420D01*
Y391711D01*
X88960D01*
X78960Y371711D02*
Y369171D01*
X84040D01*
Y371711D01*
X86580D01*
Y376791D01*
X84040D01*
Y379331D01*
X78960D01*
Y376791D01*
X76420D01*
Y371711D01*
X78960D01*
X88960Y351711D02*
Y349171D01*
X94040D01*
Y351711D01*
X96580D01*
Y356791D01*
X94040D01*
Y359331D01*
X88960D01*
Y356791D01*
X86420D01*
Y351711D01*
X88960D01*
Y311711D02*
Y309171D01*
X94040D01*
Y311711D01*
X96580D01*
Y316791D01*
X94040D01*
Y319331D01*
X88960D01*
Y316791D01*
X86420D01*
Y311711D01*
X88960D01*
X78960Y291710D02*
Y289170D01*
X84040D01*
Y291710D01*
X86580D01*
Y296791D01*
X84040D01*
Y299331D01*
X78960D01*
Y296791D01*
X76420D01*
Y291710D01*
X78960D01*
X88960Y271710D02*
Y269170D01*
X94040D01*
Y271710D01*
X96580D01*
Y276791D01*
X94040D01*
Y279331D01*
X88960D01*
Y276791D01*
X86420D01*
Y271710D01*
X88960D01*
X78960Y251710D02*
Y249170D01*
X84040D01*
Y251710D01*
X86580D01*
Y256791D01*
X84040D01*
Y259331D01*
X78960D01*
Y256791D01*
X76420D01*
Y251710D01*
X78960D01*
X88960Y231710D02*
Y229170D01*
X94040D01*
Y231710D01*
X96580D01*
Y236791D01*
X94040D01*
Y239331D01*
X88960D01*
Y236791D01*
X86420D01*
Y231710D01*
X88960D01*
X78960Y211710D02*
Y209170D01*
X84040D01*
Y211710D01*
X86580D01*
Y216791D01*
X84040D01*
Y219331D01*
X78960D01*
Y216791D01*
X76420D01*
Y211710D01*
X78960D01*
X88960Y191710D02*
Y189170D01*
X94040D01*
Y191710D01*
X96580D01*
Y196791D01*
X94040D01*
Y199331D01*
X88960D01*
Y196791D01*
X86420D01*
Y191710D01*
X88960D01*
Y111710D02*
Y109170D01*
X94040D01*
Y111710D01*
X96580D01*
Y116790D01*
X94040D01*
Y119330D01*
X88960D01*
Y116790D01*
X86420D01*
Y111710D01*
X88960D01*
X78960Y91710D02*
Y89170D01*
X84040D01*
Y91710D01*
X86580D01*
Y96790D01*
X84040D01*
Y99330D01*
X78960D01*
Y96790D01*
X76420D01*
Y91710D01*
X78960D01*
X88960Y71710D02*
Y69170D01*
X94040D01*
Y71710D01*
X96580D01*
Y76790D01*
X94040D01*
Y79330D01*
X88960D01*
Y76790D01*
X86420D01*
Y71710D01*
X88960D01*
X78960Y51710D02*
Y49170D01*
X84040D01*
Y51710D01*
X86580D01*
Y56790D01*
X84040D01*
Y59330D01*
X78960D01*
Y56790D01*
X76420D01*
Y51710D01*
X78960D01*
X88960Y31710D02*
Y29170D01*
X94040D01*
Y31710D01*
X96580D01*
Y36790D01*
X94040D01*
Y39330D01*
X88960D01*
Y36790D01*
X86420D01*
Y31710D01*
X88960D01*
X78960Y11710D02*
Y9170D01*
X84040D01*
Y11710D01*
X86580D01*
Y16790D01*
X84040D01*
Y19330D01*
X78960D01*
Y16790D01*
X76420D01*
Y11710D01*
X78960D01*
X58960Y451711D02*
Y449171D01*
X64040D01*
Y451711D01*
X66580D01*
Y456791D01*
X64040D01*
Y459331D01*
X58960D01*
Y456791D01*
X56420D01*
Y451711D01*
X58960D01*
X68960Y391711D02*
Y389171D01*
X74040D01*
Y391711D01*
X76580D01*
Y396791D01*
X74040D01*
Y399331D01*
X68960D01*
Y396791D01*
X66420D01*
Y391711D01*
X68960D01*
X58960Y371711D02*
Y369171D01*
X64040D01*
Y371711D01*
X66580D01*
Y376791D01*
X64040D01*
Y379331D01*
X58960D01*
Y376791D01*
X56420D01*
Y371711D01*
X58960D01*
X68960Y311711D02*
Y309171D01*
X74040D01*
Y311711D01*
X76580D01*
Y316791D01*
X74040D01*
Y319331D01*
X68960D01*
Y316791D01*
X66420D01*
Y311711D01*
X68960D01*
X58960Y291710D02*
Y289170D01*
X64040D01*
Y291710D01*
X66580D01*
Y296791D01*
X64040D01*
Y299331D01*
X58960D01*
Y296791D01*
X56420D01*
Y291710D01*
X58960D01*
X68960Y271710D02*
Y269170D01*
X74040D01*
Y271710D01*
X76580D01*
Y276791D01*
X74040D01*
Y279331D01*
X68960D01*
Y276791D01*
X66420D01*
Y271710D01*
X68960D01*
X58960Y251710D02*
Y249170D01*
X64040D01*
Y251710D01*
X66580D01*
Y256791D01*
X64040D01*
Y259331D01*
X58960D01*
Y256791D01*
X56420D01*
Y251710D01*
X58960D01*
X68960Y231710D02*
Y229170D01*
X74040D01*
Y231710D01*
X76580D01*
Y236791D01*
X74040D01*
Y239331D01*
X68960D01*
Y236791D01*
X66420D01*
Y231710D01*
X68960D01*
X58960Y211710D02*
Y209170D01*
X64040D01*
Y211710D01*
X66580D01*
Y216791D01*
X64040D01*
Y219331D01*
X58960D01*
Y216791D01*
X56420D01*
Y211710D01*
X58960D01*
X68960Y191710D02*
Y189170D01*
X74040D01*
Y191710D01*
X76580D01*
Y196791D01*
X74040D01*
Y199331D01*
X68960D01*
Y196791D01*
X66420D01*
Y191710D01*
X68960D01*
X58960Y171710D02*
Y169170D01*
X64040D01*
Y171710D01*
X66580D01*
Y176791D01*
X64040D01*
Y179331D01*
X58960D01*
Y176791D01*
X56420D01*
Y171710D01*
X58960D01*
Y131711D02*
Y129171D01*
X64040D01*
Y131711D01*
X66580D01*
Y136791D01*
X64040D01*
Y139331D01*
X58960D01*
Y136791D01*
X56420D01*
Y131711D01*
X58960D01*
X68960Y111710D02*
Y109170D01*
X74040D01*
Y111710D01*
X76580D01*
Y116790D01*
X74040D01*
Y119330D01*
X68960D01*
Y116790D01*
X66420D01*
Y111710D01*
X68960D01*
X58960Y91710D02*
Y89170D01*
X64040D01*
Y91710D01*
X66580D01*
Y96790D01*
X64040D01*
Y99330D01*
X58960D01*
Y96790D01*
X56420D01*
Y91710D01*
X58960D01*
X68960Y71710D02*
Y69170D01*
X74040D01*
Y71710D01*
X76580D01*
Y76790D01*
X74040D01*
Y79330D01*
X68960D01*
Y76790D01*
X66420D01*
Y71710D01*
X68960D01*
X58960Y51710D02*
Y49170D01*
X64040D01*
Y51710D01*
X66580D01*
Y56790D01*
X64040D01*
Y59330D01*
X58960D01*
Y56790D01*
X56420D01*
Y51710D01*
X58960D01*
X68960Y31710D02*
Y29170D01*
X74040D01*
Y31710D01*
X76580D01*
Y36790D01*
X74040D01*
Y39330D01*
X68960D01*
Y36790D01*
X66420D01*
Y31710D01*
X68960D01*
X58960Y11710D02*
Y9170D01*
X64040D01*
Y11710D01*
X66580D01*
Y16790D01*
X64040D01*
Y19330D01*
X58960D01*
Y16790D01*
X56420D01*
Y11710D01*
X58960D01*
X38960Y451711D02*
Y449171D01*
X44040D01*
Y451711D01*
X46580D01*
Y456791D01*
X44040D01*
Y459331D01*
X38960D01*
Y456791D01*
X36420D01*
Y451711D01*
X38960D01*
X48960Y431711D02*
Y429171D01*
X54040D01*
Y431711D01*
X56580D01*
Y436791D01*
X54040D01*
Y439331D01*
X48960D01*
Y436791D01*
X46420D01*
Y431711D01*
X48960D01*
X38960Y411711D02*
Y409171D01*
X44040D01*
Y411711D01*
X46580D01*
Y416791D01*
X44040D01*
Y419331D01*
X38960D01*
Y416791D01*
X36420D01*
Y411711D01*
X38960D01*
X48960Y391711D02*
Y389171D01*
X54040D01*
Y391711D01*
X56580D01*
Y396791D01*
X54040D01*
Y399331D01*
X48960D01*
Y396791D01*
X46420D01*
Y391711D01*
X48960D01*
X38960Y371711D02*
Y369171D01*
X44040D01*
Y371711D01*
X46580D01*
Y376791D01*
X44040D01*
Y379331D01*
X38960D01*
Y376791D01*
X36420D01*
Y371711D01*
X38960D01*
X48960Y351711D02*
Y349171D01*
X54040D01*
Y351711D01*
X56580D01*
Y356791D01*
X54040D01*
Y359331D01*
X48960D01*
Y356791D01*
X46420D01*
Y351711D01*
X48960D01*
X38960Y331711D02*
Y329171D01*
X44040D01*
Y331711D01*
X46580D01*
Y336791D01*
X44040D01*
Y339331D01*
X38960D01*
Y336791D01*
X36420D01*
Y331711D01*
X38960D01*
X48960Y311711D02*
Y309171D01*
X54040D01*
Y311711D01*
X56580D01*
Y316791D01*
X54040D01*
Y319331D01*
X48960D01*
Y316791D01*
X46420D01*
Y311711D01*
X48960D01*
X38960Y291710D02*
Y289170D01*
X44040D01*
Y291710D01*
X46580D01*
Y296791D01*
X44040D01*
Y299331D01*
X38960D01*
Y296791D01*
X36420D01*
Y291710D01*
X38960D01*
X48960Y271710D02*
Y269170D01*
X54040D01*
Y271710D01*
X56580D01*
Y276791D01*
X54040D01*
Y279331D01*
X48960D01*
Y276791D01*
X46420D01*
Y271710D01*
X48960D01*
X38960Y251710D02*
Y249170D01*
X44040D01*
Y251710D01*
X46580D01*
Y256791D01*
X44040D01*
Y259331D01*
X38960D01*
Y256791D01*
X36420D01*
Y251710D01*
X38960D01*
X48960Y231710D02*
Y229170D01*
X54040D01*
Y231710D01*
X56580D01*
Y236791D01*
X54040D01*
Y239331D01*
X48960D01*
Y236791D01*
X46420D01*
Y231710D01*
X48960D01*
X38960Y211710D02*
Y209170D01*
X44040D01*
Y211710D01*
X46580D01*
Y216791D01*
X44040D01*
Y219331D01*
X38960D01*
Y216791D01*
X36420D01*
Y211710D01*
X38960D01*
X48960Y191710D02*
Y189170D01*
X54040D01*
Y191710D01*
X56580D01*
Y196791D01*
X54040D01*
Y199331D01*
X48960D01*
Y196791D01*
X46420D01*
Y191710D01*
X48960D01*
X38960Y171710D02*
Y169170D01*
X44040D01*
Y171710D01*
X46580D01*
Y176791D01*
X44040D01*
Y179331D01*
X38960D01*
Y176791D01*
X36420D01*
Y171710D01*
X38960D01*
X48960Y151711D02*
Y149171D01*
X54040D01*
Y151711D01*
X56580D01*
Y156791D01*
X54040D01*
Y159331D01*
X48960D01*
Y156791D01*
X46420D01*
Y151711D01*
X48960D01*
X38960Y131711D02*
Y129171D01*
X44040D01*
Y131711D01*
X46580D01*
Y136791D01*
X44040D01*
Y139331D01*
X38960D01*
Y136791D01*
X36420D01*
Y131711D01*
X38960D01*
X48960Y111710D02*
Y109170D01*
X54040D01*
Y111710D01*
X56580D01*
Y116790D01*
X54040D01*
Y119330D01*
X48960D01*
Y116790D01*
X46420D01*
Y111710D01*
X48960D01*
X38960Y91710D02*
Y89170D01*
X44040D01*
Y91710D01*
X46580D01*
Y96790D01*
X44040D01*
Y99330D01*
X38960D01*
Y96790D01*
X36420D01*
Y91710D01*
X38960D01*
X48960Y71710D02*
Y69170D01*
X54040D01*
Y71710D01*
X56580D01*
Y76790D01*
X54040D01*
Y79330D01*
X48960D01*
Y76790D01*
X46420D01*
Y71710D01*
X48960D01*
X38960Y51710D02*
Y49170D01*
X44040D01*
Y51710D01*
X46580D01*
Y56790D01*
X44040D01*
Y59330D01*
X38960D01*
Y56790D01*
X36420D01*
Y51710D01*
X38960D01*
X18960Y451711D02*
Y449171D01*
X24040D01*
Y451711D01*
X26580D01*
Y456791D01*
X24040D01*
Y459331D01*
X18960D01*
Y456791D01*
X16420D01*
Y451711D01*
X18960D01*
X28960Y431711D02*
Y429171D01*
X34040D01*
Y431711D01*
X36580D01*
Y436791D01*
X34040D01*
Y439331D01*
X28960D01*
Y436791D01*
X26420D01*
Y431711D01*
X28960D01*
X18960Y411711D02*
Y409171D01*
X24040D01*
Y411711D01*
X26580D01*
Y416791D01*
X24040D01*
Y419331D01*
X18960D01*
Y416791D01*
X16420D01*
Y411711D01*
X18960D01*
X28960Y391711D02*
Y389171D01*
X34040D01*
Y391711D01*
X36580D01*
Y396791D01*
X34040D01*
Y399331D01*
X28960D01*
Y396791D01*
X26420D01*
Y391711D01*
X28960D01*
X18960Y371711D02*
Y369171D01*
X24040D01*
Y371711D01*
X26580D01*
Y376791D01*
X24040D01*
Y379331D01*
X18960D01*
Y376791D01*
X16420D01*
Y371711D01*
X18960D01*
X28960Y351711D02*
Y349171D01*
X34040D01*
Y351711D01*
X36580D01*
Y356791D01*
X34040D01*
Y359331D01*
X28960D01*
Y356791D01*
X26420D01*
Y351711D01*
X28960D01*
X18960Y331711D02*
Y329171D01*
X24040D01*
Y331711D01*
X26580D01*
Y336791D01*
X24040D01*
Y339331D01*
X18960D01*
Y336791D01*
X16420D01*
Y331711D01*
X18960D01*
X28960Y311711D02*
Y309171D01*
X34040D01*
Y311711D01*
X36580D01*
Y316791D01*
X34040D01*
Y319331D01*
X28960D01*
Y316791D01*
X26420D01*
Y311711D01*
X28960D01*
X18960Y291710D02*
Y289170D01*
X24040D01*
Y291710D01*
X26580D01*
Y296791D01*
X24040D01*
Y299331D01*
X18960D01*
Y296791D01*
X16420D01*
Y291710D01*
X18960D01*
X28960Y271710D02*
Y269170D01*
X34040D01*
Y271710D01*
X36580D01*
Y276791D01*
X34040D01*
Y279331D01*
X28960D01*
Y276791D01*
X26420D01*
Y271710D01*
X28960D01*
X18960Y251710D02*
Y249170D01*
X24040D01*
Y251710D01*
X26580D01*
Y256791D01*
X24040D01*
Y259331D01*
X18960D01*
Y256791D01*
X16420D01*
Y251710D01*
X18960D01*
X28960Y231710D02*
Y229170D01*
X34040D01*
Y231710D01*
X36580D01*
Y236791D01*
X34040D01*
Y239331D01*
X28960D01*
Y236791D01*
X26420D01*
Y231710D01*
X28960D01*
X18960Y211710D02*
Y209170D01*
X24040D01*
Y211710D01*
X26580D01*
Y216791D01*
X24040D01*
Y219331D01*
X18960D01*
Y216791D01*
X16420D01*
Y211710D01*
X18960D01*
X28960Y191710D02*
Y189170D01*
X34040D01*
Y191710D01*
X36580D01*
Y196791D01*
X34040D01*
Y199331D01*
X28960D01*
Y196791D01*
X26420D01*
Y191710D01*
X28960D01*
X18960Y171710D02*
Y169170D01*
X24040D01*
Y171710D01*
X26580D01*
Y176791D01*
X24040D01*
Y179331D01*
X18960D01*
Y176791D01*
X16420D01*
Y171710D01*
X18960D01*
X28960Y151711D02*
Y149171D01*
X34040D01*
Y151711D01*
X36580D01*
Y156791D01*
X34040D01*
Y159331D01*
X28960D01*
Y156791D01*
X26420D01*
Y151711D01*
X28960D01*
X18960Y131711D02*
Y129171D01*
X24040D01*
Y131711D01*
X26580D01*
Y136791D01*
X24040D01*
Y139331D01*
X18960D01*
Y136791D01*
X16420D01*
Y131711D01*
X18960D01*
X28960Y111710D02*
Y109170D01*
X34040D01*
Y111710D01*
X36580D01*
Y116790D01*
X34040D01*
Y119330D01*
X28960D01*
Y116790D01*
X26420D01*
Y111710D01*
X28960D01*
X18960Y91710D02*
Y89170D01*
X24040D01*
Y91710D01*
X26580D01*
Y96790D01*
X24040D01*
Y99330D01*
X18960D01*
Y96790D01*
X16420D01*
Y91710D01*
X18960D01*
X28960Y71710D02*
Y69170D01*
X34040D01*
Y71710D01*
X36580D01*
Y76790D01*
X34040D01*
Y79330D01*
X28960D01*
Y76790D01*
X26420D01*
Y71710D01*
X28960D01*
X18960Y51710D02*
Y49170D01*
X24040D01*
Y51710D01*
X26580D01*
Y56790D01*
X24040D01*
Y59330D01*
X18960D01*
Y56790D01*
X16420D01*
Y51710D01*
X18960D01*
X309460Y403460D02*
Y400920D01*
X314540D01*
Y403460D01*
X317080D01*
Y408540D01*
X314540D01*
Y411080D01*
X309460D01*
Y408540D01*
X306920D01*
Y403460D01*
X309460D01*
X313460Y422210D02*
Y419670D01*
X318540D01*
Y422210D01*
X321080D01*
Y427290D01*
X318540D01*
Y429830D01*
X313460D01*
Y427290D01*
X310920D01*
Y422210D01*
X313460D01*
X293710Y426977D02*
Y424437D01*
X298790D01*
Y426977D01*
X301330D01*
Y432057D01*
X298790D01*
Y434597D01*
X293710D01*
Y432057D01*
X291170D01*
Y426977D01*
X293710D01*
X369960Y457460D02*
Y454920D01*
X375040D01*
Y457460D01*
X377580D01*
Y462540D01*
X375040D01*
Y465080D01*
X369960D01*
Y462540D01*
X367420D01*
Y457460D01*
X369960D01*
X377460D02*
Y454920D01*
X382540D01*
Y457460D01*
X385080D01*
Y462540D01*
X382540D01*
Y465080D01*
X377460D01*
Y462540D01*
X374920D01*
Y457460D01*
X377460D01*
X256710Y478460D02*
Y475920D01*
X261790D01*
Y478460D01*
X264330D01*
Y483540D01*
X261790D01*
Y486080D01*
X256710D01*
Y483540D01*
X254170D01*
Y478460D01*
X256710D01*
X542710Y393210D02*
Y390670D01*
X547790D01*
Y393210D01*
X550330D01*
Y398290D01*
X547790D01*
Y400830D01*
X542710D01*
Y398290D01*
X540170D01*
Y393210D01*
X542710D01*
X179210Y294210D02*
Y291670D01*
X184290D01*
Y294210D01*
X186830D01*
Y299290D01*
X184290D01*
Y301830D01*
X179210D01*
Y299290D01*
X176670D01*
Y294210D01*
X179210D01*
X479460Y153210D02*
Y150670D01*
X484540D01*
Y153210D01*
X487080D01*
Y158290D01*
X484540D01*
Y160830D01*
X479460D01*
Y158290D01*
X476920D01*
Y153210D01*
X479460D01*
Y145210D02*
Y142670D01*
X484540D01*
Y145210D01*
X487080D01*
Y150290D01*
X484540D01*
Y152830D01*
X479460D01*
Y150290D01*
X476920D01*
Y145210D01*
X479460D01*
Y137210D02*
Y134670D01*
X484540D01*
Y137210D01*
X487080D01*
Y142290D01*
X484540D01*
Y144830D01*
X479460D01*
Y142290D01*
X476920D01*
Y137210D01*
X479460D01*
X348210Y330325D02*
Y327785D01*
X353290D01*
Y330325D01*
X355830D01*
Y335405D01*
X353290D01*
Y337945D01*
X348210D01*
Y335405D01*
X345670D01*
Y330325D01*
X348210D01*
X325210Y347825D02*
Y345285D01*
X330290D01*
Y347825D01*
X332830D01*
Y352905D01*
X330290D01*
Y355445D01*
X325210D01*
Y352905D01*
X322670D01*
Y347825D01*
X325210D01*
X342960Y66460D02*
Y63920D01*
X348040D01*
Y66460D01*
X350580D01*
Y71540D01*
X348040D01*
Y74080D01*
X342960D01*
Y71540D01*
X340420D01*
Y66460D01*
X342960D01*
X382710Y66210D02*
Y63670D01*
X387790D01*
Y66210D01*
X390330D01*
Y71290D01*
X387790D01*
Y73830D01*
X382710D01*
Y71290D01*
X380170D01*
Y66210D01*
X382710D01*
X463460Y65210D02*
Y62670D01*
X468540D01*
Y65210D01*
X471080D01*
Y70290D01*
X468540D01*
Y72830D01*
X463460D01*
Y70290D01*
X460920D01*
Y65210D01*
X463460D01*
X422710Y65710D02*
Y63170D01*
X427790D01*
Y65710D01*
X430330D01*
Y70790D01*
X427790D01*
Y73330D01*
X422710D01*
Y70790D01*
X420170D01*
Y65710D01*
X422710D01*
X365710Y57710D02*
Y55170D01*
X370790D01*
Y57710D01*
X373330D01*
Y62790D01*
X370790D01*
Y65330D01*
X365710D01*
Y62790D01*
X363170D01*
Y57710D01*
X365710D01*
X484960D02*
Y55170D01*
X490040D01*
Y57710D01*
X492580D01*
Y62790D01*
X490040D01*
Y65330D01*
X484960D01*
Y62790D01*
X482420D01*
Y57710D01*
X484960D01*
X405460D02*
Y55170D01*
X410540D01*
Y57710D01*
X413080D01*
Y62790D01*
X410540D01*
Y65330D01*
X405460D01*
Y62790D01*
X402920D01*
Y57710D01*
X405460D01*
X603210Y244710D02*
Y242170D01*
X608290D01*
Y244710D01*
X610830D01*
Y249790D01*
X608290D01*
Y252330D01*
X603210D01*
Y249790D01*
X600670D01*
Y244710D01*
X603210D01*
X478460Y102210D02*
Y99670D01*
X483540D01*
Y102210D01*
X486080D01*
Y107290D01*
X483540D01*
Y109830D01*
X478460D01*
Y107290D01*
X475920D01*
Y102210D01*
X478460D01*
X549210Y458960D02*
Y456420D01*
X554290D01*
Y458960D01*
X556830D01*
Y464040D01*
X554290D01*
Y466580D01*
X549210D01*
Y464040D01*
X546670D01*
Y458960D01*
X549210D01*
X681210Y497060D02*
Y494520D01*
X686290D01*
Y497060D01*
X688830D01*
Y502140D01*
X686290D01*
Y504680D01*
X681210D01*
Y502140D01*
X678670D01*
Y497060D01*
X681210D01*
X628710D02*
Y494520D01*
X633790D01*
Y497060D01*
X636330D01*
Y502140D01*
X633790D01*
Y504680D01*
X628710D01*
Y502140D01*
X626170D01*
Y497060D01*
X628710D01*
X643210Y286460D02*
Y283920D01*
X648290D01*
Y286460D01*
X650830D01*
Y291540D01*
X648290D01*
Y294080D01*
X643210D01*
Y291540D01*
X640670D01*
Y286460D01*
X643210D01*
X636710Y283210D02*
Y280670D01*
X641790D01*
Y283210D01*
X644330D01*
Y288290D01*
X641790D01*
Y290830D01*
X636710D01*
Y288290D01*
X634170D01*
Y283210D01*
X636710D01*
X201960Y504710D02*
Y502170D01*
X207040D01*
Y504710D01*
X209580D01*
Y509790D01*
X207040D01*
Y512330D01*
X201960D01*
Y509790D01*
X199420D01*
Y504710D01*
X201960D01*
X192960D02*
Y502170D01*
X198040D01*
Y504710D01*
X200580D01*
Y509790D01*
X198040D01*
Y512330D01*
X192960D01*
Y509790D01*
X190420D01*
Y504710D01*
X192960D01*
X161960Y504710D02*
Y502170D01*
X167040D01*
Y504710D01*
X169580D01*
Y509790D01*
X167040D01*
Y512330D01*
X161960D01*
Y509790D01*
X159420D01*
Y504710D01*
X161960D01*
X152960D02*
Y502170D01*
X158040D01*
Y504710D01*
X160580D01*
Y509790D01*
X158040D01*
Y512330D01*
X152960D01*
Y509790D01*
X150420D01*
Y504710D01*
X152960D01*
X509460Y427710D02*
Y425170D01*
X514540D01*
Y427710D01*
X517080D01*
Y432790D01*
X514540D01*
Y435330D01*
X509460D01*
Y432790D01*
X506920D01*
Y427710D01*
X509460D01*
X497210D02*
Y425170D01*
X502290D01*
Y427710D01*
X504830D01*
Y432790D01*
X502290D01*
Y435330D01*
X497210D01*
Y432790D01*
X494670D01*
Y427710D01*
X497210D01*
X98710Y267210D02*
Y264670D01*
X103790D01*
Y267210D01*
X106330D01*
Y272290D01*
X103790D01*
Y274830D01*
X98710D01*
Y272290D01*
X96170D01*
Y267210D01*
X98710D01*
X422210Y432460D02*
Y429920D01*
X427290D01*
Y432460D01*
X429830D01*
Y437540D01*
X427290D01*
Y440080D01*
X422210D01*
Y437540D01*
X419670D01*
Y432460D01*
X422210D01*
X417210Y427460D02*
Y424920D01*
X422290D01*
Y427460D01*
X424830D01*
Y432540D01*
X422290D01*
Y435080D01*
X417210D01*
Y432540D01*
X414670D01*
Y427460D01*
X417210D01*
X446210Y432960D02*
Y430420D01*
X451290D01*
Y432960D01*
X453830D01*
Y438040D01*
X451290D01*
Y440580D01*
X446210D01*
Y438040D01*
X443670D01*
Y432960D01*
X446210D01*
X477660Y457960D02*
Y455420D01*
X482740D01*
Y457960D01*
X485280D01*
Y463040D01*
X482740D01*
Y465580D01*
X477660D01*
Y463040D01*
X475120D01*
Y457960D01*
X477660D01*
X426860D02*
Y455420D01*
X431940D01*
Y457960D01*
X434480D01*
Y463040D01*
X431940D01*
Y465580D01*
X426860D01*
Y463040D01*
X424320D01*
Y457960D01*
X426860D01*
X464960Y498260D02*
Y495720D01*
X470040D01*
Y498260D01*
X472580D01*
Y503340D01*
X470040D01*
Y505880D01*
X464960D01*
Y503340D01*
X462420D01*
Y498260D01*
X464960D01*
Y457960D02*
Y455420D01*
X470040D01*
Y457960D01*
X472580D01*
Y463040D01*
X470040D01*
Y465580D01*
X464960D01*
Y463040D01*
X462420D01*
Y457960D01*
X464960D01*
X452260D02*
Y455420D01*
X457340D01*
Y457960D01*
X459880D01*
Y463040D01*
X457340D01*
Y465580D01*
X452260D01*
Y463040D01*
X449720D01*
Y457960D01*
X452260D01*
X477660Y498260D02*
Y495720D01*
X482740D01*
Y498260D01*
X485280D01*
Y503340D01*
X482740D01*
Y505880D01*
X477660D01*
Y503340D01*
X475120D01*
Y498260D01*
X477660D01*
X452260D02*
Y495720D01*
X457340D01*
Y498260D01*
X459880D01*
Y503340D01*
X457340D01*
Y505880D01*
X452260D01*
Y503340D01*
X449720D01*
Y498260D01*
X452260D01*
X437960Y189960D02*
Y187420D01*
X443040D01*
Y189960D01*
X445580D01*
Y195040D01*
X443040D01*
Y197580D01*
X437960D01*
Y195040D01*
X435420D01*
Y189960D01*
X437960D01*
X448210D02*
Y187420D01*
X453290D01*
Y189960D01*
X455830D01*
Y195040D01*
X453290D01*
Y197580D01*
X448210D01*
Y195040D01*
X445670D01*
Y189960D01*
X448210D01*
X124105Y475210D02*
Y472670D01*
X129185D01*
Y475210D01*
X131725D01*
Y480290D01*
X129185D01*
Y482830D01*
X124105D01*
Y480290D01*
X121565D01*
Y475210D01*
X124105D01*
X110855D02*
Y472670D01*
X115935D01*
Y475210D01*
X118475D01*
Y480290D01*
X115935D01*
Y482830D01*
X110855D01*
Y480290D01*
X108315D01*
Y475210D01*
X110855D01*
X300460Y312075D02*
Y309535D01*
X305540D01*
Y312075D01*
X308080D01*
Y317155D01*
X305540D01*
Y319695D01*
X300460D01*
Y317155D01*
X297920D01*
Y312075D01*
X300460D01*
X273210Y222710D02*
Y220170D01*
X278290D01*
Y222710D01*
X280830D01*
Y227790D01*
X278290D01*
Y230330D01*
X273210D01*
Y227790D01*
X270670D01*
Y222710D01*
X273210D01*
X269710Y166710D02*
Y164170D01*
X274790D01*
Y166710D01*
X277330D01*
Y171790D01*
X274790D01*
Y174330D01*
X269710D01*
Y171790D01*
X267170D01*
Y166710D01*
X269710D01*
X270210Y193460D02*
Y190920D01*
X275290D01*
Y193460D01*
X277830D01*
Y198540D01*
X275290D01*
Y201080D01*
X270210D01*
Y198540D01*
X267670D01*
Y193460D01*
X270210D01*
X305960Y197460D02*
Y194920D01*
X311040D01*
Y197460D01*
X313580D01*
Y202540D01*
X311040D01*
Y205080D01*
X305960D01*
Y202540D01*
X303420D01*
Y197460D01*
X305960D01*
X298710Y398460D02*
Y395920D01*
X303790D01*
Y398460D01*
X306330D01*
Y403540D01*
X303790D01*
Y406080D01*
X298710D01*
Y403540D01*
X296170D01*
Y398460D01*
X298710D01*
X254960Y437460D02*
Y434920D01*
X260040D01*
Y437460D01*
X262580D01*
Y442540D01*
X260040D01*
Y445080D01*
X254960D01*
Y442540D01*
X252420D01*
Y437460D01*
X254960D01*
X249960Y447460D02*
Y444920D01*
X255040D01*
Y447460D01*
X257580D01*
Y452540D01*
X255040D01*
Y455080D01*
X249960D01*
Y452540D01*
X247420D01*
Y447460D01*
X249960D01*
X226960D02*
Y444920D01*
X232040D01*
Y447460D01*
X234580D01*
Y452540D01*
X232040D01*
Y455080D01*
X226960D01*
Y452540D01*
X224420D01*
Y447460D01*
X226960D01*
X235960Y384710D02*
Y382170D01*
X241040D01*
Y384710D01*
X243580D01*
Y389790D01*
X241040D01*
Y392330D01*
X235960D01*
Y389790D01*
X233420D01*
Y384710D01*
X235960D01*
X264960Y437460D02*
Y434920D01*
X270040D01*
Y437460D01*
X272580D01*
Y442540D01*
X270040D01*
Y445080D01*
X264960D01*
Y442540D01*
X262420D01*
Y437460D01*
X264960D01*
X274960D02*
Y434920D01*
X280040D01*
Y437460D01*
X282580D01*
Y442540D01*
X280040D01*
Y445080D01*
X274960D01*
Y442540D01*
X272420D01*
Y437460D01*
X274960D01*
X354960Y427460D02*
Y424920D01*
X360040D01*
Y427460D01*
X362580D01*
Y432540D01*
X360040D01*
Y435080D01*
X354960D01*
Y432540D01*
X352420D01*
Y427460D01*
X354960D01*
X362460D02*
Y424920D01*
X367540D01*
Y427460D01*
X370080D01*
Y432540D01*
X367540D01*
Y435080D01*
X362460D01*
Y432540D01*
X359920D01*
Y427460D01*
X362460D01*
X269960Y447460D02*
Y444920D01*
X275040D01*
Y447460D01*
X277580D01*
Y452540D01*
X275040D01*
Y455080D01*
X269960D01*
Y452540D01*
X267420D01*
Y447460D01*
X269960D01*
X298710Y410460D02*
Y407920D01*
X303790D01*
Y410460D01*
X306330D01*
Y415540D01*
X303790D01*
Y418080D01*
X298710D01*
Y415540D01*
X296170D01*
Y410460D01*
X298710D01*
X272960Y484460D02*
Y481920D01*
X278040D01*
Y484460D01*
X280580D01*
Y489540D01*
X278040D01*
Y492080D01*
X272960D01*
Y489540D01*
X270420D01*
Y484460D01*
X272960D01*
X330460Y470460D02*
Y467920D01*
X335540D01*
Y470460D01*
X338080D01*
Y475540D01*
X335540D01*
Y478080D01*
X330460D01*
Y475540D01*
X327920D01*
Y470460D01*
X330460D01*
X72960Y504710D02*
Y502170D01*
X78040D01*
Y504710D01*
X80580D01*
Y509790D01*
X78040D01*
Y512330D01*
X72960D01*
Y509790D01*
X70420D01*
Y504710D01*
X72960D01*
X81960D02*
Y502170D01*
X87040D01*
Y504710D01*
X89580D01*
Y509790D01*
X87040D01*
Y512330D01*
X81960D01*
Y509790D01*
X79420D01*
Y504710D01*
X81960D01*
X112960Y504710D02*
Y502170D01*
X118040D01*
Y504710D01*
X120580D01*
Y509790D01*
X118040D01*
Y512330D01*
X112960D01*
Y509790D01*
X110420D01*
Y504710D01*
X112960D01*
X121960D02*
Y502170D01*
X127040D01*
Y504710D01*
X129580D01*
Y509790D01*
X127040D01*
Y512330D01*
X121960D01*
Y509790D01*
X119420D01*
Y504710D01*
X121960D01*
X631210Y234460D02*
Y231920D01*
X636290D01*
Y234460D01*
X638830D01*
Y239540D01*
X636290D01*
Y242080D01*
X631210D01*
Y239540D01*
X628670D01*
Y234460D01*
X631210D01*
X611710Y362460D02*
Y359920D01*
X616790D01*
Y362460D01*
X619330D01*
Y367540D01*
X616790D01*
Y370080D01*
X611710D01*
Y367540D01*
X609170D01*
Y362460D01*
X611710D01*
X507460Y349960D02*
Y347420D01*
X512540D01*
Y349960D01*
X515080D01*
Y355040D01*
X512540D01*
Y357580D01*
X507460D01*
Y355040D01*
X504920D01*
Y349960D01*
X507460D01*
X636210Y342941D02*
Y340401D01*
X641290D01*
Y342941D01*
X643830D01*
Y348021D01*
X641290D01*
Y350561D01*
X636210D01*
Y348021D01*
X633670D01*
Y342941D01*
X636210D01*
X620460Y362460D02*
Y359920D01*
X625540D01*
Y362460D01*
X628080D01*
Y367540D01*
X625540D01*
Y370080D01*
X620460D01*
Y367540D01*
X617920D01*
Y362460D01*
X620460D01*
X507460Y364960D02*
Y362420D01*
X512540D01*
Y364960D01*
X515080D01*
Y370040D01*
X512540D01*
Y372580D01*
X507460D01*
Y370040D01*
X504920D01*
Y364960D01*
X507460D01*
Y357460D02*
Y354920D01*
X512540D01*
Y357460D01*
X515080D01*
Y362540D01*
X512540D01*
Y365080D01*
X507460D01*
Y362540D01*
X504920D01*
Y357460D01*
X507460D01*
Y342460D02*
Y339920D01*
X512540D01*
Y342460D01*
X515080D01*
Y347540D01*
X512540D01*
Y350080D01*
X507460D01*
Y347540D01*
X504920D01*
Y342460D01*
X507460D01*
X279960Y289710D02*
Y287170D01*
X285040D01*
Y289710D01*
X287580D01*
Y294790D01*
X285040D01*
Y297330D01*
X279960D01*
Y294790D01*
X277420D01*
Y289710D01*
X279960D01*
X631210Y242460D02*
Y239920D01*
X636290D01*
Y242460D01*
X638830D01*
Y247540D01*
X636290D01*
Y250080D01*
X631210D01*
Y247540D01*
X628670D01*
Y242460D01*
X631210D01*
Y222460D02*
Y219920D01*
X636290D01*
Y222460D01*
X638830D01*
Y227540D01*
X636290D01*
Y230080D01*
X631210D01*
Y227540D01*
X628670D01*
Y222460D01*
X631210D01*
X597460Y228461D02*
Y225921D01*
X602540D01*
Y228461D01*
X605080D01*
Y233541D01*
X602540D01*
Y236081D01*
X597460D01*
Y233541D01*
X594920D01*
Y228461D01*
X597460D01*
X540710Y271710D02*
Y269170D01*
X545790D01*
Y271710D01*
X548330D01*
Y276790D01*
X545790D01*
Y279330D01*
X540710D01*
Y276790D01*
X538170D01*
Y271710D01*
X540710D01*
X572460Y212460D02*
Y209920D01*
X577540D01*
Y212460D01*
X580080D01*
Y217540D01*
X577540D01*
Y220080D01*
X572460D01*
Y217540D01*
X569920D01*
Y212460D01*
X572460D01*
X531460Y165710D02*
Y163170D01*
X536540D01*
Y165710D01*
X539080D01*
Y170790D01*
X536540D01*
Y173330D01*
X531460D01*
Y170790D01*
X528920D01*
Y165710D01*
X531460D01*
X508460Y165960D02*
Y163420D01*
X513540D01*
Y165960D01*
X516080D01*
Y171040D01*
X513540D01*
Y173580D01*
X508460D01*
Y171040D01*
X505920D01*
Y165960D01*
X508460D01*
X519960Y158210D02*
Y155670D01*
X525040D01*
Y158210D01*
X527580D01*
Y163290D01*
X525040D01*
Y165830D01*
X519960D01*
Y163290D01*
X517420D01*
Y158210D01*
X519960D01*
X438038Y102444D02*
Y99904D01*
X443118D01*
Y102444D01*
X445658D01*
Y107524D01*
X443118D01*
Y110064D01*
X438038D01*
Y107524D01*
X435498D01*
Y102444D01*
X438038D01*
X384210Y113960D02*
Y111420D01*
X389290D01*
Y113960D01*
X391830D01*
Y119040D01*
X389290D01*
Y121580D01*
X384210D01*
Y119040D01*
X381670D01*
Y113960D01*
X384210D01*
X397665Y102476D02*
Y99936D01*
X402745D01*
Y102476D01*
X405285D01*
Y107556D01*
X402745D01*
Y110096D01*
X397665D01*
Y107556D01*
X395125D01*
Y102476D01*
X397665D01*
X397210Y113960D02*
Y111420D01*
X402290D01*
Y113960D01*
X404830D01*
Y119040D01*
X402290D01*
Y121580D01*
X397210D01*
Y119040D01*
X394670D01*
Y113960D01*
X397210D01*
X424460D02*
Y111420D01*
X429540D01*
Y113960D01*
X432080D01*
Y119040D01*
X429540D01*
Y121580D01*
X424460D01*
Y119040D01*
X421920D01*
Y113960D01*
X424460D01*
X437460D02*
Y111420D01*
X442540D01*
Y113960D01*
X445080D01*
Y119040D01*
X442540D01*
Y121580D01*
X437460D01*
Y119040D01*
X434920D01*
Y113960D01*
X437460D01*
X477710D02*
Y111420D01*
X482790D01*
Y113960D01*
X485330D01*
Y119040D01*
X482790D01*
Y121580D01*
X477710D01*
Y119040D01*
X475170D01*
Y113960D01*
X477710D01*
X464710D02*
Y111420D01*
X469790D01*
Y113960D01*
X472330D01*
Y119040D01*
X469790D01*
Y121580D01*
X464710D01*
Y119040D01*
X462170D01*
Y113960D01*
X464710D01*
X437960Y179960D02*
Y177420D01*
X443040D01*
Y179960D01*
X445580D01*
Y185040D01*
X443040D01*
Y187580D01*
X437960D01*
Y185040D01*
X435420D01*
Y179960D01*
X437960D01*
X443960Y65905D02*
Y63365D01*
X449040D01*
Y65905D01*
X451580D01*
Y70985D01*
X449040D01*
Y73525D01*
X443960D01*
Y70985D01*
X441420D01*
Y65905D01*
X443960D01*
X484210Y65960D02*
Y63420D01*
X489290D01*
Y65960D01*
X491830D01*
Y71040D01*
X489290D01*
Y73580D01*
X484210D01*
Y71040D01*
X481670D01*
Y65960D01*
X484210D01*
X403710D02*
Y63420D01*
X408790D01*
Y65960D01*
X411330D01*
Y71040D01*
X408790D01*
Y73580D01*
X403710D01*
Y71040D01*
X401170D01*
Y65960D01*
X403710D01*
X363710Y65960D02*
Y63420D01*
X368790D01*
Y65960D01*
X371330D01*
Y71040D01*
X368790D01*
Y73580D01*
X363710D01*
Y71040D01*
X361170D01*
Y65960D01*
X363710D01*
X357210Y102210D02*
Y99670D01*
X362290D01*
Y102210D01*
X364830D01*
Y107290D01*
X362290D01*
Y109830D01*
X357210D01*
Y107290D01*
X354670D01*
Y102210D01*
X357210D01*
X357210Y113960D02*
Y111420D01*
X362290D01*
Y113960D01*
X364830D01*
Y119040D01*
X362290D01*
Y121580D01*
X357210D01*
Y119040D01*
X354670D01*
Y113960D01*
X357210D01*
X344210D02*
Y111420D01*
X349290D01*
Y113960D01*
X351830D01*
Y119040D01*
X349290D01*
Y121580D01*
X344210D01*
Y119040D01*
X341670D01*
Y113960D01*
X344210D01*
X636210Y320941D02*
Y318401D01*
X641290D01*
Y320941D01*
X643830D01*
Y326021D01*
X641290D01*
Y328561D01*
X636210D01*
Y326021D01*
X633670D01*
Y320941D01*
X636210D01*
Y364941D02*
Y362401D01*
X641290D01*
Y364941D01*
X643830D01*
Y370021D01*
X641290D01*
Y372561D01*
X636210D01*
Y370021D01*
X633670D01*
Y364941D01*
X636210D01*
Y386941D02*
Y384401D01*
X641290D01*
Y386941D01*
X643830D01*
Y392021D01*
X641290D01*
Y394561D01*
X636210D01*
Y392021D01*
X633670D01*
Y386941D01*
X636210D01*
Y353941D02*
Y351401D01*
X641290D01*
Y353941D01*
X643830D01*
Y359021D01*
X641290D01*
Y361561D01*
X636210D01*
Y359021D01*
X633670D01*
Y353941D01*
X636210D01*
X344010Y374361D02*
Y371820D01*
X349090D01*
Y374361D01*
X351630D01*
Y379440D01*
X349090D01*
Y381981D01*
X344010D01*
Y379440D01*
X341470D01*
Y374361D01*
X344010D01*
Y388360D02*
Y385821D01*
X349090D01*
Y388360D01*
X351630D01*
Y393441D01*
X349090D01*
Y395980D01*
X344010D01*
Y393441D01*
X341470D01*
Y388360D01*
X344010D01*
X325210Y330325D02*
Y327785D01*
X330290D01*
Y330325D01*
X332830D01*
Y335405D01*
X330290D01*
Y337945D01*
X325210D01*
Y335405D01*
X322670D01*
Y330325D01*
X325210D01*
X348210Y347825D02*
Y345285D01*
X353290D01*
Y347825D01*
X355830D01*
Y352905D01*
X353290D01*
Y355445D01*
X348210D01*
Y352905D01*
X345670D01*
Y347825D01*
X348210D01*
X208110Y347628D02*
Y345088D01*
X213190D01*
Y347628D01*
X215730D01*
Y352708D01*
X213190D01*
Y355248D01*
X208110D01*
Y352708D01*
X205570D01*
Y347628D01*
X208110D01*
X241960Y488710D02*
Y486170D01*
X247040D01*
Y488710D01*
X249580D01*
Y493790D01*
X247040D01*
Y496330D01*
X241960D01*
Y493790D01*
X239420D01*
Y488710D01*
X241960D01*
X112960D02*
Y486170D01*
X118040D01*
Y488710D01*
X120580D01*
Y493790D01*
X118040D01*
Y496330D01*
X112960D01*
Y493790D01*
X110420D01*
Y488710D01*
X112960D01*
X232960D02*
Y486170D01*
X238040D01*
Y488710D01*
X240580D01*
Y493790D01*
X238040D01*
Y496330D01*
X232960D01*
Y493790D01*
X230420D01*
Y488710D01*
X232960D01*
X192960D02*
Y486170D01*
X198040D01*
Y488710D01*
X200580D01*
Y493790D01*
X198040D01*
Y496330D01*
X192960D01*
Y493790D01*
X190420D01*
Y488710D01*
X192960D01*
X121960D02*
Y486170D01*
X127040D01*
Y488710D01*
X129580D01*
Y493790D01*
X127040D01*
Y496330D01*
X121960D01*
Y493790D01*
X119420D01*
Y488710D01*
X121960D01*
X161960Y488710D02*
Y486170D01*
X167040D01*
Y488710D01*
X169580D01*
Y493790D01*
X167040D01*
Y496330D01*
X161960D01*
Y493790D01*
X159420D01*
Y488710D01*
X161960D01*
X152960D02*
Y486170D01*
X158040D01*
Y488710D01*
X160580D01*
Y493790D01*
X158040D01*
Y496330D01*
X152960D01*
Y493790D01*
X150420D01*
Y488710D01*
X152960D01*
X201960Y488710D02*
Y486170D01*
X207040D01*
Y488710D01*
X209580D01*
Y493790D01*
X207040D01*
Y496330D01*
X201960D01*
Y493790D01*
X199420D01*
Y488710D01*
X201960D01*
X317460Y470460D02*
Y467920D01*
X322540D01*
Y470460D01*
X325080D01*
Y475540D01*
X322540D01*
Y478080D01*
X317460D01*
Y475540D01*
X314920D01*
Y470460D01*
X317460D01*
X357460D02*
Y467920D01*
X362540D01*
Y470460D01*
X365080D01*
Y475540D01*
X362540D01*
Y478080D01*
X357460D01*
Y475540D01*
X354920D01*
Y470460D01*
X357460D01*
X81960Y488710D02*
Y486170D01*
X87040D01*
Y488710D01*
X89580D01*
Y493790D01*
X87040D01*
Y496330D01*
X81960D01*
Y493790D01*
X79420D01*
Y488710D01*
X81960D01*
X277460Y502960D02*
Y500420D01*
X282540D01*
Y502960D01*
X285080D01*
Y508040D01*
X282540D01*
Y510580D01*
X277460D01*
Y508040D01*
X274920D01*
Y502960D01*
X277460D01*
X317460D02*
Y500420D01*
X322540D01*
Y502960D01*
X325080D01*
Y508040D01*
X322540D01*
Y510580D01*
X317460D01*
Y508040D01*
X314920D01*
Y502960D01*
X317460D01*
X357460D02*
Y500420D01*
X362540D01*
Y502960D01*
X365080D01*
Y508040D01*
X362540D01*
Y510580D01*
X357460D01*
Y508040D01*
X354920D01*
Y502960D01*
X357460D01*
X72960Y488710D02*
Y486170D01*
X78040D01*
Y488710D01*
X80580D01*
Y493790D01*
X78040D01*
Y496330D01*
X72960D01*
Y493790D01*
X70420D01*
Y488710D01*
X72960D01*
X24920Y514920D02*
X27460D01*
X30000Y517460D01*
X32540Y514920D01*
X35080D01*
Y517460D01*
X32540Y520000D01*
X35080Y522540D01*
Y525080D01*
X32540D01*
X30000Y522540D01*
X27460Y525080D01*
X24920D01*
Y522540D01*
X27460Y520000D01*
X24920Y517460D01*
Y514920D01*
X437960Y208460D02*
Y205920D01*
X443040D01*
Y208460D01*
X445580D01*
Y213540D01*
X443040D01*
Y216080D01*
X437960D01*
Y213540D01*
X435420D01*
Y208460D01*
X437960D01*
X444460Y233960D02*
Y231420D01*
X449540D01*
Y233960D01*
X452080D01*
Y239040D01*
X449540D01*
Y241580D01*
X444460D01*
Y239040D01*
X441920D01*
Y233960D01*
X444460D01*
X349710Y222960D02*
Y220420D01*
X354790D01*
Y222960D01*
X357330D01*
Y228040D01*
X354790D01*
Y230580D01*
X349710D01*
Y228040D01*
X347170D01*
Y222960D01*
X349710D01*
X341210Y312075D02*
Y309535D01*
X346290D01*
Y312075D01*
X348830D01*
Y317155D01*
X346290D01*
Y319695D01*
X341210D01*
Y317155D01*
X338670D01*
Y312075D01*
X341210D01*
X545710Y232960D02*
Y230420D01*
X550790D01*
Y232960D01*
X553330D01*
Y238040D01*
X550790D01*
Y240580D01*
X545710D01*
Y238040D01*
X543170D01*
Y232960D01*
X545710D01*
X569210Y231210D02*
Y228670D01*
X574290D01*
Y231210D01*
X576830D01*
Y236290D01*
X574290D01*
Y238830D01*
X569210D01*
Y236290D01*
X566670D01*
Y231210D01*
X569210D01*
X397210Y397190D02*
Y394650D01*
X402290D01*
Y397190D01*
X404830D01*
Y402270D01*
X402290D01*
Y404810D01*
X397210D01*
Y402270D01*
X394670D01*
Y397190D01*
X397210D01*
X398210Y277210D02*
Y274670D01*
X403290D01*
Y277210D01*
X405830D01*
Y282290D01*
X403290D01*
Y284830D01*
X398210D01*
Y282290D01*
X395670D01*
Y277210D01*
X398210D01*
X398230Y293210D02*
Y290670D01*
X403310D01*
Y293210D01*
X405850D01*
Y298290D01*
X403310D01*
Y300830D01*
X398230D01*
Y298290D01*
X395690D01*
Y293210D01*
X398230D01*
Y308210D02*
Y305670D01*
X403310D01*
Y308210D01*
X405850D01*
Y313290D01*
X403310D01*
Y315830D01*
X398230D01*
Y313290D01*
X395690D01*
Y308210D01*
X398230D01*
Y348210D02*
Y345670D01*
X403310D01*
Y348210D01*
X405850D01*
Y353290D01*
X403310D01*
Y355830D01*
X398230D01*
Y353290D01*
X395690D01*
Y348210D01*
X398230D01*
Y373210D02*
Y370670D01*
X403310D01*
Y373210D01*
X405850D01*
Y378290D01*
X403310D01*
Y380830D01*
X398230D01*
Y378290D01*
X395690D01*
Y373210D01*
X398230D01*
X516190Y398210D02*
Y395670D01*
X521270D01*
Y398210D01*
X523810D01*
Y403290D01*
X521270D01*
Y405830D01*
X516190D01*
Y403290D01*
X513650D01*
Y398210D01*
X516190D01*
Y388210D02*
Y385670D01*
X521270D01*
Y388210D01*
X523810D01*
Y393290D01*
X521270D01*
Y395830D01*
X516190D01*
Y393290D01*
X513650D01*
Y388210D01*
X516190D01*
X517210Y279230D02*
Y276690D01*
X522290D01*
Y279230D01*
X524830D01*
Y284310D01*
X522290D01*
Y286850D01*
X517210D01*
Y284310D01*
X514670D01*
Y279230D01*
X517210D01*
X507210D02*
Y276690D01*
X512290D01*
Y279230D01*
X514830D01*
Y284310D01*
X512290D01*
Y286850D01*
X507210D01*
Y284310D01*
X504670D01*
Y279230D01*
X507210D01*
X714920Y14920D02*
X717460D01*
X720000Y17460D01*
X722540Y14920D01*
X725080D01*
Y17460D01*
X722540Y20000D01*
X725080Y22540D01*
Y25080D01*
X722540D01*
X720000Y22540D01*
X717460Y25080D01*
X714920D01*
Y22540D01*
X717460Y20000D01*
X714920Y17460D01*
Y14920D01*
X24920D02*
X27460D01*
X30000Y17460D01*
X32540Y14920D01*
X35080D01*
Y17460D01*
X32540Y20000D01*
X35080Y22540D01*
Y25080D01*
X32540D01*
X30000Y22540D01*
X27460Y25080D01*
X24920D01*
Y22540D01*
X27460Y20000D01*
X24920Y17460D01*
Y14920D01*
X714920Y514920D02*
X717460D01*
X720000Y517460D01*
X722540Y514920D01*
X725080D01*
Y517460D01*
X722540Y520000D01*
X725080Y522540D01*
Y525080D01*
X722540D01*
X720000Y522540D01*
X717460Y525080D01*
X714920D01*
Y522540D01*
X717460Y520000D01*
X714920Y517460D01*
Y514920D01*
D111*
X150080Y347250D02*
G03*
X150080Y347250I-5080J0D01*
G01*
Y389250D02*
G03*
X150080Y389250I-5080J0D01*
G01*
Y431250D02*
G03*
X150080Y431250I-5080J0D01*
G01*
X192080Y347250D02*
G03*
X192080Y347250I-5080J0D01*
G01*
Y389250D02*
G03*
X192080Y389250I-5080J0D01*
G01*
Y431250D02*
G03*
X192080Y431250I-5080J0D01*
G01*
X568080Y78000D02*
G03*
X568080Y78000I-5080J0D01*
G01*
Y120000D02*
G03*
X568080Y120000I-5080J0D01*
G01*
Y162000D02*
G03*
X568080Y162000I-5080J0D01*
G01*
X610080Y78000D02*
G03*
X610080Y78000I-5080J0D01*
G01*
Y120000D02*
G03*
X610080Y120000I-5080J0D01*
G01*
Y162000D02*
G03*
X610080Y162000I-5080J0D01*
G01*
M02*
