G04*
G04 #@! TF.GenerationSoftware,Altium Limited,Altium Designer,24.2.2 (26)*
G04*
G04 Layer_Color=65535*
%FSLAX44Y44*%
%MOMM*%
G71*
G04*
G04 #@! TF.SameCoordinates,E4E63788-C9BD-4034-8D98-A8616A57BAF2*
G04*
G04*
G04 #@! TF.FilePolarity,Positive*
G04*
G01*
G75*
%ADD10C,0.2500*%
%ADD11C,0.1270*%
%ADD12C,0.1500*%
%ADD13C,0.6000*%
%ADD14C,0.5000*%
%ADD15C,0.2000*%
%ADD16C,0.1524*%
%ADD17C,0.2540*%
%ADD18C,0.1000*%
%ADD19C,0.0762*%
%ADD20C,0.4000*%
G36*
X626297Y519009D02*
X628392D01*
Y518870D01*
X629789D01*
Y518730D01*
X631046D01*
Y518590D01*
X632164D01*
Y518451D01*
X633141D01*
Y518311D01*
X633979D01*
Y518171D01*
X634817D01*
Y518032D01*
X635655D01*
Y517892D01*
X636354D01*
Y517752D01*
X637052D01*
Y517612D01*
X637751D01*
Y517473D01*
X638309D01*
Y517333D01*
X638868D01*
Y517193D01*
X639427D01*
Y517054D01*
X639985D01*
Y516914D01*
X640404D01*
Y516774D01*
X640963D01*
Y516635D01*
X641382D01*
Y516495D01*
X641941D01*
Y516355D01*
X642360D01*
Y516216D01*
X642779D01*
Y516076D01*
X643198D01*
Y515936D01*
X643617D01*
Y515797D01*
X644036D01*
Y515657D01*
X644455D01*
Y515517D01*
X644874D01*
Y515378D01*
X645153D01*
Y515238D01*
X645572D01*
Y515098D01*
X645991D01*
Y514959D01*
X646271D01*
Y514819D01*
X646690D01*
Y514679D01*
X646969D01*
Y514540D01*
X647248D01*
Y514400D01*
X647667D01*
Y514260D01*
X647947D01*
Y514121D01*
X648226D01*
Y513981D01*
X648505D01*
Y513841D01*
X648785D01*
Y513702D01*
X649064D01*
Y513562D01*
X649483D01*
Y513422D01*
X649762D01*
Y513283D01*
X650042D01*
Y513143D01*
X650182D01*
Y513003D01*
X650461D01*
Y512864D01*
X650740D01*
Y512724D01*
X651020D01*
Y512584D01*
X651299D01*
Y512444D01*
X651578D01*
Y512305D01*
X651718D01*
Y512165D01*
X651997D01*
Y512025D01*
X652277D01*
Y511886D01*
X652416D01*
Y511746D01*
X652696D01*
Y511606D01*
X652975D01*
Y511467D01*
X653115D01*
Y511327D01*
X653394D01*
Y511188D01*
X653534D01*
Y511048D01*
X653813D01*
Y510908D01*
X653953D01*
Y510768D01*
X654232D01*
Y510629D01*
X654372D01*
Y510489D01*
X654511D01*
Y510349D01*
X654791D01*
Y510210D01*
X654930D01*
Y510070D01*
X655070D01*
Y509930D01*
X655350D01*
Y509791D01*
X655489D01*
Y509651D01*
X655629D01*
Y509511D01*
X655908D01*
Y509372D01*
X656048D01*
Y509232D01*
X656188D01*
Y509092D01*
X656327D01*
Y508953D01*
X656467D01*
Y508813D01*
X656607D01*
Y508673D01*
X656886D01*
Y508534D01*
X657026D01*
Y508394D01*
X657165D01*
Y508254D01*
X657305D01*
Y508115D01*
X657445D01*
Y507975D01*
X657584D01*
Y507835D01*
X657724D01*
Y507696D01*
X657864D01*
Y507556D01*
X658003D01*
Y507416D01*
X658143D01*
Y507277D01*
X658283D01*
Y507137D01*
X658422D01*
Y506997D01*
X658562D01*
Y506718D01*
X658702D01*
Y506578D01*
X658841D01*
Y506439D01*
X658981D01*
Y506299D01*
X659121D01*
Y506159D01*
X659260D01*
Y506020D01*
X659400D01*
Y505740D01*
X659540D01*
Y505601D01*
X659679D01*
Y505321D01*
X659819D01*
Y505182D01*
X659959D01*
Y505042D01*
X660098D01*
Y504762D01*
X660238D01*
Y504623D01*
X660378D01*
Y504343D01*
X660517D01*
Y504064D01*
X660657D01*
Y503924D01*
X660797D01*
Y503645D01*
X660936D01*
Y503366D01*
X661076D01*
Y503086D01*
X661216D01*
Y502807D01*
X661355D01*
Y502528D01*
X661495D01*
Y502248D01*
X661635D01*
Y501829D01*
X661775D01*
Y501410D01*
X661914D01*
Y500991D01*
X662054D01*
Y500572D01*
X662194D01*
Y499874D01*
X662333D01*
Y499175D01*
X662473D01*
Y495684D01*
X662333D01*
Y494846D01*
X662194D01*
Y494287D01*
X662054D01*
Y493728D01*
X661914D01*
Y493309D01*
X661775D01*
Y492890D01*
X661635D01*
Y492611D01*
X661495D01*
Y492332D01*
X661355D01*
Y491912D01*
X661216D01*
Y491633D01*
X661076D01*
Y491354D01*
X660936D01*
Y491074D01*
X660797D01*
Y490935D01*
X660657D01*
Y490655D01*
X660517D01*
Y490376D01*
X660378D01*
Y490236D01*
X660238D01*
Y489957D01*
X660098D01*
Y489817D01*
X659959D01*
Y489538D01*
X659819D01*
Y489398D01*
X659679D01*
Y489259D01*
X659540D01*
Y488979D01*
X659400D01*
Y488840D01*
X659260D01*
Y488700D01*
X659121D01*
Y488421D01*
X658981D01*
Y488281D01*
X658841D01*
Y488141D01*
X658702D01*
Y488002D01*
X658562D01*
Y487862D01*
X658422D01*
Y487722D01*
X658283D01*
Y487583D01*
X658143D01*
Y487443D01*
X658003D01*
Y487164D01*
X657724D01*
Y487024D01*
X657584D01*
Y486744D01*
X657305D01*
Y486605D01*
X657165D01*
Y486465D01*
X657026D01*
Y486325D01*
X656886D01*
Y486186D01*
X656746D01*
Y486046D01*
X656607D01*
Y485906D01*
X656467D01*
Y485767D01*
X656327D01*
Y485627D01*
X656048D01*
Y485488D01*
X655908D01*
Y485348D01*
X655769D01*
Y485208D01*
X655629D01*
Y485068D01*
X655489D01*
Y484929D01*
X655210D01*
Y484789D01*
X655070D01*
Y484649D01*
X654930D01*
Y484510D01*
X654651D01*
Y484370D01*
X654511D01*
Y484230D01*
X654232D01*
Y484091D01*
X654092D01*
Y483951D01*
X653953D01*
Y483811D01*
X653673D01*
Y483672D01*
X653534D01*
Y483532D01*
X653254D01*
Y483392D01*
X652975D01*
Y483253D01*
X652835D01*
Y483113D01*
X652556D01*
Y482973D01*
X652416D01*
Y482834D01*
X652137D01*
Y482694D01*
X651858D01*
Y482554D01*
X651718D01*
Y482415D01*
X651439D01*
Y482275D01*
X651159D01*
Y482135D01*
X650880D01*
Y481996D01*
X650601D01*
Y481856D01*
X650321D01*
Y481716D01*
X650182D01*
Y481577D01*
X649902D01*
Y481437D01*
X649623D01*
Y481297D01*
X649343D01*
Y481158D01*
X649064D01*
Y481018D01*
X648785D01*
Y480878D01*
X648366D01*
Y480739D01*
X648086D01*
Y480599D01*
X647807D01*
Y480459D01*
X647528D01*
Y480320D01*
X647109D01*
Y480180D01*
X646829D01*
Y480040D01*
X646550D01*
Y479901D01*
X646131D01*
Y479761D01*
X645852D01*
Y479621D01*
X645433D01*
Y479482D01*
X645014D01*
Y479342D01*
X644734D01*
Y479202D01*
X644315D01*
Y479062D01*
X643896D01*
Y478923D01*
X643477D01*
Y478783D01*
X643058D01*
Y478643D01*
X642639D01*
Y478504D01*
X642220D01*
Y478364D01*
X641661D01*
Y478224D01*
X641242D01*
Y478085D01*
X640823D01*
Y477945D01*
X640265D01*
Y477805D01*
X639706D01*
Y477666D01*
X639147D01*
Y477526D01*
X638589D01*
Y477386D01*
X638030D01*
Y477247D01*
X637471D01*
Y477107D01*
X636773D01*
Y476967D01*
X636074D01*
Y476828D01*
X635376D01*
Y476688D01*
X634538D01*
Y476548D01*
X633700D01*
Y476409D01*
X632722D01*
Y476269D01*
X631745D01*
Y476129D01*
X630488D01*
Y475990D01*
X629230D01*
Y475850D01*
X627554D01*
Y475710D01*
X624901D01*
Y475571D01*
X619733D01*
Y475710D01*
X616939D01*
Y475850D01*
X615263D01*
Y475990D01*
X614006D01*
Y476129D01*
X612749D01*
Y476269D01*
X611771D01*
Y476409D01*
X610933D01*
Y476548D01*
X609955D01*
Y476688D01*
X609257D01*
Y476828D01*
X608419D01*
Y476967D01*
X607721D01*
Y477107D01*
X607022D01*
Y477247D01*
X606464D01*
Y477386D01*
X605905D01*
Y477526D01*
X605346D01*
Y477666D01*
X604787D01*
Y477805D01*
X604229D01*
Y477945D01*
X603810D01*
Y478085D01*
X603251D01*
Y478224D01*
X602832D01*
Y478364D01*
X602273D01*
Y478504D01*
X601854D01*
Y478643D01*
X601435D01*
Y478783D01*
X601016D01*
Y478923D01*
X600597D01*
Y479062D01*
X600178D01*
Y479202D01*
X599759D01*
Y479342D01*
X599480D01*
Y479482D01*
X599061D01*
Y479621D01*
X598782D01*
Y479761D01*
X598363D01*
Y479901D01*
X598083D01*
Y480040D01*
X597664D01*
Y480180D01*
X597385D01*
Y480320D01*
X596966D01*
Y480459D01*
X596686D01*
Y480599D01*
X596407D01*
Y480739D01*
X596128D01*
Y480878D01*
X595848D01*
Y481018D01*
X595569D01*
Y481158D01*
X595290D01*
Y481297D01*
X595010D01*
Y481437D01*
X594591D01*
Y481577D01*
X594312D01*
Y481716D01*
X594172D01*
Y481856D01*
X593893D01*
Y481996D01*
X593614D01*
Y482135D01*
X593334D01*
Y482275D01*
X593055D01*
Y482415D01*
X592775D01*
Y482554D01*
X592636D01*
Y482694D01*
X592356D01*
Y482834D01*
X592077D01*
Y482973D01*
X591937D01*
Y483113D01*
X591658D01*
Y483253D01*
X591519D01*
Y483392D01*
X591239D01*
Y483532D01*
X591100D01*
Y483672D01*
X590820D01*
Y483811D01*
X590681D01*
Y483951D01*
X590401D01*
Y484091D01*
X590261D01*
Y484230D01*
X589982D01*
Y484370D01*
X589842D01*
Y484510D01*
X589703D01*
Y484649D01*
X589423D01*
Y484789D01*
X589284D01*
Y484929D01*
X589144D01*
Y485068D01*
X588865D01*
Y485208D01*
X588725D01*
Y485348D01*
X588585D01*
Y485488D01*
X588446D01*
Y485627D01*
X588166D01*
Y485767D01*
X588027D01*
Y485906D01*
X587887D01*
Y486046D01*
X587747D01*
Y486186D01*
X587608D01*
Y486325D01*
X587468D01*
Y486465D01*
X587328D01*
Y486605D01*
X587189D01*
Y486744D01*
X587049D01*
Y486884D01*
X586909D01*
Y487024D01*
X586770D01*
Y487164D01*
X586630D01*
Y487303D01*
X586490D01*
Y487443D01*
X586351D01*
Y487583D01*
X586211D01*
Y487722D01*
X586071D01*
Y487862D01*
X585932D01*
Y488002D01*
X585792D01*
Y488141D01*
X585652D01*
Y488281D01*
X585513D01*
Y488560D01*
X585373D01*
Y488700D01*
X585233D01*
Y488840D01*
X585093D01*
Y488979D01*
X584954D01*
Y489259D01*
X584814D01*
Y489398D01*
X584674D01*
Y489538D01*
X584535D01*
Y489817D01*
X584395D01*
Y489957D01*
X584255D01*
Y490236D01*
X584116D01*
Y490376D01*
X583976D01*
Y490655D01*
X583836D01*
Y490935D01*
X583697D01*
Y491214D01*
X583557D01*
Y491354D01*
X583417D01*
Y491633D01*
X583278D01*
Y492052D01*
X583138D01*
Y492332D01*
X582998D01*
Y492611D01*
X582859D01*
Y493030D01*
X582719D01*
Y493309D01*
X582579D01*
Y493868D01*
X582440D01*
Y494287D01*
X582300D01*
Y494846D01*
X582160D01*
Y495684D01*
X582021D01*
Y499036D01*
X582160D01*
Y499874D01*
X582300D01*
Y500433D01*
X582440D01*
Y500991D01*
X582579D01*
Y501410D01*
X582719D01*
Y501829D01*
X582859D01*
Y502109D01*
X582998D01*
Y502528D01*
X583138D01*
Y502807D01*
X583278D01*
Y503086D01*
X583417D01*
Y503366D01*
X583557D01*
Y503645D01*
X583697D01*
Y503924D01*
X583836D01*
Y504064D01*
X583976D01*
Y504343D01*
X584116D01*
Y504623D01*
X584255D01*
Y504762D01*
X584395D01*
Y504902D01*
X584535D01*
Y505182D01*
X584674D01*
Y505321D01*
X584814D01*
Y505601D01*
X584954D01*
Y505740D01*
X585093D01*
Y505880D01*
X585233D01*
Y506159D01*
X585373D01*
Y506299D01*
X585513D01*
Y506439D01*
X585652D01*
Y506578D01*
X585792D01*
Y506718D01*
X585932D01*
Y506997D01*
X586071D01*
Y507137D01*
X586211D01*
Y507277D01*
X586351D01*
Y507416D01*
X586490D01*
Y507556D01*
X586630D01*
Y507696D01*
X586770D01*
Y507835D01*
X586909D01*
Y507975D01*
X587049D01*
Y508115D01*
X587189D01*
Y508254D01*
X587328D01*
Y508394D01*
X587468D01*
Y508534D01*
X587747D01*
Y508673D01*
X587887D01*
Y508813D01*
X588027D01*
Y508953D01*
X588166D01*
Y509092D01*
X588306D01*
Y509232D01*
X588446D01*
Y509372D01*
X588725D01*
Y509511D01*
X588865D01*
Y509651D01*
X589004D01*
Y509791D01*
X589144D01*
Y509930D01*
X589423D01*
Y510070D01*
X589563D01*
Y510210D01*
X589703D01*
Y510349D01*
X589982D01*
Y510489D01*
X590122D01*
Y510629D01*
X590401D01*
Y510768D01*
X590541D01*
Y510908D01*
X590681D01*
Y511048D01*
X590960D01*
Y511188D01*
X591100D01*
Y511327D01*
X591379D01*
Y511467D01*
X591658D01*
Y511606D01*
X591798D01*
Y511746D01*
X592077D01*
Y511886D01*
X592217D01*
Y512025D01*
X592496D01*
Y512165D01*
X592775D01*
Y512305D01*
X593055D01*
Y512444D01*
X593195D01*
Y512584D01*
X593474D01*
Y512724D01*
X593753D01*
Y512864D01*
X594033D01*
Y513003D01*
X594312D01*
Y513143D01*
X594591D01*
Y513283D01*
X594871D01*
Y513422D01*
X595150D01*
Y513562D01*
X595429D01*
Y513702D01*
X595709D01*
Y513841D01*
X595988D01*
Y513981D01*
X596267D01*
Y514121D01*
X596547D01*
Y514260D01*
X596826D01*
Y514400D01*
X597245D01*
Y514540D01*
X597524D01*
Y514679D01*
X597804D01*
Y514819D01*
X598223D01*
Y514959D01*
X598502D01*
Y515098D01*
X598921D01*
Y515238D01*
X599340D01*
Y515378D01*
X599620D01*
Y515517D01*
X600039D01*
Y515657D01*
X600458D01*
Y515797D01*
X600877D01*
Y515936D01*
X601296D01*
Y516076D01*
X601715D01*
Y516216D01*
X602134D01*
Y516355D01*
X602553D01*
Y516495D01*
X603111D01*
Y516635D01*
X603530D01*
Y516774D01*
X604089D01*
Y516914D01*
X604508D01*
Y517054D01*
X605067D01*
Y517193D01*
X605626D01*
Y517333D01*
X606184D01*
Y517473D01*
X606883D01*
Y517612D01*
X607441D01*
Y517752D01*
X608140D01*
Y517892D01*
X608838D01*
Y518032D01*
X609676D01*
Y518171D01*
X610514D01*
Y518311D01*
X611352D01*
Y518451D01*
X612330D01*
Y518590D01*
X613447D01*
Y518730D01*
X614704D01*
Y518870D01*
X616241D01*
Y519009D01*
X618196D01*
Y519149D01*
X626297D01*
Y519009D01*
D02*
G37*
G36*
X632862Y468587D02*
X633002D01*
Y468447D01*
X633141D01*
Y468168D01*
X633281D01*
Y467889D01*
X633421D01*
Y467609D01*
X633560D01*
Y467330D01*
X633700D01*
Y467190D01*
X633840D01*
Y466911D01*
X633979D01*
Y466632D01*
X634119D01*
Y466352D01*
X634259D01*
Y466073D01*
X634398D01*
Y465793D01*
X634538D01*
Y465514D01*
X634678D01*
Y465374D01*
X634817D01*
Y465095D01*
X634957D01*
Y464816D01*
X635097D01*
Y464536D01*
X635236D01*
Y464257D01*
X635376D01*
Y463978D01*
X635516D01*
Y463838D01*
X635655D01*
Y463559D01*
X635795D01*
Y463279D01*
X635935D01*
Y463000D01*
X636074D01*
Y462721D01*
X636214D01*
Y462441D01*
X636354D01*
Y462162D01*
X636493D01*
Y462022D01*
X636633D01*
Y461743D01*
X636773D01*
Y461464D01*
X636912D01*
Y461184D01*
X637052D01*
Y460905D01*
X637192D01*
Y460625D01*
X637332D01*
Y460346D01*
X637471D01*
Y460206D01*
X637611D01*
Y459927D01*
X637751D01*
Y459648D01*
X637890D01*
Y459368D01*
X638030D01*
Y459089D01*
X638170D01*
Y458810D01*
X638309D01*
Y458670D01*
X638449D01*
Y458391D01*
X638589D01*
Y458111D01*
X638728D01*
Y457832D01*
X638868D01*
Y457553D01*
X639008D01*
Y457273D01*
X639147D01*
Y457134D01*
X639287D01*
Y456854D01*
X639427D01*
Y456575D01*
X639566D01*
Y456296D01*
X639706D01*
Y456016D01*
X639846D01*
Y455737D01*
X639985D01*
Y455458D01*
X640125D01*
Y455318D01*
X640265D01*
Y455039D01*
X640404D01*
Y454759D01*
X640544D01*
Y454480D01*
X640684D01*
Y454340D01*
X636214D01*
Y454480D01*
X636074D01*
Y454759D01*
X635935D01*
Y455039D01*
X635795D01*
Y455178D01*
X635655D01*
Y455458D01*
X635516D01*
Y455737D01*
X635376D01*
Y456016D01*
X635236D01*
Y456296D01*
X635097D01*
Y456435D01*
X634957D01*
Y456715D01*
X626437D01*
Y456435D01*
X626297D01*
Y456156D01*
X626158D01*
Y455877D01*
X626018D01*
Y455597D01*
X625878D01*
Y455458D01*
X625739D01*
Y455178D01*
X625599D01*
Y454899D01*
X625459D01*
Y454619D01*
X625320D01*
Y454340D01*
X620990D01*
Y454619D01*
X621129D01*
Y454899D01*
X621269D01*
Y455178D01*
X621409D01*
Y455458D01*
X621548D01*
Y455597D01*
X621688D01*
Y455877D01*
X621828D01*
Y456156D01*
X621967D01*
Y456435D01*
X622107D01*
Y456715D01*
X622247D01*
Y456994D01*
X622386D01*
Y457134D01*
X622526D01*
Y457413D01*
X622666D01*
Y457692D01*
X622805D01*
Y457972D01*
X622945D01*
Y458251D01*
X623085D01*
Y458530D01*
X623224D01*
Y458810D01*
X623364D01*
Y458949D01*
X623504D01*
Y459229D01*
X623643D01*
Y459508D01*
X623783D01*
Y459787D01*
X623923D01*
Y460067D01*
X624062D01*
Y460346D01*
X624202D01*
Y460486D01*
X624342D01*
Y460765D01*
X624482D01*
Y461045D01*
X624621D01*
Y461324D01*
X624761D01*
Y461603D01*
X624901D01*
Y461883D01*
X625040D01*
Y462162D01*
X625180D01*
Y462441D01*
X625320D01*
Y462581D01*
X625459D01*
Y462860D01*
X625599D01*
Y463140D01*
X625739D01*
Y463419D01*
X625878D01*
Y463698D01*
X626018D01*
Y463978D01*
X626158D01*
Y464117D01*
X626297D01*
Y464397D01*
X626437D01*
Y464676D01*
X626577D01*
Y464955D01*
X626716D01*
Y465235D01*
X626856D01*
Y465514D01*
X626996D01*
Y465793D01*
X627135D01*
Y465933D01*
X627275D01*
Y466213D01*
X627415D01*
Y466492D01*
X627554D01*
Y466771D01*
X627694D01*
Y467051D01*
X627834D01*
Y467330D01*
X627973D01*
Y467470D01*
X628113D01*
Y467749D01*
X628253D01*
Y468028D01*
X628392D01*
Y468308D01*
X628532D01*
Y468587D01*
X628672D01*
Y468727D01*
X628811D01*
Y468587D01*
X630348D01*
Y468727D01*
X632443D01*
Y468587D01*
X632722D01*
Y468727D01*
X632862D01*
Y468587D01*
D02*
G37*
G36*
X589284Y458670D02*
X589423D01*
Y458391D01*
X589563D01*
Y458111D01*
X589703D01*
Y457972D01*
X589982D01*
Y457832D01*
X590261D01*
Y457692D01*
X597804D01*
Y457832D01*
X598083D01*
Y457972D01*
X598223D01*
Y458111D01*
X598363D01*
Y458251D01*
X598502D01*
Y458530D01*
X598642D01*
Y468587D01*
X602413D01*
Y456994D01*
X602273D01*
Y456435D01*
X602134D01*
Y456156D01*
X601994D01*
Y455877D01*
X601854D01*
Y455737D01*
X601715D01*
Y455597D01*
X601575D01*
Y455458D01*
X601435D01*
Y455318D01*
X601296D01*
Y455178D01*
X601156D01*
Y455039D01*
X601016D01*
Y454899D01*
X600737D01*
Y454759D01*
X600458D01*
Y454619D01*
X600039D01*
Y454480D01*
X599480D01*
Y454340D01*
X588446D01*
Y454480D01*
X587887D01*
Y454619D01*
X587468D01*
Y454759D01*
X587189D01*
Y454899D01*
X586909D01*
Y455039D01*
X586770D01*
Y455178D01*
X586630D01*
Y455318D01*
X586351D01*
Y455597D01*
X586211D01*
Y455737D01*
X586071D01*
Y455877D01*
X585932D01*
Y456156D01*
X585792D01*
Y456435D01*
X585652D01*
Y456994D01*
X585513D01*
Y462022D01*
Y462162D01*
Y468587D01*
X585652D01*
Y468727D01*
X585792D01*
Y468587D01*
X589144D01*
Y468727D01*
X589284D01*
Y458670D01*
D02*
G37*
G36*
X581322Y468447D02*
X581741D01*
Y468308D01*
X582160D01*
Y468168D01*
X582440D01*
Y468028D01*
X582579D01*
Y467889D01*
X582859D01*
Y467749D01*
X582998D01*
Y467609D01*
X583138D01*
Y467470D01*
X583278D01*
Y467190D01*
X583417D01*
Y466911D01*
X583557D01*
Y466492D01*
X583697D01*
Y464397D01*
X579786D01*
Y464676D01*
X579646D01*
Y465095D01*
X579506D01*
Y465235D01*
X579367D01*
Y465374D01*
X579227D01*
Y465514D01*
X578669D01*
Y465654D01*
X571126D01*
Y465514D01*
X570707D01*
Y465374D01*
X570567D01*
Y465235D01*
X570428D01*
Y464955D01*
X570288D01*
Y463698D01*
X570428D01*
Y463559D01*
X570567D01*
Y463419D01*
X570707D01*
Y463279D01*
X571126D01*
Y463140D01*
X574199D01*
Y463000D01*
X577272D01*
Y462860D01*
X580205D01*
Y462721D01*
X580903D01*
Y462581D01*
X581322D01*
Y462441D01*
X581602D01*
Y462302D01*
X581881D01*
Y462162D01*
X582160D01*
Y462022D01*
X582300D01*
Y461883D01*
X582579D01*
Y461743D01*
X582719D01*
Y461603D01*
X582859D01*
Y461324D01*
X582998D01*
Y461184D01*
X583138D01*
Y460905D01*
X583278D01*
Y460765D01*
X583417D01*
Y460346D01*
X583557D01*
Y459927D01*
X583697D01*
Y459089D01*
X583836D01*
Y457832D01*
X583697D01*
Y456994D01*
X583557D01*
Y456435D01*
X583417D01*
Y456156D01*
X583278D01*
Y455877D01*
X583138D01*
Y455597D01*
X582998D01*
Y455458D01*
X582859D01*
Y455318D01*
X582719D01*
Y455178D01*
X582579D01*
Y455039D01*
X582440D01*
Y454899D01*
X582160D01*
Y454759D01*
X581881D01*
Y454619D01*
X581602D01*
Y454480D01*
X581043D01*
Y454340D01*
X569310D01*
Y454480D01*
X568891D01*
Y454619D01*
X568472D01*
Y454759D01*
X568193D01*
Y454899D01*
X567914D01*
Y455039D01*
X567774D01*
Y455178D01*
X567634D01*
Y455318D01*
X567495D01*
Y455458D01*
X567355D01*
Y455597D01*
X567215D01*
Y455737D01*
X567076D01*
Y456016D01*
X566936D01*
Y456296D01*
X566796D01*
Y456715D01*
X566657D01*
Y458530D01*
X566517D01*
Y458670D01*
X566657D01*
Y458810D01*
X570567D01*
Y458251D01*
X570707D01*
Y457832D01*
X570847D01*
Y457692D01*
X570986D01*
Y457553D01*
X571126D01*
Y457413D01*
X571405D01*
Y457273D01*
X579367D01*
Y457413D01*
X579646D01*
Y457553D01*
X579786D01*
Y457692D01*
X579926D01*
Y457972D01*
X580065D01*
Y459368D01*
X579926D01*
Y459508D01*
X579786D01*
Y459648D01*
X579646D01*
Y459787D01*
X579367D01*
Y459927D01*
X575177D01*
Y460067D01*
X570148D01*
Y460206D01*
X569310D01*
Y460346D01*
X568891D01*
Y460486D01*
X568472D01*
Y460625D01*
X568193D01*
Y460765D01*
X568053D01*
Y460905D01*
X567774D01*
Y461045D01*
X567634D01*
Y461184D01*
X567495D01*
Y461464D01*
X567355D01*
Y461603D01*
X567215D01*
Y461743D01*
X567076D01*
Y462022D01*
X566936D01*
Y462302D01*
X566796D01*
Y462860D01*
X566657D01*
Y465374D01*
X566796D01*
Y465933D01*
X566936D01*
Y466352D01*
X567076D01*
Y466632D01*
X567215D01*
Y466911D01*
X567355D01*
Y467051D01*
X567495D01*
Y467330D01*
X567634D01*
Y467470D01*
X567774D01*
Y467609D01*
X567914D01*
Y467749D01*
X568053D01*
Y467889D01*
X568333D01*
Y468028D01*
X568612D01*
Y468168D01*
X568752D01*
Y468308D01*
X569171D01*
Y468447D01*
X569590D01*
Y468587D01*
X581322D01*
Y468447D01*
D02*
G37*
G36*
X673367Y468587D02*
X676859D01*
Y456994D01*
X676720D01*
Y456435D01*
X676580D01*
Y456156D01*
X676440D01*
Y455877D01*
X676301D01*
Y455737D01*
X676161D01*
Y455458D01*
X676021D01*
Y455318D01*
X675742D01*
Y455178D01*
X675602D01*
Y455039D01*
X675462D01*
Y454899D01*
X675183D01*
Y454759D01*
X674904D01*
Y454619D01*
X674485D01*
Y454480D01*
X673926D01*
Y454340D01*
X662892D01*
Y454480D01*
X662333D01*
Y454619D01*
X661914D01*
Y454759D01*
X661635D01*
Y454899D01*
X661355D01*
Y455039D01*
X661216D01*
Y455178D01*
X661076D01*
Y455318D01*
X660936D01*
Y455458D01*
X660797D01*
Y455597D01*
X660657D01*
Y455737D01*
X660517D01*
Y455877D01*
X660378D01*
Y456156D01*
X660238D01*
Y456575D01*
X660098D01*
Y457273D01*
X659959D01*
Y464955D01*
Y465095D01*
Y468587D01*
X660098D01*
Y468727D01*
X660238D01*
Y468587D01*
X663730D01*
Y458810D01*
X663870D01*
Y458391D01*
X664009D01*
Y458251D01*
X664149D01*
Y457972D01*
X664428D01*
Y457832D01*
X664708D01*
Y457692D01*
X672250D01*
Y457832D01*
X672529D01*
Y457972D01*
X672669D01*
Y458111D01*
X672809D01*
Y458251D01*
X672948D01*
Y458530D01*
X673088D01*
Y468587D01*
X673228D01*
Y468727D01*
X673367D01*
Y468587D01*
D02*
G37*
G36*
X679094Y456296D02*
X679373D01*
Y456156D01*
X679653D01*
Y455877D01*
X679792D01*
Y454899D01*
X679653D01*
Y454619D01*
X679513D01*
Y454480D01*
X679234D01*
Y454340D01*
X678396D01*
Y454480D01*
X678116D01*
Y454619D01*
X677977D01*
Y454899D01*
X677837D01*
Y455458D01*
Y455597D01*
Y455877D01*
X677977D01*
Y456016D01*
X678116D01*
Y456156D01*
X678256D01*
Y456296D01*
X678535D01*
Y456435D01*
X679094D01*
Y456296D01*
D02*
G37*
G36*
X655908Y468447D02*
X656327D01*
Y468308D01*
X656607D01*
Y468168D01*
X656746D01*
Y468028D01*
X657026D01*
Y467889D01*
X657165D01*
Y467749D01*
X657305D01*
Y467470D01*
X657445D01*
Y467330D01*
X657584D01*
Y467051D01*
X657724D01*
Y466771D01*
X657864D01*
Y466492D01*
X658003D01*
Y465933D01*
X658143D01*
Y464955D01*
X658283D01*
Y463698D01*
X658143D01*
Y462860D01*
X658003D01*
Y462441D01*
X657864D01*
Y462162D01*
X657724D01*
Y461883D01*
X657584D01*
Y461743D01*
X657445D01*
Y461603D01*
X657305D01*
Y461464D01*
X657165D01*
Y461324D01*
X657026D01*
Y461184D01*
X656886D01*
Y461045D01*
X657026D01*
Y460905D01*
X657165D01*
Y460765D01*
X657305D01*
Y460625D01*
X657445D01*
Y460346D01*
X657584D01*
Y460206D01*
X657724D01*
Y459927D01*
X657864D01*
Y459648D01*
X658003D01*
Y459229D01*
X658143D01*
Y458670D01*
X658283D01*
Y457692D01*
X658422D01*
Y454340D01*
X654651D01*
Y458251D01*
X654511D01*
Y458670D01*
X654372D01*
Y458949D01*
X654232D01*
Y459089D01*
X654092D01*
Y459229D01*
X653673D01*
Y459368D01*
X645433D01*
Y454340D01*
X641661D01*
Y468587D01*
X655908D01*
Y468447D01*
D02*
G37*
G36*
X618755D02*
X619174D01*
Y468308D01*
X619453D01*
Y468168D01*
X619733D01*
Y468028D01*
X619872D01*
Y467889D01*
X620012D01*
Y467749D01*
X620152D01*
Y467609D01*
X620291D01*
Y467470D01*
X620431D01*
Y467330D01*
Y467190D01*
X620571D01*
Y466911D01*
X620710D01*
Y466632D01*
X620850D01*
Y466213D01*
X620990D01*
Y463838D01*
X620850D01*
Y463419D01*
X620710D01*
Y463140D01*
X620571D01*
Y462860D01*
X620431D01*
Y462581D01*
X620291D01*
Y462441D01*
X620152D01*
Y462302D01*
X620012D01*
Y462162D01*
X619733D01*
Y462022D01*
X619593D01*
Y461883D01*
X619872D01*
Y461743D01*
X620012D01*
Y461603D01*
X620152D01*
Y461464D01*
X620291D01*
Y461324D01*
X620431D01*
Y461184D01*
X620571D01*
Y460905D01*
X620710D01*
Y460625D01*
X620850D01*
Y460206D01*
X620990D01*
Y459508D01*
X621129D01*
Y457413D01*
X620990D01*
Y456854D01*
X620850D01*
Y456435D01*
X620710D01*
Y456156D01*
X620571D01*
Y455877D01*
X620431D01*
Y455597D01*
X620291D01*
Y455458D01*
X620152D01*
Y455318D01*
X620012D01*
Y455178D01*
X619872D01*
Y455039D01*
X619733D01*
Y454899D01*
X619593D01*
Y454759D01*
X619453D01*
Y454619D01*
X619174D01*
Y454480D01*
X618755D01*
Y454340D01*
X604508D01*
Y468587D01*
X618755D01*
Y468447D01*
D02*
G37*
G36*
X247040Y410055D02*
X244500D01*
Y413865D01*
X247040D01*
Y410055D01*
D02*
G37*
G36*
X579644Y234097D02*
X577104D01*
Y237907D01*
X579644D01*
Y234097D01*
D02*
G37*
%LPC*%
G36*
X625739Y516495D02*
X619034D01*
Y516355D01*
X616660D01*
Y516216D01*
X615123D01*
Y516076D01*
X613866D01*
Y515936D01*
X612749D01*
Y515797D01*
X611771D01*
Y515657D01*
X610933D01*
Y515517D01*
X610095D01*
Y515378D01*
X609397D01*
Y515238D01*
X608698D01*
Y515098D01*
X608000D01*
Y514959D01*
X607441D01*
Y514819D01*
X606883D01*
Y514679D01*
X606184D01*
Y514540D01*
X605626D01*
Y514400D01*
X605206D01*
Y514260D01*
X604648D01*
Y514121D01*
X604089D01*
Y513981D01*
X603670D01*
Y513841D01*
X603251D01*
Y513702D01*
X602832D01*
Y513562D01*
X602413D01*
Y513422D01*
X601994D01*
Y513283D01*
X601575D01*
Y513143D01*
X601156D01*
Y513003D01*
X600737D01*
Y512864D01*
X600458D01*
Y512724D01*
X600039D01*
Y512584D01*
X599620D01*
Y512444D01*
X599340D01*
Y512305D01*
X599061D01*
Y512165D01*
X598642D01*
Y512025D01*
X598363D01*
Y511886D01*
X598083D01*
Y511746D01*
X597804D01*
Y511606D01*
X597385D01*
Y511467D01*
X597105D01*
Y511327D01*
X596826D01*
Y511188D01*
X596547D01*
Y511048D01*
X596267D01*
Y510908D01*
X595988D01*
Y510768D01*
X595709D01*
Y510629D01*
X595429D01*
Y510489D01*
X595290D01*
Y510349D01*
X595010D01*
Y510210D01*
X594731D01*
Y510070D01*
X594452D01*
Y509930D01*
X594312D01*
Y509791D01*
X594033D01*
Y509651D01*
X593753D01*
Y509511D01*
X593614D01*
Y509372D01*
X593334D01*
Y509232D01*
X593195D01*
Y509092D01*
X592915D01*
Y508953D01*
X592775D01*
Y508813D01*
X592496D01*
Y508673D01*
X592356D01*
Y508534D01*
X592217D01*
Y508394D01*
X591937D01*
Y508254D01*
X591798D01*
Y508115D01*
X591519D01*
Y507975D01*
X591379D01*
Y507835D01*
X591239D01*
Y507696D01*
X591100D01*
Y507556D01*
X590820D01*
Y507416D01*
X590681D01*
Y507277D01*
X590541D01*
Y507137D01*
X590401D01*
Y506997D01*
X590261D01*
Y506858D01*
X590122D01*
Y506718D01*
X589982D01*
Y506578D01*
X589842D01*
Y506439D01*
X589703D01*
Y506299D01*
X589563D01*
Y506159D01*
X589423D01*
Y506020D01*
X589284D01*
Y505880D01*
X589144D01*
Y505740D01*
X589004D01*
Y505601D01*
X588865D01*
Y505461D01*
X588725D01*
Y505321D01*
X588585D01*
Y505182D01*
X588446D01*
Y505042D01*
X588306D01*
Y504902D01*
X588166D01*
Y504623D01*
X588027D01*
Y504483D01*
X587887D01*
Y504343D01*
X587747D01*
Y504204D01*
X587608D01*
Y503924D01*
X587468D01*
Y503785D01*
X587328D01*
Y503505D01*
X587189D01*
Y503366D01*
X587049D01*
Y503226D01*
Y503086D01*
X586909D01*
Y502807D01*
X586770D01*
Y502667D01*
X586630D01*
Y502388D01*
X586490D01*
Y502109D01*
X586351D01*
Y501829D01*
X586211D01*
Y501410D01*
X586071D01*
Y501131D01*
X585932D01*
Y500712D01*
X585792D01*
Y500293D01*
X585652D01*
Y499874D01*
X585513D01*
Y499175D01*
X585373D01*
Y498058D01*
X585233D01*
Y496522D01*
X585373D01*
Y495544D01*
X585513D01*
Y494846D01*
X585652D01*
Y494427D01*
X585792D01*
Y494008D01*
X585932D01*
Y493589D01*
X586071D01*
Y493170D01*
X586211D01*
Y492890D01*
X586351D01*
Y492611D01*
X586490D01*
Y492332D01*
X586630D01*
Y492052D01*
X586770D01*
Y491773D01*
X586909D01*
Y491633D01*
X587049D01*
Y491354D01*
X587189D01*
Y491214D01*
X587328D01*
Y490935D01*
X587468D01*
Y490795D01*
X587608D01*
Y490516D01*
X587747D01*
Y490376D01*
X587887D01*
Y490236D01*
X588027D01*
Y489957D01*
X588166D01*
Y489817D01*
X588306D01*
Y489678D01*
X588446D01*
Y489538D01*
X588585D01*
Y489398D01*
X588725D01*
Y489119D01*
X588865D01*
Y488979D01*
X589004D01*
Y488840D01*
X589144D01*
Y488700D01*
X589284D01*
Y488560D01*
X589423D01*
Y488421D01*
X589563D01*
Y488281D01*
X589703D01*
Y488141D01*
X589842D01*
Y488002D01*
X590122D01*
Y487862D01*
X590261D01*
Y487722D01*
X590401D01*
Y487583D01*
X590541D01*
Y487443D01*
X590681D01*
Y487303D01*
X590820D01*
Y487164D01*
X590960D01*
Y487024D01*
X591239D01*
Y486884D01*
X591379D01*
Y486744D01*
X591519D01*
Y486605D01*
X591798D01*
Y486465D01*
X591937D01*
Y486325D01*
X592077D01*
Y486186D01*
X592356D01*
Y486046D01*
X592496D01*
Y485906D01*
X592775D01*
Y485767D01*
X592915D01*
Y485627D01*
X593195D01*
Y485488D01*
X593334D01*
Y485348D01*
X593614D01*
Y485208D01*
X593753D01*
Y485068D01*
X594033D01*
Y484929D01*
X594172D01*
Y484789D01*
X594452D01*
Y484649D01*
X594731D01*
Y484510D01*
X595010D01*
Y484370D01*
X595150D01*
Y484230D01*
X595429D01*
Y484091D01*
X595709D01*
Y483951D01*
X595988D01*
Y483811D01*
X596267D01*
Y483672D01*
X596547D01*
Y483532D01*
X596826D01*
Y483392D01*
X597105D01*
Y483253D01*
X597385D01*
Y483113D01*
X597664D01*
Y482973D01*
X597943D01*
Y482834D01*
X598363D01*
Y482694D01*
X598642D01*
Y482554D01*
X598921D01*
Y482415D01*
X599340D01*
Y482275D01*
X599620D01*
Y482135D01*
X599899D01*
Y481996D01*
X600318D01*
Y481856D01*
X600737D01*
Y481716D01*
X601156D01*
Y481577D01*
X601435D01*
Y481437D01*
X601854D01*
Y481297D01*
X602273D01*
Y481158D01*
X602692D01*
Y481018D01*
X603111D01*
Y480878D01*
X603670D01*
Y480739D01*
X604089D01*
Y480599D01*
X604508D01*
Y480459D01*
X605067D01*
Y480320D01*
X605626D01*
Y480180D01*
X606045D01*
Y480040D01*
X606743D01*
Y479901D01*
X607302D01*
Y479761D01*
X608000D01*
Y479621D01*
X608559D01*
Y479482D01*
X609257D01*
Y479342D01*
X609955D01*
Y479202D01*
X610793D01*
Y479062D01*
X611632D01*
Y478923D01*
X612609D01*
Y478783D01*
X613587D01*
Y478643D01*
X614844D01*
Y478504D01*
X616241D01*
Y478364D01*
X618615D01*
Y478224D01*
X626158D01*
Y478364D01*
X628392D01*
Y478504D01*
X629929D01*
Y478643D01*
X631046D01*
Y478783D01*
X632164D01*
Y478923D01*
X633002D01*
Y479062D01*
X633840D01*
Y479202D01*
X634678D01*
Y479342D01*
X635376D01*
Y479482D01*
X636074D01*
Y479621D01*
X636773D01*
Y479761D01*
X637332D01*
Y479901D01*
X638030D01*
Y480040D01*
X638589D01*
Y480180D01*
X639147D01*
Y480320D01*
X639706D01*
Y480459D01*
X640125D01*
Y480599D01*
X640684D01*
Y480739D01*
X641103D01*
Y480878D01*
X641522D01*
Y481018D01*
X641941D01*
Y481158D01*
X642360D01*
Y481297D01*
X642779D01*
Y481437D01*
X643198D01*
Y481577D01*
X643617D01*
Y481716D01*
X643896D01*
Y481856D01*
X644315D01*
Y481996D01*
X644734D01*
Y482135D01*
X645014D01*
Y482275D01*
X645433D01*
Y482415D01*
X645712D01*
Y482554D01*
X646131D01*
Y482694D01*
X646410D01*
Y482834D01*
X646690D01*
Y482973D01*
X646969D01*
Y483113D01*
X647248D01*
Y483253D01*
X647667D01*
Y483392D01*
X647947D01*
Y483532D01*
X648226D01*
Y483672D01*
X648505D01*
Y483811D01*
X648645D01*
Y483951D01*
X648924D01*
Y484091D01*
X649204D01*
Y484230D01*
X649483D01*
Y484370D01*
X649762D01*
Y484510D01*
X649902D01*
Y484649D01*
X650182D01*
Y484789D01*
X650461D01*
Y484929D01*
X650740D01*
Y485068D01*
X650880D01*
Y485208D01*
X651159D01*
Y485348D01*
X651299D01*
Y485488D01*
X651578D01*
Y485627D01*
X651718D01*
Y485767D01*
X651997D01*
Y485906D01*
X652137D01*
Y486046D01*
X652416D01*
Y486186D01*
X652556D01*
Y486325D01*
X652696D01*
Y486465D01*
X652975D01*
Y486605D01*
X653115D01*
Y486744D01*
X653254D01*
Y486884D01*
X653534D01*
Y487024D01*
X653673D01*
Y487164D01*
X653813D01*
Y487303D01*
X653953D01*
Y487443D01*
X654092D01*
Y487583D01*
X654372D01*
Y487722D01*
X654511D01*
Y487862D01*
X654651D01*
Y488002D01*
X654791D01*
Y488141D01*
X654930D01*
Y488281D01*
X655070D01*
Y488421D01*
X655210D01*
Y488560D01*
X655350D01*
Y488700D01*
X655489D01*
Y488840D01*
X655629D01*
Y488979D01*
X655769D01*
Y489119D01*
X655908D01*
Y489259D01*
X656048D01*
Y489398D01*
X656188D01*
Y489678D01*
X656327D01*
Y489817D01*
X656467D01*
Y489957D01*
X656607D01*
Y490097D01*
X656746D01*
Y490376D01*
X656886D01*
Y490516D01*
X657026D01*
Y490655D01*
X657165D01*
Y490935D01*
X657305D01*
Y491074D01*
X657445D01*
Y491354D01*
X657584D01*
Y491493D01*
X657724D01*
Y491773D01*
X657864D01*
Y492052D01*
X658003D01*
Y492192D01*
X658143D01*
Y492471D01*
X658283D01*
Y492751D01*
X658422D01*
Y493170D01*
X658562D01*
Y493449D01*
X658702D01*
Y493868D01*
X658841D01*
Y494287D01*
X658981D01*
Y494706D01*
X659121D01*
Y495265D01*
X659260D01*
Y496242D01*
X659400D01*
Y498477D01*
X659260D01*
Y499455D01*
X659121D01*
Y500014D01*
X658981D01*
Y500433D01*
X658841D01*
Y500852D01*
X658702D01*
Y501271D01*
X658562D01*
Y501550D01*
X658422D01*
Y501829D01*
X658283D01*
Y502248D01*
X658143D01*
Y502388D01*
X658003D01*
Y502667D01*
X657864D01*
Y502947D01*
X657724D01*
Y503226D01*
X657584D01*
Y503366D01*
X657445D01*
Y503645D01*
X657305D01*
Y503785D01*
X657165D01*
Y504064D01*
X657026D01*
Y504204D01*
X656886D01*
Y504343D01*
X656746D01*
Y504623D01*
X656607D01*
Y504762D01*
X656467D01*
Y504902D01*
X656327D01*
Y505042D01*
X656188D01*
Y505182D01*
X656048D01*
Y505461D01*
X655908D01*
Y505601D01*
X655769D01*
Y505740D01*
X655629D01*
Y505880D01*
X655489D01*
Y506020D01*
X655350D01*
Y506159D01*
X655210D01*
Y506299D01*
X655070D01*
Y506439D01*
X654930D01*
Y506578D01*
X654791D01*
Y506718D01*
X654651D01*
Y506858D01*
X654372D01*
Y506997D01*
X654232D01*
Y507137D01*
X654092D01*
Y507277D01*
X653953D01*
Y507416D01*
X653813D01*
Y507556D01*
X653673D01*
Y507696D01*
X653394D01*
Y507835D01*
X653254D01*
Y507975D01*
X653115D01*
Y508115D01*
X652975D01*
Y508254D01*
X652696D01*
Y508394D01*
X652556D01*
Y508534D01*
X652277D01*
Y508673D01*
X652137D01*
Y508813D01*
X651997D01*
Y508953D01*
X651718D01*
Y509092D01*
X651578D01*
Y509232D01*
X651299D01*
Y509372D01*
X651020D01*
Y509511D01*
X650880D01*
Y509651D01*
X650601D01*
Y509791D01*
X650461D01*
Y509930D01*
X650182D01*
Y510070D01*
X649902D01*
Y510210D01*
X649762D01*
Y510349D01*
X649483D01*
Y510489D01*
X649204D01*
Y510629D01*
X648924D01*
Y510768D01*
X648645D01*
Y510908D01*
X648366D01*
Y511048D01*
X648086D01*
Y511188D01*
X647807D01*
Y511327D01*
X647528D01*
Y511467D01*
X647248D01*
Y511606D01*
X646969D01*
Y511746D01*
X646690D01*
Y511886D01*
X646271D01*
Y512025D01*
X645991D01*
Y512165D01*
X645712D01*
Y512305D01*
X645293D01*
Y512444D01*
X645014D01*
Y512584D01*
X644595D01*
Y512724D01*
X644315D01*
Y512864D01*
X643896D01*
Y513003D01*
X643477D01*
Y513143D01*
X643198D01*
Y513283D01*
X642779D01*
Y513422D01*
X642360D01*
Y513562D01*
X641941D01*
Y513702D01*
X641382D01*
Y513841D01*
X640963D01*
Y513981D01*
X640544D01*
Y514121D01*
X639985D01*
Y514260D01*
X639566D01*
Y514400D01*
X639008D01*
Y514540D01*
X638449D01*
Y514679D01*
X637890D01*
Y514819D01*
X637332D01*
Y514959D01*
X636633D01*
Y515098D01*
X635935D01*
Y515238D01*
X635236D01*
Y515378D01*
X634538D01*
Y515517D01*
X633840D01*
Y515657D01*
X632862D01*
Y515797D01*
X631884D01*
Y515936D01*
X630767D01*
Y516076D01*
X629650D01*
Y516216D01*
X627834D01*
Y516355D01*
X625739D01*
Y516495D01*
D02*
G37*
%LPD*%
G36*
X611492Y514260D02*
X611632D01*
Y513981D01*
X611771D01*
Y513422D01*
X611911D01*
Y513003D01*
X612051D01*
Y512584D01*
X612190D01*
Y512165D01*
X612330D01*
Y511606D01*
X612470D01*
Y511188D01*
X612609D01*
Y510768D01*
X612749D01*
Y510349D01*
X612889D01*
Y509930D01*
X613028D01*
Y509511D01*
X613168D01*
Y509092D01*
X613308D01*
Y508673D01*
X613447D01*
Y508394D01*
X613587D01*
Y507975D01*
X613727D01*
Y507696D01*
X613866D01*
Y507416D01*
X614006D01*
Y507137D01*
X614146D01*
Y506997D01*
X614285D01*
Y506718D01*
X614425D01*
Y506578D01*
X614565D01*
Y506439D01*
X614704D01*
Y506299D01*
X614844D01*
Y506159D01*
X614984D01*
Y506020D01*
X615123D01*
Y505880D01*
X615263D01*
Y505740D01*
X615403D01*
Y505601D01*
X615682D01*
Y505461D01*
X615961D01*
Y505321D01*
X616381D01*
Y505182D01*
X616800D01*
Y505042D01*
X617219D01*
Y504902D01*
X617777D01*
Y504762D01*
X618475D01*
Y504623D01*
X619453D01*
Y504483D01*
X620431D01*
Y504343D01*
X621548D01*
Y504204D01*
X622666D01*
Y504064D01*
X623783D01*
Y503924D01*
X624901D01*
Y503785D01*
X626018D01*
Y503645D01*
X627135D01*
Y503505D01*
X628253D01*
Y503366D01*
X629370D01*
Y503226D01*
X630627D01*
Y503086D01*
X631884D01*
Y502947D01*
X633141D01*
Y502807D01*
X637052D01*
Y502947D01*
X638170D01*
Y503086D01*
X639147D01*
Y503226D01*
X640544D01*
Y503366D01*
X641382D01*
Y503505D01*
X641941D01*
Y503645D01*
X642360D01*
Y503785D01*
X642499D01*
Y503924D01*
X642779D01*
Y504064D01*
X642918D01*
Y504204D01*
X643058D01*
Y504343D01*
X643198D01*
Y504623D01*
X643337D01*
Y504762D01*
X643477D01*
Y505042D01*
X643617D01*
Y505461D01*
X643756D01*
Y505740D01*
X643896D01*
Y506159D01*
X644036D01*
Y506718D01*
X644175D01*
Y507137D01*
X644315D01*
Y507416D01*
X644455D01*
Y507556D01*
X644874D01*
Y507416D01*
X645014D01*
Y507137D01*
X645153D01*
Y506718D01*
X645293D01*
Y506299D01*
X645433D01*
Y506020D01*
X645572D01*
Y505601D01*
X645712D01*
Y505321D01*
X645852D01*
Y504902D01*
X645991D01*
Y504483D01*
X646131D01*
Y504343D01*
X646271D01*
Y504064D01*
X646550D01*
Y503924D01*
X646690D01*
Y503785D01*
X646969D01*
Y503645D01*
X647248D01*
Y503505D01*
X647807D01*
Y503366D01*
X648785D01*
Y503226D01*
X649623D01*
Y503086D01*
X650461D01*
Y502947D01*
X651439D01*
Y502807D01*
X652277D01*
Y502667D01*
X653115D01*
Y502528D01*
X653394D01*
Y502388D01*
X653534D01*
Y501969D01*
X653394D01*
Y501829D01*
X653115D01*
Y501690D01*
X652277D01*
Y501550D01*
X651439D01*
Y501410D01*
X650740D01*
Y501271D01*
X649902D01*
Y501131D01*
X648785D01*
Y500991D01*
X647947D01*
Y500852D01*
X647388D01*
Y500712D01*
X646969D01*
Y500572D01*
X646690D01*
Y500433D01*
X646550D01*
Y500293D01*
X646410D01*
Y500153D01*
X646271D01*
Y500014D01*
X646131D01*
Y499734D01*
X645991D01*
Y499315D01*
X645852D01*
Y498896D01*
X645712D01*
Y498477D01*
X645572D01*
Y497919D01*
X645433D01*
Y497499D01*
X645293D01*
Y496941D01*
X645153D01*
Y496522D01*
X645014D01*
Y496242D01*
X644874D01*
Y496103D01*
X644455D01*
Y496242D01*
X644315D01*
Y496382D01*
X644175D01*
Y496801D01*
X644036D01*
Y497360D01*
X643896D01*
Y497919D01*
X643756D01*
Y498477D01*
X643617D01*
Y498896D01*
X643477D01*
Y499315D01*
X643337D01*
Y499734D01*
X643198D01*
Y500014D01*
X643058D01*
Y500293D01*
X642918D01*
Y500433D01*
X642779D01*
Y500572D01*
X642499D01*
Y500712D01*
X642220D01*
Y500852D01*
X641661D01*
Y500991D01*
X640823D01*
Y501131D01*
X639706D01*
Y501271D01*
X638170D01*
Y501410D01*
X636633D01*
Y501550D01*
X634538D01*
Y501410D01*
X632303D01*
Y501271D01*
X630767D01*
Y501131D01*
X629370D01*
Y500991D01*
X628113D01*
Y500852D01*
X626856D01*
Y500712D01*
X625739D01*
Y500572D01*
X624621D01*
Y500433D01*
X623504D01*
Y500293D01*
X622386D01*
Y500153D01*
X621409D01*
Y500014D01*
X620291D01*
Y499874D01*
X619174D01*
Y499734D01*
X618336D01*
Y499594D01*
X617498D01*
Y499455D01*
X616939D01*
Y499315D01*
X616520D01*
Y499175D01*
X616241D01*
Y499036D01*
X615961D01*
Y498896D01*
X615682D01*
Y498756D01*
X615403D01*
Y498617D01*
X615263D01*
Y498477D01*
X615123D01*
Y498338D01*
X614984D01*
Y498198D01*
X614844D01*
Y498058D01*
X614704D01*
Y497919D01*
X614565D01*
Y497639D01*
X614425D01*
Y497499D01*
X614285D01*
Y497220D01*
X614146D01*
Y496941D01*
X614006D01*
Y496661D01*
X613866D01*
Y496242D01*
X613727D01*
Y495823D01*
X613587D01*
Y495404D01*
X613447D01*
Y494985D01*
X613308D01*
Y494427D01*
X613168D01*
Y493868D01*
X613028D01*
Y493449D01*
X612889D01*
Y492890D01*
X612749D01*
Y492332D01*
X612609D01*
Y491773D01*
X612470D01*
Y491354D01*
X612330D01*
Y490795D01*
X612190D01*
Y490236D01*
X612051D01*
Y489678D01*
X611911D01*
Y489119D01*
X611771D01*
Y488421D01*
X611632D01*
Y488002D01*
X611492D01*
Y487722D01*
X611352D01*
Y487583D01*
X611073D01*
Y487722D01*
X610793D01*
Y488002D01*
X610654D01*
Y488700D01*
X610514D01*
Y489259D01*
X610374D01*
Y489678D01*
X610235D01*
Y490376D01*
X610095D01*
Y490935D01*
X609955D01*
Y491493D01*
X609816D01*
Y492052D01*
X609676D01*
Y492751D01*
X609536D01*
Y493309D01*
X609397D01*
Y493868D01*
X609257D01*
Y494566D01*
X609117D01*
Y494985D01*
X608978D01*
Y495404D01*
X608838D01*
Y495823D01*
X608698D01*
Y496242D01*
X608559D01*
Y496522D01*
X608419D01*
Y496801D01*
X608279D01*
Y497220D01*
X608140D01*
Y497360D01*
X608000D01*
Y497639D01*
X607860D01*
Y497919D01*
X607721D01*
Y498058D01*
X607581D01*
Y498198D01*
X607441D01*
Y498338D01*
X607302D01*
Y498477D01*
X607162D01*
Y498617D01*
X607022D01*
Y498756D01*
X606883D01*
Y498896D01*
X606603D01*
Y499036D01*
X606184D01*
Y499175D01*
X605905D01*
Y499315D01*
X605346D01*
Y499455D01*
X604787D01*
Y499594D01*
X604089D01*
Y499734D01*
X603111D01*
Y499874D01*
X602134D01*
Y500014D01*
X601156D01*
Y500153D01*
X600178D01*
Y500293D01*
X599201D01*
Y500433D01*
X598223D01*
Y500572D01*
X597245D01*
Y500712D01*
X596267D01*
Y500852D01*
X595150D01*
Y500991D01*
X594172D01*
Y501131D01*
X593195D01*
Y501271D01*
X591937D01*
Y501410D01*
X590960D01*
Y501550D01*
X589982D01*
Y501690D01*
X589004D01*
Y501829D01*
X588725D01*
Y501969D01*
X588585D01*
Y502388D01*
X588725D01*
Y502528D01*
X589144D01*
Y502667D01*
X590261D01*
Y502807D01*
X591239D01*
Y502947D01*
X592356D01*
Y503086D01*
X593334D01*
Y503226D01*
X594312D01*
Y503366D01*
X595290D01*
Y503505D01*
X596267D01*
Y503645D01*
X597245D01*
Y503785D01*
X598223D01*
Y503924D01*
X599201D01*
Y504064D01*
X600318D01*
Y504204D01*
X601296D01*
Y504343D01*
X602413D01*
Y504483D01*
X603391D01*
Y504623D01*
X604089D01*
Y504762D01*
X604787D01*
Y504902D01*
X605346D01*
Y505042D01*
X605765D01*
Y505182D01*
X606045D01*
Y505321D01*
X606464D01*
Y505461D01*
X606743D01*
Y505601D01*
X606883D01*
Y505740D01*
X607162D01*
Y505880D01*
X607302D01*
Y506020D01*
X607441D01*
Y506159D01*
X607581D01*
Y506299D01*
X607721D01*
Y506439D01*
X607860D01*
Y506578D01*
X608000D01*
Y506858D01*
X608140D01*
Y507137D01*
X608279D01*
Y507416D01*
X608419D01*
Y507696D01*
X608559D01*
Y507975D01*
X608698D01*
Y508254D01*
X608838D01*
Y508394D01*
Y508673D01*
X608978D01*
Y509092D01*
X609117D01*
Y509511D01*
X609257D01*
Y509791D01*
X609397D01*
Y510210D01*
X609536D01*
Y510629D01*
X609676D01*
Y511048D01*
X609816D01*
Y511467D01*
X609955D01*
Y511886D01*
X610095D01*
Y512305D01*
X610235D01*
Y512724D01*
X610374D01*
Y513283D01*
X610514D01*
Y513702D01*
X610654D01*
Y514121D01*
X610793D01*
Y514400D01*
X610933D01*
Y514540D01*
X611492D01*
Y514260D01*
D02*
G37*
G36*
X633281Y499594D02*
X633421D01*
Y499315D01*
X633560D01*
Y498896D01*
X633700D01*
Y498477D01*
X633840D01*
Y498058D01*
X633979D01*
Y497639D01*
X634119D01*
Y497360D01*
X634259D01*
Y497080D01*
X634398D01*
Y496801D01*
X634538D01*
Y496522D01*
X634678D01*
Y496382D01*
X634817D01*
Y496242D01*
X634957D01*
Y496103D01*
X635097D01*
Y495963D01*
X635376D01*
Y495823D01*
X635795D01*
Y495684D01*
X636354D01*
Y495544D01*
X637052D01*
Y495404D01*
X638170D01*
Y495265D01*
X639287D01*
Y495125D01*
X640404D01*
Y494985D01*
X643477D01*
Y495125D01*
X644455D01*
Y495265D01*
X645293D01*
Y495404D01*
X645991D01*
Y495544D01*
X646690D01*
Y495684D01*
X646969D01*
Y495823D01*
X647248D01*
Y495963D01*
X647528D01*
Y496103D01*
X647667D01*
Y496242D01*
X647807D01*
Y496382D01*
X647947D01*
Y496661D01*
X648086D01*
Y497080D01*
X648226D01*
Y497360D01*
X648366D01*
Y497779D01*
X648505D01*
Y498198D01*
X648645D01*
Y498477D01*
X648785D01*
Y498756D01*
X648924D01*
Y498896D01*
X649064D01*
Y499036D01*
X649204D01*
Y498896D01*
X649483D01*
Y498617D01*
X649623D01*
Y498477D01*
X649762D01*
Y498058D01*
X649902D01*
Y497779D01*
X650042D01*
Y497360D01*
X650182D01*
Y496941D01*
X650321D01*
Y496661D01*
X650461D01*
Y496382D01*
X650601D01*
Y496242D01*
X650740D01*
Y496103D01*
X650880D01*
Y495963D01*
X651159D01*
Y495823D01*
X651578D01*
Y495684D01*
X652137D01*
Y495544D01*
X652835D01*
Y495404D01*
X653394D01*
Y495265D01*
X654092D01*
Y495125D01*
X654791D01*
Y494985D01*
X655769D01*
Y494846D01*
X656327D01*
Y494706D01*
X656607D01*
Y494147D01*
X656327D01*
Y494008D01*
X655769D01*
Y493868D01*
X654651D01*
Y493728D01*
X653673D01*
Y493589D01*
X652975D01*
Y493449D01*
X652277D01*
Y493309D01*
X651718D01*
Y493170D01*
X651299D01*
Y493030D01*
X651159D01*
Y492890D01*
X650880D01*
Y492751D01*
X650740D01*
Y492611D01*
X650601D01*
Y492332D01*
X650461D01*
Y492192D01*
X650321D01*
Y491773D01*
X650182D01*
Y491354D01*
X650042D01*
Y490935D01*
X649902D01*
Y490376D01*
X649762D01*
Y489817D01*
X649623D01*
Y489398D01*
X649483D01*
Y489259D01*
X649064D01*
Y489398D01*
X648924D01*
Y489678D01*
X648785D01*
Y489957D01*
X648645D01*
Y490376D01*
X648505D01*
Y490795D01*
X648366D01*
Y491354D01*
X648226D01*
Y491773D01*
X648086D01*
Y492192D01*
X647947D01*
Y492471D01*
X647807D01*
Y492611D01*
X647667D01*
Y492751D01*
X647528D01*
Y492890D01*
X647388D01*
Y493030D01*
X647109D01*
Y493170D01*
X646690D01*
Y493309D01*
X645852D01*
Y493449D01*
X644874D01*
Y493589D01*
X643896D01*
Y493728D01*
X640544D01*
Y493589D01*
X639427D01*
Y493449D01*
X638589D01*
Y493309D01*
X637751D01*
Y493170D01*
X636912D01*
Y493030D01*
X636074D01*
Y492890D01*
X635516D01*
Y492751D01*
X635097D01*
Y492611D01*
X634957D01*
Y492471D01*
X634817D01*
Y492332D01*
X634678D01*
Y492192D01*
X634538D01*
Y491912D01*
X634398D01*
Y491493D01*
X634259D01*
Y491214D01*
X634119D01*
Y490655D01*
X633979D01*
Y490236D01*
X633840D01*
Y489678D01*
X633700D01*
Y489119D01*
X633560D01*
Y488700D01*
X633421D01*
Y488281D01*
X633281D01*
Y488141D01*
X632862D01*
Y488281D01*
X632722D01*
Y488560D01*
X632583D01*
Y488979D01*
X632443D01*
Y489538D01*
X632303D01*
Y489957D01*
X632164D01*
Y490376D01*
X632024D01*
Y490935D01*
X631884D01*
Y491354D01*
X631745D01*
Y491773D01*
X631605D01*
Y492192D01*
X631465D01*
Y492332D01*
X631326D01*
Y492471D01*
X631186D01*
Y492611D01*
X631046D01*
Y492751D01*
X630767D01*
Y492890D01*
X630348D01*
Y493030D01*
X629650D01*
Y493170D01*
X628672D01*
Y493309D01*
X627694D01*
Y493449D01*
X626437D01*
Y493589D01*
X625459D01*
Y493728D01*
X624761D01*
Y493868D01*
X624062D01*
Y494008D01*
X623783D01*
Y494147D01*
X623504D01*
Y494566D01*
X623643D01*
Y494706D01*
X624062D01*
Y494846D01*
X624761D01*
Y494985D01*
X625739D01*
Y495125D01*
X626996D01*
Y495265D01*
X628392D01*
Y495404D01*
X629370D01*
Y495544D01*
X629929D01*
Y495684D01*
X630488D01*
Y495823D01*
X630767D01*
Y495963D01*
X631046D01*
Y496103D01*
X631326D01*
Y496382D01*
X631465D01*
Y496522D01*
X631605D01*
Y496801D01*
X631745D01*
Y497080D01*
X631884D01*
Y497499D01*
X632024D01*
Y497919D01*
X632164D01*
Y498338D01*
X632303D01*
Y498756D01*
X632443D01*
Y499175D01*
X632583D01*
Y499455D01*
X632722D01*
Y499734D01*
X632862D01*
Y499874D01*
X633281D01*
Y499594D01*
D02*
G37*
G36*
X621409Y491773D02*
X621548D01*
Y491493D01*
X621688D01*
Y491074D01*
X621828D01*
Y490655D01*
X621967D01*
Y490236D01*
X622107D01*
Y489817D01*
X622247D01*
Y489538D01*
X622386D01*
Y489259D01*
X622526D01*
Y488979D01*
X622666D01*
Y488700D01*
X622805D01*
Y488560D01*
X622945D01*
Y488421D01*
X623085D01*
Y488281D01*
X623224D01*
Y488141D01*
X623504D01*
Y488002D01*
X623783D01*
Y487862D01*
X624342D01*
Y487722D01*
X624901D01*
Y487583D01*
X626018D01*
Y487443D01*
X627135D01*
Y487303D01*
X628392D01*
Y487164D01*
X632583D01*
Y487303D01*
X633560D01*
Y487443D01*
X634398D01*
Y487583D01*
X635236D01*
Y487722D01*
X635935D01*
Y487862D01*
X636354D01*
Y488002D01*
X636633D01*
Y488141D01*
X636773D01*
Y488281D01*
X636912D01*
Y488560D01*
X637052D01*
Y488700D01*
X637192D01*
Y488979D01*
X637332D01*
Y489398D01*
X637471D01*
Y489817D01*
X637611D01*
Y490236D01*
X637751D01*
Y490655D01*
X637890D01*
Y491074D01*
X638030D01*
Y491354D01*
X638589D01*
Y491214D01*
X638728D01*
Y491074D01*
X638868D01*
Y490655D01*
X639008D01*
Y490236D01*
X639147D01*
Y489817D01*
X639287D01*
Y489398D01*
X639427D01*
Y488979D01*
X639566D01*
Y488700D01*
X639706D01*
Y488421D01*
X639846D01*
Y488281D01*
X640125D01*
Y488141D01*
X640265D01*
Y488002D01*
X640684D01*
Y487862D01*
X641242D01*
Y487722D01*
X642081D01*
Y487583D01*
X643058D01*
Y487443D01*
X644036D01*
Y487303D01*
X645153D01*
Y487164D01*
X646271D01*
Y487024D01*
X646969D01*
Y486884D01*
X647248D01*
Y486325D01*
X646969D01*
Y486186D01*
X645991D01*
Y486046D01*
X645014D01*
Y485906D01*
X644036D01*
Y485767D01*
X643058D01*
Y485627D01*
X642081D01*
Y485488D01*
X641242D01*
Y485348D01*
X640823D01*
Y485208D01*
X640404D01*
Y485068D01*
X640265D01*
Y484929D01*
X640125D01*
Y484789D01*
X639846D01*
Y484510D01*
X639706D01*
Y484230D01*
X639566D01*
Y483951D01*
X639427D01*
Y483532D01*
X639287D01*
Y483253D01*
X639147D01*
Y482694D01*
X639008D01*
Y482275D01*
X638868D01*
Y481996D01*
X638728D01*
Y481716D01*
X638170D01*
Y481856D01*
X638030D01*
Y482275D01*
X637890D01*
Y482694D01*
X637751D01*
Y483113D01*
X637611D01*
Y483532D01*
X637471D01*
Y483951D01*
X637332D01*
Y484230D01*
X637192D01*
Y484510D01*
X637052D01*
Y484789D01*
X636912D01*
Y484929D01*
X636773D01*
Y485068D01*
X636493D01*
Y485208D01*
X636074D01*
Y485348D01*
X635376D01*
Y485488D01*
X634538D01*
Y485627D01*
X633560D01*
Y485767D01*
X632583D01*
Y485906D01*
X628811D01*
Y485767D01*
X627694D01*
Y485627D01*
X626856D01*
Y485488D01*
X625878D01*
Y485348D01*
X625040D01*
Y485208D01*
X624202D01*
Y485068D01*
X623643D01*
Y484929D01*
X623364D01*
Y484789D01*
X623085D01*
Y484649D01*
X622945D01*
Y484510D01*
X622805D01*
Y484230D01*
X622666D01*
Y483951D01*
X622526D01*
Y483672D01*
X622386D01*
Y483253D01*
X622247D01*
Y482694D01*
X622107D01*
Y482275D01*
X621967D01*
Y481716D01*
X621828D01*
Y481158D01*
X621688D01*
Y480739D01*
X621548D01*
Y480459D01*
X621409D01*
Y480320D01*
X621129D01*
Y480459D01*
X620990D01*
Y480599D01*
X620850D01*
Y481018D01*
X620710D01*
Y481437D01*
X620571D01*
Y481856D01*
X620431D01*
Y482415D01*
X620291D01*
Y482834D01*
X620152D01*
Y483253D01*
X620012D01*
Y483672D01*
X619872D01*
Y484091D01*
X619733D01*
Y484370D01*
X619593D01*
Y484649D01*
X619453D01*
Y484789D01*
X619174D01*
Y484929D01*
X618895D01*
Y485068D01*
X618475D01*
Y485208D01*
X617777D01*
Y485348D01*
X616800D01*
Y485488D01*
X615682D01*
Y485627D01*
X614565D01*
Y485767D01*
X613587D01*
Y485906D01*
X612749D01*
Y486046D01*
X612190D01*
Y486186D01*
X611911D01*
Y486325D01*
X611771D01*
Y486465D01*
X611632D01*
Y486605D01*
X611771D01*
Y486744D01*
X611911D01*
Y486884D01*
X612470D01*
Y487024D01*
X613168D01*
Y487164D01*
X614285D01*
Y487303D01*
X615682D01*
Y487443D01*
X616800D01*
Y487583D01*
X617777D01*
Y487722D01*
X618336D01*
Y487862D01*
X618755D01*
Y488002D01*
X619174D01*
Y488141D01*
X619314D01*
Y488281D01*
X619453D01*
Y488421D01*
X619593D01*
Y488560D01*
X619733D01*
Y488840D01*
X619872D01*
Y489119D01*
X620012D01*
Y489398D01*
X620152D01*
Y489817D01*
X620291D01*
Y490236D01*
X620431D01*
Y490655D01*
X620571D01*
Y490795D01*
Y491074D01*
X620710D01*
Y491493D01*
X620850D01*
Y491773D01*
X620990D01*
Y491912D01*
X621409D01*
Y491773D01*
D02*
G37*
%LPC*%
G36*
X630767Y464816D02*
X630627D01*
Y464536D01*
X630488D01*
Y464257D01*
X630348D01*
Y463978D01*
X630208D01*
Y463698D01*
X630069D01*
Y463419D01*
X629929D01*
Y463279D01*
X629789D01*
Y463000D01*
X629650D01*
Y462721D01*
X629510D01*
Y462441D01*
X629370D01*
Y462162D01*
X629230D01*
Y461883D01*
X629091D01*
Y461603D01*
X628951D01*
Y461324D01*
X628811D01*
Y461045D01*
X628672D01*
Y460765D01*
X628532D01*
Y460625D01*
X628392D01*
Y460346D01*
X628253D01*
Y460067D01*
X628113D01*
Y459787D01*
X633281D01*
Y460067D01*
X633141D01*
Y460346D01*
X633002D01*
Y460625D01*
X632862D01*
Y460905D01*
X632722D01*
Y461184D01*
X632583D01*
Y461464D01*
X632443D01*
Y461603D01*
X632303D01*
Y461883D01*
X632164D01*
Y462162D01*
X632024D01*
Y462441D01*
X631884D01*
Y462721D01*
X631745D01*
Y463000D01*
X631605D01*
Y463279D01*
X631465D01*
Y463559D01*
X631326D01*
Y463838D01*
X631186D01*
Y464117D01*
X631046D01*
Y464397D01*
X630906D01*
Y464676D01*
X630767D01*
Y464816D01*
D02*
G37*
G36*
X678954Y456296D02*
X678675D01*
Y456156D01*
X678396D01*
Y456016D01*
X678256D01*
Y455877D01*
X678116D01*
Y455737D01*
X677977D01*
Y455039D01*
X678116D01*
Y454759D01*
X678256D01*
Y454619D01*
X678535D01*
Y454480D01*
X679094D01*
Y454619D01*
X679373D01*
Y454759D01*
X679513D01*
Y455039D01*
X679653D01*
Y455737D01*
X679513D01*
Y456016D01*
X679373D01*
Y456156D01*
X678954D01*
Y456296D01*
D02*
G37*
%LPD*%
G36*
Y455877D02*
X679234D01*
Y455458D01*
X679094D01*
Y455178D01*
X679234D01*
Y454759D01*
X679094D01*
Y454899D01*
X678954D01*
Y455178D01*
X678815D01*
Y455318D01*
X678675D01*
Y454759D01*
X678396D01*
Y455458D01*
Y455597D01*
Y455877D01*
X678535D01*
Y456016D01*
X678954D01*
Y455877D01*
D02*
G37*
%LPC*%
G36*
X678815D02*
X678675D01*
Y455737D01*
Y455458D01*
X678954D01*
Y455597D01*
X679094D01*
Y455737D01*
X678815D01*
Y455877D01*
D02*
G37*
G36*
X653534Y465514D02*
X645433D01*
Y462860D01*
X653813D01*
Y463000D01*
X654092D01*
Y463140D01*
X654232D01*
Y463279D01*
X654372D01*
Y463559D01*
X654511D01*
Y464816D01*
X654372D01*
Y464955D01*
X654232D01*
Y465095D01*
X654092D01*
Y465235D01*
X653953D01*
Y465374D01*
X653534D01*
Y465514D01*
D02*
G37*
G36*
X616660D02*
X608000D01*
Y463000D01*
X616520D01*
Y463140D01*
X616800D01*
Y463279D01*
X616939D01*
Y463419D01*
Y463559D01*
X617079D01*
Y463978D01*
X617219D01*
Y464676D01*
X617079D01*
Y465095D01*
X616939D01*
Y465235D01*
X616800D01*
Y465374D01*
X616660D01*
Y465514D01*
D02*
G37*
G36*
X616381Y460346D02*
X615682D01*
Y460206D01*
X615403D01*
Y460346D01*
X615263D01*
Y460206D01*
X614984D01*
Y460346D01*
X614844D01*
Y460206D01*
X614565D01*
Y460346D01*
X614425D01*
Y460206D01*
X614146D01*
Y460346D01*
X614006D01*
Y460206D01*
X613587D01*
Y460346D01*
X611492D01*
Y460206D01*
X611213D01*
Y460346D01*
X611073D01*
Y460206D01*
X610793D01*
Y460346D01*
X610654D01*
Y460206D01*
X610374D01*
Y460346D01*
X610235D01*
Y460206D01*
X609955D01*
Y460346D01*
X609816D01*
Y460206D01*
X609397D01*
Y460346D01*
X608140D01*
Y460206D01*
X608000D01*
Y457273D01*
X616660D01*
Y457413D01*
X616939D01*
Y457553D01*
X617079D01*
Y457692D01*
X617219D01*
Y457972D01*
X617358D01*
Y458391D01*
X617498D01*
Y459229D01*
X617358D01*
Y459648D01*
X617219D01*
Y459927D01*
X617079D01*
Y460067D01*
X616800D01*
Y460206D01*
X616381D01*
Y460346D01*
D02*
G37*
%LPD*%
D10*
X338361Y432189D02*
G03*
X338361Y432189I-1250J0D01*
G01*
X346700Y137300D02*
G03*
X346700Y137300I-1250J0D01*
G01*
X450750Y77945D02*
G03*
X450750Y77945I-1250J0D01*
G01*
X370500Y78000D02*
G03*
X370500Y78000I-1250J0D01*
G01*
X146250Y312350D02*
G03*
X146250Y312350I-1250J0D01*
G01*
X410500Y78000D02*
G03*
X410500Y78000I-1250J0D01*
G01*
X491000Y78000D02*
G03*
X491000Y78000I-1250J0D01*
G01*
X582500Y323481D02*
G03*
X582500Y323481I-1250J0D01*
G01*
X369500Y237750D02*
G03*
X369500Y237750I-1250J0D01*
G01*
X209189Y390389D02*
G03*
X209189Y390389I-1250J0D01*
G01*
X385245Y407850D02*
G03*
X385245Y407850I-1250J0D01*
G01*
X249900Y326500D02*
G03*
X249900Y326500I-1250J0D01*
G01*
X316750Y332865D02*
G03*
X316750Y332865I-1250J0D01*
G01*
X606250Y196900D02*
G03*
X606250Y196900I-1250J0D01*
G01*
X666361Y255189D02*
G03*
X666361Y255189I-1250J0D01*
G01*
X461350Y38750D02*
G03*
X461350Y38750I-1250J0D01*
G01*
X547250Y200750D02*
G03*
X547250Y200750I-1250J0D01*
G01*
D11*
X328750Y151750D02*
G03*
X328750Y151750I-151000J0D01*
G01*
X342850D02*
X355550D01*
X349200Y145400D02*
Y158100D01*
X6300Y151750D02*
X19000D01*
D12*
X160750Y483750D02*
G03*
X160750Y483750I-750J0D01*
G01*
X200750Y483750D02*
G03*
X200750Y483750I-750J0D01*
G01*
X240750D02*
G03*
X240750Y483750I-750J0D01*
G01*
X120750D02*
G03*
X120750Y483750I-750J0D01*
G01*
X80750Y483750D02*
G03*
X80750Y483750I-750J0D01*
G01*
X632248Y432998D02*
X630999Y434248D01*
X628500D01*
X627250Y432998D01*
Y431748D01*
X628500Y430499D01*
X630999D01*
X632248Y429249D01*
Y428000D01*
X630999Y426750D01*
X628500D01*
X627250Y428000D01*
X634748Y434248D02*
Y426750D01*
X638496D01*
X639746Y428000D01*
Y432998D01*
X638496Y434248D01*
X634748D01*
X654741Y432998D02*
X653492Y434248D01*
X650992D01*
X649743Y432998D01*
Y428000D01*
X650992Y426750D01*
X653492D01*
X654741Y428000D01*
X657240Y426750D02*
Y431748D01*
X659740Y434248D01*
X662239Y431748D01*
Y426750D01*
Y430499D01*
X657240D01*
X664738Y426750D02*
Y434248D01*
X668487D01*
X669736Y432998D01*
Y430499D01*
X668487Y429249D01*
X664738D01*
X667237D02*
X669736Y426750D01*
X672236Y434248D02*
Y426750D01*
X675984D01*
X677234Y428000D01*
Y432998D01*
X675984Y434248D01*
X672236D01*
X388250Y431250D02*
Y438748D01*
X390749Y436248D01*
X393248Y438748D01*
Y431250D01*
X400746Y437498D02*
X399496Y438748D01*
X396997D01*
X395748Y437498D01*
Y432500D01*
X396997Y431250D01*
X399496D01*
X400746Y432500D01*
X403245Y438748D02*
Y432500D01*
X404495Y431250D01*
X406994D01*
X408244Y432500D01*
Y438748D01*
X314750Y252998D02*
X316000Y254248D01*
X318499D01*
X319748Y252998D01*
Y251748D01*
X318499Y250499D01*
X317249D01*
X318499D01*
X319748Y249249D01*
Y248000D01*
X318499Y246750D01*
X316000D01*
X314750Y248000D01*
X329745Y246750D02*
X332244D01*
X330995D01*
Y254248D01*
X329745Y252998D01*
X343491Y246750D02*
Y254248D01*
X348489Y246750D01*
Y254248D01*
X355987Y252998D02*
X354737Y254248D01*
X352238D01*
X350988Y252998D01*
Y248000D01*
X352238Y246750D01*
X354737D01*
X355987Y248000D01*
X370982Y252998D02*
X369732Y254248D01*
X367233D01*
X365984Y252998D01*
Y248000D01*
X367233Y246750D01*
X369732D01*
X370982Y248000D01*
Y250499D01*
X368483D01*
X373481Y246750D02*
Y254248D01*
X378480Y246750D01*
Y254248D01*
X380979D02*
Y246750D01*
X384728D01*
X385977Y248000D01*
Y252998D01*
X384728Y254248D01*
X380979D01*
X317249Y261000D02*
Y268498D01*
X313500Y264749D01*
X318498D01*
X333494Y261000D02*
X328495D01*
X333494Y265998D01*
Y267248D01*
X332244Y268498D01*
X329745D01*
X328495Y267248D01*
X343490D02*
X344740Y268498D01*
X347239D01*
X348489Y267248D01*
Y262250D01*
X347239Y261000D01*
X344740D01*
X343490Y262250D01*
Y267248D01*
X370982D02*
X369732Y268498D01*
X367233D01*
X365983Y267248D01*
Y262250D01*
X367233Y261000D01*
X369732D01*
X370982Y262250D01*
Y264749D01*
X368482D01*
X373481Y261000D02*
Y268498D01*
X378479Y261000D01*
Y268498D01*
X380978D02*
Y261000D01*
X384727D01*
X385977Y262250D01*
Y267248D01*
X384727Y268498D01*
X380978D01*
X299748Y15748D02*
X298499Y16998D01*
X296000D01*
X294750Y15748D01*
Y10750D01*
X296000Y9500D01*
X298499D01*
X299748Y10750D01*
Y13249D01*
X297249D01*
X302248Y9500D02*
Y16998D01*
X307246Y9500D01*
Y16998D01*
X309745D02*
Y9500D01*
X313494D01*
X314744Y10750D01*
Y15748D01*
X313494Y16998D01*
X309745D01*
X573998Y189748D02*
X572749Y190998D01*
X570250D01*
X569000Y189748D01*
Y184750D01*
X570250Y183500D01*
X572749D01*
X573998Y184750D01*
X576498Y183500D02*
Y188498D01*
X578997Y190998D01*
X581496Y188498D01*
Y183500D01*
Y187249D01*
X576498D01*
X583995Y183500D02*
Y190998D01*
X588994Y183500D01*
Y190998D01*
X591493Y183500D02*
X593992D01*
X592742D01*
Y190998D01*
X591493Y189748D01*
X156248Y458998D02*
X154999Y460248D01*
X152500D01*
X151250Y458998D01*
Y454000D01*
X152500Y452750D01*
X154999D01*
X156248Y454000D01*
X158748Y452750D02*
Y457748D01*
X161247Y460248D01*
X163746Y457748D01*
Y452750D01*
Y456499D01*
X158748D01*
X166245Y452750D02*
Y460248D01*
X171243Y452750D01*
Y460248D01*
X173743Y458998D02*
X174992Y460248D01*
X177491D01*
X178741Y458998D01*
Y454000D01*
X177491Y452750D01*
X174992D01*
X173743Y454000D01*
Y458998D01*
X334000Y168748D02*
X336499D01*
X335250D01*
Y161250D01*
X334000D01*
X336499D01*
X340248D02*
Y168748D01*
X345246Y161250D01*
Y168748D01*
X465248Y24001D02*
Y26500D01*
X463998Y27750D01*
X459000D01*
X457750Y26500D01*
Y24001D01*
X459000Y22752D01*
X463998D01*
X465248Y24001D01*
Y20252D02*
X459000D01*
X457750Y19003D01*
Y16504D01*
X459000Y15254D01*
X465248D01*
Y12755D02*
Y7756D01*
Y10256D01*
X457750D01*
X328498Y15748D02*
X327249Y16998D01*
X324750D01*
X323500Y15748D01*
Y10750D01*
X324750Y9500D01*
X327249D01*
X328498Y10750D01*
Y13249D01*
X325999D01*
X330998Y9500D02*
Y16998D01*
X335996Y9500D01*
Y16998D01*
X338495D02*
Y9500D01*
X342244D01*
X343493Y10750D01*
Y15748D01*
X342244Y16998D01*
X338495D01*
X294750Y41249D02*
X296000Y42499D01*
X298499D01*
X299748Y41249D01*
Y36251D01*
X298499Y35001D01*
X296000D01*
X294750Y36251D01*
Y41249D01*
X309745Y35001D02*
X312244D01*
X310995D01*
Y42499D01*
X309745Y41249D01*
X328489Y35001D02*
X323491D01*
X328489Y40000D01*
Y41249D01*
X327240Y42499D01*
X324740D01*
X323491Y41249D01*
X338486D02*
X339736Y42499D01*
X342235D01*
X343484Y41249D01*
Y40000D01*
X342235Y38750D01*
X340985D01*
X342235D01*
X343484Y37500D01*
Y36251D01*
X342235Y35001D01*
X339736D01*
X338486Y36251D01*
X390750Y528248D02*
Y520750D01*
X394499D01*
X395748Y522000D01*
Y526998D01*
X394499Y528248D01*
X390750D01*
X403246D02*
X398248D01*
Y520750D01*
X403246D01*
X398248Y524499D02*
X400747D01*
X405745Y528248D02*
Y520750D01*
X409494D01*
X410744Y522000D01*
Y523249D01*
X409494Y524499D01*
X405745D01*
X409494D01*
X410744Y525748D01*
Y526998D01*
X409494Y528248D01*
X405745D01*
X413243D02*
Y522000D01*
X414492Y520750D01*
X416992D01*
X418241Y522000D01*
Y528248D01*
X425739Y526998D02*
X424489Y528248D01*
X421990D01*
X420740Y526998D01*
Y522000D01*
X421990Y520750D01*
X424489D01*
X425739Y522000D01*
Y524499D01*
X423240D01*
X192502Y526998D02*
X191253Y528248D01*
X188754D01*
X187504Y526998D01*
Y522000D01*
X188754Y520750D01*
X191253D01*
X192502Y522000D01*
X195002Y520750D02*
Y525748D01*
X197501Y528248D01*
X200000Y525748D01*
Y520750D01*
Y524499D01*
X195002D01*
X202499Y520750D02*
Y528248D01*
X207498Y520750D01*
Y528248D01*
X209997Y520750D02*
X212496D01*
X211246D01*
Y528248D01*
X209997Y526998D01*
X238750D02*
X237501Y528248D01*
X235002D01*
X233752Y526998D01*
Y525748D01*
X235002Y524499D01*
X237501D01*
X238750Y523249D01*
Y522000D01*
X237501Y520750D01*
X235002D01*
X233752Y522000D01*
X241250Y528248D02*
Y520750D01*
X244998D01*
X246248Y522000D01*
Y526998D01*
X244998Y528248D01*
X241250D01*
X151253Y526998D02*
X150003Y528248D01*
X147504D01*
X146254Y526998D01*
Y522000D01*
X147504Y520750D01*
X150003D01*
X151253Y522000D01*
X153752Y520750D02*
Y525748D01*
X156251Y528248D01*
X158750Y525748D01*
Y520750D01*
Y524499D01*
X153752D01*
X161250Y520750D02*
Y528248D01*
X166248Y520750D01*
Y528248D01*
X168747Y526998D02*
X169997Y528248D01*
X172496D01*
X173746Y526998D01*
Y522000D01*
X172496Y520750D01*
X169997D01*
X168747Y522000D01*
Y526998D01*
X266254Y528248D02*
Y520750D01*
X268754Y523249D01*
X271253Y520750D01*
Y528248D01*
X273752Y520750D02*
Y525748D01*
X276251Y528248D01*
X278750Y525748D01*
Y520750D01*
Y524499D01*
X273752D01*
X281250Y528248D02*
Y520750D01*
Y523249D01*
X286248Y528248D01*
X282499Y524499D01*
X286248Y520750D01*
X293746Y528248D02*
X288747D01*
Y520750D01*
X293746D01*
X288747Y524499D02*
X291246D01*
X110003Y520750D02*
Y528248D01*
X112502Y525748D01*
X115002Y528248D01*
Y520750D01*
X122499Y526998D02*
X121250Y528248D01*
X118750D01*
X117501Y526998D01*
Y522000D01*
X118750Y520750D01*
X121250D01*
X122499Y522000D01*
X124998Y528248D02*
Y522000D01*
X126248Y520750D01*
X128747D01*
X129997Y522000D01*
Y528248D01*
X70003Y520750D02*
Y528248D01*
X73752D01*
X75002Y526998D01*
Y524499D01*
X73752Y523249D01*
X70003D01*
X77501Y528248D02*
Y520750D01*
X80000Y523249D01*
X82499Y520750D01*
Y528248D01*
X84998Y520750D02*
Y528248D01*
X88747D01*
X89997Y526998D01*
Y524499D01*
X88747Y523249D01*
X84998D01*
X87498D02*
X89997Y520750D01*
X346254Y528248D02*
Y520750D01*
X350003D01*
X351253Y522000D01*
Y523249D01*
X350003Y524499D01*
X346254D01*
X350003D01*
X351253Y525748D01*
Y526998D01*
X350003Y528248D01*
X346254D01*
X357501D02*
X355002D01*
X353752Y526998D01*
Y522000D01*
X355002Y520750D01*
X357501D01*
X358750Y522000D01*
Y526998D01*
X357501Y528248D01*
X364998D02*
X362499D01*
X361250Y526998D01*
Y522000D01*
X362499Y520750D01*
X364998D01*
X366248Y522000D01*
Y526998D01*
X364998Y528248D01*
X368747D02*
X373746D01*
X371246D01*
Y520750D01*
X310003D02*
Y528248D01*
X313752D01*
X315002Y526998D01*
Y524499D01*
X313752Y523249D01*
X310003D01*
X312502D02*
X315002Y520750D01*
X322499Y526998D02*
X321250Y528248D01*
X318750D01*
X317501Y526998D01*
Y525748D01*
X318750Y524499D01*
X321250D01*
X322499Y523249D01*
Y522000D01*
X321250Y520750D01*
X318750D01*
X317501Y522000D01*
X324998Y528248D02*
X329997D01*
X327498D01*
Y520750D01*
D13*
X392250Y223250D02*
G03*
X392250Y223250I-3000J0D01*
G01*
D14*
X408250Y394750D02*
G03*
X408250Y394750I-2500J0D01*
G01*
D15*
X328000Y448200D02*
Y449000D01*
X301000D02*
X328000D01*
X301000Y448200D02*
Y449000D01*
X328000Y433000D02*
Y433800D01*
X301000Y433000D02*
X328000D01*
X301000D02*
Y433800D01*
X351950Y175400D02*
X453550D01*
X351950Y124600D02*
Y175400D01*
Y124600D02*
X453550D01*
Y175400D01*
X445000Y61695D02*
Y69695D01*
X441500Y61695D02*
X445000D01*
X423000D02*
Y69695D01*
Y61695D02*
X426500D01*
X364750Y61750D02*
Y69750D01*
X361250Y61750D02*
X364750D01*
X342750D02*
Y69750D01*
Y61750D02*
X346250D01*
X2200Y318350D02*
Y460150D01*
X134000D01*
Y318350D02*
Y329750D01*
Y364750D02*
Y371750D01*
Y406750D02*
Y413750D01*
Y448750D02*
Y460150D01*
X2200Y318350D02*
X134000D01*
X268500Y472750D02*
Y505750D01*
X291250D02*
X291500D01*
X268500D02*
X268750D01*
X291500Y472750D02*
Y505750D01*
X291250Y472750D02*
X291500D01*
X268500D02*
X268750D01*
X308500D02*
Y505750D01*
X331250D02*
X331500D01*
X308500D02*
X308750D01*
X331500Y472750D02*
Y505750D01*
X331250Y472750D02*
X331500D01*
X308500D02*
X308750D01*
X348500D02*
Y505750D01*
X371250D02*
X371500D01*
X348500D02*
X348750D01*
X371500Y472750D02*
Y505750D01*
X371250Y472750D02*
X371500D01*
X348500D02*
X348750D01*
X382750Y61750D02*
X386250D01*
X382750D02*
Y69750D01*
X401250Y61750D02*
X404750D01*
Y69750D01*
X463250Y61750D02*
X466750D01*
X463250D02*
Y69750D01*
X481750Y61750D02*
X485250D01*
Y69750D01*
X709750Y287531D02*
X732250D01*
X587250D02*
Y423531D01*
X732250Y287531D02*
Y423531D01*
X626750Y423531D02*
X681750D01*
X587250Y287531D02*
X598750D01*
X587250Y423531D02*
X598750D01*
X626750Y287531D02*
X681750D01*
X709750Y423531D02*
X732250D01*
X379250Y182250D02*
X413250D01*
X379250Y233250D02*
X413250D01*
Y182250D02*
Y233250D01*
X379250Y182250D02*
Y233250D01*
X345900Y216500D02*
Y226500D01*
X358600Y216500D02*
Y226500D01*
X439500Y204650D02*
X449500D01*
X439500Y217350D02*
X449500D01*
X208750Y426500D02*
X209550D01*
X208750Y399500D02*
Y426500D01*
Y399500D02*
X209550D01*
X223950Y426500D02*
X224750D01*
Y399500D02*
Y426500D01*
X223950Y399500D02*
X224750D01*
X204050Y359168D02*
Y369168D01*
X216750Y359168D02*
Y369168D01*
X307600Y392000D02*
Y402000D01*
X294900Y392000D02*
Y402000D01*
X244850Y386250D02*
Y396250D01*
X232150Y386250D02*
Y396250D01*
X294900Y412000D02*
Y422000D01*
X307600Y412000D02*
Y422000D01*
X239150Y351877D02*
Y372459D01*
X221650Y351877D02*
Y372459D01*
X397250Y278250D02*
Y403250D01*
Y278250D02*
X522250D01*
Y403250D01*
X397250D02*
X522250D01*
X257900Y333000D02*
X280400D01*
X257900Y367000D02*
X280400D01*
X209650Y356518D02*
X219650D01*
X209650Y343818D02*
X219650D01*
X239150Y327377D02*
Y347959D01*
X221650Y327377D02*
Y347959D01*
X204300Y331168D02*
Y341168D01*
X217000Y331168D02*
Y341168D01*
X322250Y360365D02*
X356250D01*
X322250Y322865D02*
X356250D01*
X337050Y377401D02*
Y390401D01*
X356050Y377401D02*
Y390401D01*
X616000Y190900D02*
X747800D01*
X616000Y49100D02*
Y60500D01*
Y95500D02*
Y102500D01*
Y137500D02*
Y144500D01*
Y179500D02*
Y190900D01*
Y49100D02*
X747800D01*
Y190900D01*
X629000Y256000D02*
Y256800D01*
Y256000D02*
X656000D01*
Y256800D01*
X629000Y271200D02*
Y272000D01*
X656000D01*
Y271200D02*
Y272000D01*
X352000Y650D02*
Y51450D01*
X453600D01*
Y650D02*
Y51450D01*
X352000Y650D02*
X453600D01*
X502000Y162150D02*
X512000D01*
X502000Y174850D02*
X512000D01*
X499959Y192250D02*
X520541D01*
X499959Y174750D02*
X520541D01*
X640100Y216000D02*
Y226000D01*
X627400Y216000D02*
Y226000D01*
Y236000D02*
Y246000D01*
X640100Y236000D02*
Y246000D01*
X539500Y210000D02*
Y232500D01*
X505500Y210000D02*
Y232500D01*
X516150Y159750D02*
Y169750D01*
X528850Y159750D02*
Y169750D01*
X524459Y192250D02*
X545041D01*
X524459Y174750D02*
X545041D01*
X533000Y161900D02*
X543000D01*
X533000Y174600D02*
X543000D01*
X14165Y389247D02*
X10832D01*
X12498D01*
Y380916D01*
X10832Y379250D01*
X9166D01*
X7500Y380916D01*
X17497Y389247D02*
Y379250D01*
X24161D01*
X34158Y387581D02*
X32492Y389247D01*
X29160D01*
X27494Y387581D01*
Y380916D01*
X29160Y379250D01*
X32492D01*
X34158Y380916D01*
X44155Y389247D02*
X40823D01*
X42489D01*
Y380916D01*
X40823Y379250D01*
X39156D01*
X37490Y380916D01*
X47487Y389247D02*
Y379250D01*
X54152D01*
X64148Y387581D02*
X62482Y389247D01*
X59150D01*
X57484Y387581D01*
Y380916D01*
X59150Y379250D01*
X62482D01*
X64148Y380916D01*
X74145Y389247D02*
X70813D01*
X72479D01*
Y380916D01*
X70813Y379250D01*
X69147D01*
X67481Y380916D01*
X77477Y389247D02*
Y379250D01*
X84142D01*
X94139Y387581D02*
X92473Y389247D01*
X89140D01*
X87474Y387581D01*
Y380916D01*
X89140Y379250D01*
X92473D01*
X94139Y380916D01*
X104136Y389247D02*
X100803D01*
X102469D01*
Y380916D01*
X100803Y379250D01*
X99137D01*
X97471Y380916D01*
X107468Y389247D02*
Y379250D01*
X114132D01*
X124129Y387581D02*
X122463Y389247D01*
X119131D01*
X117465Y387581D01*
Y380916D01*
X119131Y379250D01*
X122463D01*
X124129Y380916D01*
D16*
X281711Y426814D02*
Y429692D01*
Y384226D02*
Y387104D01*
X258089Y384226D02*
X281711D01*
X258089Y426814D02*
Y429692D01*
X281711D01*
X258089Y384226D02*
Y387104D01*
X590693Y208268D02*
Y211146D01*
Y253734D02*
X614315D01*
X590693Y250856D02*
Y253734D01*
Y208268D02*
X614315D01*
Y211146D01*
Y250856D02*
Y253734D01*
D17*
X518300Y455650D02*
Y505650D01*
X391300Y455650D02*
Y505650D01*
Y455650D02*
X518300D01*
X391300Y505650D02*
X518300D01*
D18*
X329167Y416083D02*
X325835D01*
Y411084D01*
X329167D01*
X325835Y413583D02*
X327501D01*
X330833Y411084D02*
Y416083D01*
X334165Y411084D01*
Y416083D01*
X508586Y108540D02*
X509419Y109373D01*
X511085D01*
X511918Y108540D01*
Y107707D01*
X511085Y106874D01*
X510252D01*
X511085D01*
X511918Y106041D01*
Y105208D01*
X511085Y104375D01*
X509419D01*
X508586Y105208D01*
X513584Y109373D02*
Y106041D01*
X515250Y104375D01*
X516916Y106041D01*
Y109373D01*
X518582Y108540D02*
X519415Y109373D01*
X521081D01*
X521914Y108540D01*
Y107707D01*
X521081Y106874D01*
X520248D01*
X521081D01*
X521914Y106041D01*
Y105208D01*
X521081Y104375D01*
X519415D01*
X518582Y105208D01*
X508586Y130373D02*
Y127041D01*
X510252Y125375D01*
X511918Y127041D01*
Y130373D01*
X516916Y129540D02*
X516083Y130373D01*
X514417D01*
X513584Y129540D01*
Y126208D01*
X514417Y125375D01*
X516083D01*
X516916Y126208D01*
X521914Y129540D02*
X521081Y130373D01*
X519415D01*
X518582Y129540D01*
Y126208D01*
X519415Y125375D01*
X521081D01*
X521914Y126208D01*
X588752Y266373D02*
X590418D01*
X589585D01*
Y261375D01*
X588752D01*
X590418D01*
X592917D02*
Y266373D01*
X596250Y261375D01*
Y266373D01*
X597916D02*
Y261375D01*
Y263874D01*
X601248D01*
Y266373D01*
Y261375D01*
X323752Y427123D02*
X325418D01*
X324585D01*
Y422125D01*
X323752D01*
X325418D01*
X327917D02*
Y427123D01*
X331250Y422125D01*
Y427123D01*
X332916D02*
Y422125D01*
Y424624D01*
X336248D01*
Y427123D01*
Y422125D01*
X511918Y119873D02*
X508586D01*
Y117374D01*
X510252Y118207D01*
X511085D01*
X511918Y117374D01*
Y115708D01*
X511085Y114875D01*
X509419D01*
X508586Y115708D01*
X513584Y119873D02*
Y116541D01*
X515250Y114875D01*
X516916Y116541D01*
Y119873D01*
X518582Y119040D02*
X519415Y119873D01*
X521081D01*
X521914Y119040D01*
Y115708D01*
X521081Y114875D01*
X519415D01*
X518582Y115708D01*
Y119040D01*
D19*
X291045Y379597D02*
X282582Y388061D01*
X291045D02*
X282582Y379597D01*
X291045Y383829D02*
X282582D01*
X286814Y388061D02*
Y379597D01*
X623650Y203639D02*
X615186Y212103D01*
X623650D02*
X615186Y203639D01*
X623650Y207871D02*
X615186D01*
X619418Y212103D02*
Y203639D01*
D20*
X501329Y26665D02*
X497997Y29997D01*
X491332D01*
X488000Y26665D01*
Y13335D01*
X491332Y10003D01*
X497997D01*
X501329Y13335D01*
X507994Y10003D02*
Y23332D01*
X514658Y29997D01*
X521323Y23332D01*
Y10003D01*
Y20000D01*
X507994D01*
X527987Y10003D02*
Y29997D01*
X541316Y10003D01*
Y29997D01*
X547981D02*
Y10003D01*
X561310D01*
X567974D02*
X574639D01*
X571306D01*
Y23332D01*
X567974D01*
X584636Y10003D02*
Y23332D01*
X594632D01*
X597965Y20000D01*
Y10003D01*
X604629D02*
Y29997D01*
Y16668D02*
X614626Y23332D01*
X604629Y16668D02*
X614626Y10003D01*
X644616Y29997D02*
Y16668D01*
X651281Y10003D01*
X657945Y16668D01*
Y29997D01*
X677939Y10003D02*
X664610D01*
X677939Y23332D01*
Y26665D01*
X674606Y29997D01*
X667942D01*
X664610Y26665D01*
M02*
