M48
;Layer_Color=9474304
;FILE_FORMAT=4:4
METRIC,LZ
;TYPE=PLATED
T01F00S00C0.3000
T02F00S00C0.5000
T03F00S00C0.7112
T04F00S00C1.0000
T05F00S00C1.8000
T06F00S00C1.8034
T07F00S00C2.5000
;TYPE=NON_PLATED
T08F00S00C2.9972
T09F00S00C3.0000
%
T01
X0003Y00026
X0007
X0011
X0013Y00066
X0009
X0007Y00106
X0011
X0003
X0015
X0019
X0023
X0027
X0031
X0035
X0039
X0043
X0047
X0051
X0049Y00066
X0045
X0043Y00026
X0047
X0051
X0039
X0035
X0031
X0027
X0023
X0019
X0015
X0021Y00066
X0025
X0033
X0037
X0057
X0061
X0059Y00106
X0063
X0067
X0071
X0075
X0079
X0083
X0087
X0091
X0089Y00066
X0085
X0081
X0077
X0073
X0069
X0067Y00026
X0071
X0075
X0079
X0083
X0087
X0091
X0063
X0059
X0055
Y00106
X0095
X0097Y00146
X0095Y00186
X0097Y00226
X0095Y00266
X0097Y00306
X0095Y00346
X0097Y00386
X0095Y00426
X0097Y00466
X0095Y00506
X0091
X0089Y00466
X0087Y00426
X0091
X0093Y00386
X0089
X0085
X0081
X0079Y00426
X0083
Y00506
X0079
X0075
X0071
X0067
X0063
X0065Y00466
X0069
X0070475Y00465
X0071Y00426
X0075
X00749861Y00448496
X0077Y00466
X0073Y00386
X0071Y00346
X0075
X0079
X0083
X0087
X0091
X0093Y00306
X0089
X0085
X0081
X0083Y00266
X0087
X0089Y00226
X0093
X0091Y00186
X0087
X0083
X0079
X0075
X0071
X0073Y00226
X0077
X0081
X0085
Y00146
X0089
X0093
X0081
X0077
X0073
X0069
Y00226
X006595Y0022425
X006425Y0025525
X00625Y0025525
X0060675
X0059Y00266
X0055425Y0025525
X00634Y0027925
X006715Y002711
X0071Y00266
X0073Y00306
X0069
X00642Y00318
X0065775Y0035675
Y0036575
X0067375
X0067375Y004035
X0065775
Y003945
X006245Y003735
X0059475Y003955
X0059955Y004175
Y0043425
X005995Y00464
X0054875
X0054875Y0043425
Y004175
X00549Y003935
X0056425Y003605
X005275Y003605
X0050275Y0035675
Y0036575
X0048675Y0035675
X0047Y00346
X0044175Y0036575
X0042575
Y0035675
X0042575Y003945
Y004035
X0044175
X0048675Y003945
X0050275
Y004035
X0049Y00466
X0045
X0041
X003675Y00464
X0036755Y0043425
Y004175
X0036275Y003955
X0037Y00386
X003925Y003735
X0041Y00318
X00402Y0027925
X004105Y0025525
X00393Y0025525
X0037475
X0035Y00266
X0032225Y0025525
X00304Y0025535
X0028675Y00255358
X0029525Y0027875
X00258Y002721
X0023Y00266
X0020625Y002711
X0017725Y0025525
X0015975Y0025525
X0016875Y0027925
X0017675Y00318
X001925Y0035675
Y0036575
X002085
X002085Y004035
X001925
Y003945
X0015925Y003735
X0023Y00346
X0025475Y0035675
X00270751
Y0036575
X0027075Y003945
Y004035
X0025475Y003945
X0029Y00386
X002955Y003605
X0033225Y003605
X00317Y003935
X0031675Y004175
Y0043425
X0031675Y00464
X0029Y00466
X0025
X0021
X0017
X0023Y00426
X0028525Y0053
X0028025Y00535
X0034525
X0035025Y0053
X002885Y003181
X0045Y00306
X004395Y002711
X0047Y00266
X0049Y002721
X0052725Y0027875
X0051875Y00255359
X00536Y0025535
X00519001Y003181
X0047Y00186
X0049Y00146
X0045
X004275Y0022425
X0019425Y0022425
X0023Y00186
X0025Y00146
X0021
X001415Y0025525
X00089
X0007075Y0025535
X000535Y00255359
X00062Y0027875
X0002475Y002721
X0005375Y003181
X0006225Y003605
X000375Y0035675
Y0036575
X000215Y0035675
X000215Y003945
X000375
Y004035
X0008375Y003935
X000835Y004175
Y0043425
X000835Y00464
X0013425
X001343Y0043425
Y004175
X001295Y003955
X0013Y00386
X00099Y003605
X0013Y00546
X0005
X0003Y00586
X0005Y00626
X0009
Y00706
X0005
X00056Y00746
Y00755
X0004
Y00746
X00074Y0074725
X00095526Y0074925
X001123
X0011Y00826
X0007
X00056Y008255
Y008345
X0004
Y008255
X0004Y0079425
Y0078525
X00056
Y0079425
X0005Y00866
X0009
X0013
X001215Y008955
X00109
X0015825Y0089625
Y0086375
X00153948Y00815001
X00185Y0081725
Y0082775
X0018975Y00801
X00215448Y00803751
Y00816501
X002235Y0081025
Y00795
X00233Y007585
X00226375Y0074375
X00218125
X002115Y007585
X0018825Y00755166
X0017075
Y00732167
X0018825
X0017Y00706
X0025
X002615Y0069575
X00261059Y0067525
X0026135Y00647
Y00632
X0027325Y0062275
X00260963Y00604959
X002611Y005955
X0026525Y0057825
X0027025Y00545
X0027525Y0054
X0025Y00546
X0021
X0017
X00219Y00622
Y0063275
X002951Y005965
X0033Y006405
X00335Y00647
X0034Y006535
X00355Y00647
X003695Y0067125
X0036025Y0069575
X00396Y0071675
X00421Y0071625
X0045Y00706
X0047Y00666
X0049Y00626
X0053
X0043Y00592
X00425Y00587
X0042Y00582
X00415Y00577
X0041Y00546
X00379Y0057825
X003665
X0034025Y0054
X0033525Y00545
X0031275Y006779
X003115Y0073225
X0033Y0073375
X0033Y00786
X0037
X00355Y0080375
Y00815
X0035Y00826
X0039
X0041Y00866
X0039Y00906
X0043
X0047
X0051
X0049Y00866
X0033705Y0086
X0032435
X0031165
X0029895
X0028625
Y009003
X0029895
X0031165
X0032435
X0033705
X0025Y00866
X00254Y00829
X002075Y008837
X002075Y0089625
X0017Y00786
X0029025Y0075
X0039Y00746
X0057Y00866
X0061
X0065
X0069
X0067Y00906
X0071
X0075
X0079
X0083
X0087
X0091
X0093Y00866
X0085
X0087Y00826
X0089Y00786
X0085
X0087Y00746
X0091
X0089Y00706
X0091Y00666
X0093Y00626
X0089
X0091Y00586
X0093Y00546
X0089
X0081Y00626
X0077
X0073
X0071863Y0063327
X0070163
X0069Y00626
X00691Y006025
X00678
X00645Y0060875
X00664Y0064125
X00683Y006665
X007Y006865
X006831Y0070625
X0065575Y00686
X0060075Y006515
X00615Y0054475
X0067Y0055725
X0071425Y005575
X00696937Y0057725
X0083Y00666
X0077Y00866
X0063Y00906
X0059
X0055
X0097Y00866
X0095Y00826
X0097Y00786
X0095Y00746
X0097Y00706
X0095Y00666
X0097Y00626
X0095Y00586
X0097Y00546
T02
X0063765Y0043425
X0052335
X0040565Y0043425
X0029135
X001724Y0043425
X000581
X0009075Y0056025
X00325Y0058125
X00506Y00644
X0053325Y00668
X00564674Y00714289
X00589174
X00605981Y006245
T03
X0058075Y00343
X0065513Y0034325
X00642437Y005375
X0050275Y0034325
X004245Y0034325
X0034875Y00343
X00270751Y0034325
X001915
X001155Y00343
X000375Y0034325
X00642437Y0057725
X0062865Y006665
Y0070625
T04
X00765Y0028
X00915
T05
X005595Y001445
Y001865
X006015
X006435
Y001445
X006015
X00813Y00477
Y00519
X00855
Y00477
X005175Y001865
Y001445
X004115Y001445
Y001865
X003695
X003275
X002855
Y001445
X003275
X003695
X0017825Y001445
Y001865
X0013625
Y001445
X0009425
Y001865
X0005225
Y001445
X00145Y0058325
Y0062525
Y0066725
X00187
Y0062525
Y0058325
X00438Y00763
X0048
X00522
Y00805
X0048
X00438
X00588Y00805
Y00763
X0063
X00672
Y00805
X0063
X00738Y00805
Y00763
X0078
Y00805
X00822
Y00763
X00813Y00603
Y00561
X00855
Y00603
T06
X00799444Y00669045
Y00710955
X00854562
Y00669045
T07
X0095Y0005
X0005Y005
Y009
X0095
T08
X0092746Y0069
T09
X0005225Y000715
X0017825
X002855Y000715
X004115
X005175Y000715
X006435
X00928Y00477
X00072Y0058325
Y0066725
X00438Y00878
X00522
X00588Y00878
X00672
X00738Y00878
X00822
X00928Y00603
M30
