M48
;Layer_Color=9474304
;FILE_FORMAT=4:4
METRIC,LZ
;TYPE=PLATED
T01F00S00C0.3000
T02F00S00C1.0000
T03F00S00C1.0200
T04F00S00C1.8000
T05F00S00C2.5000
;TYPE=NON_PLATED
T06F00S00C3.0000
%
T01
X005015Y0005425
X005215
X005415
X005315Y0007425
X006515
X006615Y0005425
X006815
X006915Y0003425
X007215Y0005425
X007315Y0007425
X0048675Y000685
X004875Y0006025
X00466Y0006775
X004465Y00068445
X0042525Y0006825
X0040625Y000685
X00408Y0006025
X0038525Y0006875
X0036625Y000685
X0036825Y0006025
X003455Y00069
X003215Y0005425
X003115Y0007425
X002915
X002515
X002315
X002115
X001915
X001715
X001515
X001315
X001115
X001215Y0005425
X001415
X001615
X001815
X002015
X002215
X002415
X002615
X002715Y0003425
X002515
X002315
X002115
X001915
X001715
X001515
X001315
X001115
X001215Y0001425
X001415
X001615
X001815
X002015
X002215
X002415
X002615
X002815
X001015
Y0005425
X004715Y0003425
X000915
X000715
X000815Y0005425
X000615
X000415
X000215
X000315Y0007425
X000515
X000715
X000915
X000815Y0001425
X000615
Y0009425
X000815
X000915Y0011425
X000715
X000515
X000315
X000415Y0013425
X000615
X000515Y0015425
X000315
X000415Y00174251
X000615
X000715Y00194251
X000915
X000815Y00214251
X000615
X000415
X000215
X000315Y00234251
X000515
X000715
X000915
X000815Y00254251
X000615
X000415
X000215
X000315Y00274251
X000515
X000715
X000915
X000815Y00294251
X000615
X000415
X000215
X000315Y00314251
X000515
X000715
X000915
Y00354251
X000815Y00374251
X000615
X000415
X000215
X000315Y00394251
X000515
X000715
X000915
X000815Y00454251
X000615
X000415
X000215
X000315Y00434251
X000515
X000415Y00414251
X000215
X000315Y00354251
X000515
X000415Y00334251
X000215
X000315Y00194251
X000515
X000215Y00174251
Y0013425
Y0009425
X000415
X001015
X001215
X001415
X001615
X001815
X002015
X002215
X002415
X002515Y0011425
X002715
X002915
X003115
X003215Y0013425
X003015
X003115Y0015425
X002915
X003015Y00174251
X003215
X003415
X003515Y00194251
X0035225Y002255
X003215Y00214251
X003015
X003085Y002
X0027275Y00196
X0027225Y0016925
X002615Y00214251
X0027575Y0022525
X002615Y00254251
Y00294251
X002825Y0029225
X00303Y00314615
X0034375
X003415Y00294251
X003315Y00274251
X0032775Y00332865
Y00350365
X0035075
Y00332865
X0034655Y003769
Y003909
X00312Y00406
X0030125Y00401
Y00413
X0029625Y00429517
X00316Y0042475
X003575Y0043
X00365
X003915Y00434251
X0041975Y0043
X0042475Y00435
X0044875Y004355
X004548Y004605
X004675
X004802
X004294
X004115Y00474251
X0038Y0046
X003725
X0036Y00473
X00333
X0032
X0025925Y00481
X002525Y0045
X002575Y0044
X002675
X002775
X002725Y0045
X002295
X002215Y00454251
X002385Y0038725
X002815Y00374251
X0021065Y00350168
X002215Y00294251
X0018175Y0029675
X001715Y00314251
X001415Y00294251
X001215
X001115Y00314251
X0010125Y0026975
X001015Y00254251
X001215
X001415
X001615
X001815
X001715Y00234251
X001515
X001315
X001115
X001215Y00214251
X001415
X001615
X001815
X001715Y00194251
X001515
X001315
X001115
X001015Y00214251
X001515Y0015425
X001715
X001815Y0013425
X002015
X002115Y0015425
Y00194251
X002315
X002115Y00234251
Y0011425
X001915
X001715
X001515
X001315
X001115
X001415Y0013425
X001615
X003215Y0009425
X0034675Y001165
X0035975
X0035975Y0010475
X0038675Y001165
X0039975
X00400205Y00105015
X00427Y001165
X0044
X00440578Y00104984
X0046725Y001165
X0048025
X00481Y0010475
X00482Y0013975
Y0014775
Y0015575
X004915Y00194251
X004815Y00214251
X004915Y00234251
X00447Y002365
X004415Y00254251
Y00294251
X004615
X004815
X004915Y00314251
X004715
X004515
X004315
X004415Y00334251
X004615
X004815
X004915Y00354251
X004715
X004515
X004315
X004415Y00374251
X004615
X004815
X0040077Y0037575
X0039975Y0039973
X0040077Y0035075
X004215Y00334251
X0040077Y0031075
Y0029575
X0040075Y0027975
X004405Y00211
Y001925
Y001825
X0045075Y001925
X001215Y00454251
X001015
X00113395Y0047775
X00126645
X005115Y00474251
X00512Y0043025
X0049975
X0051873Y0040075
Y0039075
X0054525Y0039575
X00571501Y00394251
X00591501
Y00354251
X00571501
X005515
X00561501Y00334251
X00581501
X00591501Y00314251
X00571501
X005515
Y00274251
X0054325Y0027425
X005415Y00254251
X0054825Y002355
X0057175Y0023375
X00575Y00215
X00561501Y00214251
X005415
X005215
X005015
X00511Y001685
X005225Y0016075
X00534Y0016825
X005515Y00194251
X00601501Y00214251
X006Y00231001
X0060575Y0024725
X0063375Y00245
Y00237
Y00225
X006515Y00234251
X006715
X006815Y00254251
X007015
X007215
X007315Y00274251
X007115
X007215Y00294251
X007315Y00314251
X007115
X006915
X007015Y00334251
X007215
X007115Y00354251
X007315
X007215Y00374251
X007115Y00394251
X007315
X007215Y00414251
X007315Y00434251
X007215Y00454251
X007315Y00474251
X007115
X006715
X006515
X00591501
X00571501
X0055175Y004615
X00571501Y00434251
X00591501
X0061425Y00365
X00623
X0063875Y00367481
Y00356481
Y00345481
Y00323481
X0063925Y0028575
X0064575Y00289
X006515Y00274251
X006715
X006615Y00254251
X006815Y00214251
X006715Y00194251
X006515
X00631501
X006415Y00174251
X006615
Y0013425
X006815
X006915Y0011425
X006715
X006515
X006615Y0009425
X007215
X007315Y0011425
X007215Y0013425
X007315Y0015425
X007215Y00174251
X007315Y00194251
X007215Y00214251
X007315Y00234251
X007115
X00591501Y00274251
X0051975Y0028177
X0050975
X005115Y00314251
X005015Y00334251
X0051Y00345
Y003525
Y0036
Y003675
X0063875Y00389481
X0050125Y00128
X0050877Y0010052
X005155Y0009725
X005015Y00494251
X005115Y00514251
X005415Y00494251
X00571501Y00514251
X00601501Y00534251
X00621501
X006415
X006615
X006815
X006915Y00514251
X006715
X0068375Y004996
X007015Y00494251
X0063125Y004996
X004802Y005008
X004675
X004548
X004015Y00494251
X003815
X0036Y005055
X003415Y00494251
X0032Y005055
X003015Y00494251
X0028Y005055
X002755Y00487
X002615Y00494251
X002445Y0049125
X002355
X002045
X001955
Y0050725
X002045
X001645Y0050725
X001555
Y0049125
X001645
X001245Y0049125
X001155
Y0050725
X001245
X000845Y0050725
X000755
Y0049125
X000845
T02
X0010275Y0015175
X0025275
T03
X003647Y0001335
Y0003875
X003901
Y0001335
X004155
Y0003875
X004409
Y0001335
X0044085Y001373
X0041545
X0039005
X0036465
Y001627
X0039005
X0041545
X0044085
T04
X00563Y00078
X00605
X00187Y0034725
X00145
Y0038925
Y0043125
X00187
Y0038925
X00563Y00162
Y0012
X00605
Y00162
T05
X0072Y0002
X0003
X0072Y0052
X0003
T06
X00678Y00078
X00072Y0034725
Y0043125
X00678Y00162
M30
