G04*
G04 #@! TF.GenerationSoftware,Altium Limited,Altium Designer,24.2.2 (26)*
G04*
G04 Layer_Color=128*
%FSLAX44Y44*%
%MOMM*%
G71*
G04*
G04 #@! TF.SameCoordinates,5A119275-FC27-4C3E-9DDE-49B88916FCE2*
G04*
G04*
G04 #@! TF.FilePolarity,Positive*
G04*
G01*
G75*
%ADD25R,0.5200X0.5200*%
%ADD27R,0.5200X0.5200*%
%ADD33R,0.9500X0.8000*%
%ADD35R,0.5500X0.5500*%
%ADD43R,0.7500X0.8500*%
%ADD44R,0.7000X0.8500*%
%ADD45R,0.8000X0.4000*%
%ADD85R,0.7000X0.4200*%
%ADD86R,0.8500X0.7500*%
%ADD87O,1.4000X0.3500*%
%ADD88R,1.0500X1.1500*%
%ADD89R,0.8000X0.9500*%
%ADD90R,0.7621X1.3082*%
G04:AMPARAMS|DCode=91|XSize=1.3082mm|YSize=0.7621mm|CornerRadius=0.3811mm|HoleSize=0mm|Usage=FLASHONLY|Rotation=270.000|XOffset=0mm|YOffset=0mm|HoleType=Round|Shape=RoundedRectangle|*
%AMROUNDEDRECTD91*
21,1,1.3082,0.0000,0,0,270.0*
21,1,0.5461,0.7621,0,0,270.0*
1,1,0.7621,0.0000,-0.2730*
1,1,0.7621,0.0000,0.2730*
1,1,0.7621,0.0000,0.2730*
1,1,0.7621,0.0000,-0.2730*
%
%ADD91ROUNDEDRECTD91*%
G04:AMPARAMS|DCode=92|XSize=0.55mm|YSize=1.25mm|CornerRadius=0.0495mm|HoleSize=0mm|Usage=FLASHONLY|Rotation=270.000|XOffset=0mm|YOffset=0mm|HoleType=Round|Shape=RoundedRectangle|*
%AMROUNDEDRECTD92*
21,1,0.5500,1.1510,0,0,270.0*
21,1,0.4510,1.2500,0,0,270.0*
1,1,0.0990,-0.5755,-0.2255*
1,1,0.0990,-0.5755,0.2255*
1,1,0.0990,0.5755,0.2255*
1,1,0.0990,0.5755,-0.2255*
%
%ADD92ROUNDEDRECTD92*%
%ADD93R,1.3082X0.7621*%
G04:AMPARAMS|DCode=94|XSize=1.3082mm|YSize=0.7621mm|CornerRadius=0.3811mm|HoleSize=0mm|Usage=FLASHONLY|Rotation=0.000|XOffset=0mm|YOffset=0mm|HoleType=Round|Shape=RoundedRectangle|*
%AMROUNDEDRECTD94*
21,1,1.3082,0.0000,0,0,0.0*
21,1,0.5461,0.7621,0,0,0.0*
1,1,0.7621,0.2730,0.0000*
1,1,0.7621,-0.2730,0.0000*
1,1,0.7621,-0.2730,0.0000*
1,1,0.7621,0.2730,0.0000*
%
%ADD94ROUNDEDRECTD94*%
%ADD95R,0.4000X0.5000*%
%ADD96R,1.3500X0.9500*%
%ADD97R,1.0000X1.2500*%
%ADD98R,0.5000X0.4000*%
%ADD99R,0.6725X0.7154*%
%ADD100R,0.7154X0.6725*%
%ADD101R,1.4562X1.2546*%
%ADD102R,0.9500X1.0500*%
%ADD103R,0.8500X0.7000*%
%ADD104R,0.8621X0.7565*%
%ADD105R,0.9100X1.2200*%
D25*
X292000Y662500D02*
D03*
X300000D02*
D03*
X207448Y803751D02*
D03*
X215448D02*
D03*
X207448Y816501D02*
D03*
X215448D02*
D03*
X161948Y815001D02*
D03*
X153948D02*
D03*
X535500Y373250D02*
D03*
X527500D02*
D03*
X303500Y360500D02*
D03*
X295500D02*
D03*
X303500Y373250D02*
D03*
X295500D02*
D03*
X70250Y373250D02*
D03*
X62250D02*
D03*
X70250Y360500D02*
D03*
X62250D02*
D03*
X269350Y632000D02*
D03*
X261350D02*
D03*
X535500Y360500D02*
D03*
X527500D02*
D03*
X300000Y675250D02*
D03*
X292000D02*
D03*
D27*
X158250Y863750D02*
D03*
Y871750D02*
D03*
X108750Y863750D02*
D03*
Y871750D02*
D03*
X392500Y373500D02*
D03*
Y365500D02*
D03*
X159250Y373500D02*
D03*
Y365500D02*
D03*
X386500Y639000D02*
D03*
Y647000D02*
D03*
X207448Y870500D02*
D03*
Y862500D02*
D03*
X624500Y373500D02*
D03*
Y365500D02*
D03*
D33*
X312750Y677900D02*
D03*
Y664400D02*
D03*
X274250Y310750D02*
D03*
Y324250D02*
D03*
X261000Y310750D02*
D03*
Y324250D02*
D03*
X436087Y310750D02*
D03*
Y324250D02*
D03*
X422837Y310750D02*
D03*
Y324250D02*
D03*
X189587Y310750D02*
D03*
Y324250D02*
D03*
X202837Y310750D02*
D03*
Y324250D02*
D03*
X27750Y310750D02*
D03*
Y324250D02*
D03*
X41000Y310750D02*
D03*
Y324250D02*
D03*
X654837Y310750D02*
D03*
Y324250D02*
D03*
X668087Y310750D02*
D03*
Y324250D02*
D03*
X493000Y310750D02*
D03*
Y324250D02*
D03*
X506250Y310750D02*
D03*
Y324250D02*
D03*
D35*
X285850Y648250D02*
D03*
Y639250D02*
D03*
X369500Y662250D02*
D03*
Y671250D02*
D03*
X290000Y759250D02*
D03*
Y768250D02*
D03*
D43*
X595750Y563000D02*
D03*
X582750D02*
D03*
X497500Y686500D02*
D03*
X510500D02*
D03*
X497500Y713750D02*
D03*
X510500D02*
D03*
X533500Y701250D02*
D03*
X520500D02*
D03*
X501000Y644000D02*
D03*
X488000D02*
D03*
X464500D02*
D03*
X477500D02*
D03*
X277250Y750000D02*
D03*
X290250D02*
D03*
X171250Y883750D02*
D03*
X158250D02*
D03*
X158250Y896250D02*
D03*
X171250D02*
D03*
X273250Y293100D02*
D03*
X286250D02*
D03*
X322250Y306100D02*
D03*
X309250D02*
D03*
X258000Y267850D02*
D03*
X271000D02*
D03*
X322250Y318100D02*
D03*
X309250D02*
D03*
X374750Y318000D02*
D03*
X387750D02*
D03*
X422750Y292850D02*
D03*
X409750D02*
D03*
X374750Y306000D02*
D03*
X387750D02*
D03*
X439500Y266850D02*
D03*
X426500D02*
D03*
X206250Y266850D02*
D03*
X193250D02*
D03*
X141500Y306000D02*
D03*
X154500D02*
D03*
X189500Y292850D02*
D03*
X176500D02*
D03*
X141500Y318000D02*
D03*
X154500D02*
D03*
X89000Y318100D02*
D03*
X76000D02*
D03*
X24750Y267850D02*
D03*
X37750D02*
D03*
X89000Y306100D02*
D03*
X76000D02*
D03*
X40000Y293100D02*
D03*
X53000D02*
D03*
X207500Y896250D02*
D03*
X220500D02*
D03*
X156250Y847750D02*
D03*
X143250D02*
D03*
X220500Y883700D02*
D03*
X207500D02*
D03*
X108750Y882853D02*
D03*
X121750D02*
D03*
X156250Y835250D02*
D03*
X143250D02*
D03*
X671500Y266850D02*
D03*
X658500D02*
D03*
X606750Y306000D02*
D03*
X619750D02*
D03*
X654750Y292850D02*
D03*
X641750D02*
D03*
X606750Y318000D02*
D03*
X619750D02*
D03*
X554250Y318100D02*
D03*
X541250D02*
D03*
X490000Y267850D02*
D03*
X503000D02*
D03*
X554250Y306100D02*
D03*
X541250D02*
D03*
X505251Y293100D02*
D03*
X518250D02*
D03*
X655500Y590500D02*
D03*
X668500D02*
D03*
X678000Y602500D02*
D03*
X691000D02*
D03*
X664000Y641250D02*
D03*
X677000D02*
D03*
X701250Y557500D02*
D03*
X714250D02*
D03*
X687000Y686500D02*
D03*
X700000D02*
D03*
X40000Y824000D02*
D03*
X27000D02*
D03*
D44*
X595000Y575500D02*
D03*
X582500D02*
D03*
X497750Y701250D02*
D03*
X510250D02*
D03*
X497750Y673962D02*
D03*
X510250D02*
D03*
X299501Y306100D02*
D03*
X287001D02*
D03*
X299501Y318100D02*
D03*
X287001D02*
D03*
X397500Y318000D02*
D03*
X410000D02*
D03*
X397500Y306000D02*
D03*
X410000D02*
D03*
X396400Y354329D02*
D03*
X408900D02*
D03*
X396400Y342329D02*
D03*
X408900D02*
D03*
X299501Y330200D02*
D03*
X287001D02*
D03*
X299501Y342200D02*
D03*
X287001D02*
D03*
X66250Y342200D02*
D03*
X53750D02*
D03*
X66250Y330200D02*
D03*
X53750D02*
D03*
X163150Y342330D02*
D03*
X175650D02*
D03*
X163150Y354330D02*
D03*
X175650D02*
D03*
X221000Y365750D02*
D03*
X208500D02*
D03*
X164250Y306000D02*
D03*
X176750D02*
D03*
X164250Y318000D02*
D03*
X176750D02*
D03*
X66250Y318100D02*
D03*
X53750D02*
D03*
X66250Y306100D02*
D03*
X53750D02*
D03*
X121500Y895500D02*
D03*
X109000D02*
D03*
X531500Y342200D02*
D03*
X519001D02*
D03*
X531500Y330200D02*
D03*
X519001D02*
D03*
X628400Y342330D02*
D03*
X640900D02*
D03*
X628400Y354330D02*
D03*
X640900D02*
D03*
X629500Y306000D02*
D03*
X642000D02*
D03*
X629500Y318000D02*
D03*
X642000D02*
D03*
X531500Y318100D02*
D03*
X519001D02*
D03*
X531500Y306100D02*
D03*
X519001D02*
D03*
X668250Y602500D02*
D03*
X655750D02*
D03*
X646250Y633250D02*
D03*
X633750D02*
D03*
D45*
X657250Y615250D02*
D03*
Y621750D02*
D03*
Y628250D02*
D03*
X676250D02*
D03*
Y621750D02*
D03*
Y615250D02*
D03*
D85*
X101500Y568250D02*
D03*
X121500Y561750D02*
D03*
Y574750D02*
D03*
D86*
X330750Y836500D02*
D03*
Y823500D02*
D03*
X546000Y714250D02*
D03*
Y701250D02*
D03*
X304000Y216849D02*
D03*
Y229850D02*
D03*
Y255350D02*
D03*
Y242349D02*
D03*
X393000Y216849D02*
D03*
Y229850D02*
D03*
X393000Y255250D02*
D03*
Y242250D02*
D03*
X316750Y421250D02*
D03*
Y434250D02*
D03*
X367550Y421250D02*
D03*
Y434250D02*
D03*
X134300Y421250D02*
D03*
Y434250D02*
D03*
X83500Y421250D02*
D03*
Y434250D02*
D03*
X159750Y255250D02*
D03*
Y242250D02*
D03*
Y216850D02*
D03*
Y229850D02*
D03*
X70750Y255350D02*
D03*
Y242350D02*
D03*
Y216850D02*
D03*
Y229850D02*
D03*
X548750Y421250D02*
D03*
Y434250D02*
D03*
X599550Y421250D02*
D03*
Y434250D02*
D03*
X625000Y255250D02*
D03*
Y242250D02*
D03*
Y216850D02*
D03*
Y229850D02*
D03*
X536000Y255350D02*
D03*
Y242350D02*
D03*
Y216850D02*
D03*
Y229850D02*
D03*
X645000Y608750D02*
D03*
Y621750D02*
D03*
D87*
X369500Y653500D02*
D03*
Y647000D02*
D03*
Y640500D02*
D03*
Y634000D02*
D03*
Y627500D02*
D03*
Y621000D02*
D03*
Y614500D02*
D03*
Y608000D02*
D03*
X313500Y653500D02*
D03*
Y647000D02*
D03*
Y640500D02*
D03*
Y634000D02*
D03*
Y627500D02*
D03*
Y621000D02*
D03*
Y614500D02*
D03*
Y608000D02*
D03*
X376500Y379750D02*
D03*
Y373250D02*
D03*
Y366750D02*
D03*
Y360250D02*
D03*
Y353750D02*
D03*
Y347250D02*
D03*
Y340750D02*
D03*
Y334250D02*
D03*
X320500Y379750D02*
D03*
Y373250D02*
D03*
Y366750D02*
D03*
Y360250D02*
D03*
Y353750D02*
D03*
Y347250D02*
D03*
Y340750D02*
D03*
Y334250D02*
D03*
X143250Y379750D02*
D03*
Y373250D02*
D03*
Y366750D02*
D03*
Y360250D02*
D03*
Y353750D02*
D03*
Y347250D02*
D03*
Y340750D02*
D03*
Y334250D02*
D03*
X87250Y379750D02*
D03*
Y373250D02*
D03*
Y366750D02*
D03*
Y360250D02*
D03*
Y353750D02*
D03*
Y347250D02*
D03*
Y340750D02*
D03*
Y334250D02*
D03*
X608500Y379750D02*
D03*
Y373250D02*
D03*
Y366750D02*
D03*
Y360250D02*
D03*
Y353750D02*
D03*
Y347250D02*
D03*
Y340750D02*
D03*
Y334250D02*
D03*
X552500Y379750D02*
D03*
Y373250D02*
D03*
Y366750D02*
D03*
Y360250D02*
D03*
Y353750D02*
D03*
Y347250D02*
D03*
Y340750D02*
D03*
Y334250D02*
D03*
D88*
X599500Y447000D02*
D03*
Y464000D02*
D03*
X548750D02*
D03*
Y447000D02*
D03*
X316750Y464000D02*
D03*
Y447000D02*
D03*
X367500Y464000D02*
D03*
Y447000D02*
D03*
X83500Y464000D02*
D03*
Y447000D02*
D03*
X134250Y464000D02*
D03*
Y447000D02*
D03*
D89*
X549000Y393500D02*
D03*
X535500D02*
D03*
X303500Y393500D02*
D03*
X317000D02*
D03*
X70250Y393500D02*
D03*
X83750D02*
D03*
X26500Y757250D02*
D03*
X40000D02*
D03*
X26500Y783000D02*
D03*
X40000D02*
D03*
X26500Y743750D02*
D03*
X40000D02*
D03*
X40000Y796500D02*
D03*
X26500D02*
D03*
X40000Y836500D02*
D03*
X26500D02*
D03*
D90*
X615000Y581250D02*
D03*
Y606250D02*
D03*
D91*
Y544750D02*
D03*
Y642750D02*
D03*
D92*
X74000Y709150D02*
D03*
Y721850D02*
D03*
Y734550D02*
D03*
Y747250D02*
D03*
Y759950D02*
D03*
Y772650D02*
D03*
Y785350D02*
D03*
X126500Y709150D02*
D03*
Y721850D02*
D03*
Y734550D02*
D03*
Y747250D02*
D03*
Y759950D02*
D03*
Y772650D02*
D03*
Y785350D02*
D03*
X374750Y293350D02*
D03*
Y280650D02*
D03*
Y267950D02*
D03*
Y255250D02*
D03*
Y242550D02*
D03*
Y229850D02*
D03*
Y217150D02*
D03*
X322250Y293350D02*
D03*
Y280650D02*
D03*
Y267950D02*
D03*
Y255250D02*
D03*
Y242550D02*
D03*
Y229850D02*
D03*
Y217150D02*
D03*
X141500Y293350D02*
D03*
Y280650D02*
D03*
Y267950D02*
D03*
Y255250D02*
D03*
Y242550D02*
D03*
Y229850D02*
D03*
Y217150D02*
D03*
X89000Y293350D02*
D03*
Y280650D02*
D03*
Y267950D02*
D03*
Y255250D02*
D03*
Y242550D02*
D03*
Y229850D02*
D03*
Y217150D02*
D03*
X606750Y293350D02*
D03*
Y280650D02*
D03*
Y267950D02*
D03*
Y255250D02*
D03*
Y242550D02*
D03*
Y229850D02*
D03*
Y217150D02*
D03*
X554250Y293350D02*
D03*
Y280650D02*
D03*
Y267950D02*
D03*
Y255250D02*
D03*
Y242550D02*
D03*
Y229850D02*
D03*
Y217150D02*
D03*
D93*
X146750Y708500D02*
D03*
D94*
X183250D02*
D03*
D95*
X269350Y647000D02*
D03*
X261350D02*
D03*
X295100Y596500D02*
D03*
X287100D02*
D03*
X269059Y675250D02*
D03*
X261059D02*
D03*
D96*
X233000Y758500D02*
D03*
Y743500D02*
D03*
X211500Y758500D02*
D03*
Y743500D02*
D03*
D97*
X170750Y755166D02*
D03*
X190750D02*
D03*
X188250Y732167D02*
D03*
X168250D02*
D03*
D98*
X366500Y586250D02*
D03*
Y578250D02*
D03*
X354000Y586250D02*
D03*
Y578250D02*
D03*
X421000Y708250D02*
D03*
Y716250D02*
D03*
X261100Y595500D02*
D03*
Y587500D02*
D03*
X261500Y695750D02*
D03*
Y687750D02*
D03*
X396000Y716750D02*
D03*
Y708750D02*
D03*
X379000Y578250D02*
D03*
Y586250D02*
D03*
X265250Y578250D02*
D03*
Y570250D02*
D03*
X260963Y612959D02*
D03*
Y604959D02*
D03*
X408500Y716250D02*
D03*
Y708250D02*
D03*
D99*
X247350Y604214D02*
D03*
Y613786D02*
D03*
X274600Y586714D02*
D03*
Y596286D02*
D03*
D100*
X260273Y661750D02*
D03*
X269845D02*
D03*
D101*
X564674Y714289D02*
D03*
Y697773D02*
D03*
X589174Y714289D02*
D03*
Y697773D02*
D03*
D102*
X594750Y395500D02*
D03*
X608750D02*
D03*
X362750Y395500D02*
D03*
X376750D02*
D03*
X129500Y395500D02*
D03*
X143500D02*
D03*
D103*
X625500Y396250D02*
D03*
Y383750D02*
D03*
X254750Y382000D02*
D03*
Y394500D02*
D03*
X441750Y353250D02*
D03*
Y365750D02*
D03*
X254750Y344250D02*
D03*
Y356750D02*
D03*
X441750Y391000D02*
D03*
Y403500D02*
D03*
X393500Y396250D02*
D03*
Y383750D02*
D03*
X160250Y396250D02*
D03*
Y383750D02*
D03*
X208500Y391000D02*
D03*
Y403500D02*
D03*
X21500Y344250D02*
D03*
Y356750D02*
D03*
X21500Y382000D02*
D03*
Y394500D02*
D03*
X673750Y391000D02*
D03*
Y403500D02*
D03*
X486750Y344251D02*
D03*
Y356750D02*
D03*
X673749Y353250D02*
D03*
Y365750D02*
D03*
X486750Y382001D02*
D03*
Y394501D02*
D03*
D104*
X304000Y294109D02*
D03*
Y281092D02*
D03*
X286500Y280858D02*
D03*
Y267841D02*
D03*
X286751Y216841D02*
D03*
Y229858D02*
D03*
Y255358D02*
D03*
Y242341D02*
D03*
X410500Y216591D02*
D03*
Y229608D02*
D03*
X410501Y255250D02*
D03*
Y242233D02*
D03*
X393000Y294109D02*
D03*
Y281092D02*
D03*
X410501Y279859D02*
D03*
Y266842D02*
D03*
X177250Y279858D02*
D03*
Y266841D02*
D03*
X159750Y294109D02*
D03*
Y281091D02*
D03*
X177250Y255250D02*
D03*
Y242233D02*
D03*
Y216591D02*
D03*
Y229608D02*
D03*
X53500Y255359D02*
D03*
Y242341D02*
D03*
Y216842D02*
D03*
Y229858D02*
D03*
X53250Y280859D02*
D03*
Y267842D02*
D03*
X70750Y294109D02*
D03*
Y281091D02*
D03*
X642500Y279859D02*
D03*
Y266842D02*
D03*
X625000Y294109D02*
D03*
Y281092D02*
D03*
X642500Y255250D02*
D03*
Y242233D02*
D03*
Y216591D02*
D03*
Y229608D02*
D03*
X518750Y255359D02*
D03*
Y242341D02*
D03*
Y216842D02*
D03*
Y229859D02*
D03*
X518500Y280859D02*
D03*
Y267842D02*
D03*
X536000Y294109D02*
D03*
Y281092D02*
D03*
D105*
X696937Y577250D02*
D03*
X729637D02*
D03*
X683000Y666500D02*
D03*
X715700D02*
D03*
M02*
