G04*
G04 #@! TF.GenerationSoftware,Altium Limited,Altium Designer,24.2.2 (26)*
G04*
G04 Layer_Physical_Order=3*
G04 Layer_Color=16737945*
%FSLAX44Y44*%
%MOMM*%
G71*
G04*
G04 #@! TF.SameCoordinates,5A119275-FC27-4C3E-9DDE-49B88916FCE2*
G04*
G04*
G04 #@! TF.FilePolarity,Positive*
G04*
G01*
G75*
%ADD13C,0.5000*%
%ADD50C,0.7500*%
%ADD60C,2.7500*%
%ADD61R,2.7500X2.7500*%
%ADD62C,3.0000*%
%ADD64R,2.7500X2.7500*%
%ADD66C,2.7534*%
%ADD67R,2.7534X2.7534*%
%ADD68C,2.9972*%
%ADD79R,0.6500X2.7700*%
%ADD80C,1.5080*%
%ADD81C,0.5000*%
%ADD82C,1.2700*%
%ADD83C,1.0000*%
%ADD84C,4.0000*%
G36*
X410004Y947496D02*
Y870000D01*
X409204D01*
X407734Y869391D01*
X406609Y868266D01*
X406000Y866796D01*
Y865204D01*
X406609Y863734D01*
X407734Y862609D01*
X409204Y862000D01*
X410004D01*
Y791725D01*
X408830Y791239D01*
X393785Y806285D01*
X392622Y807062D01*
X391250Y807335D01*
X356798D01*
X355796Y807750D01*
X354204D01*
X353202Y807335D01*
X227901D01*
X227148Y808605D01*
X227500Y809454D01*
Y811046D01*
X226891Y812516D01*
X225766Y813641D01*
X224296Y814250D01*
X222704D01*
X221234Y813641D01*
X220109Y812516D01*
X219500Y811046D01*
Y809454D01*
X219852Y808605D01*
X219099Y807335D01*
X217249D01*
X216244Y807751D01*
X214653D01*
X213182Y807142D01*
X212057Y806017D01*
X211448Y804547D01*
Y802956D01*
X212057Y801486D01*
X213182Y800360D01*
X214653Y799751D01*
X216244D01*
X217243Y800165D01*
X222199D01*
X222451Y798895D01*
X221234Y798391D01*
X220109Y797266D01*
X219500Y795796D01*
Y794204D01*
X220109Y792734D01*
X221234Y791609D01*
X222704Y791000D01*
X224296D01*
X225766Y791609D01*
X226891Y792734D01*
X227500Y794204D01*
Y795796D01*
X226891Y797266D01*
X225766Y798391D01*
X224549Y798895D01*
X224802Y800165D01*
X353202D01*
X354204Y799750D01*
X355796D01*
X356798Y800165D01*
X389765D01*
X407381Y782549D01*
Y752686D01*
X407654Y751314D01*
X408431Y750151D01*
X430372Y728210D01*
X431535Y727433D01*
X432907Y727160D01*
X604896D01*
X609581Y722475D01*
Y651392D01*
X605774Y647585D01*
X604288D01*
X603762Y648855D01*
X604141Y649234D01*
X604750Y650704D01*
Y652296D01*
X604141Y653766D01*
X603016Y654891D01*
X601546Y655500D01*
X599954D01*
X598484Y654891D01*
X597359Y653766D01*
X596750Y652296D01*
Y650704D01*
X597359Y649234D01*
X597738Y648855D01*
X597212Y647585D01*
X511282D01*
X509552Y649315D01*
X507247Y650270D01*
X504753D01*
X502448Y649315D01*
X500685Y647552D01*
X499730Y645247D01*
Y642753D01*
X500685Y640448D01*
X502448Y638685D01*
X504753Y637730D01*
X507247D01*
X509552Y638685D01*
X511282Y640415D01*
X526047D01*
X526533Y639242D01*
X524146Y636855D01*
X517020D01*
X515648Y636582D01*
X514485Y635805D01*
X435015Y556335D01*
X259985D01*
X211585Y604735D01*
Y646250D01*
X211312Y647622D01*
X210535Y648785D01*
X199676Y659643D01*
X200085Y660256D01*
X201199Y662943D01*
X201766Y665796D01*
Y668704D01*
X201199Y671557D01*
X200085Y674244D01*
X198470Y676663D01*
X196413Y678719D01*
X193994Y680335D01*
X191307Y681449D01*
X188454Y682016D01*
X185546D01*
X182693Y681449D01*
X180006Y680335D01*
X177587Y678719D01*
X175530Y676663D01*
X173915Y674244D01*
X172801Y671557D01*
X172234Y668704D01*
Y665796D01*
X172801Y662943D01*
X173915Y660256D01*
X175530Y657837D01*
X177587Y655780D01*
X180006Y654165D01*
X182693Y653051D01*
X185546Y652484D01*
X188454D01*
X191307Y653051D01*
X193994Y654165D01*
X194606Y654574D01*
X204415Y644765D01*
Y603250D01*
X204688Y601878D01*
X205465Y600715D01*
X254761Y551419D01*
X254275Y550246D01*
X2504D01*
X2039Y551324D01*
X2039Y900000D01*
Y903143D01*
X2860Y909377D01*
X4487Y915450D01*
X6893Y921258D01*
X10036Y926703D01*
X13864Y931691D01*
X18309Y936136D01*
X23297Y939964D01*
X28742Y943107D01*
X34550Y945513D01*
X40623Y947140D01*
X46856Y947961D01*
X50000Y947961D01*
X408926D01*
X410004Y947496D01*
D02*
G37*
G36*
X959377Y947140D02*
X965450Y945513D01*
X971258Y943107D01*
X976703Y939964D01*
X981691Y936136D01*
X986136Y931691D01*
X989964Y926703D01*
X993107Y921258D01*
X995513Y915450D01*
X997140Y909377D01*
X997961Y903143D01*
Y900000D01*
Y634574D01*
X997496Y633496D01*
X787574D01*
X785265Y635805D01*
X784102Y636582D01*
X782730Y636855D01*
X720428D01*
X719426Y637270D01*
X717834D01*
X716364Y636661D01*
X715239Y635536D01*
X714630Y634066D01*
Y633496D01*
X705630D01*
Y634066D01*
X705021Y635536D01*
X703896Y636661D01*
X702426Y637270D01*
X700834D01*
X699832Y636855D01*
X666921D01*
X666897Y636892D01*
X666532Y638125D01*
X667391Y638984D01*
X668000Y640454D01*
Y642046D01*
X667391Y643516D01*
X666266Y644641D01*
X664796Y645250D01*
X663204D01*
X661734Y644641D01*
X660609Y643516D01*
X660000Y642046D01*
Y640454D01*
X660609Y638984D01*
X661468Y638125D01*
X661103Y636892D01*
X661079Y636855D01*
X616854D01*
X611019Y642690D01*
X615701Y647373D01*
X616478Y648536D01*
X616751Y649907D01*
Y723960D01*
X616478Y725331D01*
X615701Y726494D01*
X608916Y733280D01*
X607753Y734057D01*
X606381Y734330D01*
X434392D01*
X414551Y754171D01*
Y784034D01*
X414278Y785406D01*
X413501Y786569D01*
X410379Y789691D01*
X410781Y790948D01*
X410865Y791150D01*
X411020Y791304D01*
Y791523D01*
X411104Y791725D01*
Y862000D01*
X411058Y862109D01*
X412266Y862609D01*
X413391Y863734D01*
X414000Y865204D01*
Y866796D01*
X413391Y868266D01*
X412266Y869391D01*
X411058Y869891D01*
X411104Y870000D01*
Y947496D01*
X412277Y947961D01*
X953143D01*
X959377Y947140D01*
D02*
G37*
G36*
X715239Y631004D02*
X716364Y629879D01*
X717834Y629270D01*
X719426D01*
X720428Y629685D01*
X726232D01*
X726758Y628415D01*
X726609Y628266D01*
X726000Y626796D01*
Y625204D01*
X726609Y623734D01*
X727734Y622609D01*
X729204Y622000D01*
X730796D01*
X732266Y622609D01*
X733391Y623734D01*
X734000Y625204D01*
Y626796D01*
X733391Y628266D01*
X733242Y628415D01*
X733768Y629685D01*
X766232D01*
X766758Y628415D01*
X766609Y628266D01*
X766000Y626796D01*
Y625204D01*
X766609Y623734D01*
X767734Y622609D01*
X769204Y622000D01*
X770796D01*
X772266Y622609D01*
X773391Y623734D01*
X774000Y625204D01*
Y626796D01*
X773391Y628266D01*
X773242Y628415D01*
X773768Y629685D01*
X781245D01*
X800324Y610606D01*
X799915Y609994D01*
X798802Y607307D01*
X798234Y604454D01*
Y601546D01*
X798802Y598693D01*
X799915Y596006D01*
X801531Y593587D01*
X803587Y591530D01*
X806006Y589915D01*
X808693Y588801D01*
X811546Y588234D01*
X814454D01*
X817307Y588801D01*
X819995Y589915D01*
X822413Y591530D01*
X824470Y593587D01*
X826086Y596006D01*
X827199Y598693D01*
X827766Y601546D01*
Y604454D01*
X827199Y607307D01*
X826086Y609994D01*
X824470Y612413D01*
X822413Y614469D01*
X819995Y616085D01*
X817307Y617198D01*
X814454Y617766D01*
X811546D01*
X808693Y617198D01*
X806006Y616085D01*
X805394Y615676D01*
X789847Y631223D01*
X790333Y632397D01*
X997496D01*
X997961Y631223D01*
Y50000D01*
Y46856D01*
X997140Y40623D01*
X995513Y34550D01*
X993107Y28742D01*
X989964Y23297D01*
X986136Y18309D01*
X981691Y13864D01*
X976703Y10036D01*
X971258Y6893D01*
X965450Y4487D01*
X959377Y2860D01*
X953143Y2039D01*
X46856D01*
X40623Y2860D01*
X34550Y4487D01*
X28742Y6893D01*
X23297Y10036D01*
X18309Y13864D01*
X13864Y18309D01*
X10036Y23297D01*
X6893Y28742D01*
X4487Y34550D01*
X2860Y40623D01*
X2039Y46856D01*
Y50000D01*
X2039Y547973D01*
X2096Y548117D01*
X3309Y549146D01*
X45830D01*
X46448Y547877D01*
X46000Y546796D01*
Y545204D01*
X46609Y543734D01*
X47734Y542609D01*
X49204Y542000D01*
X50796D01*
X52266Y542609D01*
X53391Y543734D01*
X54000Y545204D01*
Y546796D01*
X53552Y547877D01*
X54170Y549146D01*
X125830D01*
X126448Y547877D01*
X126000Y546796D01*
Y545204D01*
X126609Y543734D01*
X127734Y542609D01*
X129204Y542000D01*
X130796D01*
X132266Y542609D01*
X133391Y543734D01*
X134000Y545204D01*
Y546796D01*
X133552Y547877D01*
X134170Y549146D01*
X165830D01*
X166448Y547877D01*
X166000Y546796D01*
Y545204D01*
X166609Y543734D01*
X167734Y542609D01*
X169204Y542000D01*
X170796D01*
X172266Y542609D01*
X173391Y543734D01*
X174000Y545204D01*
Y546796D01*
X173552Y547877D01*
X174170Y549146D01*
X205830D01*
X206448Y547877D01*
X206000Y546796D01*
Y545204D01*
X206609Y543734D01*
X207734Y542609D01*
X209204Y542000D01*
X210796D01*
X212266Y542609D01*
X213391Y543734D01*
X214000Y545204D01*
Y546796D01*
X213552Y547877D01*
X214170Y549146D01*
X245830D01*
X246448Y547877D01*
X246000Y546796D01*
Y545204D01*
X246609Y543734D01*
X247734Y542609D01*
X249204Y542000D01*
X250796D01*
X252266Y542609D01*
X253391Y543734D01*
X254000Y545204D01*
Y546796D01*
X253552Y547877D01*
X254170Y549146D01*
X254275D01*
X254477Y549230D01*
X254695D01*
X254850Y549385D01*
X255052Y549469D01*
X255053Y549469D01*
X255858Y549800D01*
X256640Y549764D01*
X257128Y549438D01*
X258500Y549165D01*
X266962D01*
X267488Y547895D01*
X266859Y547266D01*
X266250Y545796D01*
Y544204D01*
X266859Y542734D01*
X267984Y541609D01*
X269454Y541000D01*
X270077D01*
X271076Y540826D01*
X271250Y539827D01*
Y539204D01*
X271859Y537734D01*
X272984Y536609D01*
X274454Y536000D01*
X275077D01*
X276076Y535826D01*
X276250Y534827D01*
Y534204D01*
X276859Y532734D01*
X277984Y531609D01*
X279454Y531000D01*
X280077D01*
X281076Y530826D01*
X281250Y529827D01*
Y529204D01*
X281859Y527734D01*
X282984Y526609D01*
X284454Y526000D01*
X286046D01*
X287516Y526609D01*
X288641Y527734D01*
X289250Y529204D01*
Y530796D01*
X288641Y532266D01*
X287516Y533391D01*
X286046Y534000D01*
X285423D01*
X284424Y534174D01*
X284250Y535173D01*
Y535796D01*
X283641Y537266D01*
X282516Y538391D01*
X281046Y539000D01*
X280423D01*
X279424Y539174D01*
X279250Y540173D01*
Y540796D01*
X278641Y542266D01*
X277516Y543391D01*
X276046Y544000D01*
X275423D01*
X274424Y544174D01*
X274250Y545173D01*
Y545796D01*
X273641Y547266D01*
X273012Y547895D01*
X273538Y549165D01*
X331962D01*
X332488Y547895D01*
X331859Y547266D01*
X331250Y545796D01*
Y544204D01*
X331859Y542734D01*
X332984Y541609D01*
X334454Y541000D01*
X335077D01*
X336076Y540826D01*
X336250Y539827D01*
Y539204D01*
X336859Y537734D01*
X337984Y536609D01*
X339454Y536000D01*
X340077D01*
X341076Y535826D01*
X341250Y534827D01*
Y534204D01*
X341859Y532734D01*
X342984Y531609D01*
X344454Y531000D01*
X345077D01*
X346076Y530826D01*
X346250Y529827D01*
Y529204D01*
X346859Y527734D01*
X347984Y526609D01*
X349454Y526000D01*
X351046D01*
X352516Y526609D01*
X353641Y527734D01*
X354250Y529204D01*
Y530796D01*
X353641Y532266D01*
X352516Y533391D01*
X351046Y534000D01*
X350423D01*
X349424Y534174D01*
X349250Y535173D01*
Y535796D01*
X348641Y537266D01*
X347516Y538391D01*
X346046Y539000D01*
X345423D01*
X344424Y539174D01*
X344250Y540173D01*
Y540796D01*
X343641Y542266D01*
X342516Y543391D01*
X341046Y544000D01*
X340423D01*
X339424Y544174D01*
X339250Y545173D01*
Y545796D01*
X338641Y547266D01*
X338012Y547895D01*
X338538Y549165D01*
X405849D01*
X406455Y547895D01*
X406000Y546796D01*
Y545204D01*
X406609Y543734D01*
X407734Y542609D01*
X409204Y542000D01*
X410796D01*
X412266Y542609D01*
X413391Y543734D01*
X414000Y545204D01*
Y546796D01*
X413545Y547895D01*
X414151Y549165D01*
X436500D01*
X437872Y549438D01*
X439035Y550215D01*
X518505Y629685D01*
X526232D01*
X526758Y628415D01*
X526609Y628266D01*
X526000Y626796D01*
Y625204D01*
X526609Y623734D01*
X527734Y622609D01*
X529204Y622000D01*
X530796D01*
X532266Y622609D01*
X533391Y623734D01*
X534000Y625204D01*
Y626796D01*
X533391Y628266D01*
X533242Y628415D01*
X533768Y629685D01*
X686232D01*
X686758Y628415D01*
X686609Y628266D01*
X686000Y626796D01*
Y625204D01*
X686609Y623734D01*
X687734Y622609D01*
X689204Y622000D01*
X690796D01*
X692266Y622609D01*
X693391Y623734D01*
X694000Y625204D01*
Y626796D01*
X693391Y628266D01*
X693242Y628415D01*
X693768Y629685D01*
X699832D01*
X700834Y629270D01*
X702426D01*
X703896Y629879D01*
X705021Y631004D01*
X705602Y632408D01*
X705630Y632397D01*
X714630D01*
X714658Y632408D01*
X715239Y631004D01*
D02*
G37*
%LPC*%
G36*
X390796Y910000D02*
X389204D01*
X387734Y909391D01*
X386609Y908266D01*
X386000Y906796D01*
Y905204D01*
X386609Y903734D01*
X387734Y902609D01*
X389204Y902000D01*
X390796D01*
X392266Y902609D01*
X393391Y903734D01*
X394000Y905204D01*
Y906796D01*
X393391Y908266D01*
X392266Y909391D01*
X390796Y910000D01*
D02*
G37*
G36*
X159046Y900250D02*
X157454D01*
X155984Y899641D01*
X154859Y898516D01*
X154250Y897046D01*
Y895454D01*
X154859Y893984D01*
X155984Y892859D01*
X157454Y892250D01*
X159046D01*
X160516Y892859D01*
X161641Y893984D01*
X162250Y895454D01*
Y897046D01*
X161641Y898516D01*
X160516Y899641D01*
X159046Y900250D01*
D02*
G37*
G36*
X208296Y900250D02*
X206704D01*
X205234Y899641D01*
X204109Y898516D01*
X203500Y897045D01*
Y895454D01*
X204109Y893984D01*
X205234Y892859D01*
X206704Y892250D01*
X208296D01*
X209766Y892859D01*
X210891Y893984D01*
X211500Y895454D01*
Y897045D01*
X210891Y898516D01*
X209766Y899641D01*
X208296Y900250D01*
D02*
G37*
G36*
X122296Y899500D02*
X120704D01*
X119234Y898891D01*
X118109Y897766D01*
X117500Y896296D01*
Y894704D01*
X118109Y893234D01*
X119234Y892109D01*
X120704Y891500D01*
X122296D01*
X123766Y892109D01*
X124891Y893234D01*
X125500Y894704D01*
Y896296D01*
X124891Y897766D01*
X123766Y898891D01*
X122296Y899500D01*
D02*
G37*
G36*
X109796D02*
X108204D01*
X106734Y898891D01*
X105609Y897766D01*
X105000Y896296D01*
Y894704D01*
X105609Y893234D01*
X106734Y892109D01*
X108204Y891500D01*
X109796D01*
X111266Y892109D01*
X112391Y893234D01*
X113000Y894704D01*
Y896296D01*
X112391Y897766D01*
X111266Y898891D01*
X109796Y899500D01*
D02*
G37*
G36*
X328616Y915166D02*
X320084D01*
Y885434D01*
X328616D01*
Y915166D01*
D02*
G37*
G36*
X315916D02*
X307384D01*
Y885434D01*
X315916D01*
Y915166D01*
D02*
G37*
G36*
X303216D02*
X294684D01*
Y885434D01*
X303216D01*
Y915166D01*
D02*
G37*
G36*
X290516D02*
X281984D01*
Y885434D01*
X290516D01*
Y915166D01*
D02*
G37*
G36*
X52095Y921270D02*
X47905D01*
X43796Y920453D01*
X39925Y918849D01*
X36441Y916522D01*
X33479Y913559D01*
X31151Y910075D01*
X29547Y906204D01*
X28730Y902095D01*
Y897905D01*
X29547Y893796D01*
X31151Y889925D01*
X33479Y886441D01*
X36441Y883478D01*
X39925Y881151D01*
X43796Y879547D01*
X47905Y878730D01*
X52095D01*
X56204Y879547D01*
X60075Y881151D01*
X63559Y883478D01*
X66522Y886441D01*
X68849Y889925D01*
X70453Y893796D01*
X71270Y897905D01*
Y902095D01*
X70453Y906204D01*
X68849Y910075D01*
X66522Y913559D01*
X63559Y916522D01*
X60075Y918849D01*
X56204Y920453D01*
X52095Y921270D01*
D02*
G37*
G36*
X250796Y870000D02*
X249204D01*
X247734Y869391D01*
X246609Y868266D01*
X246000Y866796D01*
Y865204D01*
X246609Y863734D01*
X247734Y862609D01*
X249204Y862000D01*
X250796D01*
X252266Y862609D01*
X253391Y863734D01*
X254000Y865204D01*
Y866796D01*
X253391Y868266D01*
X252266Y869391D01*
X250796Y870000D01*
D02*
G37*
G36*
X130796D02*
X129204D01*
X127734Y869391D01*
X126609Y868266D01*
X126000Y866796D01*
Y865204D01*
X126609Y863734D01*
X127734Y862609D01*
X129204Y862000D01*
X130796D01*
X132266Y862609D01*
X133391Y863734D01*
X134000Y865204D01*
Y866796D01*
X133391Y868266D01*
X132266Y869391D01*
X130796Y870000D01*
D02*
G37*
G36*
X90796D02*
X89204D01*
X87734Y869391D01*
X86609Y868266D01*
X86000Y866796D01*
Y865204D01*
X86609Y863734D01*
X87734Y862609D01*
X89204Y862000D01*
X90796D01*
X92266Y862609D01*
X93391Y863734D01*
X94000Y865204D01*
Y866796D01*
X93391Y868266D01*
X92266Y869391D01*
X90796Y870000D01*
D02*
G37*
G36*
X50796D02*
X49204D01*
X47734Y869391D01*
X46609Y868266D01*
X46000Y866796D01*
Y865204D01*
X46609Y863734D01*
X47734Y862609D01*
X49204Y862000D01*
X50796D01*
X52266Y862609D01*
X53391Y863734D01*
X54000Y865204D01*
Y866796D01*
X53391Y868266D01*
X52266Y869391D01*
X50796Y870000D01*
D02*
G37*
G36*
X341316Y874866D02*
X332784D01*
Y845134D01*
X341316D01*
Y874866D01*
D02*
G37*
G36*
X328616D02*
X320084D01*
Y845134D01*
X328616D01*
Y874866D01*
D02*
G37*
G36*
X315916D02*
X307384D01*
Y845134D01*
X315916D01*
Y874866D01*
D02*
G37*
G36*
X303216D02*
X294684D01*
Y845134D01*
X303216D01*
Y874866D01*
D02*
G37*
G36*
X290516D02*
X281984D01*
Y845134D01*
X290516D01*
Y874866D01*
D02*
G37*
G36*
X254796Y833000D02*
X253204D01*
X251734Y832391D01*
X250609Y831266D01*
X250000Y829796D01*
Y828204D01*
X250609Y826734D01*
X251734Y825609D01*
X253204Y825000D01*
X254796D01*
X256266Y825609D01*
X257391Y826734D01*
X258000Y828204D01*
Y829796D01*
X257391Y831266D01*
X256266Y832391D01*
X254796Y833000D01*
D02*
G37*
G36*
X185796Y831750D02*
X184204D01*
X182734Y831141D01*
X181609Y830016D01*
X181000Y828546D01*
Y826954D01*
X181609Y825484D01*
X182734Y824359D01*
X184204Y823750D01*
X185796D01*
X187266Y824359D01*
X188391Y825484D01*
X189000Y826954D01*
Y828546D01*
X188391Y830016D01*
X187266Y831141D01*
X185796Y831750D01*
D02*
G37*
G36*
X390796Y830000D02*
X389204D01*
X387734Y829391D01*
X386609Y828266D01*
X386000Y826796D01*
Y825204D01*
X386609Y823734D01*
X387734Y822609D01*
X389204Y822000D01*
X390796D01*
X392266Y822609D01*
X393391Y823734D01*
X394000Y825204D01*
Y826796D01*
X393391Y828266D01*
X392266Y829391D01*
X390796Y830000D01*
D02*
G37*
G36*
X350796D02*
X349204D01*
X347734Y829391D01*
X346609Y828266D01*
X346000Y826796D01*
Y825204D01*
X346609Y823734D01*
X347734Y822609D01*
X349204Y822000D01*
X350796D01*
X352266Y822609D01*
X353391Y823734D01*
X354000Y825204D01*
Y826796D01*
X353391Y828266D01*
X352266Y829391D01*
X350796Y830000D01*
D02*
G37*
G36*
X110796D02*
X109204D01*
X107734Y829391D01*
X106609Y828266D01*
X106000Y826796D01*
Y825204D01*
X106609Y823734D01*
X107734Y822609D01*
X109204Y822000D01*
X110796D01*
X112266Y822609D01*
X113391Y823734D01*
X114000Y825204D01*
Y826796D01*
X113391Y828266D01*
X112266Y829391D01*
X110796Y830000D01*
D02*
G37*
G36*
X70796D02*
X69204D01*
X67734Y829391D01*
X66609Y828266D01*
X66000Y826796D01*
Y825204D01*
X66609Y823734D01*
X67734Y822609D01*
X69204Y822000D01*
X70796D01*
X72266Y822609D01*
X73391Y823734D01*
X74000Y825204D01*
Y826796D01*
X73391Y828266D01*
X72266Y829391D01*
X70796Y830000D01*
D02*
G37*
G36*
X40796Y838500D02*
X39204D01*
X37734Y837891D01*
X36609Y836766D01*
X36000Y835295D01*
Y833704D01*
X36609Y832234D01*
X37734Y831109D01*
X38785Y830673D01*
Y829326D01*
X37734Y828891D01*
X36609Y827766D01*
X36000Y826296D01*
Y824704D01*
X36609Y823234D01*
X37734Y822109D01*
X39204Y821500D01*
X40796D01*
X42266Y822109D01*
X43391Y823234D01*
X44000Y824704D01*
Y826296D01*
X43391Y827766D01*
X42266Y828891D01*
X41215Y829326D01*
Y830673D01*
X42266Y831109D01*
X43391Y832234D01*
X44000Y833704D01*
Y835295D01*
X43391Y836766D01*
X42266Y837891D01*
X40796Y838500D01*
D02*
G37*
G36*
X185796Y821250D02*
X184204D01*
X182734Y820641D01*
X181609Y819516D01*
X181000Y818046D01*
Y816454D01*
X181609Y814984D01*
X182734Y813859D01*
X184204Y813250D01*
X185796D01*
X187266Y813859D01*
X188391Y814984D01*
X189000Y816454D01*
Y818046D01*
X188391Y819516D01*
X187266Y820641D01*
X185796Y821250D01*
D02*
G37*
G36*
X154744Y819001D02*
X153153D01*
X151682Y818392D01*
X150557Y817267D01*
X149948Y815797D01*
Y814206D01*
X150557Y812736D01*
X151682Y811610D01*
X153153Y811001D01*
X154744D01*
X156214Y811610D01*
X157339Y812736D01*
X157948Y814206D01*
Y815797D01*
X157339Y817267D01*
X156214Y818392D01*
X154744Y819001D01*
D02*
G37*
G36*
X190546Y805000D02*
X188954D01*
X187484Y804391D01*
X186359Y803266D01*
X185750Y801796D01*
Y800204D01*
X186359Y798734D01*
X187484Y797609D01*
X188954Y797000D01*
X190546D01*
X192016Y797609D01*
X193141Y798734D01*
X193750Y800204D01*
Y801796D01*
X193141Y803266D01*
X192016Y804391D01*
X190546Y805000D01*
D02*
G37*
G36*
X370796Y790000D02*
X369204D01*
X367734Y789391D01*
X366609Y788266D01*
X366000Y786796D01*
Y785204D01*
X366609Y783734D01*
X367734Y782609D01*
X369204Y782000D01*
X370796D01*
X372266Y782609D01*
X373391Y783734D01*
X374000Y785204D01*
Y786796D01*
X373391Y788266D01*
X372266Y789391D01*
X370796Y790000D01*
D02*
G37*
G36*
X330796D02*
X329204D01*
X327734Y789391D01*
X326609Y788266D01*
X326000Y786796D01*
Y785204D01*
X326609Y783734D01*
X327734Y782609D01*
X329204Y782000D01*
X330796D01*
X332266Y782609D01*
X333391Y783734D01*
X334000Y785204D01*
Y786796D01*
X333391Y788266D01*
X332266Y789391D01*
X330796Y790000D01*
D02*
G37*
G36*
X170796D02*
X169204D01*
X167734Y789391D01*
X166609Y788266D01*
X166000Y786796D01*
Y785204D01*
X166609Y783734D01*
X167734Y782609D01*
X169204Y782000D01*
X170796D01*
X172266Y782609D01*
X173391Y783734D01*
X174000Y785204D01*
Y786796D01*
X173391Y788266D01*
X172266Y789391D01*
X170796Y790000D01*
D02*
G37*
G36*
X40795Y798250D02*
X39204D01*
X37734Y797641D01*
X36609Y796516D01*
X36000Y795045D01*
Y793454D01*
X36609Y791984D01*
X37734Y790859D01*
X38785Y790424D01*
Y789077D01*
X37734Y788641D01*
X36609Y787516D01*
X36000Y786046D01*
Y784454D01*
X36609Y782984D01*
X37734Y781859D01*
X39204Y781250D01*
X40795D01*
X42266Y781859D01*
X43391Y782984D01*
X44000Y784454D01*
Y786046D01*
X43391Y787516D01*
X42266Y788641D01*
X41215Y789077D01*
Y790424D01*
X42266Y790859D01*
X43391Y791984D01*
X44000Y793454D01*
Y795045D01*
X43391Y796516D01*
X42266Y797641D01*
X40795Y798250D01*
D02*
G37*
G36*
X291046Y754000D02*
X289454D01*
X287984Y753391D01*
X286859Y752266D01*
X286250Y750796D01*
Y749204D01*
X286859Y747734D01*
X287984Y746609D01*
X289454Y746000D01*
X291046D01*
X292516Y746609D01*
X293641Y747734D01*
X294250Y749204D01*
Y750796D01*
X293641Y752266D01*
X292516Y753391D01*
X291046Y754000D01*
D02*
G37*
G36*
X113096Y753250D02*
X111504D01*
X110034Y752641D01*
X108909Y751516D01*
X108300Y750046D01*
Y748454D01*
X108909Y746984D01*
X110034Y745859D01*
X111504Y745250D01*
X113096D01*
X114566Y745859D01*
X115691Y746984D01*
X116300Y748454D01*
Y750046D01*
X115691Y751516D01*
X114566Y752641D01*
X113096Y753250D01*
D02*
G37*
G36*
X96322D02*
X94730D01*
X93260Y752641D01*
X92135Y751516D01*
X91526Y750046D01*
Y748454D01*
X92135Y746984D01*
X93260Y745859D01*
X94730Y745250D01*
X96322D01*
X97792Y745859D01*
X98917Y746984D01*
X99526Y748454D01*
Y750046D01*
X98917Y751516D01*
X97792Y752641D01*
X96322Y753250D01*
D02*
G37*
G36*
X390796Y750000D02*
X389204D01*
X387734Y749391D01*
X386609Y748266D01*
X386000Y746796D01*
Y745204D01*
X386609Y743734D01*
X387734Y742609D01*
X389204Y742000D01*
X390796D01*
X392266Y742609D01*
X393391Y743734D01*
X394000Y745204D01*
Y746796D01*
X393391Y748266D01*
X392266Y749391D01*
X390796Y750000D01*
D02*
G37*
G36*
X56796Y759000D02*
X55204D01*
X53734Y758391D01*
X52609Y757266D01*
X52000Y755796D01*
Y754204D01*
X52609Y752734D01*
X53734Y751609D01*
X54787Y751173D01*
Y749827D01*
X53734Y749391D01*
X52609Y748265D01*
X52000Y746795D01*
Y745204D01*
X52609Y743734D01*
X53734Y742609D01*
X55204Y742000D01*
X56796D01*
X58266Y742609D01*
X59391Y743734D01*
X60000Y745204D01*
Y746795D01*
X59391Y748265D01*
X58266Y749391D01*
X57214Y749827D01*
Y751173D01*
X58266Y751609D01*
X59391Y752734D01*
X60000Y754204D01*
Y755796D01*
X59391Y757266D01*
X58266Y758391D01*
X56796Y759000D01*
D02*
G37*
G36*
X40796D02*
X39204D01*
X37734Y758391D01*
X36609Y757266D01*
X36000Y755796D01*
Y754204D01*
X36609Y752734D01*
X37734Y751609D01*
X38786Y751173D01*
Y749827D01*
X37734Y749391D01*
X36609Y748265D01*
X36000Y746795D01*
Y745204D01*
X36609Y743734D01*
X37734Y742609D01*
X39204Y742000D01*
X40796D01*
X42266Y742609D01*
X43391Y743734D01*
X44000Y745204D01*
Y746795D01*
X43391Y748265D01*
X42266Y749391D01*
X41213Y749827D01*
Y751173D01*
X42266Y751609D01*
X43391Y752734D01*
X44000Y754204D01*
Y755796D01*
X43391Y757266D01*
X42266Y758391D01*
X40796Y759000D01*
D02*
G37*
G36*
X330796Y737750D02*
X329204D01*
X327734Y737141D01*
X326609Y736016D01*
X326000Y734546D01*
Y732954D01*
X326609Y731484D01*
X327734Y730359D01*
X329204Y729750D01*
X330796D01*
X332266Y730359D01*
X333391Y731484D01*
X334000Y732954D01*
Y734546D01*
X333391Y736016D01*
X332266Y737141D01*
X330796Y737750D01*
D02*
G37*
G36*
X312296Y736250D02*
X310704D01*
X309234Y735641D01*
X308109Y734516D01*
X307500Y733046D01*
Y731454D01*
X308109Y729984D01*
X309234Y728859D01*
X310704Y728250D01*
X312296D01*
X313766Y728859D01*
X314891Y729984D01*
X315500Y731454D01*
Y733046D01*
X314891Y734516D01*
X313766Y735641D01*
X312296Y736250D01*
D02*
G37*
G36*
X250000Y770000D02*
X150000D01*
Y720000D01*
X250000D01*
Y770000D01*
D02*
G37*
G36*
X450796Y710000D02*
X449204D01*
X447734Y709391D01*
X446609Y708266D01*
X446000Y706796D01*
Y705204D01*
X446609Y703734D01*
X447734Y702609D01*
X449204Y702000D01*
X450796D01*
X452266Y702609D01*
X453391Y703734D01*
X454000Y705204D01*
Y706796D01*
X453391Y708266D01*
X452266Y709391D01*
X450796Y710000D01*
D02*
G37*
G36*
X250796D02*
X249204D01*
X247734Y709391D01*
X246609Y708266D01*
X246000Y706796D01*
Y705204D01*
X246609Y703734D01*
X247734Y702609D01*
X249204Y702000D01*
X250796D01*
X252266Y702609D01*
X253391Y703734D01*
X254000Y705204D01*
Y706796D01*
X253391Y708266D01*
X252266Y709391D01*
X250796Y710000D01*
D02*
G37*
G36*
X170796D02*
X169204D01*
X167734Y709391D01*
X166609Y708266D01*
X166000Y706796D01*
Y705204D01*
X166609Y703734D01*
X167734Y702609D01*
X169204Y702000D01*
X170796D01*
X172266Y702609D01*
X173391Y703734D01*
X174000Y705204D01*
Y706796D01*
X173391Y708266D01*
X172266Y709391D01*
X170796Y710000D01*
D02*
G37*
G36*
X90796D02*
X89204D01*
X87734Y709391D01*
X86609Y708266D01*
X86000Y706796D01*
Y705204D01*
X86609Y703734D01*
X87734Y702609D01*
X89204Y702000D01*
X90796D01*
X92266Y702609D01*
X93391Y703734D01*
X94000Y705204D01*
Y706796D01*
X93391Y708266D01*
X92266Y709391D01*
X90796Y710000D01*
D02*
G37*
G36*
X50796D02*
X49204D01*
X47734Y709391D01*
X46609Y708266D01*
X46000Y706796D01*
Y705204D01*
X46609Y703734D01*
X47734Y702609D01*
X49204Y702000D01*
X50796D01*
X52266Y702609D01*
X53391Y703734D01*
X54000Y705204D01*
Y706796D01*
X53391Y708266D01*
X52266Y709391D01*
X50796Y710000D01*
D02*
G37*
G36*
X361046Y699750D02*
X359454D01*
X357984Y699141D01*
X356859Y698016D01*
X356250Y696546D01*
Y694954D01*
X356859Y693484D01*
X357984Y692359D01*
X359454Y691750D01*
X361046D01*
X362516Y692359D01*
X363641Y693484D01*
X364250Y694954D01*
Y696546D01*
X363641Y698016D01*
X362516Y699141D01*
X361046Y699750D01*
D02*
G37*
G36*
X370296Y675250D02*
X368704D01*
X367234Y674641D01*
X366109Y673516D01*
X365500Y672046D01*
Y670454D01*
X366109Y668984D01*
X367234Y667859D01*
X368704Y667250D01*
X370296D01*
X371766Y667859D01*
X372891Y668984D01*
X373500Y670454D01*
Y672046D01*
X372891Y673516D01*
X371766Y674641D01*
X370296Y675250D01*
D02*
G37*
G36*
X470796Y670000D02*
X469204D01*
X467734Y669391D01*
X466609Y668266D01*
X466000Y666796D01*
Y665204D01*
X466609Y663734D01*
X467734Y662609D01*
X469204Y662000D01*
X470796D01*
X472266Y662609D01*
X473391Y663734D01*
X474000Y665204D01*
Y666796D01*
X473391Y668266D01*
X472266Y669391D01*
X470796Y670000D01*
D02*
G37*
G36*
X534497Y674270D02*
X532003D01*
X529698Y673315D01*
X527935Y671552D01*
X526980Y669247D01*
Y666753D01*
X527935Y664448D01*
X529698Y662685D01*
X532003Y661730D01*
X534497D01*
X536802Y662685D01*
X538565Y664448D01*
X539520Y666753D01*
Y669247D01*
X538565Y671552D01*
X536802Y673315D01*
X534497Y674270D01*
D02*
G37*
G36*
X146454Y682016D02*
X143546D01*
X140693Y681449D01*
X138006Y680335D01*
X135587Y678719D01*
X133531Y676663D01*
X131915Y674244D01*
X130801Y671557D01*
X130234Y668704D01*
Y665796D01*
X130801Y662943D01*
X131915Y660256D01*
X133531Y657837D01*
X135587Y655780D01*
X138006Y654165D01*
X140693Y653051D01*
X143546Y652484D01*
X146454D01*
X149307Y653051D01*
X151994Y654165D01*
X154413Y655780D01*
X156469Y657837D01*
X158085Y660256D01*
X159199Y662943D01*
X159766Y665796D01*
Y668704D01*
X159199Y671557D01*
X158085Y674244D01*
X156469Y676663D01*
X154413Y678719D01*
X151994Y680335D01*
X149307Y681449D01*
X146454Y682016D01*
D02*
G37*
G36*
X73724Y684750D02*
X70276D01*
X66895Y684078D01*
X63711Y682758D01*
X60844Y680843D01*
X58407Y678406D01*
X56492Y675539D01*
X55173Y672355D01*
X54500Y668974D01*
Y665526D01*
X55173Y662145D01*
X56492Y658961D01*
X58407Y656094D01*
X60844Y653657D01*
X63711Y651742D01*
X66895Y650423D01*
X70276Y649750D01*
X73724D01*
X77105Y650423D01*
X80289Y651742D01*
X83156Y653657D01*
X85593Y656094D01*
X87508Y658961D01*
X88827Y662145D01*
X89500Y665526D01*
Y668974D01*
X88827Y672355D01*
X87508Y675539D01*
X85593Y678406D01*
X83156Y680843D01*
X80289Y682758D01*
X77105Y684078D01*
X73724Y684750D01*
D02*
G37*
G36*
X340796Y657500D02*
X339204D01*
X337734Y656891D01*
X336609Y655766D01*
X336000Y654296D01*
Y652704D01*
X336220Y652173D01*
X336132Y651930D01*
X335331Y651000D01*
X334204D01*
X332734Y650391D01*
X331609Y649266D01*
X331000Y647796D01*
Y646204D01*
X331220Y645673D01*
X331132Y645430D01*
X330331Y644500D01*
X329204D01*
X327734Y643891D01*
X326609Y642766D01*
X326000Y641296D01*
Y639704D01*
X326609Y638234D01*
X327734Y637109D01*
X329204Y636500D01*
X330796D01*
X332266Y637109D01*
X333391Y638234D01*
X334000Y639704D01*
Y641296D01*
X333780Y641827D01*
X333868Y642070D01*
X334669Y643000D01*
X335796D01*
X337266Y643609D01*
X338391Y644734D01*
X339000Y646204D01*
Y647796D01*
X338780Y648327D01*
X338868Y648570D01*
X339669Y649500D01*
X340796D01*
X342266Y650109D01*
X343391Y651234D01*
X344000Y652704D01*
Y654296D01*
X343391Y655766D01*
X342266Y656891D01*
X340796Y657500D01*
D02*
G37*
G36*
X219796Y636750D02*
X218204D01*
X216734Y636141D01*
X215609Y635016D01*
X215000Y633546D01*
Y631954D01*
X215609Y630484D01*
X216734Y629359D01*
X218204Y628750D01*
X219796D01*
X221266Y629359D01*
X222391Y630484D01*
X223000Y631954D01*
Y633546D01*
X222391Y635016D01*
X221266Y636141D01*
X219796Y636750D01*
D02*
G37*
G36*
X262146Y636000D02*
X260554D01*
X259084Y635391D01*
X257959Y634266D01*
X257350Y632796D01*
Y631204D01*
X257959Y629734D01*
X259084Y628609D01*
X260554Y628000D01*
X262146D01*
X263616Y628609D01*
X264741Y629734D01*
X265350Y631204D01*
Y632796D01*
X264741Y634266D01*
X263616Y635391D01*
X262146Y636000D01*
D02*
G37*
G36*
X490796Y630000D02*
X489204D01*
X487734Y629391D01*
X486609Y628266D01*
X486000Y626796D01*
Y625204D01*
X486609Y623734D01*
X487734Y622609D01*
X489204Y622000D01*
X490796D01*
X492266Y622609D01*
X493391Y623734D01*
X494000Y625204D01*
Y626796D01*
X493391Y628266D01*
X492266Y629391D01*
X490796Y630000D01*
D02*
G37*
G36*
X90796D02*
X89204D01*
X87734Y629391D01*
X86609Y628266D01*
X86000Y626796D01*
Y625204D01*
X86609Y623734D01*
X87734Y622609D01*
X89204Y622000D01*
X90796D01*
X92266Y622609D01*
X93391Y623734D01*
X94000Y625204D01*
Y626796D01*
X93391Y628266D01*
X92266Y629391D01*
X90796Y630000D01*
D02*
G37*
G36*
X50796D02*
X49204D01*
X47734Y629391D01*
X46609Y628266D01*
X46000Y626796D01*
Y625204D01*
X46609Y623734D01*
X47734Y622609D01*
X49204Y622000D01*
X50796D01*
X52266Y622609D01*
X53391Y623734D01*
X54000Y625204D01*
Y626796D01*
X53391Y628266D01*
X52266Y629391D01*
X50796Y630000D01*
D02*
G37*
G36*
X274046Y626750D02*
X272454D01*
X270984Y626141D01*
X269859Y625016D01*
X269250Y623546D01*
Y621954D01*
X269859Y620484D01*
X270984Y619359D01*
X272454Y618750D01*
X274046D01*
X275516Y619359D01*
X276641Y620484D01*
X277250Y621954D01*
Y623546D01*
X276641Y625016D01*
X275516Y626141D01*
X274046Y626750D01*
D02*
G37*
G36*
X219796Y626000D02*
X218204D01*
X216734Y625391D01*
X215609Y624266D01*
X215000Y622796D01*
Y621204D01*
X215609Y619734D01*
X216734Y618609D01*
X218204Y618000D01*
X219796D01*
X221266Y618609D01*
X222391Y619734D01*
X223000Y621204D01*
Y622796D01*
X222391Y624266D01*
X221266Y625391D01*
X219796Y626000D01*
D02*
G37*
G36*
X188454Y640016D02*
X185546D01*
X182693Y639449D01*
X180006Y638335D01*
X177587Y636720D01*
X175530Y634663D01*
X173915Y632244D01*
X172801Y629557D01*
X172234Y626704D01*
Y623796D01*
X172801Y620943D01*
X173915Y618256D01*
X175530Y615837D01*
X177587Y613781D01*
X180006Y612165D01*
X182693Y611051D01*
X185546Y610484D01*
X188454D01*
X191307Y611051D01*
X193994Y612165D01*
X196413Y613781D01*
X198470Y615837D01*
X200085Y618256D01*
X201199Y620943D01*
X201766Y623796D01*
Y626704D01*
X201199Y629557D01*
X200085Y632244D01*
X198470Y634663D01*
X196413Y636720D01*
X193994Y638335D01*
X191307Y639449D01*
X188454Y640016D01*
D02*
G37*
G36*
X146454D02*
X143546D01*
X140693Y639449D01*
X138006Y638335D01*
X135587Y636720D01*
X133531Y634663D01*
X131915Y632244D01*
X130801Y629557D01*
X130234Y626704D01*
Y623796D01*
X130801Y620943D01*
X131915Y618256D01*
X133531Y615837D01*
X135587Y613781D01*
X138006Y612165D01*
X140693Y611051D01*
X143546Y610484D01*
X146454D01*
X149307Y611051D01*
X151994Y612165D01*
X154413Y613781D01*
X156469Y615837D01*
X158085Y618256D01*
X159199Y620943D01*
X159766Y623796D01*
Y626704D01*
X159199Y629557D01*
X158085Y632244D01*
X156469Y634663D01*
X154413Y636720D01*
X151994Y638335D01*
X149307Y639449D01*
X146454Y640016D01*
D02*
G37*
G36*
X261896Y599500D02*
X260305D01*
X258834Y598891D01*
X257709Y597766D01*
X257100Y596296D01*
Y594704D01*
X257709Y593234D01*
X258834Y592109D01*
X260305Y591500D01*
X261896D01*
X263366Y592109D01*
X264491Y593234D01*
X265100Y594704D01*
Y596296D01*
X264491Y597766D01*
X263366Y598891D01*
X261896Y599500D01*
D02*
G37*
G36*
X30796Y590000D02*
X29204D01*
X27734Y589391D01*
X26609Y588266D01*
X26000Y586796D01*
Y585204D01*
X26609Y583734D01*
X27734Y582609D01*
X29204Y582000D01*
X30796D01*
X32266Y582609D01*
X33391Y583734D01*
X34000Y585204D01*
Y586796D01*
X33391Y588266D01*
X32266Y589391D01*
X30796Y590000D01*
D02*
G37*
G36*
X430796Y596000D02*
X429204D01*
X427734Y595391D01*
X426609Y594266D01*
X426000Y592796D01*
Y592173D01*
X425826Y591174D01*
X424827Y591000D01*
X424204D01*
X422734Y590391D01*
X421609Y589266D01*
X421000Y587796D01*
Y587173D01*
X420826Y586174D01*
X419827Y586000D01*
X419204D01*
X417734Y585391D01*
X416609Y584266D01*
X416000Y582796D01*
Y582173D01*
X415826Y581174D01*
X414827Y581000D01*
X414204D01*
X412734Y580391D01*
X411609Y579266D01*
X411000Y577796D01*
Y576204D01*
X411609Y574734D01*
X412734Y573609D01*
X414204Y573000D01*
X415796D01*
X417266Y573609D01*
X418391Y574734D01*
X419000Y576204D01*
Y576827D01*
X419174Y577826D01*
X420173Y578000D01*
X420796D01*
X422266Y578609D01*
X423391Y579734D01*
X424000Y581204D01*
Y581827D01*
X424174Y582826D01*
X425173Y583000D01*
X425796D01*
X427266Y583609D01*
X428391Y584734D01*
X429000Y586204D01*
Y586827D01*
X429174Y587826D01*
X430173Y588000D01*
X430796D01*
X432266Y588609D01*
X433391Y589734D01*
X434000Y591204D01*
Y592796D01*
X433391Y594266D01*
X432266Y595391D01*
X430796Y596000D01*
D02*
G37*
G36*
X188454Y598016D02*
X185546D01*
X182693Y597449D01*
X180006Y596335D01*
X177587Y594720D01*
X175530Y592663D01*
X173915Y590244D01*
X172801Y587557D01*
X172234Y584704D01*
Y581796D01*
X172801Y578943D01*
X173915Y576256D01*
X175530Y573837D01*
X177587Y571781D01*
X180006Y570165D01*
X182693Y569052D01*
X185546Y568484D01*
X188454D01*
X191307Y569052D01*
X193994Y570165D01*
X196413Y571781D01*
X198470Y573837D01*
X200085Y576256D01*
X201199Y578943D01*
X201766Y581796D01*
Y584704D01*
X201199Y587557D01*
X200085Y590244D01*
X198470Y592663D01*
X196413Y594720D01*
X193994Y596335D01*
X191307Y597449D01*
X188454Y598016D01*
D02*
G37*
G36*
X159766D02*
X130234D01*
Y568484D01*
X159766D01*
Y598016D01*
D02*
G37*
G36*
X73724Y600750D02*
X70276D01*
X66895Y600078D01*
X63711Y598758D01*
X60844Y596843D01*
X58407Y594406D01*
X56492Y591539D01*
X55173Y588355D01*
X54500Y584974D01*
Y581526D01*
X55173Y578145D01*
X56492Y574961D01*
X58407Y572094D01*
X60844Y569657D01*
X63711Y567742D01*
X66895Y566423D01*
X70276Y565750D01*
X73724D01*
X77105Y566423D01*
X80289Y567742D01*
X83156Y569657D01*
X85593Y572094D01*
X87508Y574961D01*
X88827Y578145D01*
X89500Y581526D01*
Y584974D01*
X88827Y588355D01*
X87508Y591539D01*
X85593Y594406D01*
X83156Y596843D01*
X80289Y598758D01*
X77105Y600078D01*
X73724Y600750D01*
D02*
G37*
G36*
X910796Y910000D02*
X909204D01*
X907734Y909391D01*
X906609Y908266D01*
X906000Y906796D01*
Y905204D01*
X906609Y903734D01*
X907734Y902609D01*
X909204Y902000D01*
X910796D01*
X912266Y902609D01*
X913391Y903734D01*
X914000Y905204D01*
Y906796D01*
X913391Y908266D01*
X912266Y909391D01*
X910796Y910000D01*
D02*
G37*
G36*
X870796D02*
X869204D01*
X867734Y909391D01*
X866609Y908266D01*
X866000Y906796D01*
Y905204D01*
X866609Y903734D01*
X867734Y902609D01*
X869204Y902000D01*
X870796D01*
X872266Y902609D01*
X873391Y903734D01*
X874000Y905204D01*
Y906796D01*
X873391Y908266D01*
X872266Y909391D01*
X870796Y910000D01*
D02*
G37*
G36*
X830796D02*
X829204D01*
X827734Y909391D01*
X826609Y908266D01*
X826000Y906796D01*
Y905204D01*
X826609Y903734D01*
X827734Y902609D01*
X829204Y902000D01*
X830796D01*
X832266Y902609D01*
X833391Y903734D01*
X834000Y905204D01*
Y906796D01*
X833391Y908266D01*
X832266Y909391D01*
X830796Y910000D01*
D02*
G37*
G36*
X790796D02*
X789204D01*
X787734Y909391D01*
X786609Y908266D01*
X786000Y906796D01*
Y905204D01*
X786609Y903734D01*
X787734Y902609D01*
X789204Y902000D01*
X790796D01*
X792266Y902609D01*
X793391Y903734D01*
X794000Y905204D01*
Y906796D01*
X793391Y908266D01*
X792266Y909391D01*
X790796Y910000D01*
D02*
G37*
G36*
X750796D02*
X749204D01*
X747734Y909391D01*
X746609Y908266D01*
X746000Y906796D01*
Y905204D01*
X746609Y903734D01*
X747734Y902609D01*
X749204Y902000D01*
X750796D01*
X752266Y902609D01*
X753391Y903734D01*
X754000Y905204D01*
Y906796D01*
X753391Y908266D01*
X752266Y909391D01*
X750796Y910000D01*
D02*
G37*
G36*
X710796D02*
X709204D01*
X707734Y909391D01*
X706609Y908266D01*
X706000Y906796D01*
Y905204D01*
X706609Y903734D01*
X707734Y902609D01*
X709204Y902000D01*
X710796D01*
X712266Y902609D01*
X713391Y903734D01*
X714000Y905204D01*
Y906796D01*
X713391Y908266D01*
X712266Y909391D01*
X710796Y910000D01*
D02*
G37*
G36*
X670796D02*
X669204D01*
X667734Y909391D01*
X666609Y908266D01*
X666000Y906796D01*
Y905204D01*
X666609Y903734D01*
X667734Y902609D01*
X669204Y902000D01*
X670796D01*
X672266Y902609D01*
X673391Y903734D01*
X674000Y905204D01*
Y906796D01*
X673391Y908266D01*
X672266Y909391D01*
X670796Y910000D01*
D02*
G37*
G36*
X630796D02*
X629204D01*
X627734Y909391D01*
X626609Y908266D01*
X626000Y906796D01*
Y905204D01*
X626609Y903734D01*
X627734Y902609D01*
X629204Y902000D01*
X630796D01*
X632266Y902609D01*
X633391Y903734D01*
X634000Y905204D01*
Y906796D01*
X633391Y908266D01*
X632266Y909391D01*
X630796Y910000D01*
D02*
G37*
G36*
X590796D02*
X589204D01*
X587734Y909391D01*
X586609Y908266D01*
X586000Y906796D01*
Y905204D01*
X586609Y903734D01*
X587734Y902609D01*
X589204Y902000D01*
X590796D01*
X592266Y902609D01*
X593391Y903734D01*
X594000Y905204D01*
Y906796D01*
X593391Y908266D01*
X592266Y909391D01*
X590796Y910000D01*
D02*
G37*
G36*
X550796D02*
X549204D01*
X547734Y909391D01*
X546609Y908266D01*
X546000Y906796D01*
Y905204D01*
X546609Y903734D01*
X547734Y902609D01*
X549204Y902000D01*
X550796D01*
X552266Y902609D01*
X553391Y903734D01*
X554000Y905204D01*
Y906796D01*
X553391Y908266D01*
X552266Y909391D01*
X550796Y910000D01*
D02*
G37*
G36*
X510796D02*
X509204D01*
X507734Y909391D01*
X506609Y908266D01*
X506000Y906796D01*
Y905204D01*
X506609Y903734D01*
X507734Y902609D01*
X509204Y902000D01*
X510796D01*
X512266Y902609D01*
X513391Y903734D01*
X514000Y905204D01*
Y906796D01*
X513391Y908266D01*
X512266Y909391D01*
X510796Y910000D01*
D02*
G37*
G36*
X470796D02*
X469204D01*
X467734Y909391D01*
X466609Y908266D01*
X466000Y906796D01*
Y905204D01*
X466609Y903734D01*
X467734Y902609D01*
X469204Y902000D01*
X470796D01*
X472266Y902609D01*
X473391Y903734D01*
X474000Y905204D01*
Y906796D01*
X473391Y908266D01*
X472266Y909391D01*
X470796Y910000D01*
D02*
G37*
G36*
X430796D02*
X429204D01*
X427734Y909391D01*
X426609Y908266D01*
X426000Y906796D01*
Y905204D01*
X426609Y903734D01*
X427734Y902609D01*
X429204Y902000D01*
X430796D01*
X432266Y902609D01*
X433391Y903734D01*
X434000Y905204D01*
Y906796D01*
X433391Y908266D01*
X432266Y909391D01*
X430796Y910000D01*
D02*
G37*
G36*
X952095Y921270D02*
X947905D01*
X943796Y920453D01*
X939925Y918849D01*
X936441Y916522D01*
X933478Y913559D01*
X931151Y910075D01*
X929547Y906204D01*
X928730Y902095D01*
Y897905D01*
X929547Y893796D01*
X931151Y889925D01*
X933478Y886441D01*
X936441Y883478D01*
X939925Y881151D01*
X943796Y879547D01*
X947905Y878730D01*
X952095D01*
X956204Y879547D01*
X960075Y881151D01*
X963559Y883478D01*
X966522Y886441D01*
X968849Y889925D01*
X970453Y893796D01*
X971270Y897905D01*
Y902095D01*
X970453Y906204D01*
X968849Y910075D01*
X966522Y913559D01*
X963559Y916522D01*
X960075Y918849D01*
X956204Y920453D01*
X952095Y921270D01*
D02*
G37*
G36*
X589724Y895500D02*
X586276D01*
X582895Y894828D01*
X579711Y893509D01*
X576844Y891593D01*
X574407Y889156D01*
X572492Y886290D01*
X571172Y883105D01*
X570500Y879724D01*
Y876277D01*
X571172Y872896D01*
X572011Y870871D01*
X571039Y869899D01*
X570796Y870000D01*
X569204D01*
X567734Y869391D01*
X566609Y868266D01*
X566000Y866796D01*
Y865204D01*
X566609Y863734D01*
X567734Y862609D01*
X569204Y862000D01*
X570796D01*
X572266Y862609D01*
X573391Y863734D01*
X574000Y865204D01*
Y865455D01*
X575270Y865982D01*
X576844Y864407D01*
X579711Y862492D01*
X582895Y861173D01*
X586276Y860500D01*
X589724D01*
X593105Y861173D01*
X596289Y862492D01*
X599156Y864407D01*
X601593Y866845D01*
X603508Y869711D01*
X604827Y872896D01*
X605500Y876277D01*
Y879724D01*
X604827Y883105D01*
X603508Y886290D01*
X601593Y889156D01*
X599156Y891593D01*
X596289Y893509D01*
X593105Y894828D01*
X589724Y895500D01*
D02*
G37*
G36*
X970796Y870000D02*
X969204D01*
X967734Y869391D01*
X966609Y868266D01*
X966000Y866796D01*
Y865204D01*
X966609Y863734D01*
X967734Y862609D01*
X969204Y862000D01*
X970796D01*
X972266Y862609D01*
X973391Y863734D01*
X974000Y865204D01*
Y866796D01*
X973391Y868266D01*
X972266Y869391D01*
X970796Y870000D01*
D02*
G37*
G36*
X930796D02*
X929204D01*
X927734Y869391D01*
X926609Y868266D01*
X926000Y866796D01*
Y865204D01*
X926609Y863734D01*
X927734Y862609D01*
X929204Y862000D01*
X930796D01*
X932266Y862609D01*
X933391Y863734D01*
X934000Y865204D01*
Y866796D01*
X933391Y868266D01*
X932266Y869391D01*
X930796Y870000D01*
D02*
G37*
G36*
X850796D02*
X849204D01*
X847734Y869391D01*
X846609Y868266D01*
X846000Y866796D01*
Y865204D01*
X846609Y863734D01*
X847734Y862609D01*
X849204Y862000D01*
X850796D01*
X852266Y862609D01*
X853391Y863734D01*
X854000Y865204D01*
Y866796D01*
X853391Y868266D01*
X852266Y869391D01*
X850796Y870000D01*
D02*
G37*
G36*
X770796D02*
X769204D01*
X767734Y869391D01*
X766609Y868266D01*
X766000Y866796D01*
Y865204D01*
X766609Y863734D01*
X767734Y862609D01*
X769204Y862000D01*
X770796D01*
X772266Y862609D01*
X773391Y863734D01*
X774000Y865204D01*
Y866796D01*
X773391Y868266D01*
X772266Y869391D01*
X770796Y870000D01*
D02*
G37*
G36*
X673723Y895500D02*
X670276D01*
X666895Y894828D01*
X663710Y893509D01*
X660844Y891593D01*
X658407Y889156D01*
X656491Y886290D01*
X655172Y883105D01*
X654500Y879724D01*
Y876277D01*
X655172Y872896D01*
X656491Y869711D01*
X658407Y866845D01*
X660844Y864407D01*
X663710Y862492D01*
X666895Y861173D01*
X670276Y860500D01*
X673723D01*
X677104Y861173D01*
X680289Y862492D01*
X683155Y864407D01*
X684730Y865982D01*
X686000Y865455D01*
Y865204D01*
X686609Y863734D01*
X687734Y862609D01*
X689204Y862000D01*
X690796D01*
X692266Y862609D01*
X693391Y863734D01*
X694000Y865204D01*
Y866796D01*
X693391Y868266D01*
X692266Y869391D01*
X690796Y870000D01*
X689204D01*
X688961Y869899D01*
X687989Y870871D01*
X688827Y872896D01*
X689500Y876277D01*
Y879724D01*
X688827Y883105D01*
X687508Y886290D01*
X685593Y889156D01*
X683155Y891593D01*
X680289Y893509D01*
X677104Y894828D01*
X673723Y895500D01*
D02*
G37*
G36*
X650796Y870000D02*
X649204D01*
X647734Y869391D01*
X646609Y868266D01*
X646000Y866796D01*
Y865204D01*
X646609Y863734D01*
X647734Y862609D01*
X649204Y862000D01*
X650796D01*
X652266Y862609D01*
X653391Y863734D01*
X654000Y865204D01*
Y866796D01*
X653391Y868266D01*
X652266Y869391D01*
X650796Y870000D01*
D02*
G37*
G36*
X610796D02*
X609204D01*
X607734Y869391D01*
X606609Y868266D01*
X606000Y866796D01*
Y865204D01*
X606609Y863734D01*
X607734Y862609D01*
X609204Y862000D01*
X610796D01*
X612266Y862609D01*
X613391Y863734D01*
X614000Y865204D01*
Y866796D01*
X613391Y868266D01*
X612266Y869391D01*
X610796Y870000D01*
D02*
G37*
G36*
X490796D02*
X489204D01*
X487734Y869391D01*
X486609Y868266D01*
X486000Y866796D01*
Y865204D01*
X486609Y863734D01*
X487734Y862609D01*
X489204Y862000D01*
X490796D01*
X492266Y862609D01*
X493391Y863734D01*
X494000Y865204D01*
Y866796D01*
X493391Y868266D01*
X492266Y869391D01*
X490796Y870000D01*
D02*
G37*
G36*
X823724Y895500D02*
X820276D01*
X816896Y894828D01*
X813711Y893509D01*
X810844Y891593D01*
X808407Y889156D01*
X806492Y886290D01*
X805173Y883105D01*
X804500Y879724D01*
Y876277D01*
X805173Y872896D01*
X806492Y869711D01*
X808407Y866845D01*
X810844Y864407D01*
X813711Y862492D01*
X816896Y861173D01*
X820276Y860500D01*
X823724D01*
X827105Y861173D01*
X830290Y862492D01*
X833156Y864407D01*
X835593Y866845D01*
X837508Y869711D01*
X838828Y872896D01*
X839500Y876277D01*
Y879724D01*
X838828Y883105D01*
X837508Y886290D01*
X835593Y889156D01*
X833156Y891593D01*
X830290Y893509D01*
X827105Y894828D01*
X823724Y895500D01*
D02*
G37*
G36*
X739723D02*
X736276D01*
X732895Y894828D01*
X729710Y893509D01*
X726844Y891593D01*
X724407Y889156D01*
X722492Y886290D01*
X721172Y883105D01*
X720500Y879724D01*
Y876277D01*
X721172Y872896D01*
X722492Y869711D01*
X724407Y866845D01*
X726844Y864407D01*
X729710Y862492D01*
X732895Y861173D01*
X736276Y860500D01*
X739723D01*
X743104Y861173D01*
X746289Y862492D01*
X749155Y864407D01*
X751593Y866845D01*
X753508Y869711D01*
X754827Y872896D01*
X755500Y876277D01*
Y879724D01*
X754827Y883105D01*
X753508Y886290D01*
X751593Y889156D01*
X749155Y891593D01*
X746289Y893509D01*
X743104Y894828D01*
X739723Y895500D01*
D02*
G37*
G36*
X523724D02*
X520276D01*
X516895Y894828D01*
X513711Y893509D01*
X510844Y891593D01*
X508407Y889156D01*
X506492Y886290D01*
X505173Y883105D01*
X504500Y879724D01*
Y876277D01*
X505173Y872896D01*
X506492Y869711D01*
X508407Y866845D01*
X510844Y864407D01*
X513711Y862492D01*
X516895Y861173D01*
X520276Y860500D01*
X523724D01*
X527105Y861173D01*
X530289Y862492D01*
X533156Y864407D01*
X535593Y866845D01*
X537508Y869711D01*
X538828Y872896D01*
X539500Y876277D01*
Y879724D01*
X538828Y883105D01*
X537508Y886290D01*
X535593Y889156D01*
X533156Y891593D01*
X530289Y893509D01*
X527105Y894828D01*
X523724Y895500D01*
D02*
G37*
G36*
X439724D02*
X436277D01*
X432896Y894828D01*
X429711Y893509D01*
X426845Y891593D01*
X424407Y889156D01*
X422492Y886290D01*
X421173Y883105D01*
X420500Y879724D01*
Y876277D01*
X421173Y872896D01*
X422492Y869711D01*
X424407Y866845D01*
X426845Y864407D01*
X429711Y862492D01*
X432896Y861173D01*
X436277Y860500D01*
X439724D01*
X443105Y861173D01*
X446290Y862492D01*
X449156Y864407D01*
X451593Y866845D01*
X453508Y869711D01*
X454828Y872896D01*
X455500Y876277D01*
Y879724D01*
X454828Y883105D01*
X453508Y886290D01*
X451593Y889156D01*
X449156Y891593D01*
X446290Y893509D01*
X443105Y894828D01*
X439724Y895500D01*
D02*
G37*
G36*
X950796Y830000D02*
X949204D01*
X947734Y829391D01*
X946609Y828266D01*
X946000Y826796D01*
Y825204D01*
X946609Y823734D01*
X947734Y822609D01*
X949204Y822000D01*
X950796D01*
X952266Y822609D01*
X953391Y823734D01*
X954000Y825204D01*
Y826796D01*
X953391Y828266D01*
X952266Y829391D01*
X950796Y830000D01*
D02*
G37*
G36*
X870796D02*
X869204D01*
X867734Y829391D01*
X866609Y828266D01*
X866000Y826796D01*
Y825204D01*
X866609Y823734D01*
X867734Y822609D01*
X869204Y822000D01*
X870796D01*
X872266Y822609D01*
X873391Y823734D01*
X874000Y825204D01*
Y826796D01*
X873391Y828266D01*
X872266Y829391D01*
X870796Y830000D01*
D02*
G37*
G36*
X781454Y819766D02*
X778546D01*
X775693Y819199D01*
X773006Y818085D01*
X770587Y816470D01*
X768531Y814413D01*
X766915Y811994D01*
X765802Y809307D01*
X765234Y806454D01*
Y803546D01*
X765802Y800693D01*
X766915Y798006D01*
X768531Y795587D01*
X770587Y793531D01*
X773006Y791915D01*
X775693Y790801D01*
X778546Y790234D01*
X781454D01*
X784307Y790801D01*
X786994Y791915D01*
X789413Y793531D01*
X791470Y795587D01*
X793086Y798006D01*
X794199Y800693D01*
X794766Y803546D01*
Y806454D01*
X794199Y809307D01*
X793086Y811994D01*
X791470Y814413D01*
X789413Y816470D01*
X786994Y818085D01*
X784307Y819199D01*
X781454Y819766D01*
D02*
G37*
G36*
X481454D02*
X478546D01*
X475693Y819199D01*
X473006Y818085D01*
X470587Y816470D01*
X468531Y814413D01*
X466915Y811994D01*
X465802Y809307D01*
X465234Y806454D01*
Y803546D01*
X465802Y800693D01*
X466915Y798006D01*
X468531Y795587D01*
X470587Y793531D01*
X473006Y791915D01*
X475693Y790801D01*
X478546Y790234D01*
X481454D01*
X484307Y790801D01*
X486994Y791915D01*
X489413Y793531D01*
X491470Y795587D01*
X493086Y798006D01*
X494199Y800693D01*
X494766Y803546D01*
Y806454D01*
X494199Y809307D01*
X493086Y811994D01*
X491470Y814413D01*
X489413Y816470D01*
X486994Y818085D01*
X484307Y819199D01*
X481454Y819766D01*
D02*
G37*
G36*
X631454Y819766D02*
X628546D01*
X625693Y819199D01*
X623006Y818085D01*
X620587Y816470D01*
X618530Y814413D01*
X616914Y811994D01*
X615801Y809307D01*
X615234Y806454D01*
Y803546D01*
X615801Y800693D01*
X616914Y798006D01*
X618530Y795587D01*
X620587Y793531D01*
X623006Y791915D01*
X625693Y790801D01*
X628546Y790234D01*
X631454D01*
X634307Y790801D01*
X636994Y791915D01*
X639413Y793531D01*
X641469Y795587D01*
X643085Y798006D01*
X644199Y800693D01*
X644766Y803546D01*
Y806454D01*
X644199Y809307D01*
X643085Y811994D01*
X641469Y814413D01*
X639413Y816470D01*
X636994Y818085D01*
X634307Y819199D01*
X631454Y819766D01*
D02*
G37*
G36*
X970796Y790000D02*
X969204D01*
X967734Y789391D01*
X966609Y788266D01*
X966000Y786796D01*
Y785204D01*
X966609Y783734D01*
X967734Y782609D01*
X969204Y782000D01*
X970796D01*
X972266Y782609D01*
X973391Y783734D01*
X974000Y785204D01*
Y786796D01*
X973391Y788266D01*
X972266Y789391D01*
X970796Y790000D01*
D02*
G37*
G36*
X890796D02*
X889204D01*
X887734Y789391D01*
X886609Y788266D01*
X886000Y786796D01*
Y785204D01*
X886609Y783734D01*
X887734Y782609D01*
X889204Y782000D01*
X890796D01*
X892266Y782609D01*
X893391Y783734D01*
X894000Y785204D01*
Y786796D01*
X893391Y788266D01*
X892266Y789391D01*
X890796Y790000D01*
D02*
G37*
G36*
X850796D02*
X849204D01*
X847734Y789391D01*
X846609Y788266D01*
X846000Y786796D01*
Y785204D01*
X846609Y783734D01*
X847734Y782609D01*
X849204Y782000D01*
X850796D01*
X852266Y782609D01*
X853391Y783734D01*
X854000Y785204D01*
Y786796D01*
X853391Y788266D01*
X852266Y789391D01*
X850796Y790000D01*
D02*
G37*
G36*
X823454Y777766D02*
X820546D01*
X817693Y777199D01*
X815006Y776086D01*
X812587Y774470D01*
X810531Y772413D01*
X808915Y769995D01*
X807802Y767307D01*
X807234Y764454D01*
Y761546D01*
X807802Y758693D01*
X808915Y756006D01*
X810531Y753587D01*
X812587Y751531D01*
X815006Y749915D01*
X817693Y748802D01*
X820546Y748234D01*
X823454D01*
X826307Y748802D01*
X828994Y749915D01*
X831413Y751531D01*
X833470Y753587D01*
X835086Y756006D01*
X836199Y758693D01*
X836766Y761546D01*
Y764454D01*
X836199Y767307D01*
X835086Y769995D01*
X833470Y772413D01*
X831413Y774470D01*
X828994Y776086D01*
X826307Y777199D01*
X823454Y777766D01*
D02*
G37*
G36*
X781454D02*
X778546D01*
X775693Y777199D01*
X773006Y776086D01*
X770587Y774470D01*
X768531Y772413D01*
X766915Y769995D01*
X765802Y767307D01*
X765234Y764454D01*
Y761546D01*
X765802Y758693D01*
X766915Y756006D01*
X768531Y753587D01*
X770587Y751531D01*
X773006Y749915D01*
X775693Y748802D01*
X778546Y748234D01*
X781454D01*
X784307Y748802D01*
X786994Y749915D01*
X789413Y751531D01*
X791470Y753587D01*
X793086Y756006D01*
X794199Y758693D01*
X794766Y761546D01*
Y764454D01*
X794199Y767307D01*
X793086Y769995D01*
X791470Y772413D01*
X789413Y774470D01*
X786994Y776086D01*
X784307Y777199D01*
X781454Y777766D01*
D02*
G37*
G36*
X739454D02*
X736545D01*
X733693Y777199D01*
X731005Y776086D01*
X728587Y774470D01*
X726530Y772413D01*
X724914Y769995D01*
X723801Y767307D01*
X723234Y764454D01*
Y761546D01*
X723801Y758693D01*
X724914Y756006D01*
X726530Y753587D01*
X728587Y751531D01*
X731005Y749915D01*
X733693Y748802D01*
X736545Y748234D01*
X739454D01*
X742307Y748802D01*
X744994Y749915D01*
X747412Y751531D01*
X749469Y753587D01*
X751085Y756006D01*
X752198Y758693D01*
X752766Y761546D01*
Y764454D01*
X752198Y767307D01*
X751085Y769995D01*
X749469Y772413D01*
X747412Y774470D01*
X744994Y776086D01*
X742307Y777199D01*
X739454Y777766D01*
D02*
G37*
G36*
X523454D02*
X520546D01*
X517693Y777199D01*
X515006Y776086D01*
X512587Y774470D01*
X510531Y772413D01*
X508915Y769995D01*
X507802Y767307D01*
X507234Y764454D01*
Y761546D01*
X507802Y758693D01*
X508915Y756006D01*
X510531Y753587D01*
X512587Y751531D01*
X515006Y749915D01*
X517693Y748802D01*
X520546Y748234D01*
X523454D01*
X526307Y748802D01*
X528994Y749915D01*
X531413Y751531D01*
X533470Y753587D01*
X535085Y756006D01*
X536199Y758693D01*
X536766Y761546D01*
Y764454D01*
X536199Y767307D01*
X535085Y769995D01*
X533470Y772413D01*
X531413Y774470D01*
X528994Y776086D01*
X526307Y777199D01*
X523454Y777766D01*
D02*
G37*
G36*
X481454D02*
X478546D01*
X475693Y777199D01*
X473006Y776086D01*
X470587Y774470D01*
X468531Y772413D01*
X466915Y769995D01*
X465802Y767307D01*
X465234Y764454D01*
Y761546D01*
X465802Y758693D01*
X466915Y756006D01*
X468531Y753587D01*
X470587Y751531D01*
X473006Y749915D01*
X475693Y748802D01*
X478546Y748234D01*
X481454D01*
X484307Y748802D01*
X486994Y749915D01*
X489413Y751531D01*
X491470Y753587D01*
X493086Y756006D01*
X494199Y758693D01*
X494766Y761546D01*
Y764454D01*
X494199Y767307D01*
X493086Y769995D01*
X491470Y772413D01*
X489413Y774470D01*
X486994Y776086D01*
X484307Y777199D01*
X481454Y777766D01*
D02*
G37*
G36*
X439454D02*
X436546D01*
X433693Y777199D01*
X431006Y776086D01*
X428587Y774470D01*
X426531Y772413D01*
X424915Y769995D01*
X423802Y767307D01*
X423234Y764454D01*
Y761546D01*
X423802Y758693D01*
X424915Y756006D01*
X426531Y753587D01*
X428587Y751531D01*
X431006Y749915D01*
X433693Y748802D01*
X436546Y748234D01*
X439454D01*
X442307Y748802D01*
X444995Y749915D01*
X447413Y751531D01*
X449470Y753587D01*
X451086Y756006D01*
X452199Y758693D01*
X452766Y761546D01*
Y764454D01*
X452199Y767307D01*
X451086Y769995D01*
X449470Y772413D01*
X447413Y774470D01*
X444995Y776086D01*
X442307Y777199D01*
X439454Y777766D01*
D02*
G37*
G36*
X673454Y777766D02*
X670546D01*
X667693Y777199D01*
X665005Y776086D01*
X662587Y774470D01*
X660530Y772413D01*
X658914Y769995D01*
X657801Y767307D01*
X657234Y764454D01*
Y761546D01*
X657801Y758693D01*
X658914Y756006D01*
X660530Y753587D01*
X662587Y751531D01*
X665005Y749915D01*
X667693Y748802D01*
X670546Y748234D01*
X673454D01*
X676307Y748802D01*
X678994Y749915D01*
X681413Y751531D01*
X683469Y753587D01*
X685085Y756006D01*
X686198Y758693D01*
X686766Y761546D01*
Y764454D01*
X686198Y767307D01*
X685085Y769995D01*
X683469Y772413D01*
X681413Y774470D01*
X678994Y776086D01*
X676307Y777199D01*
X673454Y777766D01*
D02*
G37*
G36*
X631454D02*
X628546D01*
X625693Y777199D01*
X623006Y776086D01*
X620587Y774470D01*
X618530Y772413D01*
X616914Y769995D01*
X615801Y767307D01*
X615234Y764454D01*
Y761546D01*
X615801Y758693D01*
X616914Y756006D01*
X618530Y753587D01*
X620587Y751531D01*
X623006Y749915D01*
X625693Y748802D01*
X628546Y748234D01*
X631454D01*
X634307Y748802D01*
X636994Y749915D01*
X639413Y751531D01*
X641469Y753587D01*
X643085Y756006D01*
X644199Y758693D01*
X644766Y761546D01*
Y764454D01*
X644199Y767307D01*
X643085Y769995D01*
X641469Y772413D01*
X639413Y774470D01*
X636994Y776086D01*
X634307Y777199D01*
X631454Y777766D01*
D02*
G37*
G36*
X589454D02*
X586546D01*
X583693Y777199D01*
X581006Y776086D01*
X578587Y774470D01*
X576530Y772413D01*
X574915Y769995D01*
X573801Y767307D01*
X573234Y764454D01*
Y761546D01*
X573801Y758693D01*
X574915Y756006D01*
X576530Y753587D01*
X578587Y751531D01*
X581006Y749915D01*
X583693Y748802D01*
X586546Y748234D01*
X589454D01*
X592307Y748802D01*
X594994Y749915D01*
X597413Y751531D01*
X599469Y753587D01*
X601085Y756006D01*
X602198Y758693D01*
X602766Y761546D01*
Y764454D01*
X602198Y767307D01*
X601085Y769995D01*
X599469Y772413D01*
X597413Y774470D01*
X594994Y776086D01*
X592307Y777199D01*
X589454Y777766D01*
D02*
G37*
G36*
X950796Y750000D02*
X949204D01*
X947734Y749391D01*
X946609Y748266D01*
X946000Y746796D01*
Y745204D01*
X946609Y743734D01*
X947734Y742609D01*
X949204Y742000D01*
X950796D01*
X952266Y742609D01*
X953391Y743734D01*
X954000Y745204D01*
Y746796D01*
X953391Y748266D01*
X952266Y749391D01*
X950796Y750000D01*
D02*
G37*
G36*
X910796D02*
X909204D01*
X907734Y749391D01*
X906609Y748266D01*
X906000Y746796D01*
Y745204D01*
X906609Y743734D01*
X907734Y742609D01*
X909204Y742000D01*
X910796D01*
X912266Y742609D01*
X913391Y743734D01*
X914000Y745204D01*
Y746796D01*
X913391Y748266D01*
X912266Y749391D01*
X910796Y750000D01*
D02*
G37*
G36*
X870796D02*
X869204D01*
X867734Y749391D01*
X866609Y748266D01*
X866000Y746796D01*
Y745204D01*
X866609Y743734D01*
X867734Y742609D01*
X869204Y742000D01*
X870796D01*
X872266Y742609D01*
X873391Y743734D01*
X874000Y745204D01*
Y746796D01*
X873391Y748266D01*
X872266Y749391D01*
X870796Y750000D01*
D02*
G37*
G36*
X683896Y710250D02*
X682304D01*
X680834Y709641D01*
X679709Y708516D01*
X679100Y707046D01*
Y705454D01*
X679709Y703984D01*
X680834Y702859D01*
X682304Y702250D01*
X683896D01*
X685366Y702859D01*
X686491Y703984D01*
X687100Y705454D01*
Y707046D01*
X686491Y708516D01*
X685366Y709641D01*
X683896Y710250D01*
D02*
G37*
G36*
X970796Y710000D02*
X969204D01*
X967734Y709391D01*
X966609Y708266D01*
X966000Y706796D01*
Y705204D01*
X966609Y703734D01*
X967734Y702609D01*
X969204Y702000D01*
X970796D01*
X972266Y702609D01*
X973391Y703734D01*
X974000Y705204D01*
Y706796D01*
X973391Y708266D01*
X972266Y709391D01*
X970796Y710000D01*
D02*
G37*
G36*
X890796D02*
X889204D01*
X887734Y709391D01*
X886609Y708266D01*
X886000Y706796D01*
Y705204D01*
X886609Y703734D01*
X887734Y702609D01*
X889204Y702000D01*
X890796D01*
X892266Y702609D01*
X893391Y703734D01*
X894000Y705204D01*
Y706796D01*
X893391Y708266D01*
X892266Y709391D01*
X890796Y710000D01*
D02*
G37*
G36*
X869345Y725738D02*
X839779D01*
Y696172D01*
X869345D01*
Y725738D01*
D02*
G37*
G36*
X800900D02*
X797988D01*
X795132Y725170D01*
X792441Y724056D01*
X790020Y722438D01*
X787961Y720379D01*
X786343Y717958D01*
X785229Y715267D01*
X784661Y712411D01*
Y709499D01*
X785229Y706643D01*
X786343Y703953D01*
X787961Y701532D01*
X790020Y699473D01*
X792441Y697855D01*
X795132Y696740D01*
X797988Y696172D01*
X800900D01*
X803756Y696740D01*
X806446Y697855D01*
X808867Y699473D01*
X810926Y701532D01*
X812544Y703953D01*
X813659Y706643D01*
X814227Y709499D01*
Y712411D01*
X813659Y715267D01*
X812544Y717958D01*
X810926Y720379D01*
X808867Y722438D01*
X806446Y724056D01*
X803756Y725170D01*
X800900Y725738D01*
D02*
G37*
G36*
X700796Y690500D02*
X699204D01*
X697734Y689891D01*
X696609Y688766D01*
X696000Y687296D01*
Y685704D01*
X696609Y684234D01*
X697734Y683109D01*
X699204Y682500D01*
X700796D01*
X702266Y683109D01*
X703391Y684234D01*
X704000Y685704D01*
Y687296D01*
X703391Y688766D01*
X702266Y689891D01*
X700796Y690500D01*
D02*
G37*
G36*
X656546Y690000D02*
X654954D01*
X653484Y689391D01*
X652359Y688266D01*
X651750Y686796D01*
Y685204D01*
X652359Y683734D01*
X653484Y682609D01*
X654954Y682000D01*
X656546D01*
X658016Y682609D01*
X659141Y683734D01*
X659750Y685204D01*
Y686796D01*
X659141Y688266D01*
X658016Y689391D01*
X656546Y690000D01*
D02*
G37*
G36*
X929182Y707486D02*
X925738D01*
X922359Y706814D01*
X919177Y705496D01*
X916313Y703583D01*
X913877Y701147D01*
X911964Y698283D01*
X910646Y695101D01*
X909974Y691722D01*
Y688278D01*
X910646Y684900D01*
X911964Y681718D01*
X913877Y678854D01*
X916313Y676418D01*
X919177Y674504D01*
X922359Y673186D01*
X925738Y672514D01*
X929182D01*
X932560Y673186D01*
X935742Y674504D01*
X938606Y676418D01*
X941042Y678854D01*
X942956Y681718D01*
X944274Y684900D01*
X944946Y688278D01*
Y691722D01*
X944274Y695101D01*
X942956Y698283D01*
X941042Y701147D01*
X938606Y703583D01*
X935742Y705496D01*
X932560Y706814D01*
X929182Y707486D01*
D02*
G37*
G36*
X683796Y670500D02*
X682204D01*
X680734Y669891D01*
X679609Y668766D01*
X679000Y667296D01*
Y665704D01*
X679609Y664234D01*
X680734Y663109D01*
X682204Y662500D01*
X683796D01*
X685266Y663109D01*
X686391Y664234D01*
X687000Y665704D01*
Y667296D01*
X686391Y668766D01*
X685266Y669891D01*
X683796Y670500D01*
D02*
G37*
G36*
X950796Y670000D02*
X949204D01*
X947734Y669391D01*
X946609Y668266D01*
X946000Y666796D01*
Y665204D01*
X946609Y663734D01*
X947734Y662609D01*
X949204Y662000D01*
X950796D01*
X952266Y662609D01*
X953391Y663734D01*
X954000Y665204D01*
Y666796D01*
X953391Y668266D01*
X952266Y669391D01*
X950796Y670000D01*
D02*
G37*
G36*
X910796D02*
X909204D01*
X907734Y669391D01*
X906609Y668266D01*
X906000Y666796D01*
Y665204D01*
X906609Y663734D01*
X907734Y662609D01*
X909204Y662000D01*
X910796D01*
X912266Y662609D01*
X913391Y663734D01*
X914000Y665204D01*
Y666796D01*
X913391Y668266D01*
X912266Y669391D01*
X910796Y670000D01*
D02*
G37*
G36*
X830796D02*
X829204D01*
X827734Y669391D01*
X826609Y668266D01*
X826000Y666796D01*
Y665204D01*
X826609Y663734D01*
X827734Y662609D01*
X829204Y662000D01*
X830796D01*
X832266Y662609D01*
X833391Y663734D01*
X834000Y665204D01*
Y666796D01*
X833391Y668266D01*
X832266Y669391D01*
X830796Y670000D01*
D02*
G37*
G36*
X856018Y683828D02*
X853106D01*
X850250Y683260D01*
X847559Y682146D01*
X845138Y680528D01*
X843079Y678469D01*
X841461Y676048D01*
X840347Y673357D01*
X839779Y670501D01*
Y667589D01*
X840347Y664733D01*
X841461Y662043D01*
X843079Y659622D01*
X845138Y657563D01*
X847559Y655945D01*
X850250Y654830D01*
X853106Y654262D01*
X856018D01*
X858874Y654830D01*
X861564Y655945D01*
X863985Y657563D01*
X866044Y659622D01*
X867662Y662043D01*
X868777Y664733D01*
X869345Y667589D01*
Y670501D01*
X868777Y673357D01*
X867662Y676048D01*
X866044Y678469D01*
X863985Y680528D01*
X861564Y682146D01*
X858874Y683260D01*
X856018Y683828D01*
D02*
G37*
G36*
X800900D02*
X797988D01*
X795132Y683260D01*
X792441Y682146D01*
X790020Y680528D01*
X787961Y678469D01*
X786343Y676048D01*
X785229Y673357D01*
X784661Y670501D01*
Y667589D01*
X785229Y664733D01*
X786343Y662043D01*
X787961Y659622D01*
X790020Y657563D01*
X792441Y655945D01*
X795132Y654830D01*
X797988Y654262D01*
X800900D01*
X803756Y654830D01*
X806446Y655945D01*
X808867Y657563D01*
X810926Y659622D01*
X812544Y662043D01*
X813659Y664733D01*
X814227Y667589D01*
Y670501D01*
X813659Y673357D01*
X812544Y676048D01*
X810926Y678469D01*
X808867Y680528D01*
X806446Y682146D01*
X803756Y683260D01*
X800900Y683828D01*
D02*
G37*
G36*
X970796Y630000D02*
X969204D01*
X967734Y629391D01*
X966609Y628266D01*
X966000Y626796D01*
Y625204D01*
X966609Y623734D01*
X967734Y622609D01*
X969204Y622000D01*
X970796D01*
X972266Y622609D01*
X973391Y623734D01*
X974000Y625204D01*
Y626796D01*
X973391Y628266D01*
X972266Y629391D01*
X970796Y630000D01*
D02*
G37*
G36*
X930796D02*
X929204D01*
X927734Y629391D01*
X926609Y628266D01*
X926000Y626796D01*
Y625204D01*
X926609Y623734D01*
X927734Y622609D01*
X929204Y622000D01*
X930796D01*
X932266Y622609D01*
X933391Y623734D01*
X934000Y625204D01*
Y626796D01*
X933391Y628266D01*
X932266Y629391D01*
X930796Y630000D01*
D02*
G37*
G36*
X890796D02*
X889204D01*
X887734Y629391D01*
X886609Y628266D01*
X886000Y626796D01*
Y625204D01*
X886609Y623734D01*
X887734Y622609D01*
X889204Y622000D01*
X890796D01*
X892266Y622609D01*
X893391Y623734D01*
X894000Y625204D01*
Y626796D01*
X893391Y628266D01*
X892266Y629391D01*
X890796Y630000D01*
D02*
G37*
G36*
X810796D02*
X809204D01*
X807734Y629391D01*
X806609Y628266D01*
X806000Y626796D01*
Y625204D01*
X806609Y623734D01*
X807734Y622609D01*
X809204Y622000D01*
X810796D01*
X812266Y622609D01*
X813391Y623734D01*
X814000Y625204D01*
Y626796D01*
X813391Y628266D01*
X812266Y629391D01*
X810796Y630000D01*
D02*
G37*
G36*
X645796Y612750D02*
X644204D01*
X642734Y612141D01*
X641609Y611016D01*
X641000Y609546D01*
Y607954D01*
X641609Y606484D01*
X642734Y605359D01*
X644204Y604750D01*
X645796D01*
X647266Y605359D01*
X648391Y606484D01*
X649000Y607954D01*
Y609546D01*
X648391Y611016D01*
X647266Y612141D01*
X645796Y612750D01*
D02*
G37*
G36*
X691796Y606500D02*
X690204D01*
X688734Y605891D01*
X687609Y604766D01*
X687000Y603296D01*
Y601704D01*
X687609Y600234D01*
X688734Y599109D01*
X690204Y598500D01*
X691796D01*
X693266Y599109D01*
X694391Y600234D01*
X695000Y601704D01*
Y603296D01*
X694391Y604766D01*
X693266Y605891D01*
X691796Y606500D01*
D02*
G37*
G36*
X678796D02*
X677205D01*
X675734Y605891D01*
X674609Y604766D01*
X674000Y603296D01*
Y601704D01*
X674609Y600234D01*
X675734Y599109D01*
X677205Y598500D01*
X678796D01*
X680266Y599109D01*
X681391Y600234D01*
X682000Y601704D01*
Y603296D01*
X681391Y604766D01*
X680266Y605891D01*
X678796Y606500D01*
D02*
G37*
G36*
X869766Y617766D02*
X840234D01*
Y588234D01*
X869766D01*
Y617766D01*
D02*
G37*
G36*
X929724Y620500D02*
X926277D01*
X922896Y619827D01*
X919711Y618508D01*
X916845Y616593D01*
X914407Y614156D01*
X912492Y611289D01*
X911173Y608105D01*
X910500Y604724D01*
Y601276D01*
X911173Y597895D01*
X912492Y594711D01*
X914407Y591844D01*
X916845Y589407D01*
X919711Y587492D01*
X922896Y586172D01*
X926277Y585500D01*
X929724D01*
X933105Y586172D01*
X936290Y587492D01*
X939156Y589407D01*
X941593Y591844D01*
X943509Y594711D01*
X944828Y597895D01*
X945500Y601276D01*
Y604724D01*
X944828Y608105D01*
X943509Y611289D01*
X941593Y614156D01*
X939156Y616593D01*
X936290Y618508D01*
X933105Y619827D01*
X929724Y620500D01*
D02*
G37*
G36*
X950796Y590000D02*
X949204D01*
X947734Y589391D01*
X946609Y588266D01*
X946000Y586796D01*
Y585204D01*
X946609Y583734D01*
X947734Y582609D01*
X949204Y582000D01*
X950796D01*
X952266Y582609D01*
X953391Y583734D01*
X954000Y585204D01*
Y586796D01*
X953391Y588266D01*
X952266Y589391D01*
X950796Y590000D01*
D02*
G37*
G36*
X910796D02*
X909204D01*
X907734Y589391D01*
X906609Y588266D01*
X906000Y586796D01*
Y585204D01*
X906609Y583734D01*
X907734Y582609D01*
X909204Y582000D01*
X910796D01*
X912266Y582609D01*
X913391Y583734D01*
X914000Y585204D01*
Y586796D01*
X913391Y588266D01*
X912266Y589391D01*
X910796Y590000D01*
D02*
G37*
G36*
X697733Y581250D02*
X696142D01*
X694671Y580641D01*
X693546Y579516D01*
X692937Y578046D01*
Y576454D01*
X693546Y574984D01*
X694671Y573859D01*
X696142Y573250D01*
X697733D01*
X699203Y573859D01*
X700328Y574984D01*
X700937Y576454D01*
Y578046D01*
X700328Y579516D01*
X699203Y580641D01*
X697733Y581250D01*
D02*
G37*
G36*
X715046Y561500D02*
X713454D01*
X711984Y560891D01*
X710859Y559766D01*
X710250Y558296D01*
Y556704D01*
X710859Y555234D01*
X711984Y554109D01*
X713454Y553500D01*
X715046D01*
X716516Y554109D01*
X717641Y555234D01*
X718250Y556704D01*
Y558296D01*
X717641Y559766D01*
X716516Y560891D01*
X715046Y561500D01*
D02*
G37*
G36*
X670796Y561250D02*
X669204D01*
X667734Y560641D01*
X666609Y559516D01*
X666000Y558046D01*
Y556454D01*
X666609Y554984D01*
X667734Y553859D01*
X669204Y553250D01*
X670796D01*
X672266Y553859D01*
X673391Y554984D01*
X674000Y556454D01*
Y558046D01*
X673391Y559516D01*
X672266Y560641D01*
X670796Y561250D01*
D02*
G37*
G36*
X856454Y575766D02*
X853546D01*
X850693Y575199D01*
X848006Y574085D01*
X845587Y572469D01*
X843531Y570413D01*
X841915Y567994D01*
X840802Y565307D01*
X840234Y562454D01*
Y559546D01*
X840802Y556693D01*
X841915Y554006D01*
X843531Y551587D01*
X845587Y549530D01*
X848006Y547915D01*
X850693Y546801D01*
X853546Y546234D01*
X856454D01*
X859307Y546801D01*
X861994Y547915D01*
X864413Y549530D01*
X866470Y551587D01*
X868086Y554006D01*
X869199Y556693D01*
X869766Y559546D01*
Y562454D01*
X869199Y565307D01*
X868086Y567994D01*
X866470Y570413D01*
X864413Y572469D01*
X861994Y574085D01*
X859307Y575199D01*
X856454Y575766D01*
D02*
G37*
G36*
X814454D02*
X811546D01*
X808693Y575199D01*
X806006Y574085D01*
X803587Y572469D01*
X801531Y570413D01*
X799915Y567994D01*
X798802Y565307D01*
X798234Y562454D01*
Y559546D01*
X798802Y556693D01*
X799915Y554006D01*
X801531Y551587D01*
X803587Y549530D01*
X806006Y547915D01*
X808693Y546801D01*
X811546Y546234D01*
X814454D01*
X817307Y546801D01*
X819995Y547915D01*
X822413Y549530D01*
X824470Y551587D01*
X826086Y554006D01*
X827199Y556693D01*
X827766Y559546D01*
Y562454D01*
X827199Y565307D01*
X826086Y567994D01*
X824470Y570413D01*
X822413Y572469D01*
X819995Y574085D01*
X817307Y575199D01*
X814454Y575766D01*
D02*
G37*
G36*
X970796Y550000D02*
X969204D01*
X967734Y549391D01*
X966609Y548266D01*
X966000Y546796D01*
Y545204D01*
X966609Y543734D01*
X967734Y542609D01*
X969204Y542000D01*
X970796D01*
X972266Y542609D01*
X973391Y543734D01*
X974000Y545204D01*
Y546796D01*
X973391Y548266D01*
X972266Y549391D01*
X970796Y550000D01*
D02*
G37*
G36*
X930796D02*
X929204D01*
X927734Y549391D01*
X926609Y548266D01*
X926000Y546796D01*
Y545204D01*
X926609Y543734D01*
X927734Y542609D01*
X929204Y542000D01*
X930796D01*
X932266Y542609D01*
X933391Y543734D01*
X934000Y545204D01*
Y546796D01*
X933391Y548266D01*
X932266Y549391D01*
X930796Y550000D01*
D02*
G37*
G36*
X890796D02*
X889204D01*
X887734Y549391D01*
X886609Y548266D01*
X886000Y546796D01*
Y545204D01*
X886609Y543734D01*
X887734Y542609D01*
X889204Y542000D01*
X890796D01*
X892266Y542609D01*
X893391Y543734D01*
X894000Y545204D01*
Y546796D01*
X893391Y548266D01*
X892266Y549391D01*
X890796Y550000D01*
D02*
G37*
G36*
X615796Y548750D02*
X614204D01*
X612734Y548141D01*
X611609Y547016D01*
X611000Y545546D01*
Y543954D01*
X611609Y542484D01*
X612734Y541359D01*
X614204Y540750D01*
X615796D01*
X617266Y541359D01*
X618391Y542484D01*
X619000Y543954D01*
Y545546D01*
X618391Y547016D01*
X617266Y548141D01*
X615796Y548750D01*
D02*
G37*
G36*
X856454Y533766D02*
X853546D01*
X850693Y533199D01*
X848006Y532085D01*
X845587Y530470D01*
X843531Y528413D01*
X841915Y525994D01*
X840802Y523307D01*
X840234Y520454D01*
Y517546D01*
X840802Y514693D01*
X841915Y512006D01*
X843531Y509587D01*
X845587Y507531D01*
X848006Y505915D01*
X850693Y504801D01*
X853546Y504234D01*
X856454D01*
X859307Y504801D01*
X861994Y505915D01*
X864413Y507531D01*
X866470Y509587D01*
X868086Y512006D01*
X869199Y514693D01*
X869766Y517546D01*
Y520454D01*
X869199Y523307D01*
X868086Y525994D01*
X866470Y528413D01*
X864413Y530470D01*
X861994Y532085D01*
X859307Y533199D01*
X856454Y533766D01*
D02*
G37*
G36*
X814454D02*
X811546D01*
X808693Y533199D01*
X806006Y532085D01*
X803587Y530470D01*
X801531Y528413D01*
X799915Y525994D01*
X798802Y523307D01*
X798234Y520454D01*
Y517546D01*
X798802Y514693D01*
X799915Y512006D01*
X801531Y509587D01*
X803587Y507531D01*
X806006Y505915D01*
X808693Y504801D01*
X811546Y504234D01*
X814454D01*
X817307Y504801D01*
X819995Y505915D01*
X822413Y507531D01*
X824470Y509587D01*
X826086Y512006D01*
X827199Y514693D01*
X827766Y517546D01*
Y520454D01*
X827199Y523307D01*
X826086Y525994D01*
X824470Y528413D01*
X822413Y530470D01*
X819995Y532085D01*
X817307Y533199D01*
X814454Y533766D01*
D02*
G37*
G36*
X950796Y510000D02*
X949204D01*
X947734Y509391D01*
X946609Y508266D01*
X946000Y506796D01*
Y505204D01*
X946609Y503734D01*
X947734Y502609D01*
X949204Y502000D01*
X950796D01*
X952266Y502609D01*
X953391Y503734D01*
X954000Y505204D01*
Y506796D01*
X953391Y508266D01*
X952266Y509391D01*
X950796Y510000D01*
D02*
G37*
G36*
X910796D02*
X909204D01*
X907734Y509391D01*
X906609Y508266D01*
X906000Y506796D01*
Y505204D01*
X906609Y503734D01*
X907734Y502609D01*
X909204Y502000D01*
X910796D01*
X912266Y502609D01*
X913391Y503734D01*
X914000Y505204D01*
Y506796D01*
X913391Y508266D01*
X912266Y509391D01*
X910796Y510000D01*
D02*
G37*
G36*
X830796D02*
X829204D01*
X827734Y509391D01*
X826609Y508266D01*
X826000Y506796D01*
Y505204D01*
X826609Y503734D01*
X827734Y502609D01*
X829204Y502000D01*
X830796D01*
X832266Y502609D01*
X833391Y503734D01*
X834000Y505204D01*
Y506796D01*
X833391Y508266D01*
X832266Y509391D01*
X830796Y510000D01*
D02*
G37*
G36*
X790796D02*
X789204D01*
X787734Y509391D01*
X786609Y508266D01*
X786000Y506796D01*
Y505204D01*
X786609Y503734D01*
X787734Y502609D01*
X789204Y502000D01*
X790796D01*
X792266Y502609D01*
X793391Y503734D01*
X794000Y505204D01*
Y506796D01*
X793391Y508266D01*
X792266Y509391D01*
X790796Y510000D01*
D02*
G37*
G36*
X750796D02*
X749204D01*
X747734Y509391D01*
X746609Y508266D01*
X746000Y506796D01*
Y505204D01*
X746609Y503734D01*
X747734Y502609D01*
X749204Y502000D01*
X750796D01*
X752266Y502609D01*
X753391Y503734D01*
X754000Y505204D01*
Y506796D01*
X753391Y508266D01*
X752266Y509391D01*
X750796Y510000D01*
D02*
G37*
G36*
X710796D02*
X709204D01*
X707734Y509391D01*
X706609Y508266D01*
X706000Y506796D01*
Y505204D01*
X706609Y503734D01*
X707734Y502609D01*
X709204Y502000D01*
X710796D01*
X712266Y502609D01*
X713391Y503734D01*
X714000Y505204D01*
Y506796D01*
X713391Y508266D01*
X712266Y509391D01*
X710796Y510000D01*
D02*
G37*
G36*
X670796D02*
X669204D01*
X667734Y509391D01*
X666609Y508266D01*
X666000Y506796D01*
Y505204D01*
X666609Y503734D01*
X667734Y502609D01*
X669204Y502000D01*
X670796D01*
X672266Y502609D01*
X673391Y503734D01*
X674000Y505204D01*
Y506796D01*
X673391Y508266D01*
X672266Y509391D01*
X670796Y510000D01*
D02*
G37*
G36*
X630796D02*
X629204D01*
X627734Y509391D01*
X626609Y508266D01*
X626000Y506796D01*
Y505204D01*
X626609Y503734D01*
X627734Y502609D01*
X629204Y502000D01*
X630796D01*
X632266Y502609D01*
X633391Y503734D01*
X634000Y505204D01*
Y506796D01*
X633391Y508266D01*
X632266Y509391D01*
X630796Y510000D01*
D02*
G37*
G36*
X52095Y521270D02*
X47905D01*
X43796Y520453D01*
X39925Y518849D01*
X36441Y516521D01*
X33479Y513559D01*
X31151Y510075D01*
X29547Y506204D01*
X28730Y502095D01*
Y497905D01*
X29547Y493796D01*
X31151Y489925D01*
X33479Y486441D01*
X36441Y483479D01*
X39925Y481151D01*
X43796Y479547D01*
X47905Y478730D01*
X52095D01*
X56204Y479547D01*
X60075Y481151D01*
X63559Y483479D01*
X66522Y486441D01*
X68849Y489925D01*
X70453Y493796D01*
X71270Y497905D01*
Y502095D01*
X70453Y506204D01*
X68849Y510075D01*
X66522Y513559D01*
X63559Y516521D01*
X60075Y518849D01*
X56204Y520453D01*
X52095Y521270D01*
D02*
G37*
G36*
X856454Y491766D02*
X853546D01*
X850693Y491199D01*
X848006Y490086D01*
X845587Y488470D01*
X843531Y486413D01*
X841915Y483994D01*
X840802Y481307D01*
X840234Y478455D01*
Y475546D01*
X840802Y472693D01*
X841915Y470006D01*
X843531Y467587D01*
X845587Y465531D01*
X848006Y463915D01*
X850693Y462802D01*
X853546Y462234D01*
X856454D01*
X859307Y462802D01*
X861994Y463915D01*
X864413Y465531D01*
X866470Y467587D01*
X868086Y470006D01*
X869199Y472693D01*
X869766Y475546D01*
Y478455D01*
X869199Y481307D01*
X868086Y483994D01*
X866470Y486413D01*
X864413Y488470D01*
X861994Y490086D01*
X859307Y491199D01*
X856454Y491766D01*
D02*
G37*
G36*
X814454D02*
X811546D01*
X808693Y491199D01*
X806006Y490086D01*
X803587Y488470D01*
X801531Y486413D01*
X799915Y483994D01*
X798802Y481307D01*
X798234Y478455D01*
Y475546D01*
X798802Y472693D01*
X799915Y470006D01*
X801531Y467587D01*
X803587Y465531D01*
X806006Y463915D01*
X808693Y462802D01*
X811546Y462234D01*
X814454D01*
X817307Y462802D01*
X819995Y463915D01*
X822413Y465531D01*
X824470Y467587D01*
X826086Y470006D01*
X827199Y472693D01*
X827766Y475546D01*
Y478455D01*
X827199Y481307D01*
X826086Y483994D01*
X824470Y486413D01*
X822413Y488470D01*
X819995Y490086D01*
X817307Y491199D01*
X814454Y491766D01*
D02*
G37*
G36*
X970796Y470000D02*
X969204D01*
X967734Y469391D01*
X966609Y468266D01*
X966000Y466796D01*
Y465204D01*
X966609Y463734D01*
X967734Y462609D01*
X969204Y462000D01*
X970796D01*
X972266Y462609D01*
X973391Y463734D01*
X974000Y465204D01*
Y466796D01*
X973391Y468266D01*
X972266Y469391D01*
X970796Y470000D01*
D02*
G37*
G36*
X890796D02*
X889204D01*
X887734Y469391D01*
X886609Y468266D01*
X886000Y466796D01*
Y465204D01*
X886609Y463734D01*
X887734Y462609D01*
X889204Y462000D01*
X890796D01*
X892266Y462609D01*
X893391Y463734D01*
X894000Y465204D01*
Y466796D01*
X893391Y468266D01*
X892266Y469391D01*
X890796Y470000D01*
D02*
G37*
G36*
X770796D02*
X769204D01*
X767734Y469391D01*
X766609Y468266D01*
X766000Y466796D01*
Y465204D01*
X766609Y463734D01*
X767734Y462609D01*
X769204Y462000D01*
X770796D01*
X772266Y462609D01*
X773391Y463734D01*
X774000Y465204D01*
Y466796D01*
X773391Y468266D01*
X772266Y469391D01*
X770796Y470000D01*
D02*
G37*
G36*
X690796D02*
X689204D01*
X687734Y469391D01*
X686609Y468266D01*
X686000Y466796D01*
Y465204D01*
X686609Y463734D01*
X687734Y462609D01*
X689204Y462000D01*
X690796D01*
X692266Y462609D01*
X693391Y463734D01*
X694000Y465204D01*
Y466796D01*
X693391Y468266D01*
X692266Y469391D01*
X690796Y470000D01*
D02*
G37*
G36*
X650796D02*
X649204D01*
X647734Y469391D01*
X646609Y468266D01*
X646000Y466796D01*
Y465204D01*
X646609Y463734D01*
X647734Y462609D01*
X649204Y462000D01*
X650796D01*
X652266Y462609D01*
X653391Y463734D01*
X654000Y465204D01*
Y466796D01*
X653391Y468266D01*
X652266Y469391D01*
X650796Y470000D01*
D02*
G37*
G36*
X490796D02*
X489204D01*
X487734Y469391D01*
X486609Y468266D01*
X486000Y466796D01*
Y465204D01*
X486609Y463734D01*
X487734Y462609D01*
X489204Y462000D01*
X490796D01*
X492266Y462609D01*
X493391Y463734D01*
X494000Y465204D01*
Y466796D01*
X493391Y468266D01*
X492266Y469391D01*
X490796Y470000D01*
D02*
G37*
G36*
X450796D02*
X449204D01*
X447734Y469391D01*
X446609Y468266D01*
X446000Y466796D01*
Y465204D01*
X446609Y463734D01*
X447734Y462609D01*
X449204Y462000D01*
X450796D01*
X452266Y462609D01*
X453391Y463734D01*
X454000Y465204D01*
Y466796D01*
X453391Y468266D01*
X452266Y469391D01*
X450796Y470000D01*
D02*
G37*
G36*
X410796D02*
X409204D01*
X407734Y469391D01*
X406609Y468266D01*
X406000Y466796D01*
Y465204D01*
X406609Y463734D01*
X407734Y462609D01*
X409204Y462000D01*
X410796D01*
X412266Y462609D01*
X413391Y463734D01*
X414000Y465204D01*
Y466796D01*
X413391Y468266D01*
X412266Y469391D01*
X410796Y470000D01*
D02*
G37*
G36*
X290796D02*
X289204D01*
X287734Y469391D01*
X286609Y468266D01*
X286000Y466796D01*
Y465204D01*
X286609Y463734D01*
X287734Y462609D01*
X289204Y462000D01*
X290796D01*
X292266Y462609D01*
X293391Y463734D01*
X294000Y465204D01*
Y466796D01*
X293391Y468266D01*
X292266Y469391D01*
X290796Y470000D01*
D02*
G37*
G36*
X250796D02*
X249204D01*
X247734Y469391D01*
X246609Y468266D01*
X246000Y466796D01*
Y465204D01*
X246609Y463734D01*
X247734Y462609D01*
X249204Y462000D01*
X250796D01*
X252266Y462609D01*
X253391Y463734D01*
X254000Y465204D01*
Y466796D01*
X253391Y468266D01*
X252266Y469391D01*
X250796Y470000D01*
D02*
G37*
G36*
X210796D02*
X209204D01*
X207734Y469391D01*
X206609Y468266D01*
X206000Y466796D01*
Y465204D01*
X206609Y463734D01*
X207734Y462609D01*
X209204Y462000D01*
X210796D01*
X212266Y462609D01*
X213391Y463734D01*
X214000Y465204D01*
Y466796D01*
X213391Y468266D01*
X212266Y469391D01*
X210796Y470000D01*
D02*
G37*
G36*
X170796D02*
X169204D01*
X167734Y469391D01*
X166609Y468266D01*
X166000Y466796D01*
Y465204D01*
X166609Y463734D01*
X167734Y462609D01*
X169204Y462000D01*
X170796D01*
X172266Y462609D01*
X173391Y463734D01*
X174000Y465204D01*
Y466796D01*
X173391Y468266D01*
X172266Y469391D01*
X170796Y470000D01*
D02*
G37*
G36*
X705546Y469000D02*
X703954D01*
X702484Y468391D01*
X701359Y467266D01*
X700750Y465796D01*
Y464204D01*
X701359Y462734D01*
X702484Y461609D01*
X703954Y461000D01*
X705546D01*
X707016Y461609D01*
X708141Y462734D01*
X708750Y464204D01*
Y465796D01*
X708141Y467266D01*
X707016Y468391D01*
X705546Y469000D01*
D02*
G37*
G36*
X600296Y468000D02*
X598704D01*
X597234Y467391D01*
X596109Y466266D01*
X595500Y464795D01*
Y463204D01*
X596109Y461734D01*
X597234Y460609D01*
X598704Y460000D01*
X600296D01*
X601766Y460609D01*
X602891Y461734D01*
X603500Y463204D01*
Y464795D01*
X602891Y466266D01*
X601766Y467391D01*
X600296Y468000D01*
D02*
G37*
G36*
X549546D02*
X547955D01*
X546484Y467391D01*
X545359Y466266D01*
X544750Y464795D01*
Y463204D01*
X545359Y461734D01*
X546484Y460609D01*
X547955Y460000D01*
X549546D01*
X551016Y460609D01*
X552141Y461734D01*
X552750Y463204D01*
Y464795D01*
X552141Y466266D01*
X551016Y467391D01*
X549546Y468000D01*
D02*
G37*
G36*
X135046D02*
X133454D01*
X131984Y467391D01*
X130859Y466266D01*
X130250Y464795D01*
Y463204D01*
X130859Y461734D01*
X131984Y460609D01*
X133454Y460000D01*
X135046D01*
X136516Y460609D01*
X137641Y461734D01*
X138250Y463204D01*
Y464795D01*
X137641Y466266D01*
X136516Y467391D01*
X135046Y468000D01*
D02*
G37*
G36*
X84296D02*
X82705D01*
X81234Y467391D01*
X80109Y466266D01*
X79500Y464795D01*
Y463204D01*
X80109Y461734D01*
X81234Y460609D01*
X82705Y460000D01*
X84296D01*
X85766Y460609D01*
X86891Y461734D01*
X87500Y463204D01*
Y464795D01*
X86891Y466266D01*
X85766Y467391D01*
X84296Y468000D01*
D02*
G37*
G36*
X368296Y468000D02*
X366704D01*
X365234Y467391D01*
X364109Y466265D01*
X363500Y464795D01*
Y463204D01*
X364109Y461734D01*
X365234Y460609D01*
X366704Y460000D01*
X368296D01*
X369766Y460609D01*
X370891Y461734D01*
X371500Y463204D01*
Y464795D01*
X370891Y466265D01*
X369766Y467391D01*
X368296Y468000D01*
D02*
G37*
G36*
X317546D02*
X315955D01*
X314485Y467391D01*
X313359Y466265D01*
X312750Y464795D01*
Y463204D01*
X313359Y461734D01*
X314485Y460609D01*
X315955Y460000D01*
X317546D01*
X319016Y460609D01*
X320141Y461734D01*
X320750Y463204D01*
Y464795D01*
X320141Y466265D01*
X319016Y467391D01*
X317546Y468000D01*
D02*
G37*
G36*
X929724Y494500D02*
X926277D01*
X922896Y493828D01*
X919711Y492509D01*
X916845Y490593D01*
X914407Y488156D01*
X912492Y485289D01*
X911173Y482105D01*
X910500Y478724D01*
Y475277D01*
X911173Y471896D01*
X912492Y468711D01*
X914407Y465845D01*
X916845Y463407D01*
X919711Y461492D01*
X922896Y460173D01*
X926277Y459500D01*
X929724D01*
X933105Y460173D01*
X936290Y461492D01*
X939156Y463407D01*
X941593Y465845D01*
X943509Y468711D01*
X944828Y471896D01*
X945500Y475277D01*
Y478724D01*
X944828Y482105D01*
X943509Y485289D01*
X941593Y488156D01*
X939156Y490593D01*
X936290Y492509D01*
X933105Y493828D01*
X929724Y494500D01*
D02*
G37*
G36*
X750657Y452496D02*
X749065D01*
X747595Y451887D01*
X746470Y450762D01*
X745861Y449291D01*
Y447700D01*
X746470Y446230D01*
X747595Y445105D01*
X749065Y444496D01*
X750657D01*
X752127Y445105D01*
X753252Y446230D01*
X753861Y447700D01*
Y449291D01*
X753252Y450762D01*
X752127Y451887D01*
X750657Y452496D01*
D02*
G37*
G36*
X600346Y438250D02*
X598754D01*
X597284Y437641D01*
X596159Y436516D01*
X595550Y435046D01*
Y433455D01*
X596159Y431984D01*
X597284Y430859D01*
X598754Y430250D01*
X600346D01*
X601816Y430859D01*
X602941Y431984D01*
X603550Y433455D01*
Y435046D01*
X602941Y436516D01*
X601816Y437641D01*
X600346Y438250D01*
D02*
G37*
G36*
X549546D02*
X547954D01*
X546484Y437641D01*
X545359Y436516D01*
X544750Y435046D01*
Y433455D01*
X545359Y431984D01*
X546484Y430859D01*
X547954Y430250D01*
X549546D01*
X551016Y430859D01*
X552141Y431984D01*
X552750Y433455D01*
Y435046D01*
X552141Y436516D01*
X551016Y437641D01*
X549546Y438250D01*
D02*
G37*
G36*
X135096D02*
X133504D01*
X132034Y437641D01*
X130909Y436516D01*
X130300Y435046D01*
Y433455D01*
X130909Y431984D01*
X132034Y430859D01*
X133504Y430250D01*
X135096D01*
X136566Y430859D01*
X137691Y431984D01*
X138300Y433455D01*
Y435046D01*
X137691Y436516D01*
X136566Y437641D01*
X135096Y438250D01*
D02*
G37*
G36*
X84296D02*
X82704D01*
X81234Y437641D01*
X80109Y436516D01*
X79500Y435046D01*
Y433455D01*
X80109Y431984D01*
X81234Y430859D01*
X82704Y430250D01*
X84296D01*
X85766Y430859D01*
X86891Y431984D01*
X87500Y433455D01*
Y435046D01*
X86891Y436516D01*
X85766Y437641D01*
X84296Y438250D01*
D02*
G37*
G36*
X368346Y438250D02*
X366754D01*
X365284Y437641D01*
X364159Y436516D01*
X363550Y435046D01*
Y433454D01*
X364159Y431984D01*
X365284Y430859D01*
X366754Y430250D01*
X368346D01*
X369816Y430859D01*
X370941Y431984D01*
X371550Y433454D01*
Y435046D01*
X370941Y436516D01*
X369816Y437641D01*
X368346Y438250D01*
D02*
G37*
G36*
X317546D02*
X315954D01*
X314484Y437641D01*
X313359Y436516D01*
X312750Y435046D01*
Y433454D01*
X313359Y431984D01*
X314484Y430859D01*
X315954Y430250D01*
X317546D01*
X319016Y430859D01*
X320141Y431984D01*
X320750Y433454D01*
Y435046D01*
X320141Y436516D01*
X319016Y437641D01*
X317546Y438250D01*
D02*
G37*
G36*
X950796Y430000D02*
X949204D01*
X947734Y429391D01*
X946609Y428266D01*
X946000Y426796D01*
Y425204D01*
X946609Y423734D01*
X947734Y422609D01*
X949204Y422000D01*
X950796D01*
X952266Y422609D01*
X953391Y423734D01*
X954000Y425204D01*
Y426796D01*
X953391Y428266D01*
X952266Y429391D01*
X950796Y430000D01*
D02*
G37*
G36*
X910796D02*
X909204D01*
X907734Y429391D01*
X906609Y428266D01*
X906000Y426796D01*
Y425204D01*
X906609Y423734D01*
X907734Y422609D01*
X909204Y422000D01*
X910796D01*
X912266Y422609D01*
X913391Y423734D01*
X914000Y425204D01*
Y426796D01*
X913391Y428266D01*
X912266Y429391D01*
X910796Y430000D01*
D02*
G37*
G36*
X870796D02*
X869204D01*
X867734Y429391D01*
X866609Y428266D01*
X866000Y426796D01*
Y425204D01*
X866609Y423734D01*
X867734Y422609D01*
X869204Y422000D01*
X870796D01*
X872266Y422609D01*
X873391Y423734D01*
X874000Y425204D01*
Y426796D01*
X873391Y428266D01*
X872266Y429391D01*
X870796Y430000D01*
D02*
G37*
G36*
X830796D02*
X829204D01*
X827734Y429391D01*
X826609Y428266D01*
X826000Y426796D01*
Y425204D01*
X826609Y423734D01*
X827734Y422609D01*
X829204Y422000D01*
X830796D01*
X832266Y422609D01*
X833391Y423734D01*
X834000Y425204D01*
Y426796D01*
X833391Y428266D01*
X832266Y429391D01*
X830796Y430000D01*
D02*
G37*
G36*
X790796D02*
X789204D01*
X787734Y429391D01*
X786609Y428266D01*
X786000Y426796D01*
Y425204D01*
X786609Y423734D01*
X787734Y422609D01*
X789204Y422000D01*
X790796D01*
X792266Y422609D01*
X793391Y423734D01*
X794000Y425204D01*
Y426796D01*
X793391Y428266D01*
X792266Y429391D01*
X790796Y430000D01*
D02*
G37*
G36*
X750796D02*
X749204D01*
X747734Y429391D01*
X746609Y428266D01*
X746000Y426796D01*
Y425204D01*
X746609Y423734D01*
X747734Y422609D01*
X749204Y422000D01*
X750796D01*
X752266Y422609D01*
X753391Y423734D01*
X754000Y425204D01*
Y426796D01*
X753391Y428266D01*
X752266Y429391D01*
X750796Y430000D01*
D02*
G37*
G36*
X710796D02*
X709204D01*
X707734Y429391D01*
X706609Y428266D01*
X706000Y426796D01*
Y425204D01*
X706609Y423734D01*
X707734Y422609D01*
X709204Y422000D01*
X710796D01*
X712266Y422609D01*
X713391Y423734D01*
X714000Y425204D01*
Y426796D01*
X713391Y428266D01*
X712266Y429391D01*
X710796Y430000D01*
D02*
G37*
G36*
X230796D02*
X229204D01*
X227734Y429391D01*
X226609Y428266D01*
X226000Y426796D01*
Y425204D01*
X226609Y423734D01*
X227734Y422609D01*
X229204Y422000D01*
X230796D01*
X232266Y422609D01*
X233391Y423734D01*
X234000Y425204D01*
Y426796D01*
X233391Y428266D01*
X232266Y429391D01*
X230796Y430000D01*
D02*
G37*
G36*
X600346Y421500D02*
X598754D01*
X597284Y420891D01*
X596159Y419766D01*
X595550Y418296D01*
Y416704D01*
X596159Y415234D01*
X597284Y414109D01*
X598754Y413500D01*
X600346D01*
X601816Y414109D01*
X602941Y415234D01*
X603550Y416704D01*
Y418296D01*
X602941Y419766D01*
X601816Y420891D01*
X600346Y421500D01*
D02*
G37*
G36*
X549546D02*
X547954D01*
X546484Y420891D01*
X545359Y419766D01*
X544750Y418296D01*
Y416704D01*
X545359Y415234D01*
X546484Y414109D01*
X547954Y413500D01*
X549546D01*
X551016Y414109D01*
X552141Y415234D01*
X552750Y416704D01*
Y418296D01*
X552141Y419766D01*
X551016Y420891D01*
X549546Y421500D01*
D02*
G37*
G36*
X135096D02*
X133504D01*
X132034Y420891D01*
X130909Y419766D01*
X130300Y418296D01*
Y416704D01*
X130909Y415234D01*
X132034Y414109D01*
X133504Y413500D01*
X135096D01*
X136566Y414109D01*
X137691Y415234D01*
X138300Y416704D01*
Y418296D01*
X137691Y419766D01*
X136566Y420891D01*
X135096Y421500D01*
D02*
G37*
G36*
X84296D02*
X82704D01*
X81234Y420891D01*
X80109Y419766D01*
X79500Y418296D01*
Y416704D01*
X80109Y415234D01*
X81234Y414109D01*
X82704Y413500D01*
X84296D01*
X85766Y414109D01*
X86891Y415234D01*
X87500Y416704D01*
Y418296D01*
X86891Y419766D01*
X85766Y420891D01*
X84296Y421500D01*
D02*
G37*
G36*
X368346Y421500D02*
X366754D01*
X365284Y420891D01*
X364159Y419766D01*
X363550Y418296D01*
Y416704D01*
X364159Y415234D01*
X365284Y414109D01*
X366754Y413500D01*
X368346D01*
X369816Y414109D01*
X370941Y415234D01*
X371550Y416704D01*
Y418296D01*
X370941Y419766D01*
X369816Y420891D01*
X368346Y421500D01*
D02*
G37*
G36*
X317546D02*
X315954D01*
X314484Y420891D01*
X313359Y419766D01*
X312750Y418296D01*
Y416704D01*
X313359Y415234D01*
X314484Y414109D01*
X315954Y413500D01*
X317546D01*
X319016Y414109D01*
X320141Y415234D01*
X320750Y416704D01*
Y418296D01*
X320141Y419766D01*
X319016Y420891D01*
X317546Y421500D01*
D02*
G37*
G36*
X674546Y407500D02*
X672954D01*
X671484Y406891D01*
X670359Y405766D01*
X669750Y404296D01*
Y402705D01*
X670359Y401234D01*
X671484Y400109D01*
X672954Y399500D01*
X674546D01*
X676016Y400109D01*
X677141Y401234D01*
X677750Y402705D01*
Y404296D01*
X677141Y405766D01*
X676016Y406891D01*
X674546Y407500D01*
D02*
G37*
G36*
X209296D02*
X207704D01*
X206234Y406891D01*
X205109Y405766D01*
X204500Y404296D01*
Y402705D01*
X205109Y401234D01*
X206234Y400109D01*
X207704Y399500D01*
X209296D01*
X210766Y400109D01*
X211891Y401234D01*
X212500Y402705D01*
Y404296D01*
X211891Y405766D01*
X210766Y406891D01*
X209296Y407500D01*
D02*
G37*
G36*
X442546Y407500D02*
X440955D01*
X439484Y406891D01*
X438359Y405766D01*
X437750Y404296D01*
Y402704D01*
X438359Y401234D01*
X439484Y400109D01*
X440955Y399500D01*
X442546D01*
X444016Y400109D01*
X445141Y401234D01*
X445750Y402704D01*
Y404296D01*
X445141Y405766D01*
X444016Y406891D01*
X442546Y407500D01*
D02*
G37*
G36*
X595546Y399500D02*
X593954D01*
X592484Y398891D01*
X591359Y397766D01*
X590750Y396296D01*
Y394704D01*
X591359Y393234D01*
X592484Y392109D01*
X593954Y391500D01*
X595546D01*
X597016Y392109D01*
X598141Y393234D01*
X598750Y394704D01*
Y396296D01*
X598141Y397766D01*
X597016Y398891D01*
X595546Y399500D01*
D02*
G37*
G36*
X130296D02*
X128704D01*
X127234Y398891D01*
X126109Y397766D01*
X125500Y396296D01*
Y394704D01*
X126109Y393234D01*
X127234Y392109D01*
X128704Y391500D01*
X130296D01*
X131766Y392109D01*
X132891Y393234D01*
X133500Y394704D01*
Y396296D01*
X132891Y397766D01*
X131766Y398891D01*
X130296Y399500D01*
D02*
G37*
G36*
X363546Y399500D02*
X361954D01*
X360484Y398891D01*
X359359Y397766D01*
X358750Y396296D01*
Y394704D01*
X359359Y393234D01*
X360484Y392109D01*
X361954Y391500D01*
X363546D01*
X365016Y392109D01*
X366141Y393234D01*
X366750Y394704D01*
Y396296D01*
X366141Y397766D01*
X365016Y398891D01*
X363546Y399500D01*
D02*
G37*
G36*
X658546Y407500D02*
X656954D01*
X655484Y406891D01*
X654359Y405766D01*
X653750Y404296D01*
Y402705D01*
X654359Y401234D01*
X655484Y400109D01*
X656537Y399673D01*
Y398327D01*
X655484Y397891D01*
X654359Y396766D01*
X653750Y395296D01*
Y393704D01*
X654359Y392234D01*
X655484Y391109D01*
X656954Y390500D01*
X658546D01*
X660016Y391109D01*
X661141Y392234D01*
X661750Y393704D01*
Y395296D01*
X661141Y396766D01*
X660016Y397891D01*
X658964Y398327D01*
Y399673D01*
X660016Y400109D01*
X661141Y401234D01*
X661750Y402705D01*
Y404296D01*
X661141Y405766D01*
X660016Y406891D01*
X658546Y407500D01*
D02*
G37*
G36*
X193296D02*
X191704D01*
X190234Y406891D01*
X189109Y405766D01*
X188500Y404296D01*
Y402705D01*
X189109Y401234D01*
X190234Y400109D01*
X191287Y399673D01*
Y398327D01*
X190234Y397891D01*
X189109Y396766D01*
X188500Y395296D01*
Y393704D01*
X189109Y392234D01*
X190234Y391109D01*
X191704Y390500D01*
X193296D01*
X194766Y391109D01*
X195891Y392234D01*
X196500Y393704D01*
Y395296D01*
X195891Y396766D01*
X194766Y397891D01*
X193714Y398327D01*
Y399673D01*
X194766Y400109D01*
X195891Y401234D01*
X196500Y402705D01*
Y404296D01*
X195891Y405766D01*
X194766Y406891D01*
X193296Y407500D01*
D02*
G37*
G36*
X503545Y407500D02*
X501954D01*
X500484Y406891D01*
X499359Y405766D01*
X498750Y404296D01*
Y402705D01*
X499359Y401234D01*
X500484Y400109D01*
X501536Y399673D01*
Y398327D01*
X500484Y397891D01*
X499359Y396766D01*
X498750Y395296D01*
Y393704D01*
X499359Y392234D01*
X500484Y391109D01*
X501954Y390500D01*
X503545D01*
X505016Y391109D01*
X506141Y392234D01*
X506750Y393704D01*
Y395296D01*
X506141Y396766D01*
X505016Y397891D01*
X503963Y398327D01*
Y399673D01*
X505016Y400109D01*
X506141Y401234D01*
X506750Y402705D01*
Y404296D01*
X506141Y405766D01*
X505016Y406891D01*
X503545Y407500D01*
D02*
G37*
G36*
X487546Y398500D02*
X485954D01*
X484484Y397891D01*
X483359Y396766D01*
X482750Y395296D01*
Y393704D01*
X483359Y392234D01*
X484484Y391109D01*
X485954Y390500D01*
X487546D01*
X489016Y391109D01*
X490141Y392234D01*
X490750Y393704D01*
Y395296D01*
X490141Y396766D01*
X489016Y397891D01*
X487546Y398500D01*
D02*
G37*
G36*
X38296Y407500D02*
X36704D01*
X35234Y406891D01*
X34109Y405766D01*
X33500Y404296D01*
Y402705D01*
X34109Y401234D01*
X35234Y400109D01*
X36286Y399673D01*
Y398327D01*
X35234Y397891D01*
X34109Y396766D01*
X33500Y395296D01*
Y393704D01*
X34109Y392234D01*
X35234Y391109D01*
X36704Y390500D01*
X38296D01*
X39766Y391109D01*
X40891Y392234D01*
X41500Y393704D01*
Y395296D01*
X40891Y396766D01*
X39766Y397891D01*
X38713Y398327D01*
Y399673D01*
X39766Y400109D01*
X40891Y401234D01*
X41500Y402705D01*
Y404296D01*
X40891Y405766D01*
X39766Y406891D01*
X38296Y407500D01*
D02*
G37*
G36*
X22295Y398500D02*
X20704D01*
X19234Y397891D01*
X18109Y396766D01*
X17500Y395296D01*
Y393704D01*
X18109Y392234D01*
X19234Y391109D01*
X20704Y390500D01*
X22295D01*
X23766Y391109D01*
X24891Y392234D01*
X25500Y393704D01*
Y395296D01*
X24891Y396766D01*
X23766Y397891D01*
X22295Y398500D01*
D02*
G37*
G36*
X426546Y407500D02*
X424955D01*
X423484Y406891D01*
X422359Y405766D01*
X421750Y404296D01*
Y402704D01*
X422359Y401234D01*
X423484Y400109D01*
X424537Y399673D01*
Y398327D01*
X423484Y397891D01*
X422359Y396766D01*
X421750Y395295D01*
Y393704D01*
X422359Y392234D01*
X423484Y391109D01*
X424955Y390500D01*
X426546D01*
X428016Y391109D01*
X429141Y392234D01*
X429750Y393704D01*
Y395295D01*
X429141Y396766D01*
X428016Y397891D01*
X426964Y398327D01*
Y399673D01*
X428016Y400109D01*
X429141Y401234D01*
X429750Y402704D01*
Y404296D01*
X429141Y405766D01*
X428016Y406891D01*
X426546Y407500D01*
D02*
G37*
G36*
X271546Y407500D02*
X269954D01*
X268484Y406891D01*
X267359Y405766D01*
X266750Y404296D01*
Y402704D01*
X267359Y401234D01*
X268484Y400109D01*
X269536Y399673D01*
Y398327D01*
X268484Y397891D01*
X267359Y396766D01*
X266750Y395295D01*
Y393704D01*
X267359Y392234D01*
X268484Y391109D01*
X269954Y390500D01*
X271546D01*
X273016Y391109D01*
X274141Y392234D01*
X274750Y393704D01*
Y395295D01*
X274141Y396766D01*
X273016Y397891D01*
X271964Y398327D01*
Y399673D01*
X273016Y400109D01*
X274141Y401234D01*
X274750Y402704D01*
Y404296D01*
X274141Y405766D01*
X273016Y406891D01*
X271546Y407500D01*
D02*
G37*
G36*
X255546Y398500D02*
X253954D01*
X252484Y397891D01*
X251359Y396766D01*
X250750Y395295D01*
Y393704D01*
X251359Y392234D01*
X252484Y391109D01*
X253954Y390500D01*
X255546D01*
X257016Y391109D01*
X258141Y392234D01*
X258750Y393704D01*
Y395295D01*
X258141Y396766D01*
X257016Y397891D01*
X255546Y398500D01*
D02*
G37*
G36*
X549796Y397500D02*
X548204D01*
X546734Y396891D01*
X545609Y395766D01*
X545000Y394296D01*
Y392704D01*
X545609Y391234D01*
X546734Y390109D01*
X548204Y389500D01*
X549796D01*
X551266Y390109D01*
X552391Y391234D01*
X553000Y392704D01*
Y394296D01*
X552391Y395766D01*
X551266Y396891D01*
X549796Y397500D01*
D02*
G37*
G36*
X84546D02*
X82954D01*
X81484Y396891D01*
X80359Y395766D01*
X79750Y394296D01*
Y392704D01*
X80359Y391234D01*
X81484Y390109D01*
X82954Y389500D01*
X84546D01*
X86016Y390109D01*
X87141Y391234D01*
X87750Y392704D01*
Y394296D01*
X87141Y395766D01*
X86016Y396891D01*
X84546Y397500D01*
D02*
G37*
G36*
X317796Y397500D02*
X316204D01*
X314734Y396891D01*
X313609Y395766D01*
X313000Y394296D01*
Y392704D01*
X313609Y391234D01*
X314734Y390109D01*
X316204Y389500D01*
X317796D01*
X319266Y390109D01*
X320391Y391234D01*
X321000Y392704D01*
Y394296D01*
X320391Y395766D01*
X319266Y396891D01*
X317796Y397500D01*
D02*
G37*
G36*
X970796Y390000D02*
X969204D01*
X967734Y389391D01*
X966609Y388266D01*
X966000Y386796D01*
Y385204D01*
X966609Y383734D01*
X967734Y382609D01*
X969204Y382000D01*
X970796D01*
X972266Y382609D01*
X973391Y383734D01*
X974000Y385204D01*
Y386796D01*
X973391Y388266D01*
X972266Y389391D01*
X970796Y390000D01*
D02*
G37*
G36*
X930796D02*
X929204D01*
X927734Y389391D01*
X926609Y388266D01*
X926000Y386796D01*
Y385204D01*
X926609Y383734D01*
X927734Y382609D01*
X929204Y382000D01*
X930796D01*
X932266Y382609D01*
X933391Y383734D01*
X934000Y385204D01*
Y386796D01*
X933391Y388266D01*
X932266Y389391D01*
X930796Y390000D01*
D02*
G37*
G36*
X890796D02*
X889204D01*
X887734Y389391D01*
X886609Y388266D01*
X886000Y386796D01*
Y385204D01*
X886609Y383734D01*
X887734Y382609D01*
X889204Y382000D01*
X890796D01*
X892266Y382609D01*
X893391Y383734D01*
X894000Y385204D01*
Y386796D01*
X893391Y388266D01*
X892266Y389391D01*
X890796Y390000D01*
D02*
G37*
G36*
X850796D02*
X849204D01*
X847734Y389391D01*
X846609Y388266D01*
X846000Y386796D01*
Y385204D01*
X846609Y383734D01*
X847734Y382609D01*
X849204Y382000D01*
X850796D01*
X852266Y382609D01*
X853391Y383734D01*
X854000Y385204D01*
Y386796D01*
X853391Y388266D01*
X852266Y389391D01*
X850796Y390000D01*
D02*
G37*
G36*
X810796D02*
X809204D01*
X807734Y389391D01*
X806609Y388266D01*
X806000Y386796D01*
Y385204D01*
X806609Y383734D01*
X807734Y382609D01*
X809204Y382000D01*
X810796D01*
X812266Y382609D01*
X813391Y383734D01*
X814000Y385204D01*
Y386796D01*
X813391Y388266D01*
X812266Y389391D01*
X810796Y390000D01*
D02*
G37*
G36*
X730796D02*
X729204D01*
X727734Y389391D01*
X726609Y388266D01*
X726000Y386796D01*
Y385204D01*
X726609Y383734D01*
X727734Y382609D01*
X729204Y382000D01*
X730796D01*
X732266Y382609D01*
X733391Y383734D01*
X734000Y385204D01*
Y386796D01*
X733391Y388266D01*
X732266Y389391D01*
X730796Y390000D01*
D02*
G37*
G36*
X370796D02*
X369204D01*
X367734Y389391D01*
X366609Y388266D01*
X366000Y386796D01*
Y385204D01*
X366609Y383734D01*
X367734Y382609D01*
X369204Y382000D01*
X370796D01*
X372266Y382609D01*
X373391Y383734D01*
X374000Y385204D01*
Y386796D01*
X373391Y388266D01*
X372266Y389391D01*
X370796Y390000D01*
D02*
G37*
G36*
X290796D02*
X289204D01*
X287734Y389391D01*
X286609Y388266D01*
X286000Y386796D01*
Y385204D01*
X286609Y383734D01*
X287734Y382609D01*
X289204Y382000D01*
X290796D01*
X292266Y382609D01*
X293391Y383734D01*
X294000Y385204D01*
Y386796D01*
X293391Y388266D01*
X292266Y389391D01*
X290796Y390000D01*
D02*
G37*
G36*
X130796D02*
X129204D01*
X127734Y389391D01*
X126609Y388266D01*
X126000Y386796D01*
Y385204D01*
X126609Y383734D01*
X127734Y382609D01*
X129204Y382000D01*
X130796D01*
X132266Y382609D01*
X133391Y383734D01*
X134000Y385204D01*
Y386796D01*
X133391Y388266D01*
X132266Y389391D01*
X130796Y390000D01*
D02*
G37*
G36*
X625296Y377500D02*
X623704D01*
X622234Y376891D01*
X621109Y375766D01*
X620500Y374296D01*
Y372704D01*
X621109Y371234D01*
X622234Y370109D01*
X623704Y369500D01*
X625296D01*
X626766Y370109D01*
X627891Y371234D01*
X628500Y372704D01*
Y374296D01*
X627891Y375766D01*
X626766Y376891D01*
X625296Y377500D01*
D02*
G37*
G36*
X160046D02*
X158454D01*
X156984Y376891D01*
X155859Y375766D01*
X155250Y374296D01*
Y372704D01*
X155859Y371234D01*
X156984Y370109D01*
X158454Y369500D01*
X160046D01*
X161516Y370109D01*
X162641Y371234D01*
X163250Y372704D01*
Y374296D01*
X162641Y375766D01*
X161516Y376891D01*
X160046Y377500D01*
D02*
G37*
G36*
X393296Y377500D02*
X391704D01*
X390234Y376891D01*
X389109Y375766D01*
X388500Y374296D01*
Y372704D01*
X389109Y371234D01*
X390234Y370109D01*
X391704Y369500D01*
X393296D01*
X394766Y370109D01*
X395891Y371234D01*
X396500Y372704D01*
Y374296D01*
X395891Y375766D01*
X394766Y376891D01*
X393296Y377500D01*
D02*
G37*
G36*
X674546Y369750D02*
X672954D01*
X671484Y369141D01*
X670359Y368016D01*
X669750Y366546D01*
Y364955D01*
X670359Y363484D01*
X671484Y362359D01*
X672954Y361750D01*
X674546D01*
X676016Y362359D01*
X677141Y363484D01*
X677750Y364955D01*
Y366546D01*
X677141Y368016D01*
X676016Y369141D01*
X674546Y369750D01*
D02*
G37*
G36*
X209296D02*
X207704D01*
X206234Y369141D01*
X205109Y368016D01*
X204500Y366546D01*
Y364955D01*
X205109Y363484D01*
X206234Y362359D01*
X207704Y361750D01*
X209296D01*
X210766Y362359D01*
X211891Y363484D01*
X212500Y364955D01*
Y366546D01*
X211891Y368016D01*
X210766Y369141D01*
X209296Y369750D01*
D02*
G37*
G36*
X442546Y369750D02*
X440955D01*
X439484Y369141D01*
X438359Y368016D01*
X437750Y366546D01*
Y364954D01*
X438359Y363484D01*
X439484Y362359D01*
X440955Y361750D01*
X442546D01*
X444016Y362359D01*
X445141Y363484D01*
X445750Y364954D01*
Y366546D01*
X445141Y368016D01*
X444016Y369141D01*
X442546Y369750D01*
D02*
G37*
G36*
X565046Y364500D02*
X563454D01*
X561984Y363891D01*
X560859Y362766D01*
X560250Y361296D01*
Y359704D01*
X560859Y358234D01*
X561984Y357109D01*
X563454Y356500D01*
X565046D01*
X566516Y357109D01*
X567641Y358234D01*
X568250Y359704D01*
Y361296D01*
X567641Y362766D01*
X566516Y363891D01*
X565046Y364500D01*
D02*
G37*
G36*
X99796D02*
X98204D01*
X96734Y363891D01*
X95609Y362766D01*
X95000Y361296D01*
Y359704D01*
X95609Y358234D01*
X96734Y357109D01*
X98204Y356500D01*
X99796D01*
X101266Y357109D01*
X102391Y358234D01*
X103000Y359704D01*
Y361296D01*
X102391Y362766D01*
X101266Y363891D01*
X99796Y364500D01*
D02*
G37*
G36*
X528296Y364500D02*
X526704D01*
X525234Y363891D01*
X524109Y362766D01*
X523500Y361296D01*
Y359704D01*
X524109Y358234D01*
X525234Y357109D01*
X526704Y356500D01*
X528296D01*
X529766Y357109D01*
X530891Y358234D01*
X531500Y359704D01*
Y361296D01*
X530891Y362766D01*
X529766Y363891D01*
X528296Y364500D01*
D02*
G37*
G36*
X63046D02*
X61454D01*
X59984Y363891D01*
X58859Y362766D01*
X58250Y361296D01*
Y359704D01*
X58859Y358234D01*
X59984Y357109D01*
X61454Y356500D01*
X63046D01*
X64516Y357109D01*
X65641Y358234D01*
X66250Y359704D01*
Y361296D01*
X65641Y362766D01*
X64516Y363891D01*
X63046Y364500D01*
D02*
G37*
G36*
X333046Y364500D02*
X331455D01*
X329984Y363891D01*
X328859Y362766D01*
X328250Y361296D01*
Y359704D01*
X328859Y358234D01*
X329984Y357109D01*
X331455Y356500D01*
X333046D01*
X334516Y357109D01*
X335641Y358234D01*
X336250Y359704D01*
Y361296D01*
X335641Y362766D01*
X334516Y363891D01*
X333046Y364500D01*
D02*
G37*
G36*
X296296Y364500D02*
X294704D01*
X293234Y363891D01*
X292109Y362766D01*
X291500Y361295D01*
Y359704D01*
X292109Y358234D01*
X293234Y357109D01*
X294704Y356500D01*
X296296D01*
X297766Y357109D01*
X298891Y358234D01*
X299500Y359704D01*
Y361295D01*
X298891Y362766D01*
X297766Y363891D01*
X296296Y364500D01*
D02*
G37*
G36*
X658546Y369750D02*
X656954D01*
X655484Y369141D01*
X654359Y368016D01*
X653750Y366546D01*
Y364955D01*
X654359Y363484D01*
X655484Y362359D01*
X656535Y361924D01*
Y360577D01*
X655484Y360141D01*
X654359Y359016D01*
X653750Y357546D01*
Y355955D01*
X654359Y354485D01*
X655484Y353359D01*
X656954Y352751D01*
X658546D01*
X660016Y353359D01*
X661141Y354485D01*
X661750Y355955D01*
Y357546D01*
X661141Y359016D01*
X660016Y360141D01*
X658965Y360577D01*
Y361924D01*
X660016Y362359D01*
X661141Y363484D01*
X661750Y364955D01*
Y366546D01*
X661141Y368016D01*
X660016Y369141D01*
X658546Y369750D01*
D02*
G37*
G36*
X193296D02*
X191704D01*
X190234Y369141D01*
X189109Y368016D01*
X188500Y366546D01*
Y364955D01*
X189109Y363484D01*
X190234Y362359D01*
X191285Y361924D01*
Y360577D01*
X190234Y360141D01*
X189109Y359016D01*
X188500Y357546D01*
Y355955D01*
X189109Y354485D01*
X190234Y353359D01*
X191704Y352751D01*
X193296D01*
X194766Y353359D01*
X195891Y354485D01*
X196500Y355955D01*
Y357546D01*
X195891Y359016D01*
X194766Y360141D01*
X193715Y360577D01*
Y361924D01*
X194766Y362359D01*
X195891Y363484D01*
X196500Y364955D01*
Y366546D01*
X195891Y368016D01*
X194766Y369141D01*
X193296Y369750D01*
D02*
G37*
G36*
X426546Y369750D02*
X424954D01*
X423484Y369141D01*
X422359Y368016D01*
X421750Y366546D01*
Y364954D01*
X422359Y363484D01*
X423484Y362359D01*
X424535Y361924D01*
Y360577D01*
X423484Y360141D01*
X422359Y359016D01*
X421750Y357546D01*
Y355955D01*
X422359Y354485D01*
X423484Y353359D01*
X424954Y352750D01*
X426546D01*
X428016Y353359D01*
X429141Y354485D01*
X429750Y355955D01*
Y357546D01*
X429141Y359016D01*
X428016Y360141D01*
X426965Y360577D01*
Y361924D01*
X428016Y362359D01*
X429141Y363484D01*
X429750Y364954D01*
Y366546D01*
X429141Y368016D01*
X428016Y369141D01*
X426546Y369750D01*
D02*
G37*
G36*
X503546Y369750D02*
X501955D01*
X500485Y369141D01*
X499359Y368016D01*
X498750Y366546D01*
Y364954D01*
X499359Y363484D01*
X500485Y362359D01*
X501537Y361923D01*
Y360577D01*
X500485Y360141D01*
X499359Y359016D01*
X498750Y357546D01*
Y355954D01*
X499359Y354484D01*
X500485Y353359D01*
X501955Y352750D01*
X503546D01*
X505016Y353359D01*
X506141Y354484D01*
X506750Y355954D01*
Y357546D01*
X506141Y359016D01*
X505016Y360141D01*
X503964Y360577D01*
Y361923D01*
X505016Y362359D01*
X506141Y363484D01*
X506750Y364954D01*
Y366546D01*
X506141Y368016D01*
X505016Y369141D01*
X503546Y369750D01*
D02*
G37*
G36*
X487546Y360750D02*
X485954D01*
X484484Y360141D01*
X483359Y359016D01*
X482750Y357546D01*
Y355954D01*
X483359Y354484D01*
X484484Y353359D01*
X485954Y352750D01*
X487546D01*
X489016Y353359D01*
X490141Y354484D01*
X490750Y355954D01*
Y357546D01*
X490141Y359016D01*
X489016Y360141D01*
X487546Y360750D01*
D02*
G37*
G36*
X38296Y369750D02*
X36705D01*
X35234Y369141D01*
X34109Y368016D01*
X33500Y366546D01*
Y364954D01*
X34109Y363484D01*
X35234Y362359D01*
X36287Y361923D01*
Y360577D01*
X35234Y360141D01*
X34109Y359016D01*
X33500Y357546D01*
Y355954D01*
X34109Y354484D01*
X35234Y353359D01*
X36705Y352750D01*
X38296D01*
X39766Y353359D01*
X40891Y354484D01*
X41500Y355954D01*
Y357546D01*
X40891Y359016D01*
X39766Y360141D01*
X38714Y360577D01*
Y361923D01*
X39766Y362359D01*
X40891Y363484D01*
X41500Y364954D01*
Y366546D01*
X40891Y368016D01*
X39766Y369141D01*
X38296Y369750D01*
D02*
G37*
G36*
X22295Y360750D02*
X20704D01*
X19234Y360141D01*
X18109Y359016D01*
X17500Y357546D01*
Y355954D01*
X18109Y354484D01*
X19234Y353359D01*
X20704Y352750D01*
X22295D01*
X23766Y353359D01*
X24891Y354484D01*
X25500Y355954D01*
Y357546D01*
X24891Y359016D01*
X23766Y360141D01*
X22295Y360750D01*
D02*
G37*
G36*
X271546Y369750D02*
X269955D01*
X268485Y369141D01*
X267360Y368016D01*
X266751Y366546D01*
Y364954D01*
X267360Y363484D01*
X268485Y362359D01*
X269537Y361923D01*
Y360577D01*
X268485Y360141D01*
X267360Y359016D01*
X266751Y357546D01*
Y355954D01*
X267360Y354484D01*
X268485Y353359D01*
X269955Y352750D01*
X271546D01*
X273016Y353359D01*
X274142Y354484D01*
X274750Y355954D01*
Y357546D01*
X274142Y359016D01*
X273016Y360141D01*
X271964Y360577D01*
Y361923D01*
X273016Y362359D01*
X274142Y363484D01*
X274750Y364954D01*
Y366546D01*
X274142Y368016D01*
X273016Y369141D01*
X271546Y369750D01*
D02*
G37*
G36*
X255546Y360750D02*
X253954D01*
X252484Y360141D01*
X251359Y359016D01*
X250750Y357546D01*
Y355954D01*
X251359Y354484D01*
X252484Y353359D01*
X253954Y352750D01*
X255546D01*
X257016Y353359D01*
X258141Y354484D01*
X258750Y355954D01*
Y357546D01*
X258141Y359016D01*
X257016Y360141D01*
X255546Y360750D01*
D02*
G37*
G36*
X950796Y350000D02*
X949204D01*
X947734Y349391D01*
X946609Y348266D01*
X946000Y346796D01*
Y345204D01*
X946609Y343734D01*
X947734Y342609D01*
X949204Y342000D01*
X950796D01*
X952266Y342609D01*
X953391Y343734D01*
X954000Y345204D01*
Y346796D01*
X953391Y348266D01*
X952266Y349391D01*
X950796Y350000D01*
D02*
G37*
G36*
X910796D02*
X909204D01*
X907734Y349391D01*
X906609Y348266D01*
X906000Y346796D01*
Y345204D01*
X906609Y343734D01*
X907734Y342609D01*
X909204Y342000D01*
X910796D01*
X912266Y342609D01*
X913391Y343734D01*
X914000Y345204D01*
Y346796D01*
X913391Y348266D01*
X912266Y349391D01*
X910796Y350000D01*
D02*
G37*
G36*
X870796D02*
X869204D01*
X867734Y349391D01*
X866609Y348266D01*
X866000Y346796D01*
Y345204D01*
X866609Y343734D01*
X867734Y342609D01*
X869204Y342000D01*
X870796D01*
X872266Y342609D01*
X873391Y343734D01*
X874000Y345204D01*
Y346796D01*
X873391Y348266D01*
X872266Y349391D01*
X870796Y350000D01*
D02*
G37*
G36*
X830796D02*
X829204D01*
X827734Y349391D01*
X826609Y348266D01*
X826000Y346796D01*
Y345204D01*
X826609Y343734D01*
X827734Y342609D01*
X829204Y342000D01*
X830796D01*
X832266Y342609D01*
X833391Y343734D01*
X834000Y345204D01*
Y346796D01*
X833391Y348266D01*
X832266Y349391D01*
X830796Y350000D01*
D02*
G37*
G36*
X790796D02*
X789204D01*
X787734Y349391D01*
X786609Y348266D01*
X786000Y346796D01*
Y345204D01*
X786609Y343734D01*
X787734Y342609D01*
X789204Y342000D01*
X790796D01*
X792266Y342609D01*
X793391Y343734D01*
X794000Y345204D01*
Y346796D01*
X793391Y348266D01*
X792266Y349391D01*
X790796Y350000D01*
D02*
G37*
G36*
X750796D02*
X749204D01*
X747734Y349391D01*
X746609Y348266D01*
X746000Y346796D01*
Y345204D01*
X746609Y343734D01*
X747734Y342609D01*
X749204Y342000D01*
X750796D01*
X752266Y342609D01*
X753391Y343734D01*
X754000Y345204D01*
Y346796D01*
X753391Y348266D01*
X752266Y349391D01*
X750796Y350000D01*
D02*
G37*
G36*
X710796D02*
X709204D01*
X707734Y349391D01*
X706609Y348266D01*
X706000Y346796D01*
Y345204D01*
X706609Y343734D01*
X707734Y342609D01*
X709204Y342000D01*
X710796D01*
X712266Y342609D01*
X713391Y343734D01*
X714000Y345204D01*
Y346796D01*
X713391Y348266D01*
X712266Y349391D01*
X710796Y350000D01*
D02*
G37*
G36*
X470796D02*
X469204D01*
X467734Y349391D01*
X466609Y348266D01*
X466000Y346796D01*
Y345204D01*
X466609Y343734D01*
X467734Y342609D01*
X469204Y342000D01*
X470796D01*
X472266Y342609D01*
X473391Y343734D01*
X474000Y345204D01*
Y346796D01*
X473391Y348266D01*
X472266Y349391D01*
X470796Y350000D01*
D02*
G37*
G36*
X230796D02*
X229204D01*
X227734Y349391D01*
X226609Y348266D01*
X226000Y346796D01*
Y345204D01*
X226609Y343734D01*
X227734Y342609D01*
X229204Y342000D01*
X230796D01*
X232266Y342609D01*
X233391Y343734D01*
X234000Y345204D01*
Y346796D01*
X233391Y348266D01*
X232266Y349391D01*
X230796Y350000D01*
D02*
G37*
G36*
X519796Y322100D02*
X518205D01*
X516735Y321491D01*
X515610Y320366D01*
X515000Y318896D01*
Y317304D01*
X515610Y315834D01*
X516735Y314709D01*
X518205Y314100D01*
X519796D01*
X521266Y314709D01*
X522392Y315834D01*
X523000Y317304D01*
Y318896D01*
X522392Y320366D01*
X521266Y321491D01*
X519796Y322100D01*
D02*
G37*
G36*
X54546D02*
X52954D01*
X51484Y321491D01*
X50359Y320366D01*
X49750Y318896D01*
Y317304D01*
X50359Y315834D01*
X51484Y314709D01*
X52954Y314100D01*
X54546D01*
X56016Y314709D01*
X57141Y315834D01*
X57750Y317304D01*
Y318896D01*
X57141Y320366D01*
X56016Y321491D01*
X54546Y322100D01*
D02*
G37*
G36*
X289296Y322100D02*
X287705D01*
X286234Y321491D01*
X285109Y320366D01*
X284500Y318896D01*
Y317304D01*
X285109Y315834D01*
X286234Y314709D01*
X287705Y314100D01*
X289296D01*
X290766Y314709D01*
X291891Y315834D01*
X292500Y317304D01*
Y318896D01*
X291891Y320366D01*
X290766Y321491D01*
X289296Y322100D01*
D02*
G37*
G36*
X642796Y322000D02*
X641204D01*
X639734Y321391D01*
X638609Y320266D01*
X638000Y318796D01*
Y317204D01*
X638609Y315734D01*
X639734Y314609D01*
X641204Y314000D01*
X642796D01*
X644266Y314609D01*
X645391Y315734D01*
X646000Y317204D01*
Y318796D01*
X645391Y320266D01*
X644266Y321391D01*
X642796Y322000D01*
D02*
G37*
G36*
X177546D02*
X175954D01*
X174484Y321391D01*
X173359Y320266D01*
X172750Y318796D01*
Y317204D01*
X173359Y315734D01*
X174484Y314609D01*
X175954Y314000D01*
X177546D01*
X179016Y314609D01*
X180141Y315734D01*
X180750Y317204D01*
Y318796D01*
X180141Y320266D01*
X179016Y321391D01*
X177546Y322000D01*
D02*
G37*
G36*
X410796Y322000D02*
X409204D01*
X407734Y321391D01*
X406609Y320266D01*
X406000Y318796D01*
Y317204D01*
X406609Y315734D01*
X407734Y314609D01*
X409204Y314000D01*
X410796D01*
X412266Y314609D01*
X413391Y315734D01*
X414000Y317204D01*
Y318796D01*
X413391Y320266D01*
X412266Y321391D01*
X410796Y322000D01*
D02*
G37*
G36*
X970796Y310000D02*
X969204D01*
X967734Y309391D01*
X966609Y308266D01*
X966000Y306796D01*
Y305204D01*
X966609Y303734D01*
X967734Y302609D01*
X969204Y302000D01*
X970796D01*
X972266Y302609D01*
X973391Y303734D01*
X974000Y305204D01*
Y306796D01*
X973391Y308266D01*
X972266Y309391D01*
X970796Y310000D01*
D02*
G37*
G36*
X930796D02*
X929204D01*
X927734Y309391D01*
X926609Y308266D01*
X926000Y306796D01*
Y305204D01*
X926609Y303734D01*
X927734Y302609D01*
X929204Y302000D01*
X930796D01*
X932266Y302609D01*
X933391Y303734D01*
X934000Y305204D01*
Y306796D01*
X933391Y308266D01*
X932266Y309391D01*
X930796Y310000D01*
D02*
G37*
G36*
X890796D02*
X889204D01*
X887734Y309391D01*
X886609Y308266D01*
X886000Y306796D01*
Y305204D01*
X886609Y303734D01*
X887734Y302609D01*
X889204Y302000D01*
X890796D01*
X892266Y302609D01*
X893391Y303734D01*
X894000Y305204D01*
Y306796D01*
X893391Y308266D01*
X892266Y309391D01*
X890796Y310000D01*
D02*
G37*
G36*
X850796D02*
X849204D01*
X847734Y309391D01*
X846609Y308266D01*
X846000Y306796D01*
Y305204D01*
X846609Y303734D01*
X847734Y302609D01*
X849204Y302000D01*
X850796D01*
X852266Y302609D01*
X853391Y303734D01*
X854000Y305204D01*
Y306796D01*
X853391Y308266D01*
X852266Y309391D01*
X850796Y310000D01*
D02*
G37*
G36*
X810796D02*
X809204D01*
X807734Y309391D01*
X806609Y308266D01*
X806000Y306796D01*
Y305204D01*
X806609Y303734D01*
X807734Y302609D01*
X809204Y302000D01*
X810796D01*
X812266Y302609D01*
X813391Y303734D01*
X814000Y305204D01*
Y306796D01*
X813391Y308266D01*
X812266Y309391D01*
X810796Y310000D01*
D02*
G37*
G36*
X730796D02*
X729204D01*
X727734Y309391D01*
X726609Y308266D01*
X726000Y306796D01*
Y305204D01*
X726609Y303734D01*
X727734Y302609D01*
X729204Y302000D01*
X730796D01*
X732266Y302609D01*
X733391Y303734D01*
X734000Y305204D01*
Y306796D01*
X733391Y308266D01*
X732266Y309391D01*
X730796Y310000D01*
D02*
G37*
G36*
X690796D02*
X689204D01*
X687734Y309391D01*
X686609Y308266D01*
X686000Y306796D01*
Y305204D01*
X686609Y303734D01*
X687734Y302609D01*
X689204Y302000D01*
X690796D01*
X692266Y302609D01*
X693391Y303734D01*
X694000Y305204D01*
Y306796D01*
X693391Y308266D01*
X692266Y309391D01*
X690796Y310000D01*
D02*
G37*
G36*
X450796D02*
X449204D01*
X447734Y309391D01*
X446609Y308266D01*
X446000Y306796D01*
Y305204D01*
X446609Y303734D01*
X447734Y302609D01*
X449204Y302000D01*
X450796D01*
X452266Y302609D01*
X453391Y303734D01*
X454000Y305204D01*
Y306796D01*
X453391Y308266D01*
X452266Y309391D01*
X450796Y310000D01*
D02*
G37*
G36*
X634796Y283250D02*
X633204D01*
X631734Y282641D01*
X630609Y281516D01*
X630000Y280046D01*
Y278454D01*
X630609Y276984D01*
X631734Y275859D01*
X633204Y275250D01*
X634796D01*
X636266Y275859D01*
X637391Y276984D01*
X638000Y278454D01*
Y280046D01*
X637391Y281516D01*
X636266Y282641D01*
X634796Y283250D01*
D02*
G37*
G36*
X169546D02*
X167954D01*
X166484Y282641D01*
X165359Y281516D01*
X164750Y280046D01*
Y278454D01*
X165359Y276984D01*
X166484Y275859D01*
X167954Y275250D01*
X169546D01*
X171016Y275859D01*
X172141Y276984D01*
X172750Y278454D01*
Y280046D01*
X172141Y281516D01*
X171016Y282641D01*
X169546Y283250D01*
D02*
G37*
G36*
X402796Y283250D02*
X401204D01*
X399734Y282641D01*
X398609Y281516D01*
X398000Y280046D01*
Y278454D01*
X398609Y276984D01*
X399734Y275859D01*
X401204Y275250D01*
X402796D01*
X404266Y275859D01*
X405391Y276984D01*
X406000Y278454D01*
Y280046D01*
X405391Y281516D01*
X404266Y282641D01*
X402796Y283250D01*
D02*
G37*
G36*
X528046Y282750D02*
X526454D01*
X524984Y282141D01*
X523859Y281016D01*
X523250Y279546D01*
Y277954D01*
X523859Y276484D01*
X524984Y275359D01*
X526454Y274750D01*
X528046D01*
X529516Y275359D01*
X530641Y276484D01*
X531250Y277954D01*
Y279546D01*
X530641Y281016D01*
X529516Y282141D01*
X528046Y282750D01*
D02*
G37*
G36*
X62796D02*
X61204D01*
X59734Y282141D01*
X58609Y281016D01*
X58000Y279546D01*
Y277954D01*
X58609Y276484D01*
X59734Y275359D01*
X61204Y274750D01*
X62796D01*
X64266Y275359D01*
X65391Y276484D01*
X66000Y277954D01*
Y279546D01*
X65391Y281016D01*
X64266Y282141D01*
X62796Y282750D01*
D02*
G37*
G36*
X296046Y282750D02*
X294454D01*
X292984Y282141D01*
X291859Y281016D01*
X291250Y279545D01*
Y277954D01*
X291859Y276484D01*
X292984Y275359D01*
X294454Y274750D01*
X296046D01*
X297516Y275359D01*
X298641Y276484D01*
X299250Y277954D01*
Y279545D01*
X298641Y281016D01*
X297516Y282141D01*
X296046Y282750D01*
D02*
G37*
G36*
X766126Y288556D02*
X763874D01*
X761698Y287973D01*
X759747Y286846D01*
X758154Y285253D01*
X757027Y283302D01*
X756444Y281126D01*
Y278873D01*
X757027Y276697D01*
X758154Y274746D01*
X759747Y273153D01*
X761698Y272027D01*
X763874Y271444D01*
X766126D01*
X768303Y272027D01*
X770254Y273153D01*
X771847Y274746D01*
X772973Y276697D01*
X773556Y278873D01*
Y281126D01*
X772973Y283302D01*
X771847Y285253D01*
X770254Y286846D01*
X768303Y287973D01*
X766126Y288556D01*
D02*
G37*
G36*
X490796Y276100D02*
X489204D01*
X487734Y275491D01*
X486609Y274366D01*
X486000Y272896D01*
Y271305D01*
X486609Y269834D01*
X487734Y268709D01*
X489204Y268100D01*
X490796D01*
X492266Y268709D01*
X493391Y269834D01*
X494000Y271305D01*
Y272896D01*
X493391Y274366D01*
X492266Y275491D01*
X490796Y276100D01*
D02*
G37*
G36*
X25545D02*
X23954D01*
X22484Y275491D01*
X21359Y274366D01*
X20750Y272896D01*
Y271305D01*
X21359Y269834D01*
X22484Y268709D01*
X23954Y268100D01*
X25545D01*
X27016Y268709D01*
X28141Y269834D01*
X28750Y271305D01*
Y272896D01*
X28141Y274366D01*
X27016Y275491D01*
X25545Y276100D01*
D02*
G37*
G36*
X258796Y276100D02*
X257204D01*
X255734Y275491D01*
X254609Y274366D01*
X254000Y272896D01*
Y271304D01*
X254609Y269834D01*
X255734Y268709D01*
X257204Y268100D01*
X258796D01*
X260266Y268709D01*
X261391Y269834D01*
X262000Y271304D01*
Y272896D01*
X261391Y274366D01*
X260266Y275491D01*
X258796Y276100D01*
D02*
G37*
G36*
X672296Y275100D02*
X670704D01*
X669234Y274491D01*
X668109Y273366D01*
X667500Y271896D01*
Y270304D01*
X668109Y268834D01*
X669234Y267709D01*
X670704Y267100D01*
X672296D01*
X673766Y267709D01*
X674891Y268834D01*
X675500Y270304D01*
Y271896D01*
X674891Y273366D01*
X673766Y274491D01*
X672296Y275100D01*
D02*
G37*
G36*
X207046D02*
X205454D01*
X203984Y274491D01*
X202859Y273366D01*
X202250Y271896D01*
Y270304D01*
X202859Y268834D01*
X203984Y267709D01*
X205454Y267100D01*
X207046D01*
X208516Y267709D01*
X209641Y268834D01*
X210250Y270304D01*
Y271896D01*
X209641Y273366D01*
X208516Y274491D01*
X207046Y275100D01*
D02*
G37*
G36*
X440296Y275100D02*
X438705D01*
X437234Y274491D01*
X436109Y273366D01*
X435500Y271896D01*
Y270304D01*
X436109Y268834D01*
X437234Y267709D01*
X438705Y267100D01*
X440296D01*
X441766Y267709D01*
X442891Y268834D01*
X443500Y270304D01*
Y271896D01*
X442891Y273366D01*
X441766Y274491D01*
X440296Y275100D01*
D02*
G37*
G36*
X950796Y270000D02*
X949204D01*
X947734Y269391D01*
X946609Y268266D01*
X946000Y266796D01*
Y265204D01*
X946609Y263734D01*
X947734Y262609D01*
X949204Y262000D01*
X950796D01*
X952266Y262609D01*
X953391Y263734D01*
X954000Y265204D01*
Y266796D01*
X953391Y268266D01*
X952266Y269391D01*
X950796Y270000D01*
D02*
G37*
G36*
X870796D02*
X869204D01*
X867734Y269391D01*
X866609Y268266D01*
X866000Y266796D01*
Y265204D01*
X866609Y263734D01*
X867734Y262609D01*
X869204Y262000D01*
X870796D01*
X872266Y262609D01*
X873391Y263734D01*
X874000Y265204D01*
Y266796D01*
X873391Y268266D01*
X872266Y269391D01*
X870796Y270000D01*
D02*
G37*
G36*
X830796D02*
X829204D01*
X827734Y269391D01*
X826609Y268266D01*
X826000Y266796D01*
Y265204D01*
X826609Y263734D01*
X827734Y262609D01*
X829204Y262000D01*
X830796D01*
X832266Y262609D01*
X833391Y263734D01*
X834000Y265204D01*
Y266796D01*
X833391Y268266D01*
X832266Y269391D01*
X830796Y270000D01*
D02*
G37*
G36*
X710796D02*
X709204D01*
X707734Y269391D01*
X706609Y268266D01*
X706000Y266796D01*
Y265204D01*
X706609Y263734D01*
X707734Y262609D01*
X709204Y262000D01*
X710796D01*
X712266Y262609D01*
X713391Y263734D01*
X714000Y265204D01*
Y266796D01*
X713391Y268266D01*
X712266Y269391D01*
X710796Y270000D01*
D02*
G37*
G36*
X590796D02*
X589204D01*
X587734Y269391D01*
X586609Y268266D01*
X586000Y266796D01*
Y265204D01*
X586609Y263734D01*
X587734Y262609D01*
X589204Y262000D01*
X590796D01*
X592266Y262609D01*
X593391Y263734D01*
X594000Y265204D01*
Y266796D01*
X593391Y268266D01*
X592266Y269391D01*
X590796Y270000D01*
D02*
G37*
G36*
X470796D02*
X469204D01*
X467734Y269391D01*
X466609Y268266D01*
X466000Y266796D01*
Y265204D01*
X466609Y263734D01*
X467734Y262609D01*
X469204Y262000D01*
X470796D01*
X472266Y262609D01*
X473391Y263734D01*
X474000Y265204D01*
Y266796D01*
X473391Y268266D01*
X472266Y269391D01*
X470796Y270000D01*
D02*
G37*
G36*
X350796D02*
X349204D01*
X347734Y269391D01*
X346609Y268266D01*
X346000Y266796D01*
Y265204D01*
X346609Y263734D01*
X347734Y262609D01*
X349204Y262000D01*
X350796D01*
X352266Y262609D01*
X353391Y263734D01*
X354000Y265204D01*
Y266796D01*
X353391Y268266D01*
X352266Y269391D01*
X350796Y270000D01*
D02*
G37*
G36*
X230796D02*
X229204D01*
X227734Y269391D01*
X226609Y268266D01*
X226000Y266796D01*
Y265204D01*
X226609Y263734D01*
X227734Y262609D01*
X229204Y262000D01*
X230796D01*
X232266Y262609D01*
X233391Y263734D01*
X234000Y265204D01*
Y266796D01*
X233391Y268266D01*
X232266Y269391D01*
X230796Y270000D01*
D02*
G37*
G36*
X519546Y259359D02*
X517954D01*
X516484Y258750D01*
X515359Y257624D01*
X514750Y256154D01*
Y254563D01*
X515359Y253093D01*
X516484Y251968D01*
X517954Y251359D01*
X519546D01*
X521016Y251968D01*
X522141Y253093D01*
X522750Y254563D01*
Y256154D01*
X522141Y257624D01*
X521016Y258750D01*
X519546Y259359D01*
D02*
G37*
G36*
X54296D02*
X52704D01*
X51234Y258750D01*
X50109Y257624D01*
X49500Y256154D01*
Y254563D01*
X50109Y253093D01*
X51234Y251968D01*
X52704Y251359D01*
X54296D01*
X55766Y251968D01*
X56891Y253093D01*
X57500Y254563D01*
Y256154D01*
X56891Y257624D01*
X55766Y258750D01*
X54296Y259359D01*
D02*
G37*
G36*
X287546Y259358D02*
X285955D01*
X284484Y258749D01*
X283359Y257624D01*
X282750Y256154D01*
Y254563D01*
X283359Y253093D01*
X284484Y251967D01*
X285955Y251358D01*
X287546D01*
X289016Y251967D01*
X290141Y253093D01*
X290750Y254563D01*
Y256154D01*
X290141Y257624D01*
X289016Y258749D01*
X287546Y259358D01*
D02*
G37*
G36*
X536796Y259350D02*
X535205D01*
X533734Y258741D01*
X532609Y257616D01*
X532000Y256145D01*
Y254554D01*
X532609Y253084D01*
X533734Y251959D01*
X535205Y251350D01*
X536796D01*
X538266Y251959D01*
X539391Y253084D01*
X540000Y254554D01*
Y256145D01*
X539391Y257616D01*
X538266Y258741D01*
X536796Y259350D01*
D02*
G37*
G36*
X71546D02*
X69955D01*
X68484Y258741D01*
X67359Y257616D01*
X66750Y256145D01*
Y254554D01*
X67359Y253084D01*
X68484Y251959D01*
X69955Y251350D01*
X71546D01*
X73016Y251959D01*
X74141Y253084D01*
X74750Y254554D01*
Y256145D01*
X74141Y257616D01*
X73016Y258741D01*
X71546Y259350D01*
D02*
G37*
G36*
X304796Y259350D02*
X303205D01*
X301735Y258741D01*
X300609Y257616D01*
X300000Y256145D01*
Y254554D01*
X300609Y253084D01*
X301735Y251959D01*
X303205Y251350D01*
X304796D01*
X306266Y251959D01*
X307391Y253084D01*
X308000Y254554D01*
Y256145D01*
X307391Y257616D01*
X306266Y258741D01*
X304796Y259350D01*
D02*
G37*
G36*
X643296Y259250D02*
X641704D01*
X640234Y258641D01*
X639109Y257516D01*
X638500Y256046D01*
Y254455D01*
X639109Y252985D01*
X640234Y251859D01*
X641704Y251250D01*
X643296D01*
X644766Y251859D01*
X645891Y252985D01*
X646500Y254455D01*
Y256046D01*
X645891Y257516D01*
X644766Y258641D01*
X643296Y259250D01*
D02*
G37*
G36*
X178046D02*
X176454D01*
X174984Y258641D01*
X173859Y257516D01*
X173250Y256046D01*
Y254455D01*
X173859Y252985D01*
X174984Y251859D01*
X176454Y251250D01*
X178046D01*
X179516Y251859D01*
X180641Y252985D01*
X181250Y254455D01*
Y256046D01*
X180641Y257516D01*
X179516Y258641D01*
X178046Y259250D01*
D02*
G37*
G36*
X411296Y259250D02*
X409704D01*
X408234Y258641D01*
X407109Y257516D01*
X406500Y256046D01*
Y254454D01*
X407109Y252984D01*
X408234Y251859D01*
X409704Y251250D01*
X411296D01*
X412766Y251859D01*
X413891Y252984D01*
X414500Y254454D01*
Y256046D01*
X413891Y257516D01*
X412766Y258641D01*
X411296Y259250D01*
D02*
G37*
G36*
X625796Y259250D02*
X624204D01*
X622734Y258641D01*
X621609Y257516D01*
X621000Y256045D01*
Y254454D01*
X621609Y252984D01*
X622734Y251859D01*
X624204Y251250D01*
X625796D01*
X627266Y251859D01*
X628391Y252984D01*
X629000Y254454D01*
Y256045D01*
X628391Y257516D01*
X627266Y258641D01*
X625796Y259250D01*
D02*
G37*
G36*
X555046D02*
X553455D01*
X551984Y258641D01*
X550859Y257516D01*
X550250Y256045D01*
Y254454D01*
X550859Y252984D01*
X551984Y251859D01*
X553455Y251250D01*
X555046D01*
X556516Y251859D01*
X557641Y252984D01*
X558250Y254454D01*
Y256045D01*
X557641Y257516D01*
X556516Y258641D01*
X555046Y259250D01*
D02*
G37*
G36*
X160545D02*
X158954D01*
X157484Y258641D01*
X156359Y257516D01*
X155750Y256045D01*
Y254454D01*
X156359Y252984D01*
X157484Y251859D01*
X158954Y251250D01*
X160545D01*
X162016Y251859D01*
X163141Y252984D01*
X163750Y254454D01*
Y256045D01*
X163141Y257516D01*
X162016Y258641D01*
X160545Y259250D01*
D02*
G37*
G36*
X89796D02*
X88204D01*
X86734Y258641D01*
X85609Y257516D01*
X85000Y256045D01*
Y254454D01*
X85609Y252984D01*
X86734Y251859D01*
X88204Y251250D01*
X89796D01*
X91266Y251859D01*
X92391Y252984D01*
X93000Y254454D01*
Y256045D01*
X92391Y257516D01*
X91266Y258641D01*
X89796Y259250D01*
D02*
G37*
G36*
X393796Y259250D02*
X392204D01*
X390734Y258641D01*
X389609Y257516D01*
X389000Y256045D01*
Y254454D01*
X389609Y252984D01*
X390734Y251859D01*
X392204Y251250D01*
X393796D01*
X395266Y251859D01*
X396391Y252984D01*
X397000Y254454D01*
Y256045D01*
X396391Y257516D01*
X395266Y258641D01*
X393796Y259250D01*
D02*
G37*
G36*
X323046D02*
X321455D01*
X319984Y258641D01*
X318859Y257516D01*
X318250Y256045D01*
Y254454D01*
X318859Y252984D01*
X319984Y251859D01*
X321455Y251250D01*
X323046D01*
X324516Y251859D01*
X325641Y252984D01*
X326250Y254454D01*
Y256045D01*
X325641Y257516D01*
X324516Y258641D01*
X323046Y259250D01*
D02*
G37*
G36*
X970796Y230000D02*
X969204D01*
X967734Y229391D01*
X966609Y228266D01*
X966000Y226796D01*
Y225204D01*
X966609Y223734D01*
X967734Y222609D01*
X969204Y222000D01*
X970796D01*
X972266Y222609D01*
X973391Y223734D01*
X974000Y225204D01*
Y226796D01*
X973391Y228266D01*
X972266Y229391D01*
X970796Y230000D01*
D02*
G37*
G36*
X930796D02*
X929204D01*
X927734Y229391D01*
X926609Y228266D01*
X926000Y226796D01*
Y225204D01*
X926609Y223734D01*
X927734Y222609D01*
X929204Y222000D01*
X930796D01*
X932266Y222609D01*
X933391Y223734D01*
X934000Y225204D01*
Y226796D01*
X933391Y228266D01*
X932266Y229391D01*
X930796Y230000D01*
D02*
G37*
G36*
X890796D02*
X889204D01*
X887734Y229391D01*
X886609Y228266D01*
X886000Y226796D01*
Y225204D01*
X886609Y223734D01*
X887734Y222609D01*
X889204Y222000D01*
X890796D01*
X892266Y222609D01*
X893391Y223734D01*
X894000Y225204D01*
Y226796D01*
X893391Y228266D01*
X892266Y229391D01*
X890796Y230000D01*
D02*
G37*
G36*
X850796D02*
X849204D01*
X847734Y229391D01*
X846609Y228266D01*
X846000Y226796D01*
Y225204D01*
X846609Y223734D01*
X847734Y222609D01*
X849204Y222000D01*
X850796D01*
X852266Y222609D01*
X853391Y223734D01*
X854000Y225204D01*
Y226796D01*
X853391Y228266D01*
X852266Y229391D01*
X850796Y230000D01*
D02*
G37*
G36*
X810796D02*
X809204D01*
X807734Y229391D01*
X806609Y228266D01*
X806000Y226796D01*
Y225204D01*
X806609Y223734D01*
X807734Y222609D01*
X809204Y222000D01*
X810796D01*
X812266Y222609D01*
X813391Y223734D01*
X814000Y225204D01*
Y226796D01*
X813391Y228266D01*
X812266Y229391D01*
X810796Y230000D01*
D02*
G37*
G36*
X770796D02*
X769204D01*
X767734Y229391D01*
X766609Y228266D01*
X766000Y226796D01*
Y225204D01*
X766609Y223734D01*
X767734Y222609D01*
X769204Y222000D01*
X770796D01*
X772266Y222609D01*
X773391Y223734D01*
X774000Y225204D01*
Y226796D01*
X773391Y228266D01*
X772266Y229391D01*
X770796Y230000D01*
D02*
G37*
G36*
X730796D02*
X729204D01*
X727734Y229391D01*
X726609Y228266D01*
X726000Y226796D01*
Y225204D01*
X726609Y223734D01*
X727734Y222609D01*
X729204Y222000D01*
X730796D01*
X732266Y222609D01*
X733391Y223734D01*
X734000Y225204D01*
Y226796D01*
X733391Y228266D01*
X732266Y229391D01*
X730796Y230000D01*
D02*
G37*
G36*
X690796D02*
X689204D01*
X687734Y229391D01*
X686609Y228266D01*
X686000Y226796D01*
Y225204D01*
X686609Y223734D01*
X687734Y222609D01*
X689204Y222000D01*
X690796D01*
X692266Y222609D01*
X693391Y223734D01*
X694000Y225204D01*
Y226796D01*
X693391Y228266D01*
X692266Y229391D01*
X690796Y230000D01*
D02*
G37*
G36*
X660296Y228250D02*
X658705D01*
X657234Y227641D01*
X656109Y226516D01*
X655500Y225046D01*
Y223454D01*
X656109Y221984D01*
X657234Y220859D01*
X658705Y220250D01*
X660296D01*
X661766Y220859D01*
X662891Y221984D01*
X663500Y223454D01*
Y225046D01*
X662891Y226516D01*
X661766Y227641D01*
X660296Y228250D01*
D02*
G37*
G36*
X195046D02*
X193454D01*
X191984Y227641D01*
X190859Y226516D01*
X190250Y225046D01*
Y223454D01*
X190859Y221984D01*
X191984Y220859D01*
X193454Y220250D01*
X195046D01*
X196516Y220859D01*
X197641Y221984D01*
X198250Y223454D01*
Y225046D01*
X197641Y226516D01*
X196516Y227641D01*
X195046Y228250D01*
D02*
G37*
G36*
X428296Y228250D02*
X426705D01*
X425234Y227641D01*
X424109Y226516D01*
X423500Y225046D01*
Y223454D01*
X424109Y221984D01*
X425234Y220859D01*
X426705Y220250D01*
X428296D01*
X429766Y220859D01*
X430891Y221984D01*
X431500Y223454D01*
Y225046D01*
X430891Y226516D01*
X429766Y227641D01*
X428296Y228250D01*
D02*
G37*
G36*
X950796Y190000D02*
X949204D01*
X947734Y189391D01*
X946609Y188266D01*
X946000Y186796D01*
Y185204D01*
X946609Y183734D01*
X947734Y182609D01*
X949204Y182000D01*
X950796D01*
X952266Y182609D01*
X953391Y183734D01*
X954000Y185204D01*
Y186796D01*
X953391Y188266D01*
X952266Y189391D01*
X950796Y190000D01*
D02*
G37*
G36*
X910796D02*
X909204D01*
X907734Y189391D01*
X906609Y188266D01*
X906000Y186796D01*
Y185204D01*
X906609Y183734D01*
X907734Y182609D01*
X909204Y182000D01*
X910796D01*
X912266Y182609D01*
X913391Y183734D01*
X914000Y185204D01*
Y186796D01*
X913391Y188266D01*
X912266Y189391D01*
X910796Y190000D01*
D02*
G37*
G36*
X870796D02*
X869204D01*
X867734Y189391D01*
X866609Y188266D01*
X866000Y186796D01*
Y185204D01*
X866609Y183734D01*
X867734Y182609D01*
X869204Y182000D01*
X870796D01*
X872266Y182609D01*
X873391Y183734D01*
X874000Y185204D01*
Y186796D01*
X873391Y188266D01*
X872266Y189391D01*
X870796Y190000D01*
D02*
G37*
G36*
X830796D02*
X829204D01*
X827734Y189391D01*
X826609Y188266D01*
X826000Y186796D01*
Y185204D01*
X826609Y183734D01*
X827734Y182609D01*
X829204Y182000D01*
X830796D01*
X832266Y182609D01*
X833391Y183734D01*
X834000Y185204D01*
Y186796D01*
X833391Y188266D01*
X832266Y189391D01*
X830796Y190000D01*
D02*
G37*
G36*
X790796D02*
X789204D01*
X787734Y189391D01*
X786609Y188266D01*
X786000Y186796D01*
Y185204D01*
X786609Y183734D01*
X787734Y182609D01*
X789204Y182000D01*
X790796D01*
X792266Y182609D01*
X793391Y183734D01*
X794000Y185204D01*
Y186796D01*
X793391Y188266D01*
X792266Y189391D01*
X790796Y190000D01*
D02*
G37*
G36*
X750796D02*
X749204D01*
X747734Y189391D01*
X746609Y188266D01*
X746000Y186796D01*
Y185204D01*
X746609Y183734D01*
X747734Y182609D01*
X749204Y182000D01*
X750796D01*
X752266Y182609D01*
X753391Y183734D01*
X754000Y185204D01*
Y186796D01*
X753391Y188266D01*
X752266Y189391D01*
X750796Y190000D01*
D02*
G37*
G36*
X710796D02*
X709204D01*
X707734Y189391D01*
X706609Y188266D01*
X706000Y186796D01*
Y185204D01*
X706609Y183734D01*
X707734Y182609D01*
X709204Y182000D01*
X710796D01*
X712266Y182609D01*
X713391Y183734D01*
X714000Y185204D01*
Y186796D01*
X713391Y188266D01*
X712266Y189391D01*
X710796Y190000D01*
D02*
G37*
G36*
X470796D02*
X469204D01*
X467734Y189391D01*
X466609Y188266D01*
X466000Y186796D01*
Y185204D01*
X466609Y183734D01*
X467734Y182609D01*
X469204Y182000D01*
X470796D01*
X472266Y182609D01*
X473391Y183734D01*
X474000Y185204D01*
Y186796D01*
X473391Y188266D01*
X472266Y189391D01*
X470796Y190000D01*
D02*
G37*
G36*
X230796D02*
X229204D01*
X227734Y189391D01*
X226609Y188266D01*
X226000Y186796D01*
Y185204D01*
X226609Y183734D01*
X227734Y182609D01*
X229204Y182000D01*
X230796D01*
X232266Y182609D01*
X233391Y183734D01*
X234000Y185204D01*
Y186796D01*
X233391Y188266D01*
X232266Y189391D01*
X230796Y190000D01*
D02*
G37*
G36*
X644954Y201266D02*
X642045D01*
X639193Y200699D01*
X636505Y199586D01*
X634087Y197970D01*
X632030Y195913D01*
X630414Y193494D01*
X629301Y190807D01*
X628734Y187955D01*
Y185046D01*
X629301Y182193D01*
X630414Y179506D01*
X632030Y177087D01*
X634087Y175031D01*
X636505Y173415D01*
X639193Y172302D01*
X642045Y171734D01*
X644954D01*
X647807Y172302D01*
X650494Y173415D01*
X652912Y175031D01*
X654969Y177087D01*
X656585Y179506D01*
X657698Y182193D01*
X658266Y185046D01*
Y187955D01*
X657698Y190807D01*
X656585Y193494D01*
X654969Y195913D01*
X652912Y197970D01*
X650494Y199586D01*
X647807Y200699D01*
X644954Y201266D01*
D02*
G37*
G36*
X602954D02*
X600045D01*
X597193Y200699D01*
X594505Y199586D01*
X592087Y197970D01*
X590030Y195913D01*
X588414Y193494D01*
X587301Y190807D01*
X586734Y187955D01*
Y185046D01*
X587301Y182193D01*
X588414Y179506D01*
X590030Y177087D01*
X592087Y175031D01*
X594505Y173415D01*
X597193Y172302D01*
X600045Y171734D01*
X602954D01*
X605807Y172302D01*
X608494Y173415D01*
X610913Y175031D01*
X612969Y177087D01*
X614585Y179506D01*
X615698Y182193D01*
X616266Y185046D01*
Y187955D01*
X615698Y190807D01*
X614585Y193494D01*
X612969Y195913D01*
X610913Y197970D01*
X608494Y199586D01*
X605807Y200699D01*
X602954Y201266D01*
D02*
G37*
G36*
X560954D02*
X558046D01*
X555193Y200699D01*
X552505Y199586D01*
X550087Y197970D01*
X548030Y195913D01*
X546414Y193494D01*
X545301Y190807D01*
X544734Y187955D01*
Y185046D01*
X545301Y182193D01*
X546414Y179506D01*
X548030Y177087D01*
X550087Y175031D01*
X552505Y173415D01*
X555193Y172302D01*
X558046Y171734D01*
X560954D01*
X563807Y172302D01*
X566494Y173415D01*
X568913Y175031D01*
X570969Y177087D01*
X572585Y179506D01*
X573698Y182193D01*
X574266Y185046D01*
Y187955D01*
X573698Y190807D01*
X572585Y193494D01*
X570969Y195913D01*
X568913Y197970D01*
X566494Y199586D01*
X563807Y200699D01*
X560954Y201266D01*
D02*
G37*
G36*
X518954D02*
X516046D01*
X513193Y200699D01*
X510506Y199586D01*
X508087Y197970D01*
X506030Y195913D01*
X504414Y193494D01*
X503301Y190807D01*
X502734Y187955D01*
Y185046D01*
X503301Y182193D01*
X504414Y179506D01*
X506030Y177087D01*
X508087Y175031D01*
X510506Y173415D01*
X513193Y172302D01*
X516046Y171734D01*
X518954D01*
X521807Y172302D01*
X524494Y173415D01*
X526913Y175031D01*
X528969Y177087D01*
X530585Y179506D01*
X531698Y182193D01*
X532266Y185046D01*
Y187955D01*
X531698Y190807D01*
X530585Y193494D01*
X528969Y195913D01*
X526913Y197970D01*
X524494Y199586D01*
X521807Y200699D01*
X518954Y201266D01*
D02*
G37*
G36*
X179704D02*
X176796D01*
X173943Y200699D01*
X171256Y199586D01*
X168837Y197970D01*
X166781Y195913D01*
X165165Y193494D01*
X164052Y190807D01*
X163484Y187955D01*
Y185046D01*
X164052Y182193D01*
X165165Y179506D01*
X166781Y177087D01*
X168837Y175031D01*
X171256Y173415D01*
X173943Y172302D01*
X176796Y171734D01*
X179704D01*
X182557Y172302D01*
X185245Y173415D01*
X187663Y175031D01*
X189720Y177087D01*
X191336Y179506D01*
X192449Y182193D01*
X193016Y185046D01*
Y187955D01*
X192449Y190807D01*
X191336Y193494D01*
X189720Y195913D01*
X187663Y197970D01*
X185245Y199586D01*
X182557Y200699D01*
X179704Y201266D01*
D02*
G37*
G36*
X137705D02*
X134796D01*
X131943Y200699D01*
X129256Y199586D01*
X126838Y197970D01*
X124781Y195913D01*
X123165Y193494D01*
X122052Y190807D01*
X121484Y187955D01*
Y185046D01*
X122052Y182193D01*
X123165Y179506D01*
X124781Y177087D01*
X126838Y175031D01*
X129256Y173415D01*
X131943Y172302D01*
X134796Y171734D01*
X137705D01*
X140557Y172302D01*
X143244Y173415D01*
X145663Y175031D01*
X147720Y177087D01*
X149336Y179506D01*
X150449Y182193D01*
X151016Y185046D01*
Y187955D01*
X150449Y190807D01*
X149336Y193494D01*
X147720Y195913D01*
X145663Y197970D01*
X143244Y199586D01*
X140557Y200699D01*
X137705Y201266D01*
D02*
G37*
G36*
X95704D02*
X92795D01*
X89943Y200699D01*
X87255Y199586D01*
X84837Y197970D01*
X82780Y195913D01*
X81164Y193494D01*
X80051Y190807D01*
X79484Y187955D01*
Y185046D01*
X80051Y182193D01*
X81164Y179506D01*
X82780Y177087D01*
X84837Y175031D01*
X87255Y173415D01*
X89943Y172302D01*
X92795Y171734D01*
X95704D01*
X98557Y172302D01*
X101244Y173415D01*
X103663Y175031D01*
X105719Y177087D01*
X107335Y179506D01*
X108448Y182193D01*
X109016Y185046D01*
Y187955D01*
X108448Y190807D01*
X107335Y193494D01*
X105719Y195913D01*
X103663Y197970D01*
X101244Y199586D01*
X98557Y200699D01*
X95704Y201266D01*
D02*
G37*
G36*
X53704D02*
X50796D01*
X47943Y200699D01*
X45256Y199586D01*
X42837Y197970D01*
X40780Y195913D01*
X39164Y193494D01*
X38051Y190807D01*
X37484Y187955D01*
Y185046D01*
X38051Y182193D01*
X39164Y179506D01*
X40780Y177087D01*
X42837Y175031D01*
X45256Y173415D01*
X47943Y172302D01*
X50796Y171734D01*
X53704D01*
X56557Y172302D01*
X59244Y173415D01*
X61663Y175031D01*
X63719Y177087D01*
X65335Y179506D01*
X66448Y182193D01*
X67016Y185046D01*
Y187955D01*
X66448Y190807D01*
X65335Y193494D01*
X63719Y195913D01*
X61663Y197970D01*
X59244Y199586D01*
X56557Y200699D01*
X53704Y201266D01*
D02*
G37*
G36*
X412955Y201266D02*
X410046D01*
X407193Y200699D01*
X404506Y199585D01*
X402088Y197969D01*
X400031Y195913D01*
X398415Y193494D01*
X397302Y190807D01*
X396734Y187954D01*
Y185046D01*
X397302Y182193D01*
X398415Y179506D01*
X400031Y177087D01*
X402088Y175030D01*
X404506Y173415D01*
X407193Y172302D01*
X410046Y171734D01*
X412955D01*
X415807Y172302D01*
X418495Y173415D01*
X420913Y175030D01*
X422970Y177087D01*
X424586Y179506D01*
X425699Y182193D01*
X426266Y185046D01*
Y187954D01*
X425699Y190807D01*
X424586Y193494D01*
X422970Y195913D01*
X420913Y197969D01*
X418495Y199585D01*
X415807Y200699D01*
X412955Y201266D01*
D02*
G37*
G36*
X370954D02*
X368046D01*
X365193Y200699D01*
X362506Y199585D01*
X360087Y197969D01*
X358030Y195913D01*
X356414Y193494D01*
X355301Y190807D01*
X354734Y187954D01*
Y185046D01*
X355301Y182193D01*
X356414Y179506D01*
X358030Y177087D01*
X360087Y175030D01*
X362506Y173415D01*
X365193Y172302D01*
X368046Y171734D01*
X370954D01*
X373807Y172302D01*
X376494Y173415D01*
X378913Y175030D01*
X380969Y177087D01*
X382585Y179506D01*
X383698Y182193D01*
X384266Y185046D01*
Y187954D01*
X383698Y190807D01*
X382585Y193494D01*
X380969Y195913D01*
X378913Y197969D01*
X376494Y199585D01*
X373807Y200699D01*
X370954Y201266D01*
D02*
G37*
G36*
X328954D02*
X326046D01*
X323193Y200699D01*
X320506Y199585D01*
X318087Y197969D01*
X316031Y195913D01*
X314415Y193494D01*
X313301Y190807D01*
X312734Y187954D01*
Y185046D01*
X313301Y182193D01*
X314415Y179506D01*
X316031Y177087D01*
X318087Y175030D01*
X320506Y173415D01*
X323193Y172302D01*
X326046Y171734D01*
X328954D01*
X331807Y172302D01*
X334494Y173415D01*
X336913Y175030D01*
X338969Y177087D01*
X340585Y179506D01*
X341698Y182193D01*
X342266Y185046D01*
Y187954D01*
X341698Y190807D01*
X340585Y193494D01*
X338969Y195913D01*
X336913Y197969D01*
X334494Y199585D01*
X331807Y200699D01*
X328954Y201266D01*
D02*
G37*
G36*
X286954D02*
X284046D01*
X281193Y200699D01*
X278506Y199585D01*
X276087Y197969D01*
X274031Y195913D01*
X272415Y193494D01*
X271301Y190807D01*
X270734Y187954D01*
Y185046D01*
X271301Y182193D01*
X272415Y179506D01*
X274031Y177087D01*
X276087Y175030D01*
X278506Y173415D01*
X281193Y172302D01*
X284046Y171734D01*
X286954D01*
X289807Y172302D01*
X292494Y173415D01*
X294913Y175030D01*
X296970Y177087D01*
X298585Y179506D01*
X299699Y182193D01*
X300266Y185046D01*
Y187954D01*
X299699Y190807D01*
X298585Y193494D01*
X296970Y195913D01*
X294913Y197969D01*
X292494Y199585D01*
X289807Y200699D01*
X286954Y201266D01*
D02*
G37*
G36*
X970796Y150000D02*
X969204D01*
X967734Y149391D01*
X966609Y148266D01*
X966000Y146796D01*
Y145204D01*
X966609Y143734D01*
X967734Y142609D01*
X969204Y142000D01*
X970796D01*
X972266Y142609D01*
X973391Y143734D01*
X974000Y145204D01*
Y146796D01*
X973391Y148266D01*
X972266Y149391D01*
X970796Y150000D01*
D02*
G37*
G36*
X930796D02*
X929204D01*
X927734Y149391D01*
X926609Y148266D01*
X926000Y146796D01*
Y145204D01*
X926609Y143734D01*
X927734Y142609D01*
X929204Y142000D01*
X930796D01*
X932266Y142609D01*
X933391Y143734D01*
X934000Y145204D01*
Y146796D01*
X933391Y148266D01*
X932266Y149391D01*
X930796Y150000D01*
D02*
G37*
G36*
X890796D02*
X889204D01*
X887734Y149391D01*
X886609Y148266D01*
X886000Y146796D01*
Y145204D01*
X886609Y143734D01*
X887734Y142609D01*
X889204Y142000D01*
X890796D01*
X892266Y142609D01*
X893391Y143734D01*
X894000Y145204D01*
Y146796D01*
X893391Y148266D01*
X892266Y149391D01*
X890796Y150000D01*
D02*
G37*
G36*
X850796D02*
X849204D01*
X847734Y149391D01*
X846609Y148266D01*
X846000Y146796D01*
Y145204D01*
X846609Y143734D01*
X847734Y142609D01*
X849204Y142000D01*
X850796D01*
X852266Y142609D01*
X853391Y143734D01*
X854000Y145204D01*
Y146796D01*
X853391Y148266D01*
X852266Y149391D01*
X850796Y150000D01*
D02*
G37*
G36*
X810796D02*
X809204D01*
X807734Y149391D01*
X806609Y148266D01*
X806000Y146796D01*
Y145204D01*
X806609Y143734D01*
X807734Y142609D01*
X809204Y142000D01*
X810796D01*
X812266Y142609D01*
X813391Y143734D01*
X814000Y145204D01*
Y146796D01*
X813391Y148266D01*
X812266Y149391D01*
X810796Y150000D01*
D02*
G37*
G36*
X770796D02*
X769204D01*
X767734Y149391D01*
X766609Y148266D01*
X766000Y146796D01*
Y145204D01*
X766609Y143734D01*
X767734Y142609D01*
X769204Y142000D01*
X770796D01*
X772266Y142609D01*
X773391Y143734D01*
X774000Y145204D01*
Y146796D01*
X773391Y148266D01*
X772266Y149391D01*
X770796Y150000D01*
D02*
G37*
G36*
X730796D02*
X729204D01*
X727734Y149391D01*
X726609Y148266D01*
X726000Y146796D01*
Y145204D01*
X726609Y143734D01*
X727734Y142609D01*
X729204Y142000D01*
X730796D01*
X732266Y142609D01*
X733391Y143734D01*
X734000Y145204D01*
Y146796D01*
X733391Y148266D01*
X732266Y149391D01*
X730796Y150000D01*
D02*
G37*
G36*
X690796D02*
X689204D01*
X687734Y149391D01*
X686609Y148266D01*
X686000Y146796D01*
Y145204D01*
X686609Y143734D01*
X687734Y142609D01*
X689204Y142000D01*
X690796D01*
X692266Y142609D01*
X693391Y143734D01*
X694000Y145204D01*
Y146796D01*
X693391Y148266D01*
X692266Y149391D01*
X690796Y150000D01*
D02*
G37*
G36*
X490796D02*
X489204D01*
X487734Y149391D01*
X486609Y148266D01*
X486000Y146796D01*
Y145204D01*
X486609Y143734D01*
X487734Y142609D01*
X489204Y142000D01*
X490796D01*
X492266Y142609D01*
X493391Y143734D01*
X494000Y145204D01*
Y146796D01*
X493391Y148266D01*
X492266Y149391D01*
X490796Y150000D01*
D02*
G37*
G36*
X450796D02*
X449204D01*
X447734Y149391D01*
X446609Y148266D01*
X446000Y146796D01*
Y145204D01*
X446609Y143734D01*
X447734Y142609D01*
X449204Y142000D01*
X450796D01*
X452266Y142609D01*
X453391Y143734D01*
X454000Y145204D01*
Y146796D01*
X453391Y148266D01*
X452266Y149391D01*
X450796Y150000D01*
D02*
G37*
G36*
X250796D02*
X249204D01*
X247734Y149391D01*
X246609Y148266D01*
X246000Y146796D01*
Y145204D01*
X246609Y143734D01*
X247734Y142609D01*
X249204Y142000D01*
X250796D01*
X252266Y142609D01*
X253391Y143734D01*
X254000Y145204D01*
Y146796D01*
X253391Y148266D01*
X252266Y149391D01*
X250796Y150000D01*
D02*
G37*
G36*
X210796D02*
X209204D01*
X207734Y149391D01*
X206609Y148266D01*
X206000Y146796D01*
Y145204D01*
X206609Y143734D01*
X207734Y142609D01*
X209204Y142000D01*
X210796D01*
X212266Y142609D01*
X213391Y143734D01*
X214000Y145204D01*
Y146796D01*
X213391Y148266D01*
X212266Y149391D01*
X210796Y150000D01*
D02*
G37*
G36*
X658266Y159266D02*
X628734D01*
Y129734D01*
X658266D01*
Y159266D01*
D02*
G37*
G36*
X602954D02*
X600045D01*
X597193Y158699D01*
X594505Y157586D01*
X592087Y155970D01*
X590030Y153913D01*
X588414Y151495D01*
X587301Y148807D01*
X586734Y145955D01*
Y143046D01*
X587301Y140193D01*
X588414Y137506D01*
X590030Y135087D01*
X592087Y133031D01*
X594505Y131415D01*
X597193Y130302D01*
X600045Y129734D01*
X602954D01*
X605807Y130302D01*
X608494Y131415D01*
X610913Y133031D01*
X612969Y135087D01*
X614585Y137506D01*
X615698Y140193D01*
X616266Y143046D01*
Y145955D01*
X615698Y148807D01*
X614585Y151495D01*
X612969Y153913D01*
X610913Y155970D01*
X608494Y157586D01*
X605807Y158699D01*
X602954Y159266D01*
D02*
G37*
G36*
X560954D02*
X558046D01*
X555193Y158699D01*
X552505Y157586D01*
X550087Y155970D01*
X548030Y153913D01*
X546414Y151495D01*
X545301Y148807D01*
X544734Y145955D01*
Y143046D01*
X545301Y140193D01*
X546414Y137506D01*
X548030Y135087D01*
X550087Y133031D01*
X552505Y131415D01*
X555193Y130302D01*
X558046Y129734D01*
X560954D01*
X563807Y130302D01*
X566494Y131415D01*
X568913Y133031D01*
X570969Y135087D01*
X572585Y137506D01*
X573698Y140193D01*
X574266Y143046D01*
Y145955D01*
X573698Y148807D01*
X572585Y151495D01*
X570969Y153913D01*
X568913Y155970D01*
X566494Y157586D01*
X563807Y158699D01*
X560954Y159266D01*
D02*
G37*
G36*
X518954D02*
X516046D01*
X513193Y158699D01*
X510506Y157586D01*
X508087Y155970D01*
X506030Y153913D01*
X504414Y151495D01*
X503301Y148807D01*
X502734Y145955D01*
Y143046D01*
X503301Y140193D01*
X504414Y137506D01*
X506030Y135087D01*
X508087Y133031D01*
X510506Y131415D01*
X513193Y130302D01*
X516046Y129734D01*
X518954D01*
X521807Y130302D01*
X524494Y131415D01*
X526913Y133031D01*
X528969Y135087D01*
X530585Y137506D01*
X531698Y140193D01*
X532266Y143046D01*
Y145955D01*
X531698Y148807D01*
X530585Y151495D01*
X528969Y153913D01*
X526913Y155970D01*
X524494Y157586D01*
X521807Y158699D01*
X518954Y159266D01*
D02*
G37*
G36*
X193016D02*
X163484D01*
Y129734D01*
X193016D01*
Y159266D01*
D02*
G37*
G36*
X137705D02*
X134796D01*
X131943Y158699D01*
X129256Y157586D01*
X126838Y155970D01*
X124781Y153913D01*
X123165Y151495D01*
X122052Y148807D01*
X121484Y145955D01*
Y143046D01*
X122052Y140193D01*
X123165Y137506D01*
X124781Y135087D01*
X126838Y133031D01*
X129256Y131415D01*
X131943Y130302D01*
X134796Y129734D01*
X137705D01*
X140557Y130302D01*
X143244Y131415D01*
X145663Y133031D01*
X147720Y135087D01*
X149336Y137506D01*
X150449Y140193D01*
X151016Y143046D01*
Y145955D01*
X150449Y148807D01*
X149336Y151495D01*
X147720Y153913D01*
X145663Y155970D01*
X143244Y157586D01*
X140557Y158699D01*
X137705Y159266D01*
D02*
G37*
G36*
X95704D02*
X92795D01*
X89943Y158699D01*
X87255Y157586D01*
X84837Y155970D01*
X82780Y153913D01*
X81164Y151495D01*
X80051Y148807D01*
X79484Y145955D01*
Y143046D01*
X80051Y140193D01*
X81164Y137506D01*
X82780Y135087D01*
X84837Y133031D01*
X87255Y131415D01*
X89943Y130302D01*
X92795Y129734D01*
X95704D01*
X98557Y130302D01*
X101244Y131415D01*
X103663Y133031D01*
X105719Y135087D01*
X107335Y137506D01*
X108448Y140193D01*
X109016Y143046D01*
Y145955D01*
X108448Y148807D01*
X107335Y151495D01*
X105719Y153913D01*
X103663Y155970D01*
X101244Y157586D01*
X98557Y158699D01*
X95704Y159266D01*
D02*
G37*
G36*
X53704D02*
X50796D01*
X47943Y158699D01*
X45256Y157586D01*
X42837Y155970D01*
X40780Y153913D01*
X39164Y151495D01*
X38051Y148807D01*
X37484Y145955D01*
Y143046D01*
X38051Y140193D01*
X39164Y137506D01*
X40780Y135087D01*
X42837Y133031D01*
X45256Y131415D01*
X47943Y130302D01*
X50796Y129734D01*
X53704D01*
X56557Y130302D01*
X59244Y131415D01*
X61663Y133031D01*
X63719Y135087D01*
X65335Y137506D01*
X66448Y140193D01*
X67016Y143046D01*
Y145955D01*
X66448Y148807D01*
X65335Y151495D01*
X63719Y153913D01*
X61663Y155970D01*
X59244Y157586D01*
X56557Y158699D01*
X53704Y159266D01*
D02*
G37*
G36*
X426266Y159266D02*
X396734D01*
Y129734D01*
X426266D01*
Y159266D01*
D02*
G37*
G36*
X370954D02*
X368046D01*
X365193Y158699D01*
X362506Y157585D01*
X360087Y155970D01*
X358030Y153913D01*
X356414Y151494D01*
X355301Y148807D01*
X354734Y145954D01*
Y143046D01*
X355301Y140193D01*
X356414Y137506D01*
X358030Y135087D01*
X360087Y133031D01*
X362506Y131415D01*
X365193Y130302D01*
X368046Y129734D01*
X370954D01*
X373807Y130302D01*
X376494Y131415D01*
X378913Y133031D01*
X380969Y135087D01*
X382585Y137506D01*
X383698Y140193D01*
X384266Y143046D01*
Y145954D01*
X383698Y148807D01*
X382585Y151494D01*
X380969Y153913D01*
X378913Y155970D01*
X376494Y157585D01*
X373807Y158699D01*
X370954Y159266D01*
D02*
G37*
G36*
X328954D02*
X326046D01*
X323193Y158699D01*
X320506Y157585D01*
X318087Y155970D01*
X316031Y153913D01*
X314415Y151494D01*
X313301Y148807D01*
X312734Y145954D01*
Y143046D01*
X313301Y140193D01*
X314415Y137506D01*
X316031Y135087D01*
X318087Y133031D01*
X320506Y131415D01*
X323193Y130302D01*
X326046Y129734D01*
X328954D01*
X331807Y130302D01*
X334494Y131415D01*
X336913Y133031D01*
X338969Y135087D01*
X340585Y137506D01*
X341698Y140193D01*
X342266Y143046D01*
Y145954D01*
X341698Y148807D01*
X340585Y151494D01*
X338969Y153913D01*
X336913Y155970D01*
X334494Y157585D01*
X331807Y158699D01*
X328954Y159266D01*
D02*
G37*
G36*
X286954D02*
X284046D01*
X281193Y158699D01*
X278506Y157585D01*
X276087Y155970D01*
X274031Y153913D01*
X272415Y151494D01*
X271301Y148807D01*
X270734Y145954D01*
Y143046D01*
X271301Y140193D01*
X272415Y137506D01*
X274031Y135087D01*
X276087Y133031D01*
X278506Y131415D01*
X281193Y130302D01*
X284046Y129734D01*
X286954D01*
X289807Y130302D01*
X292494Y131415D01*
X294913Y133031D01*
X296970Y135087D01*
X298585Y137506D01*
X299699Y140193D01*
X300266Y143046D01*
Y145954D01*
X299699Y148807D01*
X298585Y151494D01*
X296970Y153913D01*
X294913Y155970D01*
X292494Y157585D01*
X289807Y158699D01*
X286954Y159266D01*
D02*
G37*
G36*
X950796Y110000D02*
X949204D01*
X947734Y109391D01*
X946609Y108266D01*
X946000Y106796D01*
Y105204D01*
X946609Y103734D01*
X947734Y102609D01*
X949204Y102000D01*
X950796D01*
X952266Y102609D01*
X953391Y103734D01*
X954000Y105204D01*
Y106796D01*
X953391Y108266D01*
X952266Y109391D01*
X950796Y110000D01*
D02*
G37*
G36*
X910796D02*
X909204D01*
X907734Y109391D01*
X906609Y108266D01*
X906000Y106796D01*
Y105204D01*
X906609Y103734D01*
X907734Y102609D01*
X909204Y102000D01*
X910796D01*
X912266Y102609D01*
X913391Y103734D01*
X914000Y105204D01*
Y106796D01*
X913391Y108266D01*
X912266Y109391D01*
X910796Y110000D01*
D02*
G37*
G36*
X870796D02*
X869204D01*
X867734Y109391D01*
X866609Y108266D01*
X866000Y106796D01*
Y105204D01*
X866609Y103734D01*
X867734Y102609D01*
X869204Y102000D01*
X870796D01*
X872266Y102609D01*
X873391Y103734D01*
X874000Y105204D01*
Y106796D01*
X873391Y108266D01*
X872266Y109391D01*
X870796Y110000D01*
D02*
G37*
G36*
X830796D02*
X829204D01*
X827734Y109391D01*
X826609Y108266D01*
X826000Y106796D01*
Y105204D01*
X826609Y103734D01*
X827734Y102609D01*
X829204Y102000D01*
X830796D01*
X832266Y102609D01*
X833391Y103734D01*
X834000Y105204D01*
Y106796D01*
X833391Y108266D01*
X832266Y109391D01*
X830796Y110000D01*
D02*
G37*
G36*
X790796D02*
X789204D01*
X787734Y109391D01*
X786609Y108266D01*
X786000Y106796D01*
Y105204D01*
X786609Y103734D01*
X787734Y102609D01*
X789204Y102000D01*
X790796D01*
X792266Y102609D01*
X793391Y103734D01*
X794000Y105204D01*
Y106796D01*
X793391Y108266D01*
X792266Y109391D01*
X790796Y110000D01*
D02*
G37*
G36*
X750796D02*
X749204D01*
X747734Y109391D01*
X746609Y108266D01*
X746000Y106796D01*
Y105204D01*
X746609Y103734D01*
X747734Y102609D01*
X749204Y102000D01*
X750796D01*
X752266Y102609D01*
X753391Y103734D01*
X754000Y105204D01*
Y106796D01*
X753391Y108266D01*
X752266Y109391D01*
X750796Y110000D01*
D02*
G37*
G36*
X710796D02*
X709204D01*
X707734Y109391D01*
X706609Y108266D01*
X706000Y106796D01*
Y105204D01*
X706609Y103734D01*
X707734Y102609D01*
X709204Y102000D01*
X710796D01*
X712266Y102609D01*
X713391Y103734D01*
X714000Y105204D01*
Y106796D01*
X713391Y108266D01*
X712266Y109391D01*
X710796Y110000D01*
D02*
G37*
G36*
X670796D02*
X669204D01*
X667734Y109391D01*
X666609Y108266D01*
X666000Y106796D01*
Y105204D01*
X666609Y103734D01*
X667734Y102609D01*
X669204Y102000D01*
X670796D01*
X672266Y102609D01*
X673391Y103734D01*
X674000Y105204D01*
Y106796D01*
X673391Y108266D01*
X672266Y109391D01*
X670796Y110000D01*
D02*
G37*
G36*
X630796D02*
X629204D01*
X627734Y109391D01*
X626609Y108266D01*
X626000Y106796D01*
Y105204D01*
X626609Y103734D01*
X627734Y102609D01*
X629204Y102000D01*
X630796D01*
X632266Y102609D01*
X633391Y103734D01*
X634000Y105204D01*
Y106796D01*
X633391Y108266D01*
X632266Y109391D01*
X630796Y110000D01*
D02*
G37*
G36*
X590796D02*
X589204D01*
X587734Y109391D01*
X586609Y108266D01*
X586000Y106796D01*
Y105204D01*
X586609Y103734D01*
X587734Y102609D01*
X589204Y102000D01*
X590796D01*
X592266Y102609D01*
X593391Y103734D01*
X594000Y105204D01*
Y106796D01*
X593391Y108266D01*
X592266Y109391D01*
X590796Y110000D01*
D02*
G37*
G36*
X550796D02*
X549204D01*
X547734Y109391D01*
X546609Y108266D01*
X546000Y106796D01*
Y105204D01*
X546609Y103734D01*
X547734Y102609D01*
X549204Y102000D01*
X550796D01*
X552266Y102609D01*
X553391Y103734D01*
X554000Y105204D01*
Y106796D01*
X553391Y108266D01*
X552266Y109391D01*
X550796Y110000D01*
D02*
G37*
G36*
X510796D02*
X509204D01*
X507734Y109391D01*
X506609Y108266D01*
X506000Y106796D01*
Y105204D01*
X506609Y103734D01*
X507734Y102609D01*
X509204Y102000D01*
X510796D01*
X512266Y102609D01*
X513391Y103734D01*
X514000Y105204D01*
Y106796D01*
X513391Y108266D01*
X512266Y109391D01*
X510796Y110000D01*
D02*
G37*
G36*
X470796D02*
X469204D01*
X467734Y109391D01*
X466609Y108266D01*
X466000Y106796D01*
Y105204D01*
X466609Y103734D01*
X467734Y102609D01*
X469204Y102000D01*
X470796D01*
X472266Y102609D01*
X473391Y103734D01*
X474000Y105204D01*
Y106796D01*
X473391Y108266D01*
X472266Y109391D01*
X470796Y110000D01*
D02*
G37*
G36*
X430796D02*
X429204D01*
X427734Y109391D01*
X426609Y108266D01*
X426000Y106796D01*
Y105204D01*
X426609Y103734D01*
X427734Y102609D01*
X429204Y102000D01*
X430796D01*
X432266Y102609D01*
X433391Y103734D01*
X434000Y105204D01*
Y106796D01*
X433391Y108266D01*
X432266Y109391D01*
X430796Y110000D01*
D02*
G37*
G36*
X390796D02*
X389204D01*
X387734Y109391D01*
X386609Y108266D01*
X386000Y106796D01*
Y105204D01*
X386609Y103734D01*
X387734Y102609D01*
X389204Y102000D01*
X390796D01*
X392266Y102609D01*
X393391Y103734D01*
X394000Y105204D01*
Y106796D01*
X393391Y108266D01*
X392266Y109391D01*
X390796Y110000D01*
D02*
G37*
G36*
X350796D02*
X349204D01*
X347734Y109391D01*
X346609Y108266D01*
X346000Y106796D01*
Y105204D01*
X346609Y103734D01*
X347734Y102609D01*
X349204Y102000D01*
X350796D01*
X352266Y102609D01*
X353391Y103734D01*
X354000Y105204D01*
Y106796D01*
X353391Y108266D01*
X352266Y109391D01*
X350796Y110000D01*
D02*
G37*
G36*
X310796D02*
X309204D01*
X307734Y109391D01*
X306609Y108266D01*
X306000Y106796D01*
Y105204D01*
X306609Y103734D01*
X307734Y102609D01*
X309204Y102000D01*
X310796D01*
X312266Y102609D01*
X313391Y103734D01*
X314000Y105204D01*
Y106796D01*
X313391Y108266D01*
X312266Y109391D01*
X310796Y110000D01*
D02*
G37*
G36*
X270796D02*
X269204D01*
X267734Y109391D01*
X266609Y108266D01*
X266000Y106796D01*
Y105204D01*
X266609Y103734D01*
X267734Y102609D01*
X269204Y102000D01*
X270796D01*
X272266Y102609D01*
X273391Y103734D01*
X274000Y105204D01*
Y106796D01*
X273391Y108266D01*
X272266Y109391D01*
X270796Y110000D01*
D02*
G37*
G36*
X230796D02*
X229204D01*
X227734Y109391D01*
X226609Y108266D01*
X226000Y106796D01*
Y105204D01*
X226609Y103734D01*
X227734Y102609D01*
X229204Y102000D01*
X230796D01*
X232266Y102609D01*
X233391Y103734D01*
X234000Y105204D01*
Y106796D01*
X233391Y108266D01*
X232266Y109391D01*
X230796Y110000D01*
D02*
G37*
G36*
X190796D02*
X189204D01*
X187734Y109391D01*
X186609Y108266D01*
X186000Y106796D01*
Y105204D01*
X186609Y103734D01*
X187734Y102609D01*
X189204Y102000D01*
X190796D01*
X192266Y102609D01*
X193391Y103734D01*
X194000Y105204D01*
Y106796D01*
X193391Y108266D01*
X192266Y109391D01*
X190796Y110000D01*
D02*
G37*
G36*
X150796D02*
X149204D01*
X147734Y109391D01*
X146609Y108266D01*
X146000Y106796D01*
Y105204D01*
X146609Y103734D01*
X147734Y102609D01*
X149204Y102000D01*
X150796D01*
X152266Y102609D01*
X153391Y103734D01*
X154000Y105204D01*
Y106796D01*
X153391Y108266D01*
X152266Y109391D01*
X150796Y110000D01*
D02*
G37*
G36*
X110796D02*
X109204D01*
X107734Y109391D01*
X106609Y108266D01*
X106000Y106796D01*
Y105204D01*
X106609Y103734D01*
X107734Y102609D01*
X109204Y102000D01*
X110796D01*
X112266Y102609D01*
X113391Y103734D01*
X114000Y105204D01*
Y106796D01*
X113391Y108266D01*
X112266Y109391D01*
X110796Y110000D01*
D02*
G37*
G36*
X70796D02*
X69204D01*
X67734Y109391D01*
X66609Y108266D01*
X66000Y106796D01*
Y105204D01*
X66609Y103734D01*
X67734Y102609D01*
X69204Y102000D01*
X70796D01*
X72266Y102609D01*
X73391Y103734D01*
X74000Y105204D01*
Y106796D01*
X73391Y108266D01*
X72266Y109391D01*
X70796Y110000D01*
D02*
G37*
G36*
X30796D02*
X29204D01*
X27734Y109391D01*
X26609Y108266D01*
X26000Y106796D01*
Y105204D01*
X26609Y103734D01*
X27734Y102609D01*
X29204Y102000D01*
X30796D01*
X32266Y102609D01*
X33391Y103734D01*
X34000Y105204D01*
Y106796D01*
X33391Y108266D01*
X32266Y109391D01*
X30796Y110000D01*
D02*
G37*
G36*
X890796Y70000D02*
X889204D01*
X887734Y69391D01*
X886609Y68266D01*
X886000Y66796D01*
Y65204D01*
X886609Y63734D01*
X887734Y62609D01*
X889204Y62000D01*
X890796D01*
X892266Y62609D01*
X893391Y63734D01*
X894000Y65204D01*
Y66796D01*
X893391Y68266D01*
X892266Y69391D01*
X890796Y70000D01*
D02*
G37*
G36*
X850796D02*
X849204D01*
X847734Y69391D01*
X846609Y68266D01*
X846000Y66796D01*
Y65204D01*
X846609Y63734D01*
X847734Y62609D01*
X849204Y62000D01*
X850796D01*
X852266Y62609D01*
X853391Y63734D01*
X854000Y65204D01*
Y66796D01*
X853391Y68266D01*
X852266Y69391D01*
X850796Y70000D01*
D02*
G37*
G36*
X810796D02*
X809204D01*
X807734Y69391D01*
X806609Y68266D01*
X806000Y66796D01*
Y65204D01*
X806609Y63734D01*
X807734Y62609D01*
X809204Y62000D01*
X810796D01*
X812266Y62609D01*
X813391Y63734D01*
X814000Y65204D01*
Y66796D01*
X813391Y68266D01*
X812266Y69391D01*
X810796Y70000D01*
D02*
G37*
G36*
X770796D02*
X769204D01*
X767734Y69391D01*
X766609Y68266D01*
X766000Y66796D01*
Y65204D01*
X766609Y63734D01*
X767734Y62609D01*
X769204Y62000D01*
X770796D01*
X772266Y62609D01*
X773391Y63734D01*
X774000Y65204D01*
Y66796D01*
X773391Y68266D01*
X772266Y69391D01*
X770796Y70000D01*
D02*
G37*
G36*
X730796D02*
X729204D01*
X727734Y69391D01*
X726609Y68266D01*
X726000Y66796D01*
Y65204D01*
X726609Y63734D01*
X727734Y62609D01*
X729204Y62000D01*
X730796D01*
X732266Y62609D01*
X733391Y63734D01*
X734000Y65204D01*
Y66796D01*
X733391Y68266D01*
X732266Y69391D01*
X730796Y70000D01*
D02*
G37*
G36*
X690796D02*
X689204D01*
X687734Y69391D01*
X686609Y68266D01*
X686000Y66796D01*
Y65204D01*
X686609Y63734D01*
X687734Y62609D01*
X689204Y62000D01*
X690796D01*
X692266Y62609D01*
X693391Y63734D01*
X694000Y65204D01*
Y66796D01*
X693391Y68266D01*
X692266Y69391D01*
X690796Y70000D01*
D02*
G37*
G36*
X610796D02*
X609204D01*
X607734Y69391D01*
X606609Y68266D01*
X606000Y66796D01*
Y65204D01*
X606609Y63734D01*
X607734Y62609D01*
X609204Y62000D01*
X610796D01*
X612266Y62609D01*
X613391Y63734D01*
X614000Y65204D01*
Y66796D01*
X613391Y68266D01*
X612266Y69391D01*
X610796Y70000D01*
D02*
G37*
G36*
X570796D02*
X569204D01*
X567734Y69391D01*
X566609Y68266D01*
X566000Y66796D01*
Y65204D01*
X566609Y63734D01*
X567734Y62609D01*
X569204Y62000D01*
X570796D01*
X572266Y62609D01*
X573391Y63734D01*
X574000Y65204D01*
Y66796D01*
X573391Y68266D01*
X572266Y69391D01*
X570796Y70000D01*
D02*
G37*
G36*
X490796D02*
X489204D01*
X487734Y69391D01*
X486609Y68266D01*
X486000Y66796D01*
Y65204D01*
X486609Y63734D01*
X487734Y62609D01*
X489204Y62000D01*
X490796D01*
X492266Y62609D01*
X493391Y63734D01*
X494000Y65204D01*
Y66796D01*
X493391Y68266D01*
X492266Y69391D01*
X490796Y70000D01*
D02*
G37*
G36*
X450796D02*
X449204D01*
X447734Y69391D01*
X446609Y68266D01*
X446000Y66796D01*
Y65204D01*
X446609Y63734D01*
X447734Y62609D01*
X449204Y62000D01*
X450796D01*
X452266Y62609D01*
X453391Y63734D01*
X454000Y65204D01*
Y66796D01*
X453391Y68266D01*
X452266Y69391D01*
X450796Y70000D01*
D02*
G37*
G36*
X370796D02*
X369204D01*
X367734Y69391D01*
X366609Y68266D01*
X366000Y66796D01*
Y65204D01*
X366609Y63734D01*
X367734Y62609D01*
X369204Y62000D01*
X370796D01*
X372266Y62609D01*
X373391Y63734D01*
X374000Y65204D01*
Y66796D01*
X373391Y68266D01*
X372266Y69391D01*
X370796Y70000D01*
D02*
G37*
G36*
X330796D02*
X329204D01*
X327734Y69391D01*
X326609Y68266D01*
X326000Y66796D01*
Y65204D01*
X326609Y63734D01*
X327734Y62609D01*
X329204Y62000D01*
X330796D01*
X332266Y62609D01*
X333391Y63734D01*
X334000Y65204D01*
Y66796D01*
X333391Y68266D01*
X332266Y69391D01*
X330796Y70000D01*
D02*
G37*
G36*
X250796D02*
X249204D01*
X247734Y69391D01*
X246609Y68266D01*
X246000Y66796D01*
Y65204D01*
X246609Y63734D01*
X247734Y62609D01*
X249204Y62000D01*
X250796D01*
X252266Y62609D01*
X253391Y63734D01*
X254000Y65204D01*
Y66796D01*
X253391Y68266D01*
X252266Y69391D01*
X250796Y70000D01*
D02*
G37*
G36*
X210796D02*
X209204D01*
X207734Y69391D01*
X206609Y68266D01*
X206000Y66796D01*
Y65204D01*
X206609Y63734D01*
X207734Y62609D01*
X209204Y62000D01*
X210796D01*
X212266Y62609D01*
X213391Y63734D01*
X214000Y65204D01*
Y66796D01*
X213391Y68266D01*
X212266Y69391D01*
X210796Y70000D01*
D02*
G37*
G36*
X130796D02*
X129204D01*
X127734Y69391D01*
X126609Y68266D01*
X126000Y66796D01*
Y65204D01*
X126609Y63734D01*
X127734Y62609D01*
X129204Y62000D01*
X130796D01*
X132266Y62609D01*
X133391Y63734D01*
X134000Y65204D01*
Y66796D01*
X133391Y68266D01*
X132266Y69391D01*
X130796Y70000D01*
D02*
G37*
G36*
X90796D02*
X89204D01*
X87734Y69391D01*
X86609Y68266D01*
X86000Y66796D01*
Y65204D01*
X86609Y63734D01*
X87734Y62609D01*
X89204Y62000D01*
X90796D01*
X92266Y62609D01*
X93391Y63734D01*
X94000Y65204D01*
Y66796D01*
X93391Y68266D01*
X92266Y69391D01*
X90796Y70000D01*
D02*
G37*
G36*
X645223Y89000D02*
X641776D01*
X638395Y88328D01*
X635210Y87008D01*
X632344Y85093D01*
X629907Y82656D01*
X627991Y79790D01*
X626672Y76605D01*
X626000Y73224D01*
Y69777D01*
X626672Y66396D01*
X627991Y63211D01*
X629907Y60345D01*
X632344Y57907D01*
X635210Y55992D01*
X638395Y54673D01*
X641776Y54000D01*
X645223D01*
X648604Y54673D01*
X651789Y55992D01*
X654655Y57907D01*
X657093Y60345D01*
X659008Y63211D01*
X660327Y66396D01*
X661000Y69777D01*
Y73224D01*
X660327Y76605D01*
X659008Y79790D01*
X657093Y82656D01*
X654655Y85093D01*
X651789Y87008D01*
X648604Y88328D01*
X645223Y89000D01*
D02*
G37*
G36*
X519224D02*
X515776D01*
X512395Y88328D01*
X509211Y87008D01*
X506344Y85093D01*
X503907Y82656D01*
X501992Y79790D01*
X500672Y76605D01*
X500000Y73224D01*
Y69777D01*
X500672Y66396D01*
X501992Y63211D01*
X503907Y60345D01*
X506344Y57907D01*
X509211Y55992D01*
X512395Y54673D01*
X515776Y54000D01*
X519224D01*
X522604Y54673D01*
X525789Y55992D01*
X528656Y57907D01*
X531093Y60345D01*
X533008Y63211D01*
X534327Y66396D01*
X535000Y69777D01*
Y73224D01*
X534327Y76605D01*
X533008Y79790D01*
X531093Y82656D01*
X528656Y85093D01*
X525789Y87008D01*
X522604Y88328D01*
X519224Y89000D01*
D02*
G37*
G36*
X179974D02*
X176527D01*
X173146Y88328D01*
X169961Y87008D01*
X167094Y85093D01*
X164657Y82656D01*
X162742Y79790D01*
X161423Y76605D01*
X160750Y73224D01*
Y69777D01*
X161423Y66396D01*
X162742Y63211D01*
X164657Y60345D01*
X167094Y57907D01*
X169961Y55992D01*
X173146Y54673D01*
X176527Y54000D01*
X179974D01*
X183355Y54673D01*
X186539Y55992D01*
X189406Y57907D01*
X191843Y60345D01*
X193758Y63211D01*
X195078Y66396D01*
X195750Y69777D01*
Y73224D01*
X195078Y76605D01*
X193758Y79790D01*
X191843Y82656D01*
X189406Y85093D01*
X186539Y87008D01*
X183355Y88328D01*
X179974Y89000D01*
D02*
G37*
G36*
X53973D02*
X50526D01*
X47145Y88328D01*
X43960Y87008D01*
X41094Y85093D01*
X38657Y82656D01*
X36742Y79790D01*
X35422Y76605D01*
X34750Y73224D01*
Y69777D01*
X35422Y66396D01*
X36742Y63211D01*
X38657Y60345D01*
X41094Y57907D01*
X43960Y55992D01*
X47145Y54673D01*
X50526Y54000D01*
X53973D01*
X57354Y54673D01*
X60539Y55992D01*
X63405Y57907D01*
X65843Y60345D01*
X67758Y63211D01*
X69077Y66396D01*
X69750Y69777D01*
Y73224D01*
X69077Y76605D01*
X67758Y79790D01*
X65843Y82656D01*
X63405Y85093D01*
X60539Y87008D01*
X57354Y88328D01*
X53973Y89000D01*
D02*
G37*
G36*
X413224Y89000D02*
X409777D01*
X406396Y88328D01*
X403211Y87008D01*
X400345Y85093D01*
X397907Y82656D01*
X395992Y79789D01*
X394673Y76604D01*
X394000Y73224D01*
Y69776D01*
X394673Y66395D01*
X395992Y63211D01*
X397907Y60344D01*
X400345Y57907D01*
X403211Y55992D01*
X406396Y54672D01*
X409777Y54000D01*
X413224D01*
X416605Y54672D01*
X419790Y55992D01*
X422656Y57907D01*
X425093Y60344D01*
X427009Y63211D01*
X428328Y66395D01*
X429000Y69776D01*
Y73224D01*
X428328Y76604D01*
X427009Y79789D01*
X425093Y82656D01*
X422656Y85093D01*
X419790Y87008D01*
X416605Y88328D01*
X413224Y89000D01*
D02*
G37*
G36*
X287224D02*
X283776D01*
X280396Y88328D01*
X277211Y87008D01*
X274345Y85093D01*
X271907Y82656D01*
X269992Y79789D01*
X268673Y76604D01*
X268000Y73224D01*
Y69776D01*
X268673Y66395D01*
X269992Y63211D01*
X271907Y60344D01*
X274345Y57907D01*
X277211Y55992D01*
X280396Y54672D01*
X283776Y54000D01*
X287224D01*
X290605Y54672D01*
X293789Y55992D01*
X296656Y57907D01*
X299093Y60344D01*
X301008Y63211D01*
X302327Y66395D01*
X303000Y69776D01*
Y73224D01*
X302327Y76604D01*
X301008Y79789D01*
X299093Y82656D01*
X296656Y85093D01*
X293789Y87008D01*
X290605Y88328D01*
X287224Y89000D01*
D02*
G37*
G36*
X952095Y71270D02*
X947905D01*
X943796Y70453D01*
X939925Y68849D01*
X936441Y66522D01*
X933478Y63559D01*
X931151Y60075D01*
X929547Y56204D01*
X928730Y52095D01*
Y47905D01*
X929547Y43796D01*
X931151Y39925D01*
X933478Y36441D01*
X936441Y33479D01*
X939925Y31151D01*
X943796Y29547D01*
X947905Y28730D01*
X952095D01*
X956204Y29547D01*
X960075Y31151D01*
X963559Y33479D01*
X966522Y36441D01*
X968849Y39925D01*
X970453Y43796D01*
X971270Y47905D01*
Y52095D01*
X970453Y56204D01*
X968849Y60075D01*
X966522Y63559D01*
X963559Y66522D01*
X960075Y68849D01*
X956204Y70453D01*
X952095Y71270D01*
D02*
G37*
G36*
X910796Y30000D02*
X909204D01*
X907734Y29391D01*
X906609Y28266D01*
X906000Y26796D01*
Y25204D01*
X906609Y23734D01*
X907734Y22609D01*
X909204Y22000D01*
X910796D01*
X912266Y22609D01*
X913391Y23734D01*
X914000Y25204D01*
Y26796D01*
X913391Y28266D01*
X912266Y29391D01*
X910796Y30000D01*
D02*
G37*
G36*
X870796D02*
X869204D01*
X867734Y29391D01*
X866609Y28266D01*
X866000Y26796D01*
Y25204D01*
X866609Y23734D01*
X867734Y22609D01*
X869204Y22000D01*
X870796D01*
X872266Y22609D01*
X873391Y23734D01*
X874000Y25204D01*
Y26796D01*
X873391Y28266D01*
X872266Y29391D01*
X870796Y30000D01*
D02*
G37*
G36*
X830796D02*
X829204D01*
X827734Y29391D01*
X826609Y28266D01*
X826000Y26796D01*
Y25204D01*
X826609Y23734D01*
X827734Y22609D01*
X829204Y22000D01*
X830796D01*
X832266Y22609D01*
X833391Y23734D01*
X834000Y25204D01*
Y26796D01*
X833391Y28266D01*
X832266Y29391D01*
X830796Y30000D01*
D02*
G37*
G36*
X790796D02*
X789204D01*
X787734Y29391D01*
X786609Y28266D01*
X786000Y26796D01*
Y25204D01*
X786609Y23734D01*
X787734Y22609D01*
X789204Y22000D01*
X790796D01*
X792266Y22609D01*
X793391Y23734D01*
X794000Y25204D01*
Y26796D01*
X793391Y28266D01*
X792266Y29391D01*
X790796Y30000D01*
D02*
G37*
G36*
X750796D02*
X749204D01*
X747734Y29391D01*
X746609Y28266D01*
X746000Y26796D01*
Y25204D01*
X746609Y23734D01*
X747734Y22609D01*
X749204Y22000D01*
X750796D01*
X752266Y22609D01*
X753391Y23734D01*
X754000Y25204D01*
Y26796D01*
X753391Y28266D01*
X752266Y29391D01*
X750796Y30000D01*
D02*
G37*
G36*
X710796D02*
X709204D01*
X707734Y29391D01*
X706609Y28266D01*
X706000Y26796D01*
Y25204D01*
X706609Y23734D01*
X707734Y22609D01*
X709204Y22000D01*
X710796D01*
X712266Y22609D01*
X713391Y23734D01*
X714000Y25204D01*
Y26796D01*
X713391Y28266D01*
X712266Y29391D01*
X710796Y30000D01*
D02*
G37*
G36*
X670796D02*
X669204D01*
X667734Y29391D01*
X666609Y28266D01*
X666000Y26796D01*
Y25204D01*
X666609Y23734D01*
X667734Y22609D01*
X669204Y22000D01*
X670796D01*
X672266Y22609D01*
X673391Y23734D01*
X674000Y25204D01*
Y26796D01*
X673391Y28266D01*
X672266Y29391D01*
X670796Y30000D01*
D02*
G37*
G36*
X630796D02*
X629204D01*
X627734Y29391D01*
X626609Y28266D01*
X626000Y26796D01*
Y25204D01*
X626609Y23734D01*
X627734Y22609D01*
X629204Y22000D01*
X630796D01*
X632266Y22609D01*
X633391Y23734D01*
X634000Y25204D01*
Y26796D01*
X633391Y28266D01*
X632266Y29391D01*
X630796Y30000D01*
D02*
G37*
G36*
X590796D02*
X589204D01*
X587734Y29391D01*
X586609Y28266D01*
X586000Y26796D01*
Y25204D01*
X586609Y23734D01*
X587734Y22609D01*
X589204Y22000D01*
X590796D01*
X592266Y22609D01*
X593391Y23734D01*
X594000Y25204D01*
Y26796D01*
X593391Y28266D01*
X592266Y29391D01*
X590796Y30000D01*
D02*
G37*
G36*
X550796D02*
X549204D01*
X547734Y29391D01*
X546609Y28266D01*
X546000Y26796D01*
Y25204D01*
X546609Y23734D01*
X547734Y22609D01*
X549204Y22000D01*
X550796D01*
X552266Y22609D01*
X553391Y23734D01*
X554000Y25204D01*
Y26796D01*
X553391Y28266D01*
X552266Y29391D01*
X550796Y30000D01*
D02*
G37*
G36*
X510796D02*
X509204D01*
X507734Y29391D01*
X506609Y28266D01*
X506000Y26796D01*
Y25204D01*
X506609Y23734D01*
X507734Y22609D01*
X509204Y22000D01*
X510796D01*
X512266Y22609D01*
X513391Y23734D01*
X514000Y25204D01*
Y26796D01*
X513391Y28266D01*
X512266Y29391D01*
X510796Y30000D01*
D02*
G37*
G36*
X470796D02*
X469204D01*
X467734Y29391D01*
X466609Y28266D01*
X466000Y26796D01*
Y25204D01*
X466609Y23734D01*
X467734Y22609D01*
X469204Y22000D01*
X470796D01*
X472266Y22609D01*
X473391Y23734D01*
X474000Y25204D01*
Y26796D01*
X473391Y28266D01*
X472266Y29391D01*
X470796Y30000D01*
D02*
G37*
G36*
X430796D02*
X429204D01*
X427734Y29391D01*
X426609Y28266D01*
X426000Y26796D01*
Y25204D01*
X426609Y23734D01*
X427734Y22609D01*
X429204Y22000D01*
X430796D01*
X432266Y22609D01*
X433391Y23734D01*
X434000Y25204D01*
Y26796D01*
X433391Y28266D01*
X432266Y29391D01*
X430796Y30000D01*
D02*
G37*
G36*
X390796D02*
X389204D01*
X387734Y29391D01*
X386609Y28266D01*
X386000Y26796D01*
Y25204D01*
X386609Y23734D01*
X387734Y22609D01*
X389204Y22000D01*
X390796D01*
X392266Y22609D01*
X393391Y23734D01*
X394000Y25204D01*
Y26796D01*
X393391Y28266D01*
X392266Y29391D01*
X390796Y30000D01*
D02*
G37*
G36*
X350796D02*
X349204D01*
X347734Y29391D01*
X346609Y28266D01*
X346000Y26796D01*
Y25204D01*
X346609Y23734D01*
X347734Y22609D01*
X349204Y22000D01*
X350796D01*
X352266Y22609D01*
X353391Y23734D01*
X354000Y25204D01*
Y26796D01*
X353391Y28266D01*
X352266Y29391D01*
X350796Y30000D01*
D02*
G37*
G36*
X310796D02*
X309204D01*
X307734Y29391D01*
X306609Y28266D01*
X306000Y26796D01*
Y25204D01*
X306609Y23734D01*
X307734Y22609D01*
X309204Y22000D01*
X310796D01*
X312266Y22609D01*
X313391Y23734D01*
X314000Y25204D01*
Y26796D01*
X313391Y28266D01*
X312266Y29391D01*
X310796Y30000D01*
D02*
G37*
G36*
X270796D02*
X269204D01*
X267734Y29391D01*
X266609Y28266D01*
X266000Y26796D01*
Y25204D01*
X266609Y23734D01*
X267734Y22609D01*
X269204Y22000D01*
X270796D01*
X272266Y22609D01*
X273391Y23734D01*
X274000Y25204D01*
Y26796D01*
X273391Y28266D01*
X272266Y29391D01*
X270796Y30000D01*
D02*
G37*
G36*
X230796D02*
X229204D01*
X227734Y29391D01*
X226609Y28266D01*
X226000Y26796D01*
Y25204D01*
X226609Y23734D01*
X227734Y22609D01*
X229204Y22000D01*
X230796D01*
X232266Y22609D01*
X233391Y23734D01*
X234000Y25204D01*
Y26796D01*
X233391Y28266D01*
X232266Y29391D01*
X230796Y30000D01*
D02*
G37*
G36*
X190796D02*
X189204D01*
X187734Y29391D01*
X186609Y28266D01*
X186000Y26796D01*
Y25204D01*
X186609Y23734D01*
X187734Y22609D01*
X189204Y22000D01*
X190796D01*
X192266Y22609D01*
X193391Y23734D01*
X194000Y25204D01*
Y26796D01*
X193391Y28266D01*
X192266Y29391D01*
X190796Y30000D01*
D02*
G37*
G36*
X150796D02*
X149204D01*
X147734Y29391D01*
X146609Y28266D01*
X146000Y26796D01*
Y25204D01*
X146609Y23734D01*
X147734Y22609D01*
X149204Y22000D01*
X150796D01*
X152266Y22609D01*
X153391Y23734D01*
X154000Y25204D01*
Y26796D01*
X153391Y28266D01*
X152266Y29391D01*
X150796Y30000D01*
D02*
G37*
G36*
X110796D02*
X109204D01*
X107734Y29391D01*
X106609Y28266D01*
X106000Y26796D01*
Y25204D01*
X106609Y23734D01*
X107734Y22609D01*
X109204Y22000D01*
X110796D01*
X112266Y22609D01*
X113391Y23734D01*
X114000Y25204D01*
Y26796D01*
X113391Y28266D01*
X112266Y29391D01*
X110796Y30000D01*
D02*
G37*
G36*
X70796D02*
X69204D01*
X67734Y29391D01*
X66609Y28266D01*
X66000Y26796D01*
Y25204D01*
X66609Y23734D01*
X67734Y22609D01*
X69204Y22000D01*
X70796D01*
X72266Y22609D01*
X73391Y23734D01*
X74000Y25204D01*
Y26796D01*
X73391Y28266D01*
X72266Y29391D01*
X70796Y30000D01*
D02*
G37*
G36*
X30796D02*
X29204D01*
X27734Y29391D01*
X26609Y28266D01*
X26000Y26796D01*
Y25204D01*
X26609Y23734D01*
X27734Y22609D01*
X29204Y22000D01*
X30796D01*
X32266Y22609D01*
X33391Y23734D01*
X34000Y25204D01*
Y26796D01*
X33391Y28266D01*
X32266Y29391D01*
X30796Y30000D01*
D02*
G37*
%LPD*%
D13*
X718630Y633270D02*
X782730D01*
X517020D02*
X701630D01*
X436500Y552750D02*
X517020Y633270D01*
X208000Y603250D02*
X258500Y552750D01*
X436500D01*
X208000Y603250D02*
Y646250D01*
X506000Y644000D02*
X607259D01*
X613166Y649907D01*
X782730Y633270D02*
X813000Y603000D01*
X187000Y667250D02*
X208000Y646250D01*
X391250Y803750D02*
X410966Y784034D01*
X215450Y803750D02*
X391250D01*
X215448Y803751D02*
X215450Y803750D01*
X410966Y752686D02*
Y784034D01*
Y752686D02*
X432907Y730745D01*
X606381D01*
X613166Y723960D01*
Y649907D02*
Y723960D01*
D50*
X325000Y581250D02*
D03*
X90750Y560250D02*
D03*
X637650Y434250D02*
D03*
X523350D02*
D03*
X405650Y434250D02*
D03*
X291350D02*
D03*
X172400Y434250D02*
D03*
X58100D02*
D03*
D60*
X522000Y763000D02*
D03*
X480000D02*
D03*
X438000D02*
D03*
X522000Y805000D02*
D03*
X480000D02*
D03*
X187000Y667250D02*
D03*
Y625250D02*
D03*
Y583250D02*
D03*
X145000Y667250D02*
D03*
Y625250D02*
D03*
X780000Y805000D02*
D03*
X822000D02*
D03*
X738000Y763000D02*
D03*
X780000D02*
D03*
X822000D02*
D03*
X517500Y186500D02*
D03*
X559500D02*
D03*
X601500D02*
D03*
X643500D02*
D03*
X517500Y144500D02*
D03*
X559500D02*
D03*
X601500D02*
D03*
X813000Y477000D02*
D03*
Y519000D02*
D03*
Y561000D02*
D03*
Y603000D02*
D03*
X855000Y477000D02*
D03*
Y519000D02*
D03*
Y561000D02*
D03*
X52250Y186500D02*
D03*
X94250D02*
D03*
X136250D02*
D03*
X178250D02*
D03*
X52250Y144500D02*
D03*
X94250D02*
D03*
X136250D02*
D03*
X285500Y186500D02*
D03*
X327500D02*
D03*
X369500D02*
D03*
X411500D02*
D03*
X285500Y144500D02*
D03*
X327500D02*
D03*
X369500D02*
D03*
X672000Y763000D02*
D03*
X630000D02*
D03*
X588000D02*
D03*
X672000Y805000D02*
D03*
X630000D02*
D03*
D61*
X438000Y805000D02*
D03*
X738000D02*
D03*
X643500Y144500D02*
D03*
X178250D02*
D03*
X411500Y144500D02*
D03*
X588000Y805000D02*
D03*
D62*
X522000Y878000D02*
D03*
X438000D02*
D03*
X72000Y667250D02*
D03*
Y583250D02*
D03*
X738000Y878000D02*
D03*
X822000D02*
D03*
X517500Y71500D02*
D03*
X643500D02*
D03*
X928000Y477000D02*
D03*
Y603000D02*
D03*
X52250Y71500D02*
D03*
X178250D02*
D03*
X285500Y71500D02*
D03*
X411500D02*
D03*
X672000Y878000D02*
D03*
X588000D02*
D03*
D64*
X145000Y583250D02*
D03*
X855000Y603000D02*
D03*
D66*
X799444Y710955D02*
D03*
Y669045D02*
D03*
X854562D02*
D03*
D67*
Y710955D02*
D03*
D68*
X927460Y690000D02*
D03*
D79*
X286250Y860000D02*
D03*
X298950D02*
D03*
X311650D02*
D03*
X324350D02*
D03*
X337050D02*
D03*
X286250Y900300D02*
D03*
X298950D02*
D03*
X311650D02*
D03*
X324350D02*
D03*
X337050D02*
D03*
D80*
X765000Y280000D02*
D03*
X915000D02*
D03*
D81*
X355000Y803750D02*
D03*
X718630Y633270D02*
D03*
X701630D02*
D03*
X690000Y626000D02*
D03*
X355000Y815000D02*
D03*
X950000Y826000D02*
D03*
X930000Y866000D02*
D03*
X970000D02*
D03*
Y786000D02*
D03*
X950000Y746000D02*
D03*
X970000Y706000D02*
D03*
X950000Y666000D02*
D03*
X970000Y626000D02*
D03*
X950000Y586000D02*
D03*
X970000Y546000D02*
D03*
X950000Y506000D02*
D03*
X970000Y466000D02*
D03*
X950000Y426000D02*
D03*
X970000Y386000D02*
D03*
X950000Y346000D02*
D03*
X970000Y306000D02*
D03*
X950000Y266000D02*
D03*
X970000Y226000D02*
D03*
X950000Y186000D02*
D03*
X970000Y146000D02*
D03*
X950000Y106000D02*
D03*
X910000Y906000D02*
D03*
Y746000D02*
D03*
Y666000D02*
D03*
X930000Y626000D02*
D03*
X910000Y586000D02*
D03*
X930000Y546000D02*
D03*
X910000Y506000D02*
D03*
Y426000D02*
D03*
X930000Y386000D02*
D03*
X910000Y346000D02*
D03*
X930000Y306000D02*
D03*
Y226000D02*
D03*
X910000Y186000D02*
D03*
X930000Y146000D02*
D03*
X910000Y106000D02*
D03*
Y26000D02*
D03*
X870000Y906000D02*
D03*
Y826000D02*
D03*
X890000Y786000D02*
D03*
X870000Y746000D02*
D03*
X890000Y706000D02*
D03*
Y626000D02*
D03*
Y546000D02*
D03*
Y466000D02*
D03*
X870000Y426000D02*
D03*
X890000Y386000D02*
D03*
X870000Y346000D02*
D03*
X890000Y306000D02*
D03*
X870000Y266000D02*
D03*
X890000Y226000D02*
D03*
X870000Y186000D02*
D03*
X890000Y146000D02*
D03*
X870000Y106000D02*
D03*
X890000Y66000D02*
D03*
X870000Y26000D02*
D03*
X830000Y906000D02*
D03*
X850000Y866000D02*
D03*
Y786000D02*
D03*
X830000Y666000D02*
D03*
Y506000D02*
D03*
Y426000D02*
D03*
X850000Y386000D02*
D03*
X830000Y346000D02*
D03*
X850000Y306000D02*
D03*
X830000Y266000D02*
D03*
X850000Y226000D02*
D03*
X830000Y186000D02*
D03*
X850000Y146000D02*
D03*
X830000Y106000D02*
D03*
X850000Y66000D02*
D03*
X830000Y26000D02*
D03*
X790000Y906000D02*
D03*
X810000Y626000D02*
D03*
X790000Y506000D02*
D03*
Y426000D02*
D03*
X810000Y386000D02*
D03*
X790000Y346000D02*
D03*
X810000Y306000D02*
D03*
Y226000D02*
D03*
X790000Y186000D02*
D03*
X810000Y146000D02*
D03*
X790000Y106000D02*
D03*
X810000Y66000D02*
D03*
X790000Y26000D02*
D03*
X750000Y906000D02*
D03*
X770000Y866000D02*
D03*
Y626000D02*
D03*
X750000Y506000D02*
D03*
X770000Y466000D02*
D03*
X750000Y426000D02*
D03*
Y346000D02*
D03*
X770000Y226000D02*
D03*
X750000Y186000D02*
D03*
X770000Y146000D02*
D03*
X750000Y106000D02*
D03*
X770000Y66000D02*
D03*
X750000Y26000D02*
D03*
X710000Y906000D02*
D03*
X730000Y626000D02*
D03*
X710000Y506000D02*
D03*
Y426000D02*
D03*
X730000Y386000D02*
D03*
X710000Y346000D02*
D03*
X730000Y306000D02*
D03*
X710000Y266000D02*
D03*
X730000Y226000D02*
D03*
X710000Y186000D02*
D03*
X730000Y146000D02*
D03*
X710000Y106000D02*
D03*
X730000Y66000D02*
D03*
X710000Y26000D02*
D03*
X670000Y906000D02*
D03*
X690000Y866000D02*
D03*
X670000Y506000D02*
D03*
X690000Y466000D02*
D03*
Y306000D02*
D03*
Y226000D02*
D03*
Y146000D02*
D03*
X670000Y106000D02*
D03*
X690000Y66000D02*
D03*
X670000Y26000D02*
D03*
X630000Y906000D02*
D03*
X650000Y866000D02*
D03*
X630000Y506000D02*
D03*
X650000Y466000D02*
D03*
X630000Y106000D02*
D03*
Y26000D02*
D03*
X590000Y906000D02*
D03*
X610000Y866000D02*
D03*
X590000Y266000D02*
D03*
Y106000D02*
D03*
X610000Y66000D02*
D03*
X590000Y26000D02*
D03*
X550000Y906000D02*
D03*
X570000Y866000D02*
D03*
X550000Y106000D02*
D03*
X570000Y66000D02*
D03*
X550000Y26000D02*
D03*
X510000Y906000D02*
D03*
X530000Y626000D02*
D03*
X510000Y106000D02*
D03*
Y26000D02*
D03*
X470000Y906000D02*
D03*
X490000Y866000D02*
D03*
X470000Y666000D02*
D03*
X490000Y626000D02*
D03*
Y466000D02*
D03*
X470000Y346000D02*
D03*
Y266000D02*
D03*
Y186000D02*
D03*
X490000Y146000D02*
D03*
X470000Y106000D02*
D03*
X490000Y66000D02*
D03*
X470000Y26000D02*
D03*
X430000Y906000D02*
D03*
X450000Y706000D02*
D03*
Y466000D02*
D03*
Y306000D02*
D03*
Y146000D02*
D03*
X430000Y106000D02*
D03*
X450000Y66000D02*
D03*
X430000Y26000D02*
D03*
X390000Y906000D02*
D03*
X410000Y866000D02*
D03*
X390000Y826000D02*
D03*
Y746000D02*
D03*
X410000Y546000D02*
D03*
Y466000D02*
D03*
X390000Y106000D02*
D03*
Y26000D02*
D03*
X350000Y826000D02*
D03*
X370000Y786000D02*
D03*
Y386000D02*
D03*
X350000Y266000D02*
D03*
Y106000D02*
D03*
X370000Y66000D02*
D03*
X350000Y26000D02*
D03*
X330000Y786000D02*
D03*
X310000Y106000D02*
D03*
X330000Y66000D02*
D03*
X310000Y26000D02*
D03*
X290000Y466000D02*
D03*
Y386000D02*
D03*
X270000Y106000D02*
D03*
Y26000D02*
D03*
X250000Y866000D02*
D03*
Y706000D02*
D03*
Y546000D02*
D03*
Y466000D02*
D03*
X230000Y426000D02*
D03*
Y346000D02*
D03*
Y266000D02*
D03*
Y186000D02*
D03*
X250000Y146000D02*
D03*
X230000Y106000D02*
D03*
X250000Y66000D02*
D03*
X230000Y26000D02*
D03*
X210000Y546000D02*
D03*
Y466000D02*
D03*
Y146000D02*
D03*
X190000Y106000D02*
D03*
X210000Y66000D02*
D03*
X190000Y26000D02*
D03*
X170000Y786000D02*
D03*
Y706000D02*
D03*
Y546000D02*
D03*
Y466000D02*
D03*
X150000Y106000D02*
D03*
Y26000D02*
D03*
X130000Y866000D02*
D03*
X110000Y826000D02*
D03*
X130000Y546000D02*
D03*
Y386000D02*
D03*
X110000Y106000D02*
D03*
X130000Y66000D02*
D03*
X110000Y26000D02*
D03*
X90000Y866000D02*
D03*
X70000Y826000D02*
D03*
X90000Y706000D02*
D03*
Y626000D02*
D03*
X70000Y106000D02*
D03*
X90000Y66000D02*
D03*
X70000Y26000D02*
D03*
X50000Y866000D02*
D03*
Y706000D02*
D03*
Y626000D02*
D03*
X30000Y586000D02*
D03*
X50000Y546000D02*
D03*
X30000Y106000D02*
D03*
Y26000D02*
D03*
X233000Y758500D02*
D03*
X211500Y758500D02*
D03*
X188250Y755166D02*
D03*
X170750Y732167D02*
D03*
X350250Y530000D02*
D03*
X345250Y535000D02*
D03*
X176750Y318000D02*
D03*
X421000Y716250D02*
D03*
X168750Y279250D02*
D03*
X177250Y255250D02*
D03*
X53500Y255359D02*
D03*
X89000Y255250D02*
D03*
X62000Y278750D02*
D03*
X410000Y318000D02*
D03*
X402000Y279250D02*
D03*
X410500Y255250D02*
D03*
X286750Y255358D02*
D03*
X322250Y255250D02*
D03*
X295250Y278750D02*
D03*
X527250Y278750D02*
D03*
X554250Y255250D02*
D03*
X518750Y255359D02*
D03*
X642500Y255250D02*
D03*
X634000Y279250D02*
D03*
X519001Y318100D02*
D03*
X642000Y318000D02*
D03*
X62250Y360500D02*
D03*
X99000Y360500D02*
D03*
X295500Y360500D02*
D03*
X332250Y360500D02*
D03*
X564250Y360500D02*
D03*
X527500Y360500D02*
D03*
X288500Y318100D02*
D03*
X53750Y318100D02*
D03*
X141500Y255250D02*
D03*
X374750Y255250D02*
D03*
X606750Y255250D02*
D03*
X273250Y622750D02*
D03*
X600750Y651500D02*
D03*
X219000Y622000D02*
D03*
X189750Y801000D02*
D03*
X185000Y827750D02*
D03*
Y817250D02*
D03*
X74000Y747250D02*
D03*
X749861Y448496D02*
D03*
X704750Y465000D02*
D03*
X223500Y810250D02*
D03*
X254000Y829000D02*
D03*
X683100Y706250D02*
D03*
X360250Y695750D02*
D03*
X369500Y671250D02*
D03*
X330000Y640500D02*
D03*
X335000Y647000D02*
D03*
X340000Y653500D02*
D03*
X355000Y647000D02*
D03*
X312750Y677900D02*
D03*
X311500Y732250D02*
D03*
X615000Y544750D02*
D03*
X415000Y577000D02*
D03*
X430000Y592000D02*
D03*
X425000Y587000D02*
D03*
X420000Y582000D02*
D03*
X340250Y540000D02*
D03*
X335250Y545000D02*
D03*
X659500Y224250D02*
D03*
X671500Y271100D02*
D03*
X625000Y255250D02*
D03*
X594750Y395500D02*
D03*
X599550Y417500D02*
D03*
X548750D02*
D03*
X548750Y464000D02*
D03*
X599500D02*
D03*
X599550Y434250D02*
D03*
X624500Y373500D02*
D03*
X549000Y393500D02*
D03*
X548750Y434250D02*
D03*
X536000Y255350D02*
D03*
X657750Y356750D02*
D03*
Y365750D02*
D03*
X657750Y394500D02*
D03*
Y403500D02*
D03*
X673750D02*
D03*
X673750Y365750D02*
D03*
X502750Y403500D02*
D03*
Y394500D02*
D03*
X502750Y365750D02*
D03*
Y356750D02*
D03*
X486750Y394500D02*
D03*
X486750Y356750D02*
D03*
X490000Y272100D02*
D03*
X427500Y224250D02*
D03*
X439500Y271100D02*
D03*
X393000Y255250D02*
D03*
X362750Y395500D02*
D03*
X367550Y417500D02*
D03*
X316750D02*
D03*
X316750Y464000D02*
D03*
X367500D02*
D03*
X367550Y434250D02*
D03*
X392500Y373500D02*
D03*
X317000Y393500D02*
D03*
X316750Y434250D02*
D03*
X304000Y255350D02*
D03*
X425750Y356750D02*
D03*
Y365750D02*
D03*
X425750Y394500D02*
D03*
Y403500D02*
D03*
X441750D02*
D03*
X441750Y365750D02*
D03*
X270750Y403500D02*
D03*
Y394500D02*
D03*
X270751Y365750D02*
D03*
Y356750D02*
D03*
X254750Y394500D02*
D03*
X254750Y356750D02*
D03*
X258000Y272100D02*
D03*
X194250Y224250D02*
D03*
X206250Y271100D02*
D03*
X159750Y255250D02*
D03*
X129500Y395500D02*
D03*
X285250Y530000D02*
D03*
X280250Y535000D02*
D03*
X270250Y545000D02*
D03*
X275250Y540000D02*
D03*
X134300Y417500D02*
D03*
X83500D02*
D03*
X83500Y464000D02*
D03*
X134250D02*
D03*
X134300Y434250D02*
D03*
X159250Y373500D02*
D03*
X83750Y393500D02*
D03*
X83500Y434250D02*
D03*
X70750Y255350D02*
D03*
X192500Y356750D02*
D03*
Y365750D02*
D03*
X192500Y394500D02*
D03*
Y403500D02*
D03*
X208500D02*
D03*
X208500Y365750D02*
D03*
X37500Y403500D02*
D03*
Y394500D02*
D03*
X37500Y365750D02*
D03*
Y356750D02*
D03*
X21500Y394500D02*
D03*
X21500Y356750D02*
D03*
X24750Y272100D02*
D03*
X219000Y632750D02*
D03*
X170750Y755166D02*
D03*
X188250Y732167D02*
D03*
X218125Y743750D02*
D03*
X226375D02*
D03*
X330000Y733750D02*
D03*
X298950Y860000D02*
D03*
X286250D02*
D03*
Y900300D02*
D03*
X298950D02*
D03*
X311650D02*
D03*
X324350D02*
D03*
X337050D02*
D03*
Y860000D02*
D03*
X324350D02*
D03*
X311650D02*
D03*
X207500Y883700D02*
D03*
X261350Y632000D02*
D03*
X290250Y750000D02*
D03*
X121500Y895500D02*
D03*
X223500Y795000D02*
D03*
X112300Y749250D02*
D03*
X95526D02*
D03*
X56000Y834500D02*
D03*
Y825500D02*
D03*
X40000Y834500D02*
D03*
Y825500D02*
D03*
X56000Y785250D02*
D03*
Y794250D02*
D03*
X40000D02*
D03*
Y785250D02*
D03*
X40000Y746000D02*
D03*
Y755000D02*
D03*
X56000D02*
D03*
Y746000D02*
D03*
X215448Y816501D02*
D03*
Y803751D02*
D03*
X153948Y815001D02*
D03*
X260963Y604959D02*
D03*
X295100Y596500D02*
D03*
X261100Y595500D02*
D03*
X265250Y578250D02*
D03*
X366500Y578250D02*
D03*
X379000D02*
D03*
X396000Y716750D02*
D03*
X261500Y695750D02*
D03*
X261059Y675250D02*
D03*
X261350Y647000D02*
D03*
X158250Y896250D02*
D03*
Y863750D02*
D03*
X109000Y895500D02*
D03*
X207500Y896250D02*
D03*
X714250Y557500D02*
D03*
X700000Y686500D02*
D03*
X645000Y608750D02*
D03*
X691000Y602500D02*
D03*
X655750Y686000D02*
D03*
X670000Y557250D02*
D03*
X696937Y577250D02*
D03*
X683000Y666500D02*
D03*
X678000Y602500D02*
D03*
X664000Y641250D02*
D03*
D82*
X424500Y343250D02*
D03*
X191500D02*
D03*
X655130Y343250D02*
D03*
X502750D02*
D03*
X580750Y343000D02*
D03*
X270751Y343250D02*
D03*
X348750Y343000D02*
D03*
X37500Y343250D02*
D03*
X115500Y343000D02*
D03*
X642437Y537500D02*
D03*
Y577250D02*
D03*
X628650Y666500D02*
D03*
Y706250D02*
D03*
D83*
X589174Y714289D02*
D03*
X564674D02*
D03*
X605981Y624500D02*
D03*
X533250Y668000D02*
D03*
X506000Y644000D02*
D03*
D84*
X50000Y500000D02*
D03*
X950000Y900000D02*
D03*
Y50000D02*
D03*
X50000Y900000D02*
D03*
M02*
