G04*
G04 #@! TF.GenerationSoftware,Altium Limited,Altium Designer,24.2.2 (26)*
G04*
G04 Layer_Color=2752767*
%FSLAX44Y44*%
%MOMM*%
G71*
G04*
G04 #@! TF.SameCoordinates,5A119275-FC27-4C3E-9DDE-49B88916FCE2*
G04*
G04*
G04 #@! TF.FilePolarity,Positive*
G04*
G01*
G75*
%ADD14C,0.1270*%
%ADD114C,0.1693*%
D14*
X522000Y757920D02*
X516920Y768080D01*
X527080D01*
X522000Y757920D01*
X480000D02*
X474920Y768080D01*
X485080D01*
X480000Y757920D01*
X438000D02*
X432920Y768080D01*
X443080D01*
X438000Y757920D01*
X522000Y799920D02*
X516920Y810080D01*
X527080D01*
X522000Y799920D01*
X480000D02*
X474920Y810080D01*
X485080D01*
X480000Y799920D01*
X438000D02*
X432920Y810080D01*
X443080D01*
X438000Y799920D01*
X187000Y662170D02*
X181920Y672330D01*
X192080D01*
X187000Y662170D01*
Y620170D02*
X181920Y630330D01*
X192080D01*
X187000Y620170D01*
Y578170D02*
X181920Y588330D01*
X192080D01*
X187000Y578170D01*
X145000Y662170D02*
X139920Y672330D01*
X150080D01*
X145000Y662170D01*
Y620170D02*
X139920Y630330D01*
X150080D01*
X145000Y620170D01*
Y578170D02*
X139920Y588330D01*
X150080D01*
X145000Y578170D01*
X738000Y799920D02*
X732920Y810080D01*
X743080D01*
X738000Y799920D01*
X780000D02*
X774920Y810080D01*
X785080D01*
X780000Y799920D01*
X822000D02*
X816920Y810080D01*
X827080D01*
X822000Y799920D01*
X738000Y757920D02*
X732920Y768080D01*
X743080D01*
X738000Y757920D01*
X780000D02*
X774920Y768080D01*
X785080D01*
X780000Y757920D01*
X822000D02*
X816920Y768080D01*
X827080D01*
X822000Y757920D01*
X759920Y274920D02*
Y285080D01*
X770080D01*
Y274920D01*
X759920D01*
X909920D02*
Y285080D01*
X920080D01*
Y274920D01*
X909920D01*
X517500Y181420D02*
X512420Y191580D01*
X522580D01*
X517500Y181420D01*
X559500D02*
X554420Y191580D01*
X564580D01*
X559500Y181420D01*
X601500D02*
X596420Y191580D01*
X606580D01*
X601500Y181420D01*
X643500D02*
X638420Y191580D01*
X648580D01*
X643500Y181420D01*
X517500Y139420D02*
X512420Y149580D01*
X522580D01*
X517500Y139420D01*
X559500D02*
X554420Y149580D01*
X564580D01*
X559500Y139420D01*
X601500D02*
X596420Y149580D01*
X606580D01*
X601500Y139420D01*
X643500D02*
X638420Y149580D01*
X648580D01*
X643500Y139420D01*
X813000Y471920D02*
X807920Y482080D01*
X818080D01*
X813000Y471920D01*
Y513920D02*
X807920Y524080D01*
X818080D01*
X813000Y513920D01*
Y555920D02*
X807920Y566080D01*
X818080D01*
X813000Y555920D01*
Y597920D02*
X807920Y608080D01*
X818080D01*
X813000Y597920D01*
X855000Y471920D02*
X849920Y482080D01*
X860080D01*
X855000Y471920D01*
Y513920D02*
X849920Y524080D01*
X860080D01*
X855000Y513920D01*
Y555920D02*
X849920Y566080D01*
X860080D01*
X855000Y555920D01*
Y597920D02*
X849920Y608080D01*
X860080D01*
X855000Y597920D01*
X52250Y181420D02*
X47170Y191580D01*
X57330D01*
X52250Y181420D01*
X94250D02*
X89170Y191580D01*
X99330D01*
X94250Y181420D01*
X136250D02*
X131170Y191580D01*
X141330D01*
X136250Y181420D01*
X178250D02*
X173170Y191580D01*
X183330D01*
X178250Y181420D01*
X52250Y139420D02*
X47170Y149580D01*
X57330D01*
X52250Y139420D01*
X94250D02*
X89170Y149580D01*
X99330D01*
X94250Y139420D01*
X136250D02*
X131170Y149580D01*
X141330D01*
X136250Y139420D01*
X178250D02*
X173170Y149580D01*
X183330D01*
X178250Y139420D01*
X285500Y181420D02*
X280420Y191580D01*
X290580D01*
X285500Y181420D01*
X327500D02*
X322420Y191580D01*
X332580D01*
X327500Y181420D01*
X369500D02*
X364420Y191580D01*
X374580D01*
X369500Y181420D01*
X411500D02*
X406420Y191580D01*
X416580D01*
X411500Y181420D01*
X285500Y139420D02*
X280420Y149580D01*
X290580D01*
X285500Y139420D01*
X327500D02*
X322420Y149580D01*
X332580D01*
X327500Y139420D01*
X369500D02*
X364420Y149580D01*
X374580D01*
X369500Y139420D01*
X411500D02*
X406420Y149580D01*
X416580D01*
X411500Y139420D01*
X799444Y705875D02*
X801984Y708415D01*
X804524D01*
X801984Y710955D01*
X804524Y713495D01*
X801984D01*
X799444Y716035D01*
X796904Y713495D01*
X794364D01*
X796904Y710955D01*
X794364Y708415D01*
X796904D01*
X799444Y705875D01*
Y663965D02*
X801984Y666505D01*
X804524D01*
X801984Y669045D01*
X804524Y671585D01*
X801984D01*
X799444Y674125D01*
X796904Y671585D01*
X794364D01*
X796904Y669045D01*
X794364Y666505D01*
X796904D01*
X799444Y663965D01*
X854562D02*
X857102Y666505D01*
X859642D01*
X857102Y669045D01*
X859642Y671585D01*
X857102D01*
X854562Y674125D01*
X852022Y671585D01*
X849482D01*
X852022Y669045D01*
X849482Y666505D01*
X852022D01*
X854562Y663965D01*
Y705875D02*
X857102Y708415D01*
X859642D01*
X857102Y710955D01*
X859642Y713495D01*
X857102D01*
X854562Y716035D01*
X852022Y713495D01*
X849482D01*
X852022Y710955D01*
X849482Y708415D01*
X852022D01*
X854562Y705875D01*
X922380Y684920D02*
X924920Y690000D01*
X922380Y695080D01*
X927460Y692540D01*
X932540Y695080D01*
X930000Y690000D01*
X932540Y684920D01*
X927460Y687460D01*
X922380Y684920D01*
X672000Y757920D02*
X666920Y768080D01*
X677080D01*
X672000Y757920D01*
X630000D02*
X624920Y768080D01*
X635080D01*
X630000Y757920D01*
X588000D02*
X582920Y768080D01*
X593080D01*
X588000Y757920D01*
X672000Y799920D02*
X666920Y810080D01*
X677080D01*
X672000Y799920D01*
X630000D02*
X624920Y810080D01*
X635080D01*
X630000Y799920D01*
X588000D02*
X582920Y810080D01*
X593080D01*
X588000Y799920D01*
X352460Y801210D02*
Y798670D01*
X357540D01*
Y801210D01*
X360080D01*
Y806290D01*
X357540D01*
Y808830D01*
X352460D01*
Y806290D01*
X349920D01*
Y801210D01*
X352460D01*
X716090Y630730D02*
Y628190D01*
X721170D01*
Y630730D01*
X723710D01*
Y635810D01*
X721170D01*
Y638350D01*
X716090D01*
Y635810D01*
X713550D01*
Y630730D01*
X716090D01*
X699090D02*
Y628190D01*
X704170D01*
Y630730D01*
X706710D01*
Y635810D01*
X704170D01*
Y638350D01*
X699090D01*
Y635810D01*
X696550D01*
Y630730D01*
X699090D01*
X687460Y623460D02*
Y620920D01*
X692540D01*
Y623460D01*
X695080D01*
Y628540D01*
X692540D01*
Y631080D01*
X687460D01*
Y628540D01*
X684920D01*
Y623460D01*
X687460D01*
X352460Y812460D02*
Y809920D01*
X357540D01*
Y812460D01*
X360080D01*
Y817540D01*
X357540D01*
Y820080D01*
X352460D01*
Y817540D01*
X349920D01*
Y812460D01*
X352460D01*
X947460Y823460D02*
Y820920D01*
X952540D01*
Y823460D01*
X955080D01*
Y828540D01*
X952540D01*
Y831080D01*
X947460D01*
Y828540D01*
X944920D01*
Y823460D01*
X947460D01*
X927460Y863460D02*
Y860920D01*
X932540D01*
Y863460D01*
X935080D01*
Y868540D01*
X932540D01*
Y871080D01*
X927460D01*
Y868540D01*
X924920D01*
Y863460D01*
X927460D01*
X967460D02*
Y860920D01*
X972540D01*
Y863460D01*
X975080D01*
Y868540D01*
X972540D01*
Y871080D01*
X967460D01*
Y868540D01*
X964920D01*
Y863460D01*
X967460D01*
Y783460D02*
Y780920D01*
X972540D01*
Y783460D01*
X975080D01*
Y788540D01*
X972540D01*
Y791080D01*
X967460D01*
Y788540D01*
X964920D01*
Y783460D01*
X967460D01*
X947460Y743460D02*
Y740920D01*
X952540D01*
Y743460D01*
X955080D01*
Y748540D01*
X952540D01*
Y751080D01*
X947460D01*
Y748540D01*
X944920D01*
Y743460D01*
X947460D01*
X967460Y703460D02*
Y700920D01*
X972540D01*
Y703460D01*
X975080D01*
Y708540D01*
X972540D01*
Y711080D01*
X967460D01*
Y708540D01*
X964920D01*
Y703460D01*
X967460D01*
X947460Y663460D02*
Y660920D01*
X952540D01*
Y663460D01*
X955080D01*
Y668540D01*
X952540D01*
Y671080D01*
X947460D01*
Y668540D01*
X944920D01*
Y663460D01*
X947460D01*
X967460Y623460D02*
Y620920D01*
X972540D01*
Y623460D01*
X975080D01*
Y628540D01*
X972540D01*
Y631080D01*
X967460D01*
Y628540D01*
X964920D01*
Y623460D01*
X967460D01*
X947460Y583460D02*
Y580920D01*
X952540D01*
Y583460D01*
X955080D01*
Y588540D01*
X952540D01*
Y591080D01*
X947460D01*
Y588540D01*
X944920D01*
Y583460D01*
X947460D01*
X967460Y543460D02*
Y540920D01*
X972540D01*
Y543460D01*
X975080D01*
Y548540D01*
X972540D01*
Y551080D01*
X967460D01*
Y548540D01*
X964920D01*
Y543460D01*
X967460D01*
X947460Y503460D02*
Y500920D01*
X952540D01*
Y503460D01*
X955080D01*
Y508540D01*
X952540D01*
Y511080D01*
X947460D01*
Y508540D01*
X944920D01*
Y503460D01*
X947460D01*
X967460Y463460D02*
Y460920D01*
X972540D01*
Y463460D01*
X975080D01*
Y468540D01*
X972540D01*
Y471080D01*
X967460D01*
Y468540D01*
X964920D01*
Y463460D01*
X967460D01*
X947460Y423460D02*
Y420920D01*
X952540D01*
Y423460D01*
X955080D01*
Y428540D01*
X952540D01*
Y431080D01*
X947460D01*
Y428540D01*
X944920D01*
Y423460D01*
X947460D01*
X967460Y383460D02*
Y380920D01*
X972540D01*
Y383460D01*
X975080D01*
Y388540D01*
X972540D01*
Y391080D01*
X967460D01*
Y388540D01*
X964920D01*
Y383460D01*
X967460D01*
X947460Y343460D02*
Y340920D01*
X952540D01*
Y343460D01*
X955080D01*
Y348540D01*
X952540D01*
Y351080D01*
X947460D01*
Y348540D01*
X944920D01*
Y343460D01*
X947460D01*
X967460Y303460D02*
Y300920D01*
X972540D01*
Y303460D01*
X975080D01*
Y308540D01*
X972540D01*
Y311080D01*
X967460D01*
Y308540D01*
X964920D01*
Y303460D01*
X967460D01*
X947460Y263460D02*
Y260920D01*
X952540D01*
Y263460D01*
X955080D01*
Y268540D01*
X952540D01*
Y271080D01*
X947460D01*
Y268540D01*
X944920D01*
Y263460D01*
X947460D01*
X967460Y223460D02*
Y220920D01*
X972540D01*
Y223460D01*
X975080D01*
Y228540D01*
X972540D01*
Y231080D01*
X967460D01*
Y228540D01*
X964920D01*
Y223460D01*
X967460D01*
X947460Y183460D02*
Y180920D01*
X952540D01*
Y183460D01*
X955080D01*
Y188540D01*
X952540D01*
Y191080D01*
X947460D01*
Y188540D01*
X944920D01*
Y183460D01*
X947460D01*
X967460Y143460D02*
Y140920D01*
X972540D01*
Y143460D01*
X975080D01*
Y148540D01*
X972540D01*
Y151080D01*
X967460D01*
Y148540D01*
X964920D01*
Y143460D01*
X967460D01*
X947460Y103460D02*
Y100920D01*
X952540D01*
Y103460D01*
X955080D01*
Y108540D01*
X952540D01*
Y111080D01*
X947460D01*
Y108540D01*
X944920D01*
Y103460D01*
X947460D01*
X907460Y903460D02*
Y900920D01*
X912540D01*
Y903460D01*
X915080D01*
Y908540D01*
X912540D01*
Y911080D01*
X907460D01*
Y908540D01*
X904920D01*
Y903460D01*
X907460D01*
Y743460D02*
Y740920D01*
X912540D01*
Y743460D01*
X915080D01*
Y748540D01*
X912540D01*
Y751080D01*
X907460D01*
Y748540D01*
X904920D01*
Y743460D01*
X907460D01*
Y663460D02*
Y660920D01*
X912540D01*
Y663460D01*
X915080D01*
Y668540D01*
X912540D01*
Y671080D01*
X907460D01*
Y668540D01*
X904920D01*
Y663460D01*
X907460D01*
X927460Y623460D02*
Y620920D01*
X932540D01*
Y623460D01*
X935080D01*
Y628540D01*
X932540D01*
Y631080D01*
X927460D01*
Y628540D01*
X924920D01*
Y623460D01*
X927460D01*
X907460Y583460D02*
Y580920D01*
X912540D01*
Y583460D01*
X915080D01*
Y588540D01*
X912540D01*
Y591080D01*
X907460D01*
Y588540D01*
X904920D01*
Y583460D01*
X907460D01*
X927460Y543460D02*
Y540920D01*
X932540D01*
Y543460D01*
X935080D01*
Y548540D01*
X932540D01*
Y551080D01*
X927460D01*
Y548540D01*
X924920D01*
Y543460D01*
X927460D01*
X907460Y503460D02*
Y500920D01*
X912540D01*
Y503460D01*
X915080D01*
Y508540D01*
X912540D01*
Y511080D01*
X907460D01*
Y508540D01*
X904920D01*
Y503460D01*
X907460D01*
Y423460D02*
Y420920D01*
X912540D01*
Y423460D01*
X915080D01*
Y428540D01*
X912540D01*
Y431080D01*
X907460D01*
Y428540D01*
X904920D01*
Y423460D01*
X907460D01*
X927460Y383460D02*
Y380920D01*
X932540D01*
Y383460D01*
X935080D01*
Y388540D01*
X932540D01*
Y391080D01*
X927460D01*
Y388540D01*
X924920D01*
Y383460D01*
X927460D01*
X907460Y343460D02*
Y340920D01*
X912540D01*
Y343460D01*
X915080D01*
Y348540D01*
X912540D01*
Y351080D01*
X907460D01*
Y348540D01*
X904920D01*
Y343460D01*
X907460D01*
X927460Y303460D02*
Y300920D01*
X932540D01*
Y303460D01*
X935080D01*
Y308540D01*
X932540D01*
Y311080D01*
X927460D01*
Y308540D01*
X924920D01*
Y303460D01*
X927460D01*
Y223460D02*
Y220920D01*
X932540D01*
Y223460D01*
X935080D01*
Y228540D01*
X932540D01*
Y231080D01*
X927460D01*
Y228540D01*
X924920D01*
Y223460D01*
X927460D01*
X907460Y183460D02*
Y180920D01*
X912540D01*
Y183460D01*
X915080D01*
Y188540D01*
X912540D01*
Y191080D01*
X907460D01*
Y188540D01*
X904920D01*
Y183460D01*
X907460D01*
X927460Y143460D02*
Y140920D01*
X932540D01*
Y143460D01*
X935080D01*
Y148540D01*
X932540D01*
Y151080D01*
X927460D01*
Y148540D01*
X924920D01*
Y143460D01*
X927460D01*
X907460Y103460D02*
Y100920D01*
X912540D01*
Y103460D01*
X915080D01*
Y108540D01*
X912540D01*
Y111080D01*
X907460D01*
Y108540D01*
X904920D01*
Y103460D01*
X907460D01*
Y23460D02*
Y20920D01*
X912540D01*
Y23460D01*
X915080D01*
Y28540D01*
X912540D01*
Y31080D01*
X907460D01*
Y28540D01*
X904920D01*
Y23460D01*
X907460D01*
X867460Y903460D02*
Y900920D01*
X872540D01*
Y903460D01*
X875080D01*
Y908540D01*
X872540D01*
Y911080D01*
X867460D01*
Y908540D01*
X864920D01*
Y903460D01*
X867460D01*
Y823460D02*
Y820920D01*
X872540D01*
Y823460D01*
X875080D01*
Y828540D01*
X872540D01*
Y831080D01*
X867460D01*
Y828540D01*
X864920D01*
Y823460D01*
X867460D01*
X887460Y783460D02*
Y780920D01*
X892540D01*
Y783460D01*
X895080D01*
Y788540D01*
X892540D01*
Y791080D01*
X887460D01*
Y788540D01*
X884920D01*
Y783460D01*
X887460D01*
X867460Y743460D02*
Y740920D01*
X872540D01*
Y743460D01*
X875080D01*
Y748540D01*
X872540D01*
Y751080D01*
X867460D01*
Y748540D01*
X864920D01*
Y743460D01*
X867460D01*
X887460Y703460D02*
Y700920D01*
X892540D01*
Y703460D01*
X895080D01*
Y708540D01*
X892540D01*
Y711080D01*
X887460D01*
Y708540D01*
X884920D01*
Y703460D01*
X887460D01*
Y623460D02*
Y620920D01*
X892540D01*
Y623460D01*
X895080D01*
Y628540D01*
X892540D01*
Y631080D01*
X887460D01*
Y628540D01*
X884920D01*
Y623460D01*
X887460D01*
Y543460D02*
Y540920D01*
X892540D01*
Y543460D01*
X895080D01*
Y548540D01*
X892540D01*
Y551080D01*
X887460D01*
Y548540D01*
X884920D01*
Y543460D01*
X887460D01*
Y463460D02*
Y460920D01*
X892540D01*
Y463460D01*
X895080D01*
Y468540D01*
X892540D01*
Y471080D01*
X887460D01*
Y468540D01*
X884920D01*
Y463460D01*
X887460D01*
X867460Y423460D02*
Y420920D01*
X872540D01*
Y423460D01*
X875080D01*
Y428540D01*
X872540D01*
Y431080D01*
X867460D01*
Y428540D01*
X864920D01*
Y423460D01*
X867460D01*
X887460Y383460D02*
Y380920D01*
X892540D01*
Y383460D01*
X895080D01*
Y388540D01*
X892540D01*
Y391080D01*
X887460D01*
Y388540D01*
X884920D01*
Y383460D01*
X887460D01*
X867460Y343460D02*
Y340920D01*
X872540D01*
Y343460D01*
X875080D01*
Y348540D01*
X872540D01*
Y351080D01*
X867460D01*
Y348540D01*
X864920D01*
Y343460D01*
X867460D01*
X887460Y303460D02*
Y300920D01*
X892540D01*
Y303460D01*
X895080D01*
Y308540D01*
X892540D01*
Y311080D01*
X887460D01*
Y308540D01*
X884920D01*
Y303460D01*
X887460D01*
X867460Y263460D02*
Y260920D01*
X872540D01*
Y263460D01*
X875080D01*
Y268540D01*
X872540D01*
Y271080D01*
X867460D01*
Y268540D01*
X864920D01*
Y263460D01*
X867460D01*
X887460Y223460D02*
Y220920D01*
X892540D01*
Y223460D01*
X895080D01*
Y228540D01*
X892540D01*
Y231080D01*
X887460D01*
Y228540D01*
X884920D01*
Y223460D01*
X887460D01*
X867460Y183460D02*
Y180920D01*
X872540D01*
Y183460D01*
X875080D01*
Y188540D01*
X872540D01*
Y191080D01*
X867460D01*
Y188540D01*
X864920D01*
Y183460D01*
X867460D01*
X887460Y143460D02*
Y140920D01*
X892540D01*
Y143460D01*
X895080D01*
Y148540D01*
X892540D01*
Y151080D01*
X887460D01*
Y148540D01*
X884920D01*
Y143460D01*
X887460D01*
X867460Y103460D02*
Y100920D01*
X872540D01*
Y103460D01*
X875080D01*
Y108540D01*
X872540D01*
Y111080D01*
X867460D01*
Y108540D01*
X864920D01*
Y103460D01*
X867460D01*
X887460Y63460D02*
Y60920D01*
X892540D01*
Y63460D01*
X895080D01*
Y68540D01*
X892540D01*
Y71080D01*
X887460D01*
Y68540D01*
X884920D01*
Y63460D01*
X887460D01*
X867460Y23460D02*
Y20920D01*
X872540D01*
Y23460D01*
X875080D01*
Y28540D01*
X872540D01*
Y31080D01*
X867460D01*
Y28540D01*
X864920D01*
Y23460D01*
X867460D01*
X827460Y903460D02*
Y900920D01*
X832540D01*
Y903460D01*
X835080D01*
Y908540D01*
X832540D01*
Y911080D01*
X827460D01*
Y908540D01*
X824920D01*
Y903460D01*
X827460D01*
X847460Y863460D02*
Y860920D01*
X852540D01*
Y863460D01*
X855080D01*
Y868540D01*
X852540D01*
Y871080D01*
X847460D01*
Y868540D01*
X844920D01*
Y863460D01*
X847460D01*
Y783460D02*
Y780920D01*
X852540D01*
Y783460D01*
X855080D01*
Y788540D01*
X852540D01*
Y791080D01*
X847460D01*
Y788540D01*
X844920D01*
Y783460D01*
X847460D01*
X827460Y663460D02*
Y660920D01*
X832540D01*
Y663460D01*
X835080D01*
Y668540D01*
X832540D01*
Y671080D01*
X827460D01*
Y668540D01*
X824920D01*
Y663460D01*
X827460D01*
Y503460D02*
Y500920D01*
X832540D01*
Y503460D01*
X835080D01*
Y508540D01*
X832540D01*
Y511080D01*
X827460D01*
Y508540D01*
X824920D01*
Y503460D01*
X827460D01*
Y423460D02*
Y420920D01*
X832540D01*
Y423460D01*
X835080D01*
Y428540D01*
X832540D01*
Y431080D01*
X827460D01*
Y428540D01*
X824920D01*
Y423460D01*
X827460D01*
X847460Y383460D02*
Y380920D01*
X852540D01*
Y383460D01*
X855080D01*
Y388540D01*
X852540D01*
Y391080D01*
X847460D01*
Y388540D01*
X844920D01*
Y383460D01*
X847460D01*
X827460Y343460D02*
Y340920D01*
X832540D01*
Y343460D01*
X835080D01*
Y348540D01*
X832540D01*
Y351080D01*
X827460D01*
Y348540D01*
X824920D01*
Y343460D01*
X827460D01*
X847460Y303460D02*
Y300920D01*
X852540D01*
Y303460D01*
X855080D01*
Y308540D01*
X852540D01*
Y311080D01*
X847460D01*
Y308540D01*
X844920D01*
Y303460D01*
X847460D01*
X827460Y263460D02*
Y260920D01*
X832540D01*
Y263460D01*
X835080D01*
Y268540D01*
X832540D01*
Y271080D01*
X827460D01*
Y268540D01*
X824920D01*
Y263460D01*
X827460D01*
X847460Y223460D02*
Y220920D01*
X852540D01*
Y223460D01*
X855080D01*
Y228540D01*
X852540D01*
Y231080D01*
X847460D01*
Y228540D01*
X844920D01*
Y223460D01*
X847460D01*
X827460Y183460D02*
Y180920D01*
X832540D01*
Y183460D01*
X835080D01*
Y188540D01*
X832540D01*
Y191080D01*
X827460D01*
Y188540D01*
X824920D01*
Y183460D01*
X827460D01*
X847460Y143460D02*
Y140920D01*
X852540D01*
Y143460D01*
X855080D01*
Y148540D01*
X852540D01*
Y151080D01*
X847460D01*
Y148540D01*
X844920D01*
Y143460D01*
X847460D01*
X827460Y103460D02*
Y100920D01*
X832540D01*
Y103460D01*
X835080D01*
Y108540D01*
X832540D01*
Y111080D01*
X827460D01*
Y108540D01*
X824920D01*
Y103460D01*
X827460D01*
X847460Y63460D02*
Y60920D01*
X852540D01*
Y63460D01*
X855080D01*
Y68540D01*
X852540D01*
Y71080D01*
X847460D01*
Y68540D01*
X844920D01*
Y63460D01*
X847460D01*
X827460Y23460D02*
Y20920D01*
X832540D01*
Y23460D01*
X835080D01*
Y28540D01*
X832540D01*
Y31080D01*
X827460D01*
Y28540D01*
X824920D01*
Y23460D01*
X827460D01*
X787460Y903460D02*
Y900920D01*
X792540D01*
Y903460D01*
X795080D01*
Y908540D01*
X792540D01*
Y911080D01*
X787460D01*
Y908540D01*
X784920D01*
Y903460D01*
X787460D01*
X807460Y623460D02*
Y620920D01*
X812540D01*
Y623460D01*
X815080D01*
Y628540D01*
X812540D01*
Y631080D01*
X807460D01*
Y628540D01*
X804920D01*
Y623460D01*
X807460D01*
X787460Y503460D02*
Y500920D01*
X792540D01*
Y503460D01*
X795080D01*
Y508540D01*
X792540D01*
Y511080D01*
X787460D01*
Y508540D01*
X784920D01*
Y503460D01*
X787460D01*
Y423460D02*
Y420920D01*
X792540D01*
Y423460D01*
X795080D01*
Y428540D01*
X792540D01*
Y431080D01*
X787460D01*
Y428540D01*
X784920D01*
Y423460D01*
X787460D01*
X807460Y383460D02*
Y380920D01*
X812540D01*
Y383460D01*
X815080D01*
Y388540D01*
X812540D01*
Y391080D01*
X807460D01*
Y388540D01*
X804920D01*
Y383460D01*
X807460D01*
X787460Y343460D02*
Y340920D01*
X792540D01*
Y343460D01*
X795080D01*
Y348540D01*
X792540D01*
Y351080D01*
X787460D01*
Y348540D01*
X784920D01*
Y343460D01*
X787460D01*
X807460Y303460D02*
Y300920D01*
X812540D01*
Y303460D01*
X815080D01*
Y308540D01*
X812540D01*
Y311080D01*
X807460D01*
Y308540D01*
X804920D01*
Y303460D01*
X807460D01*
Y223460D02*
Y220920D01*
X812540D01*
Y223460D01*
X815080D01*
Y228540D01*
X812540D01*
Y231080D01*
X807460D01*
Y228540D01*
X804920D01*
Y223460D01*
X807460D01*
X787460Y183460D02*
Y180920D01*
X792540D01*
Y183460D01*
X795080D01*
Y188540D01*
X792540D01*
Y191080D01*
X787460D01*
Y188540D01*
X784920D01*
Y183460D01*
X787460D01*
X807460Y143460D02*
Y140920D01*
X812540D01*
Y143460D01*
X815080D01*
Y148540D01*
X812540D01*
Y151080D01*
X807460D01*
Y148540D01*
X804920D01*
Y143460D01*
X807460D01*
X787460Y103460D02*
Y100920D01*
X792540D01*
Y103460D01*
X795080D01*
Y108540D01*
X792540D01*
Y111080D01*
X787460D01*
Y108540D01*
X784920D01*
Y103460D01*
X787460D01*
X807460Y63460D02*
Y60920D01*
X812540D01*
Y63460D01*
X815080D01*
Y68540D01*
X812540D01*
Y71080D01*
X807460D01*
Y68540D01*
X804920D01*
Y63460D01*
X807460D01*
X787460Y23460D02*
Y20920D01*
X792540D01*
Y23460D01*
X795080D01*
Y28540D01*
X792540D01*
Y31080D01*
X787460D01*
Y28540D01*
X784920D01*
Y23460D01*
X787460D01*
X747460Y903460D02*
Y900920D01*
X752540D01*
Y903460D01*
X755080D01*
Y908540D01*
X752540D01*
Y911080D01*
X747460D01*
Y908540D01*
X744920D01*
Y903460D01*
X747460D01*
X767460Y863460D02*
Y860920D01*
X772540D01*
Y863460D01*
X775080D01*
Y868540D01*
X772540D01*
Y871080D01*
X767460D01*
Y868540D01*
X764920D01*
Y863460D01*
X767460D01*
Y623460D02*
Y620920D01*
X772540D01*
Y623460D01*
X775080D01*
Y628540D01*
X772540D01*
Y631080D01*
X767460D01*
Y628540D01*
X764920D01*
Y623460D01*
X767460D01*
X747460Y503460D02*
Y500920D01*
X752540D01*
Y503460D01*
X755080D01*
Y508540D01*
X752540D01*
Y511080D01*
X747460D01*
Y508540D01*
X744920D01*
Y503460D01*
X747460D01*
X767460Y463460D02*
Y460920D01*
X772540D01*
Y463460D01*
X775080D01*
Y468540D01*
X772540D01*
Y471080D01*
X767460D01*
Y468540D01*
X764920D01*
Y463460D01*
X767460D01*
X747460Y423460D02*
Y420920D01*
X752540D01*
Y423460D01*
X755080D01*
Y428540D01*
X752540D01*
Y431080D01*
X747460D01*
Y428540D01*
X744920D01*
Y423460D01*
X747460D01*
Y343460D02*
Y340920D01*
X752540D01*
Y343460D01*
X755080D01*
Y348540D01*
X752540D01*
Y351080D01*
X747460D01*
Y348540D01*
X744920D01*
Y343460D01*
X747460D01*
X767460Y223460D02*
Y220920D01*
X772540D01*
Y223460D01*
X775080D01*
Y228540D01*
X772540D01*
Y231080D01*
X767460D01*
Y228540D01*
X764920D01*
Y223460D01*
X767460D01*
X747460Y183460D02*
Y180920D01*
X752540D01*
Y183460D01*
X755080D01*
Y188540D01*
X752540D01*
Y191080D01*
X747460D01*
Y188540D01*
X744920D01*
Y183460D01*
X747460D01*
X767460Y143460D02*
Y140920D01*
X772540D01*
Y143460D01*
X775080D01*
Y148540D01*
X772540D01*
Y151080D01*
X767460D01*
Y148540D01*
X764920D01*
Y143460D01*
X767460D01*
X747460Y103460D02*
Y100920D01*
X752540D01*
Y103460D01*
X755080D01*
Y108540D01*
X752540D01*
Y111080D01*
X747460D01*
Y108540D01*
X744920D01*
Y103460D01*
X747460D01*
X767460Y63460D02*
Y60920D01*
X772540D01*
Y63460D01*
X775080D01*
Y68540D01*
X772540D01*
Y71080D01*
X767460D01*
Y68540D01*
X764920D01*
Y63460D01*
X767460D01*
X747460Y23460D02*
Y20920D01*
X752540D01*
Y23460D01*
X755080D01*
Y28540D01*
X752540D01*
Y31080D01*
X747460D01*
Y28540D01*
X744920D01*
Y23460D01*
X747460D01*
X707460Y903460D02*
Y900920D01*
X712540D01*
Y903460D01*
X715080D01*
Y908540D01*
X712540D01*
Y911080D01*
X707460D01*
Y908540D01*
X704920D01*
Y903460D01*
X707460D01*
X727460Y623460D02*
Y620920D01*
X732540D01*
Y623460D01*
X735080D01*
Y628540D01*
X732540D01*
Y631080D01*
X727460D01*
Y628540D01*
X724920D01*
Y623460D01*
X727460D01*
X707460Y503460D02*
Y500920D01*
X712540D01*
Y503460D01*
X715080D01*
Y508540D01*
X712540D01*
Y511080D01*
X707460D01*
Y508540D01*
X704920D01*
Y503460D01*
X707460D01*
Y423460D02*
Y420920D01*
X712540D01*
Y423460D01*
X715080D01*
Y428540D01*
X712540D01*
Y431080D01*
X707460D01*
Y428540D01*
X704920D01*
Y423460D01*
X707460D01*
X727460Y383460D02*
Y380920D01*
X732540D01*
Y383460D01*
X735080D01*
Y388540D01*
X732540D01*
Y391080D01*
X727460D01*
Y388540D01*
X724920D01*
Y383460D01*
X727460D01*
X707460Y343460D02*
Y340920D01*
X712540D01*
Y343460D01*
X715080D01*
Y348540D01*
X712540D01*
Y351080D01*
X707460D01*
Y348540D01*
X704920D01*
Y343460D01*
X707460D01*
X727460Y303460D02*
Y300920D01*
X732540D01*
Y303460D01*
X735080D01*
Y308540D01*
X732540D01*
Y311080D01*
X727460D01*
Y308540D01*
X724920D01*
Y303460D01*
X727460D01*
X707460Y263460D02*
Y260920D01*
X712540D01*
Y263460D01*
X715080D01*
Y268540D01*
X712540D01*
Y271080D01*
X707460D01*
Y268540D01*
X704920D01*
Y263460D01*
X707460D01*
X727460Y223460D02*
Y220920D01*
X732540D01*
Y223460D01*
X735080D01*
Y228540D01*
X732540D01*
Y231080D01*
X727460D01*
Y228540D01*
X724920D01*
Y223460D01*
X727460D01*
X707460Y183460D02*
Y180920D01*
X712540D01*
Y183460D01*
X715080D01*
Y188540D01*
X712540D01*
Y191080D01*
X707460D01*
Y188540D01*
X704920D01*
Y183460D01*
X707460D01*
X727460Y143460D02*
Y140920D01*
X732540D01*
Y143460D01*
X735080D01*
Y148540D01*
X732540D01*
Y151080D01*
X727460D01*
Y148540D01*
X724920D01*
Y143460D01*
X727460D01*
X707460Y103460D02*
Y100920D01*
X712540D01*
Y103460D01*
X715080D01*
Y108540D01*
X712540D01*
Y111080D01*
X707460D01*
Y108540D01*
X704920D01*
Y103460D01*
X707460D01*
X727460Y63460D02*
Y60920D01*
X732540D01*
Y63460D01*
X735080D01*
Y68540D01*
X732540D01*
Y71080D01*
X727460D01*
Y68540D01*
X724920D01*
Y63460D01*
X727460D01*
X707460Y23460D02*
Y20920D01*
X712540D01*
Y23460D01*
X715080D01*
Y28540D01*
X712540D01*
Y31080D01*
X707460D01*
Y28540D01*
X704920D01*
Y23460D01*
X707460D01*
X667460Y903460D02*
Y900920D01*
X672540D01*
Y903460D01*
X675080D01*
Y908540D01*
X672540D01*
Y911080D01*
X667460D01*
Y908540D01*
X664920D01*
Y903460D01*
X667460D01*
X687460Y863460D02*
Y860920D01*
X692540D01*
Y863460D01*
X695080D01*
Y868540D01*
X692540D01*
Y871080D01*
X687460D01*
Y868540D01*
X684920D01*
Y863460D01*
X687460D01*
X667460Y503460D02*
Y500920D01*
X672540D01*
Y503460D01*
X675080D01*
Y508540D01*
X672540D01*
Y511080D01*
X667460D01*
Y508540D01*
X664920D01*
Y503460D01*
X667460D01*
X687460Y463460D02*
Y460920D01*
X692540D01*
Y463460D01*
X695080D01*
Y468540D01*
X692540D01*
Y471080D01*
X687460D01*
Y468540D01*
X684920D01*
Y463460D01*
X687460D01*
Y303460D02*
Y300920D01*
X692540D01*
Y303460D01*
X695080D01*
Y308540D01*
X692540D01*
Y311080D01*
X687460D01*
Y308540D01*
X684920D01*
Y303460D01*
X687460D01*
Y223460D02*
Y220920D01*
X692540D01*
Y223460D01*
X695080D01*
Y228540D01*
X692540D01*
Y231080D01*
X687460D01*
Y228540D01*
X684920D01*
Y223460D01*
X687460D01*
Y143460D02*
Y140920D01*
X692540D01*
Y143460D01*
X695080D01*
Y148540D01*
X692540D01*
Y151080D01*
X687460D01*
Y148540D01*
X684920D01*
Y143460D01*
X687460D01*
X667460Y103460D02*
Y100920D01*
X672540D01*
Y103460D01*
X675080D01*
Y108540D01*
X672540D01*
Y111080D01*
X667460D01*
Y108540D01*
X664920D01*
Y103460D01*
X667460D01*
X687460Y63460D02*
Y60920D01*
X692540D01*
Y63460D01*
X695080D01*
Y68540D01*
X692540D01*
Y71080D01*
X687460D01*
Y68540D01*
X684920D01*
Y63460D01*
X687460D01*
X667460Y23460D02*
Y20920D01*
X672540D01*
Y23460D01*
X675080D01*
Y28540D01*
X672540D01*
Y31080D01*
X667460D01*
Y28540D01*
X664920D01*
Y23460D01*
X667460D01*
X627460Y903460D02*
Y900920D01*
X632540D01*
Y903460D01*
X635080D01*
Y908540D01*
X632540D01*
Y911080D01*
X627460D01*
Y908540D01*
X624920D01*
Y903460D01*
X627460D01*
X647460Y863460D02*
Y860920D01*
X652540D01*
Y863460D01*
X655080D01*
Y868540D01*
X652540D01*
Y871080D01*
X647460D01*
Y868540D01*
X644920D01*
Y863460D01*
X647460D01*
X627460Y503460D02*
Y500920D01*
X632540D01*
Y503460D01*
X635080D01*
Y508540D01*
X632540D01*
Y511080D01*
X627460D01*
Y508540D01*
X624920D01*
Y503460D01*
X627460D01*
X647460Y463460D02*
Y460920D01*
X652540D01*
Y463460D01*
X655080D01*
Y468540D01*
X652540D01*
Y471080D01*
X647460D01*
Y468540D01*
X644920D01*
Y463460D01*
X647460D01*
X627460Y103460D02*
Y100920D01*
X632540D01*
Y103460D01*
X635080D01*
Y108540D01*
X632540D01*
Y111080D01*
X627460D01*
Y108540D01*
X624920D01*
Y103460D01*
X627460D01*
Y23460D02*
Y20920D01*
X632540D01*
Y23460D01*
X635080D01*
Y28540D01*
X632540D01*
Y31080D01*
X627460D01*
Y28540D01*
X624920D01*
Y23460D01*
X627460D01*
X587460Y903460D02*
Y900920D01*
X592540D01*
Y903460D01*
X595080D01*
Y908540D01*
X592540D01*
Y911080D01*
X587460D01*
Y908540D01*
X584920D01*
Y903460D01*
X587460D01*
X607460Y863460D02*
Y860920D01*
X612540D01*
Y863460D01*
X615080D01*
Y868540D01*
X612540D01*
Y871080D01*
X607460D01*
Y868540D01*
X604920D01*
Y863460D01*
X607460D01*
X587460Y263460D02*
Y260920D01*
X592540D01*
Y263460D01*
X595080D01*
Y268540D01*
X592540D01*
Y271080D01*
X587460D01*
Y268540D01*
X584920D01*
Y263460D01*
X587460D01*
Y103460D02*
Y100920D01*
X592540D01*
Y103460D01*
X595080D01*
Y108540D01*
X592540D01*
Y111080D01*
X587460D01*
Y108540D01*
X584920D01*
Y103460D01*
X587460D01*
X607460Y63460D02*
Y60920D01*
X612540D01*
Y63460D01*
X615080D01*
Y68540D01*
X612540D01*
Y71080D01*
X607460D01*
Y68540D01*
X604920D01*
Y63460D01*
X607460D01*
X587460Y23460D02*
Y20920D01*
X592540D01*
Y23460D01*
X595080D01*
Y28540D01*
X592540D01*
Y31080D01*
X587460D01*
Y28540D01*
X584920D01*
Y23460D01*
X587460D01*
X547460Y903460D02*
Y900920D01*
X552540D01*
Y903460D01*
X555080D01*
Y908540D01*
X552540D01*
Y911080D01*
X547460D01*
Y908540D01*
X544920D01*
Y903460D01*
X547460D01*
X567460Y863460D02*
Y860920D01*
X572540D01*
Y863460D01*
X575080D01*
Y868540D01*
X572540D01*
Y871080D01*
X567460D01*
Y868540D01*
X564920D01*
Y863460D01*
X567460D01*
X547460Y103460D02*
Y100920D01*
X552540D01*
Y103460D01*
X555080D01*
Y108540D01*
X552540D01*
Y111080D01*
X547460D01*
Y108540D01*
X544920D01*
Y103460D01*
X547460D01*
X567460Y63460D02*
Y60920D01*
X572540D01*
Y63460D01*
X575080D01*
Y68540D01*
X572540D01*
Y71080D01*
X567460D01*
Y68540D01*
X564920D01*
Y63460D01*
X567460D01*
X547460Y23460D02*
Y20920D01*
X552540D01*
Y23460D01*
X555080D01*
Y28540D01*
X552540D01*
Y31080D01*
X547460D01*
Y28540D01*
X544920D01*
Y23460D01*
X547460D01*
X507460Y903460D02*
Y900920D01*
X512540D01*
Y903460D01*
X515080D01*
Y908540D01*
X512540D01*
Y911080D01*
X507460D01*
Y908540D01*
X504920D01*
Y903460D01*
X507460D01*
X527460Y623460D02*
Y620920D01*
X532540D01*
Y623460D01*
X535080D01*
Y628540D01*
X532540D01*
Y631080D01*
X527460D01*
Y628540D01*
X524920D01*
Y623460D01*
X527460D01*
X507460Y103460D02*
Y100920D01*
X512540D01*
Y103460D01*
X515080D01*
Y108540D01*
X512540D01*
Y111080D01*
X507460D01*
Y108540D01*
X504920D01*
Y103460D01*
X507460D01*
Y23460D02*
Y20920D01*
X512540D01*
Y23460D01*
X515080D01*
Y28540D01*
X512540D01*
Y31080D01*
X507460D01*
Y28540D01*
X504920D01*
Y23460D01*
X507460D01*
X467460Y903460D02*
Y900920D01*
X472540D01*
Y903460D01*
X475080D01*
Y908540D01*
X472540D01*
Y911080D01*
X467460D01*
Y908540D01*
X464920D01*
Y903460D01*
X467460D01*
X487460Y863460D02*
Y860920D01*
X492540D01*
Y863460D01*
X495080D01*
Y868540D01*
X492540D01*
Y871080D01*
X487460D01*
Y868540D01*
X484920D01*
Y863460D01*
X487460D01*
X467460Y663460D02*
Y660920D01*
X472540D01*
Y663460D01*
X475080D01*
Y668540D01*
X472540D01*
Y671080D01*
X467460D01*
Y668540D01*
X464920D01*
Y663460D01*
X467460D01*
X487460Y623460D02*
Y620920D01*
X492540D01*
Y623460D01*
X495080D01*
Y628540D01*
X492540D01*
Y631080D01*
X487460D01*
Y628540D01*
X484920D01*
Y623460D01*
X487460D01*
Y463460D02*
Y460920D01*
X492540D01*
Y463460D01*
X495080D01*
Y468540D01*
X492540D01*
Y471080D01*
X487460D01*
Y468540D01*
X484920D01*
Y463460D01*
X487460D01*
X467460Y343460D02*
Y340920D01*
X472540D01*
Y343460D01*
X475080D01*
Y348540D01*
X472540D01*
Y351080D01*
X467460D01*
Y348540D01*
X464920D01*
Y343460D01*
X467460D01*
Y263460D02*
Y260920D01*
X472540D01*
Y263460D01*
X475080D01*
Y268540D01*
X472540D01*
Y271080D01*
X467460D01*
Y268540D01*
X464920D01*
Y263460D01*
X467460D01*
Y183460D02*
Y180920D01*
X472540D01*
Y183460D01*
X475080D01*
Y188540D01*
X472540D01*
Y191080D01*
X467460D01*
Y188540D01*
X464920D01*
Y183460D01*
X467460D01*
X487460Y143460D02*
Y140920D01*
X492540D01*
Y143460D01*
X495080D01*
Y148540D01*
X492540D01*
Y151080D01*
X487460D01*
Y148540D01*
X484920D01*
Y143460D01*
X487460D01*
X467460Y103460D02*
Y100920D01*
X472540D01*
Y103460D01*
X475080D01*
Y108540D01*
X472540D01*
Y111080D01*
X467460D01*
Y108540D01*
X464920D01*
Y103460D01*
X467460D01*
X487460Y63460D02*
Y60920D01*
X492540D01*
Y63460D01*
X495080D01*
Y68540D01*
X492540D01*
Y71080D01*
X487460D01*
Y68540D01*
X484920D01*
Y63460D01*
X487460D01*
X467460Y23460D02*
Y20920D01*
X472540D01*
Y23460D01*
X475080D01*
Y28540D01*
X472540D01*
Y31080D01*
X467460D01*
Y28540D01*
X464920D01*
Y23460D01*
X467460D01*
X427460Y903460D02*
Y900920D01*
X432540D01*
Y903460D01*
X435080D01*
Y908540D01*
X432540D01*
Y911080D01*
X427460D01*
Y908540D01*
X424920D01*
Y903460D01*
X427460D01*
X447460Y703460D02*
Y700920D01*
X452540D01*
Y703460D01*
X455080D01*
Y708540D01*
X452540D01*
Y711080D01*
X447460D01*
Y708540D01*
X444920D01*
Y703460D01*
X447460D01*
Y463460D02*
Y460920D01*
X452540D01*
Y463460D01*
X455080D01*
Y468540D01*
X452540D01*
Y471080D01*
X447460D01*
Y468540D01*
X444920D01*
Y463460D01*
X447460D01*
Y303460D02*
Y300920D01*
X452540D01*
Y303460D01*
X455080D01*
Y308540D01*
X452540D01*
Y311080D01*
X447460D01*
Y308540D01*
X444920D01*
Y303460D01*
X447460D01*
Y143460D02*
Y140920D01*
X452540D01*
Y143460D01*
X455080D01*
Y148540D01*
X452540D01*
Y151080D01*
X447460D01*
Y148540D01*
X444920D01*
Y143460D01*
X447460D01*
X427460Y103460D02*
Y100920D01*
X432540D01*
Y103460D01*
X435080D01*
Y108540D01*
X432540D01*
Y111080D01*
X427460D01*
Y108540D01*
X424920D01*
Y103460D01*
X427460D01*
X447460Y63460D02*
Y60920D01*
X452540D01*
Y63460D01*
X455080D01*
Y68540D01*
X452540D01*
Y71080D01*
X447460D01*
Y68540D01*
X444920D01*
Y63460D01*
X447460D01*
X427460Y23460D02*
Y20920D01*
X432540D01*
Y23460D01*
X435080D01*
Y28540D01*
X432540D01*
Y31080D01*
X427460D01*
Y28540D01*
X424920D01*
Y23460D01*
X427460D01*
X387460Y903460D02*
Y900920D01*
X392540D01*
Y903460D01*
X395080D01*
Y908540D01*
X392540D01*
Y911080D01*
X387460D01*
Y908540D01*
X384920D01*
Y903460D01*
X387460D01*
X407460Y863460D02*
Y860920D01*
X412540D01*
Y863460D01*
X415080D01*
Y868540D01*
X412540D01*
Y871080D01*
X407460D01*
Y868540D01*
X404920D01*
Y863460D01*
X407460D01*
X387460Y823460D02*
Y820920D01*
X392540D01*
Y823460D01*
X395080D01*
Y828540D01*
X392540D01*
Y831080D01*
X387460D01*
Y828540D01*
X384920D01*
Y823460D01*
X387460D01*
Y743460D02*
Y740920D01*
X392540D01*
Y743460D01*
X395080D01*
Y748540D01*
X392540D01*
Y751080D01*
X387460D01*
Y748540D01*
X384920D01*
Y743460D01*
X387460D01*
X407460Y543460D02*
Y540920D01*
X412540D01*
Y543460D01*
X415080D01*
Y548540D01*
X412540D01*
Y551080D01*
X407460D01*
Y548540D01*
X404920D01*
Y543460D01*
X407460D01*
Y463460D02*
Y460920D01*
X412540D01*
Y463460D01*
X415080D01*
Y468540D01*
X412540D01*
Y471080D01*
X407460D01*
Y468540D01*
X404920D01*
Y463460D01*
X407460D01*
X387460Y103460D02*
Y100920D01*
X392540D01*
Y103460D01*
X395080D01*
Y108540D01*
X392540D01*
Y111080D01*
X387460D01*
Y108540D01*
X384920D01*
Y103460D01*
X387460D01*
Y23460D02*
Y20920D01*
X392540D01*
Y23460D01*
X395080D01*
Y28540D01*
X392540D01*
Y31080D01*
X387460D01*
Y28540D01*
X384920D01*
Y23460D01*
X387460D01*
X347460Y823460D02*
Y820920D01*
X352540D01*
Y823460D01*
X355080D01*
Y828540D01*
X352540D01*
Y831080D01*
X347460D01*
Y828540D01*
X344920D01*
Y823460D01*
X347460D01*
X367460Y783460D02*
Y780920D01*
X372540D01*
Y783460D01*
X375080D01*
Y788540D01*
X372540D01*
Y791080D01*
X367460D01*
Y788540D01*
X364920D01*
Y783460D01*
X367460D01*
Y383460D02*
Y380920D01*
X372540D01*
Y383460D01*
X375080D01*
Y388540D01*
X372540D01*
Y391080D01*
X367460D01*
Y388540D01*
X364920D01*
Y383460D01*
X367460D01*
X347460Y263460D02*
Y260920D01*
X352540D01*
Y263460D01*
X355080D01*
Y268540D01*
X352540D01*
Y271080D01*
X347460D01*
Y268540D01*
X344920D01*
Y263460D01*
X347460D01*
Y103460D02*
Y100920D01*
X352540D01*
Y103460D01*
X355080D01*
Y108540D01*
X352540D01*
Y111080D01*
X347460D01*
Y108540D01*
X344920D01*
Y103460D01*
X347460D01*
X367460Y63460D02*
Y60920D01*
X372540D01*
Y63460D01*
X375080D01*
Y68540D01*
X372540D01*
Y71080D01*
X367460D01*
Y68540D01*
X364920D01*
Y63460D01*
X367460D01*
X347460Y23460D02*
Y20920D01*
X352540D01*
Y23460D01*
X355080D01*
Y28540D01*
X352540D01*
Y31080D01*
X347460D01*
Y28540D01*
X344920D01*
Y23460D01*
X347460D01*
X327460Y783460D02*
Y780920D01*
X332540D01*
Y783460D01*
X335080D01*
Y788540D01*
X332540D01*
Y791080D01*
X327460D01*
Y788540D01*
X324920D01*
Y783460D01*
X327460D01*
X307460Y103460D02*
Y100920D01*
X312540D01*
Y103460D01*
X315080D01*
Y108540D01*
X312540D01*
Y111080D01*
X307460D01*
Y108540D01*
X304920D01*
Y103460D01*
X307460D01*
X327460Y63460D02*
Y60920D01*
X332540D01*
Y63460D01*
X335080D01*
Y68540D01*
X332540D01*
Y71080D01*
X327460D01*
Y68540D01*
X324920D01*
Y63460D01*
X327460D01*
X307460Y23460D02*
Y20920D01*
X312540D01*
Y23460D01*
X315080D01*
Y28540D01*
X312540D01*
Y31080D01*
X307460D01*
Y28540D01*
X304920D01*
Y23460D01*
X307460D01*
X287460Y463460D02*
Y460920D01*
X292540D01*
Y463460D01*
X295080D01*
Y468540D01*
X292540D01*
Y471080D01*
X287460D01*
Y468540D01*
X284920D01*
Y463460D01*
X287460D01*
Y383460D02*
Y380920D01*
X292540D01*
Y383460D01*
X295080D01*
Y388540D01*
X292540D01*
Y391080D01*
X287460D01*
Y388540D01*
X284920D01*
Y383460D01*
X287460D01*
X267460Y103460D02*
Y100920D01*
X272540D01*
Y103460D01*
X275080D01*
Y108540D01*
X272540D01*
Y111080D01*
X267460D01*
Y108540D01*
X264920D01*
Y103460D01*
X267460D01*
Y23460D02*
Y20920D01*
X272540D01*
Y23460D01*
X275080D01*
Y28540D01*
X272540D01*
Y31080D01*
X267460D01*
Y28540D01*
X264920D01*
Y23460D01*
X267460D01*
X247460Y863460D02*
Y860920D01*
X252540D01*
Y863460D01*
X255080D01*
Y868540D01*
X252540D01*
Y871080D01*
X247460D01*
Y868540D01*
X244920D01*
Y863460D01*
X247460D01*
Y703460D02*
Y700920D01*
X252540D01*
Y703460D01*
X255080D01*
Y708540D01*
X252540D01*
Y711080D01*
X247460D01*
Y708540D01*
X244920D01*
Y703460D01*
X247460D01*
Y543460D02*
Y540920D01*
X252540D01*
Y543460D01*
X255080D01*
Y548540D01*
X252540D01*
Y551080D01*
X247460D01*
Y548540D01*
X244920D01*
Y543460D01*
X247460D01*
Y463460D02*
Y460920D01*
X252540D01*
Y463460D01*
X255080D01*
Y468540D01*
X252540D01*
Y471080D01*
X247460D01*
Y468540D01*
X244920D01*
Y463460D01*
X247460D01*
X227460Y423460D02*
Y420920D01*
X232540D01*
Y423460D01*
X235080D01*
Y428540D01*
X232540D01*
Y431080D01*
X227460D01*
Y428540D01*
X224920D01*
Y423460D01*
X227460D01*
Y343460D02*
Y340920D01*
X232540D01*
Y343460D01*
X235080D01*
Y348540D01*
X232540D01*
Y351080D01*
X227460D01*
Y348540D01*
X224920D01*
Y343460D01*
X227460D01*
Y263460D02*
Y260920D01*
X232540D01*
Y263460D01*
X235080D01*
Y268540D01*
X232540D01*
Y271080D01*
X227460D01*
Y268540D01*
X224920D01*
Y263460D01*
X227460D01*
Y183460D02*
Y180920D01*
X232540D01*
Y183460D01*
X235080D01*
Y188540D01*
X232540D01*
Y191080D01*
X227460D01*
Y188540D01*
X224920D01*
Y183460D01*
X227460D01*
X247460Y143460D02*
Y140920D01*
X252540D01*
Y143460D01*
X255080D01*
Y148540D01*
X252540D01*
Y151080D01*
X247460D01*
Y148540D01*
X244920D01*
Y143460D01*
X247460D01*
X227460Y103460D02*
Y100920D01*
X232540D01*
Y103460D01*
X235080D01*
Y108540D01*
X232540D01*
Y111080D01*
X227460D01*
Y108540D01*
X224920D01*
Y103460D01*
X227460D01*
X247460Y63460D02*
Y60920D01*
X252540D01*
Y63460D01*
X255080D01*
Y68540D01*
X252540D01*
Y71080D01*
X247460D01*
Y68540D01*
X244920D01*
Y63460D01*
X247460D01*
X227460Y23460D02*
Y20920D01*
X232540D01*
Y23460D01*
X235080D01*
Y28540D01*
X232540D01*
Y31080D01*
X227460D01*
Y28540D01*
X224920D01*
Y23460D01*
X227460D01*
X207460Y543460D02*
Y540920D01*
X212540D01*
Y543460D01*
X215080D01*
Y548540D01*
X212540D01*
Y551080D01*
X207460D01*
Y548540D01*
X204920D01*
Y543460D01*
X207460D01*
Y463460D02*
Y460920D01*
X212540D01*
Y463460D01*
X215080D01*
Y468540D01*
X212540D01*
Y471080D01*
X207460D01*
Y468540D01*
X204920D01*
Y463460D01*
X207460D01*
Y143460D02*
Y140920D01*
X212540D01*
Y143460D01*
X215080D01*
Y148540D01*
X212540D01*
Y151080D01*
X207460D01*
Y148540D01*
X204920D01*
Y143460D01*
X207460D01*
X187460Y103460D02*
Y100920D01*
X192540D01*
Y103460D01*
X195080D01*
Y108540D01*
X192540D01*
Y111080D01*
X187460D01*
Y108540D01*
X184920D01*
Y103460D01*
X187460D01*
X207460Y63460D02*
Y60920D01*
X212540D01*
Y63460D01*
X215080D01*
Y68540D01*
X212540D01*
Y71080D01*
X207460D01*
Y68540D01*
X204920D01*
Y63460D01*
X207460D01*
X187460Y23460D02*
Y20920D01*
X192540D01*
Y23460D01*
X195080D01*
Y28540D01*
X192540D01*
Y31080D01*
X187460D01*
Y28540D01*
X184920D01*
Y23460D01*
X187460D01*
X167460Y783460D02*
Y780920D01*
X172540D01*
Y783460D01*
X175080D01*
Y788540D01*
X172540D01*
Y791080D01*
X167460D01*
Y788540D01*
X164920D01*
Y783460D01*
X167460D01*
Y703460D02*
Y700920D01*
X172540D01*
Y703460D01*
X175080D01*
Y708540D01*
X172540D01*
Y711080D01*
X167460D01*
Y708540D01*
X164920D01*
Y703460D01*
X167460D01*
Y543460D02*
Y540920D01*
X172540D01*
Y543460D01*
X175080D01*
Y548540D01*
X172540D01*
Y551080D01*
X167460D01*
Y548540D01*
X164920D01*
Y543460D01*
X167460D01*
Y463460D02*
Y460920D01*
X172540D01*
Y463460D01*
X175080D01*
Y468540D01*
X172540D01*
Y471080D01*
X167460D01*
Y468540D01*
X164920D01*
Y463460D01*
X167460D01*
X147460Y103460D02*
Y100920D01*
X152540D01*
Y103460D01*
X155080D01*
Y108540D01*
X152540D01*
Y111080D01*
X147460D01*
Y108540D01*
X144920D01*
Y103460D01*
X147460D01*
Y23460D02*
Y20920D01*
X152540D01*
Y23460D01*
X155080D01*
Y28540D01*
X152540D01*
Y31080D01*
X147460D01*
Y28540D01*
X144920D01*
Y23460D01*
X147460D01*
X127460Y863460D02*
Y860920D01*
X132540D01*
Y863460D01*
X135080D01*
Y868540D01*
X132540D01*
Y871080D01*
X127460D01*
Y868540D01*
X124920D01*
Y863460D01*
X127460D01*
X107460Y823460D02*
Y820920D01*
X112540D01*
Y823460D01*
X115080D01*
Y828540D01*
X112540D01*
Y831080D01*
X107460D01*
Y828540D01*
X104920D01*
Y823460D01*
X107460D01*
X127460Y543460D02*
Y540920D01*
X132540D01*
Y543460D01*
X135080D01*
Y548540D01*
X132540D01*
Y551080D01*
X127460D01*
Y548540D01*
X124920D01*
Y543460D01*
X127460D01*
Y383460D02*
Y380920D01*
X132540D01*
Y383460D01*
X135080D01*
Y388540D01*
X132540D01*
Y391080D01*
X127460D01*
Y388540D01*
X124920D01*
Y383460D01*
X127460D01*
X107460Y103460D02*
Y100920D01*
X112540D01*
Y103460D01*
X115080D01*
Y108540D01*
X112540D01*
Y111080D01*
X107460D01*
Y108540D01*
X104920D01*
Y103460D01*
X107460D01*
X127460Y63460D02*
Y60920D01*
X132540D01*
Y63460D01*
X135080D01*
Y68540D01*
X132540D01*
Y71080D01*
X127460D01*
Y68540D01*
X124920D01*
Y63460D01*
X127460D01*
X107460Y23460D02*
Y20920D01*
X112540D01*
Y23460D01*
X115080D01*
Y28540D01*
X112540D01*
Y31080D01*
X107460D01*
Y28540D01*
X104920D01*
Y23460D01*
X107460D01*
X87460Y863460D02*
Y860920D01*
X92540D01*
Y863460D01*
X95080D01*
Y868540D01*
X92540D01*
Y871080D01*
X87460D01*
Y868540D01*
X84920D01*
Y863460D01*
X87460D01*
X67460Y823460D02*
Y820920D01*
X72540D01*
Y823460D01*
X75080D01*
Y828540D01*
X72540D01*
Y831080D01*
X67460D01*
Y828540D01*
X64920D01*
Y823460D01*
X67460D01*
X87460Y703460D02*
Y700920D01*
X92540D01*
Y703460D01*
X95080D01*
Y708540D01*
X92540D01*
Y711080D01*
X87460D01*
Y708540D01*
X84920D01*
Y703460D01*
X87460D01*
Y623460D02*
Y620920D01*
X92540D01*
Y623460D01*
X95080D01*
Y628540D01*
X92540D01*
Y631080D01*
X87460D01*
Y628540D01*
X84920D01*
Y623460D01*
X87460D01*
X67460Y103460D02*
Y100920D01*
X72540D01*
Y103460D01*
X75080D01*
Y108540D01*
X72540D01*
Y111080D01*
X67460D01*
Y108540D01*
X64920D01*
Y103460D01*
X67460D01*
X87460Y63460D02*
Y60920D01*
X92540D01*
Y63460D01*
X95080D01*
Y68540D01*
X92540D01*
Y71080D01*
X87460D01*
Y68540D01*
X84920D01*
Y63460D01*
X87460D01*
X67460Y23460D02*
Y20920D01*
X72540D01*
Y23460D01*
X75080D01*
Y28540D01*
X72540D01*
Y31080D01*
X67460D01*
Y28540D01*
X64920D01*
Y23460D01*
X67460D01*
X47460Y863460D02*
Y860920D01*
X52540D01*
Y863460D01*
X55080D01*
Y868540D01*
X52540D01*
Y871080D01*
X47460D01*
Y868540D01*
X44920D01*
Y863460D01*
X47460D01*
Y703460D02*
Y700920D01*
X52540D01*
Y703460D01*
X55080D01*
Y708540D01*
X52540D01*
Y711080D01*
X47460D01*
Y708540D01*
X44920D01*
Y703460D01*
X47460D01*
Y623460D02*
Y620920D01*
X52540D01*
Y623460D01*
X55080D01*
Y628540D01*
X52540D01*
Y631080D01*
X47460D01*
Y628540D01*
X44920D01*
Y623460D01*
X47460D01*
X27460Y583460D02*
Y580920D01*
X32540D01*
Y583460D01*
X35080D01*
Y588540D01*
X32540D01*
Y591080D01*
X27460D01*
Y588540D01*
X24920D01*
Y583460D01*
X27460D01*
X47460Y543460D02*
Y540920D01*
X52540D01*
Y543460D01*
X55080D01*
Y548540D01*
X52540D01*
Y551080D01*
X47460D01*
Y548540D01*
X44920D01*
Y543460D01*
X47460D01*
X27460Y103460D02*
Y100920D01*
X32540D01*
Y103460D01*
X35080D01*
Y108540D01*
X32540D01*
Y111080D01*
X27460D01*
Y108540D01*
X24920D01*
Y103460D01*
X27460D01*
Y23460D02*
Y20920D01*
X32540D01*
Y23460D01*
X35080D01*
Y28540D01*
X32540D01*
Y31080D01*
X27460D01*
Y28540D01*
X24920D01*
Y23460D01*
X27460D01*
X230460Y755960D02*
Y753420D01*
X235540D01*
Y755960D01*
X238080D01*
Y761040D01*
X235540D01*
Y763580D01*
X230460D01*
Y761040D01*
X227920D01*
Y755960D01*
X230460D01*
X208960Y755960D02*
Y753420D01*
X214040D01*
Y755960D01*
X216580D01*
Y761040D01*
X214040D01*
Y763580D01*
X208960D01*
Y761040D01*
X206420D01*
Y755960D01*
X208960D01*
X185710Y752626D02*
Y750086D01*
X190790D01*
Y752626D01*
X193330D01*
Y757706D01*
X190790D01*
Y760246D01*
X185710D01*
Y757706D01*
X183170D01*
Y752626D01*
X185710D01*
X168210Y729627D02*
Y727087D01*
X173290D01*
Y729627D01*
X175830D01*
Y734707D01*
X173290D01*
Y737247D01*
X168210D01*
Y734707D01*
X165670D01*
Y729627D01*
X168210D01*
X319920Y581250D02*
X325000Y586330D01*
X330080Y581250D01*
X325000Y576170D01*
X319920Y581250D01*
X347710Y527460D02*
Y524920D01*
X352790D01*
Y527460D01*
X355330D01*
Y532540D01*
X352790D01*
Y535080D01*
X347710D01*
Y532540D01*
X345170D01*
Y527460D01*
X347710D01*
X342710Y532460D02*
Y529920D01*
X347790D01*
Y532460D01*
X350330D01*
Y537540D01*
X347790D01*
Y540080D01*
X342710D01*
Y537540D01*
X340170D01*
Y532460D01*
X342710D01*
X85670Y560250D02*
X90750Y565330D01*
X95830Y560250D01*
X90750Y555170D01*
X85670Y560250D01*
X174210Y315460D02*
Y312920D01*
X179290D01*
Y315460D01*
X181830D01*
Y320540D01*
X179290D01*
Y323080D01*
X174210D01*
Y320540D01*
X171670D01*
Y315460D01*
X174210D01*
X418460Y713710D02*
Y711170D01*
X423540D01*
Y713710D01*
X426080D01*
Y718790D01*
X423540D01*
Y721330D01*
X418460D01*
Y718790D01*
X415920D01*
Y713710D01*
X418460D01*
X166210Y276710D02*
Y274170D01*
X171290D01*
Y276710D01*
X173830D01*
Y281790D01*
X171290D01*
Y284330D01*
X166210D01*
Y281790D01*
X163670D01*
Y276710D01*
X166210D01*
X174710Y252710D02*
Y250170D01*
X179790D01*
Y252710D01*
X182330D01*
Y257790D01*
X179790D01*
Y260330D01*
X174710D01*
Y257790D01*
X172170D01*
Y252710D01*
X174710D01*
X50960Y252819D02*
Y250278D01*
X56040D01*
Y252819D01*
X58580D01*
Y257899D01*
X56040D01*
Y260438D01*
X50960D01*
Y257899D01*
X48420D01*
Y252819D01*
X50960D01*
X86460Y252710D02*
Y250170D01*
X91540D01*
Y252710D01*
X94080D01*
Y257790D01*
X91540D01*
Y260330D01*
X86460D01*
Y257790D01*
X83920D01*
Y252710D01*
X86460D01*
X59460Y276210D02*
Y273670D01*
X64540D01*
Y276210D01*
X67080D01*
Y281290D01*
X64540D01*
Y283830D01*
X59460D01*
Y281290D01*
X56920D01*
Y276210D01*
X59460D01*
X407460Y315460D02*
Y312920D01*
X412540D01*
Y315460D01*
X415080D01*
Y320540D01*
X412540D01*
Y323080D01*
X407460D01*
Y320540D01*
X404920D01*
Y315460D01*
X407460D01*
X399460Y276710D02*
Y274170D01*
X404540D01*
Y276710D01*
X407080D01*
Y281790D01*
X404540D01*
Y284330D01*
X399460D01*
Y281790D01*
X396920D01*
Y276710D01*
X399460D01*
X407960Y252710D02*
Y250170D01*
X413040D01*
Y252710D01*
X415580D01*
Y257790D01*
X413040D01*
Y260330D01*
X407960D01*
Y257790D01*
X405420D01*
Y252710D01*
X407960D01*
X284210Y252818D02*
Y250278D01*
X289290D01*
Y252818D01*
X291830D01*
Y257898D01*
X289290D01*
Y260438D01*
X284210D01*
Y257898D01*
X281670D01*
Y252818D01*
X284210D01*
X319710Y252710D02*
Y250170D01*
X324790D01*
Y252710D01*
X327330D01*
Y257790D01*
X324790D01*
Y260330D01*
X319710D01*
Y257790D01*
X317170D01*
Y252710D01*
X319710D01*
X292710Y276210D02*
Y273670D01*
X297790D01*
Y276210D01*
X300330D01*
Y281290D01*
X297790D01*
Y283830D01*
X292710D01*
Y281290D01*
X290170D01*
Y276210D01*
X292710D01*
X524710Y276210D02*
Y273670D01*
X529790D01*
Y276210D01*
X532330D01*
Y281290D01*
X529790D01*
Y283830D01*
X524710D01*
Y281290D01*
X522170D01*
Y276210D01*
X524710D01*
X551710Y252710D02*
Y250170D01*
X556790D01*
Y252710D01*
X559330D01*
Y257790D01*
X556790D01*
Y260330D01*
X551710D01*
Y257790D01*
X549170D01*
Y252710D01*
X551710D01*
X516210Y252819D02*
Y250278D01*
X521290D01*
Y252819D01*
X523830D01*
Y257899D01*
X521290D01*
Y260438D01*
X516210D01*
Y257899D01*
X513670D01*
Y252819D01*
X516210D01*
X639960Y252710D02*
Y250170D01*
X645040D01*
Y252710D01*
X647580D01*
Y257790D01*
X645040D01*
Y260330D01*
X639960D01*
Y257790D01*
X637420D01*
Y252710D01*
X639960D01*
X631460Y276710D02*
Y274170D01*
X636540D01*
Y276710D01*
X639080D01*
Y281790D01*
X636540D01*
Y284330D01*
X631460D01*
Y281790D01*
X628920D01*
Y276710D01*
X631460D01*
X516460Y315560D02*
Y313020D01*
X521540D01*
Y315560D01*
X524081D01*
Y320640D01*
X521540D01*
Y323180D01*
X516460D01*
Y320640D01*
X513921D01*
Y315560D01*
X516460D01*
X639460Y315460D02*
Y312920D01*
X644540D01*
Y315460D01*
X647080D01*
Y320540D01*
X644540D01*
Y323080D01*
X639460D01*
Y320540D01*
X636920D01*
Y315460D01*
X639460D01*
X59710Y357960D02*
Y355420D01*
X64790D01*
Y357960D01*
X67330D01*
Y363040D01*
X64790D01*
Y365580D01*
X59710D01*
Y363040D01*
X57170D01*
Y357960D01*
X59710D01*
X96460Y357960D02*
Y355420D01*
X101540D01*
Y357960D01*
X104080D01*
Y363040D01*
X101540D01*
Y365580D01*
X96460D01*
Y363040D01*
X93920D01*
Y357960D01*
X96460D01*
X292960Y357960D02*
Y355420D01*
X298040D01*
Y357960D01*
X300580D01*
Y363040D01*
X298040D01*
Y365580D01*
X292960D01*
Y363040D01*
X290420D01*
Y357960D01*
X292960D01*
X329710Y357960D02*
Y355420D01*
X334790D01*
Y357960D01*
X337330D01*
Y363040D01*
X334790D01*
Y365580D01*
X329710D01*
Y363040D01*
X327170D01*
Y357960D01*
X329710D01*
X561710Y357960D02*
Y355420D01*
X566790D01*
Y357960D01*
X569330D01*
Y363040D01*
X566790D01*
Y365580D01*
X561710D01*
Y363040D01*
X559170D01*
Y357960D01*
X561710D01*
X524960Y357960D02*
Y355420D01*
X530040D01*
Y357960D01*
X532580D01*
Y363040D01*
X530040D01*
Y365580D01*
X524960D01*
Y363040D01*
X522420D01*
Y357960D01*
X524960D01*
X419420Y338170D02*
X421960D01*
X424500Y340710D01*
X427040Y338170D01*
X429580D01*
Y340710D01*
X427040Y343250D01*
X429580Y345790D01*
Y348330D01*
X427040D01*
X424500Y345790D01*
X421960Y348330D01*
X419420D01*
Y345790D01*
X421960Y343250D01*
X419420Y340710D01*
Y338170D01*
X186420D02*
X188960D01*
X191500Y340710D01*
X194040Y338170D01*
X196580D01*
Y340710D01*
X194040Y343250D01*
X196580Y345790D01*
Y348330D01*
X194040D01*
X191500Y345790D01*
X188960Y348330D01*
X186420D01*
Y345790D01*
X188960Y343250D01*
X186420Y340710D01*
Y338170D01*
X650050Y338170D02*
X652590D01*
X655130Y340710D01*
X657670Y338170D01*
X660210D01*
Y340710D01*
X657670Y343250D01*
X660210Y345790D01*
Y348330D01*
X657670D01*
X655130Y345790D01*
X652590Y348330D01*
X650050D01*
Y345790D01*
X652590Y343250D01*
X650050Y340710D01*
Y338170D01*
X285960Y315560D02*
Y313020D01*
X291040D01*
Y315560D01*
X293580D01*
Y320640D01*
X291040D01*
Y323180D01*
X285960D01*
Y320640D01*
X283420D01*
Y315560D01*
X285960D01*
X51210Y315560D02*
Y313020D01*
X56290D01*
Y315560D01*
X58830D01*
Y320640D01*
X56290D01*
Y323180D01*
X51210D01*
Y320640D01*
X48670D01*
Y315560D01*
X51210D01*
X138960Y252710D02*
Y250170D01*
X144040D01*
Y252710D01*
X146580D01*
Y257790D01*
X144040D01*
Y260330D01*
X138960D01*
Y257790D01*
X136420D01*
Y252710D01*
X138960D01*
X372210Y252710D02*
Y250170D01*
X377290D01*
Y252710D01*
X379830D01*
Y257790D01*
X377290D01*
Y260330D01*
X372210D01*
Y257790D01*
X369670D01*
Y252710D01*
X372210D01*
X604210Y252710D02*
Y250170D01*
X609290D01*
Y252710D01*
X611830D01*
Y257790D01*
X609290D01*
Y260330D01*
X604210D01*
Y257790D01*
X601670D01*
Y252710D01*
X604210D01*
X270710Y620210D02*
Y617670D01*
X275790D01*
Y620210D01*
X278330D01*
Y625290D01*
X275790D01*
Y627830D01*
X270710D01*
Y625290D01*
X268170D01*
Y620210D01*
X270710D01*
X598210Y648960D02*
Y646420D01*
X603290D01*
Y648960D01*
X605830D01*
Y654040D01*
X603290D01*
Y656580D01*
X598210D01*
Y654040D01*
X595670D01*
Y648960D01*
X598210D01*
X216460Y619460D02*
Y616920D01*
X221540D01*
Y619460D01*
X224080D01*
Y624540D01*
X221540D01*
Y627080D01*
X216460D01*
Y624540D01*
X213920D01*
Y619460D01*
X216460D01*
X187210Y798460D02*
Y795920D01*
X192290D01*
Y798460D01*
X194830D01*
Y803540D01*
X192290D01*
Y806080D01*
X187210D01*
Y803540D01*
X184670D01*
Y798460D01*
X187210D01*
X182460Y825210D02*
Y822670D01*
X187540D01*
Y825210D01*
X190080D01*
Y830290D01*
X187540D01*
Y832830D01*
X182460D01*
Y830290D01*
X179920D01*
Y825210D01*
X182460D01*
Y814710D02*
Y812170D01*
X187540D01*
Y814710D01*
X190080D01*
Y819790D01*
X187540D01*
Y822330D01*
X182460D01*
Y819790D01*
X179920D01*
Y814710D01*
X182460D01*
X71460Y744710D02*
Y742170D01*
X76540D01*
Y744710D01*
X79080D01*
Y749790D01*
X76540D01*
Y752330D01*
X71460D01*
Y749790D01*
X68920D01*
Y744710D01*
X71460D01*
X747321Y445956D02*
Y443416D01*
X752401D01*
Y445956D01*
X754941D01*
Y451036D01*
X752401D01*
Y453576D01*
X747321D01*
Y451036D01*
X744781D01*
Y445956D01*
X747321D01*
X702210Y462460D02*
Y459920D01*
X707290D01*
Y462460D01*
X709830D01*
Y467540D01*
X707290D01*
Y470080D01*
X702210D01*
Y467540D01*
X699670D01*
Y462460D01*
X702210D01*
X220960Y807710D02*
Y805170D01*
X226040D01*
Y807710D01*
X228580D01*
Y812790D01*
X226040D01*
Y815330D01*
X220960D01*
Y812790D01*
X218420D01*
Y807710D01*
X220960D01*
X251460Y826460D02*
Y823920D01*
X256540D01*
Y826460D01*
X259080D01*
Y831540D01*
X256540D01*
Y834080D01*
X251460D01*
Y831540D01*
X248920D01*
Y826460D01*
X251460D01*
X680560Y703710D02*
Y701170D01*
X685640D01*
Y703710D01*
X688180D01*
Y708790D01*
X685640D01*
Y711330D01*
X680560D01*
Y708790D01*
X678020D01*
Y703710D01*
X680560D01*
X357710Y693210D02*
Y690670D01*
X362790D01*
Y693210D01*
X365330D01*
Y698290D01*
X362790D01*
Y700830D01*
X357710D01*
Y698290D01*
X355170D01*
Y693210D01*
X357710D01*
X366960Y668710D02*
Y666170D01*
X372040D01*
Y668710D01*
X374580D01*
Y673790D01*
X372040D01*
Y676330D01*
X366960D01*
Y673790D01*
X364420D01*
Y668710D01*
X366960D01*
X327460Y637960D02*
Y635420D01*
X332540D01*
Y637960D01*
X335080D01*
Y643040D01*
X332540D01*
Y645580D01*
X327460D01*
Y643040D01*
X324920D01*
Y637960D01*
X327460D01*
X332460Y644460D02*
Y641920D01*
X337540D01*
Y644460D01*
X340080D01*
Y649540D01*
X337540D01*
Y652080D01*
X332460D01*
Y649540D01*
X329920D01*
Y644460D01*
X332460D01*
X337460Y650960D02*
Y648420D01*
X342540D01*
Y650960D01*
X345080D01*
Y656040D01*
X342540D01*
Y658580D01*
X337460D01*
Y656040D01*
X334920D01*
Y650960D01*
X337460D01*
X352460Y644460D02*
Y641920D01*
X357540D01*
Y644460D01*
X360080D01*
Y649540D01*
X357540D01*
Y652080D01*
X352460D01*
Y649540D01*
X349920D01*
Y644460D01*
X352460D01*
X310210Y675360D02*
Y672820D01*
X315290D01*
Y675360D01*
X317830D01*
Y680440D01*
X315290D01*
Y682980D01*
X310210D01*
Y680440D01*
X307670D01*
Y675360D01*
X310210D01*
X308960Y729710D02*
Y727170D01*
X314040D01*
Y729710D01*
X316580D01*
Y734790D01*
X314040D01*
Y737330D01*
X308960D01*
Y734790D01*
X306420D01*
Y729710D01*
X308960D01*
X584095Y714289D02*
X589174Y719369D01*
X594254Y714289D01*
X589174Y709209D01*
X584095Y714289D01*
X559594D02*
X564674Y719369D01*
X569754Y714289D01*
X564674Y709209D01*
X559594Y714289D01*
X600901Y624500D02*
X605981Y629580D01*
X611061Y624500D01*
X605981Y619420D01*
X600901Y624500D01*
X528170Y668000D02*
X533250Y673080D01*
X538330Y668000D01*
X533250Y662920D01*
X528170Y668000D01*
X500920Y644000D02*
X506000Y649080D01*
X511080Y644000D01*
X506000Y638920D01*
X500920Y644000D01*
X612460Y542210D02*
Y539670D01*
X617540D01*
Y542210D01*
X620080D01*
Y547290D01*
X617540D01*
Y549830D01*
X612460D01*
Y547290D01*
X609920D01*
Y542210D01*
X612460D01*
X412460Y574460D02*
Y571920D01*
X417540D01*
Y574460D01*
X420080D01*
Y579540D01*
X417540D01*
Y582080D01*
X412460D01*
Y579540D01*
X409920D01*
Y574460D01*
X412460D01*
X427460Y589460D02*
Y586920D01*
X432540D01*
Y589460D01*
X435080D01*
Y594540D01*
X432540D01*
Y597080D01*
X427460D01*
Y594540D01*
X424920D01*
Y589460D01*
X427460D01*
X422460Y584460D02*
Y581920D01*
X427540D01*
Y584460D01*
X430080D01*
Y589540D01*
X427540D01*
Y592080D01*
X422460D01*
Y589540D01*
X419920D01*
Y584460D01*
X422460D01*
X417460Y579460D02*
Y576920D01*
X422540D01*
Y579460D01*
X425080D01*
Y584540D01*
X422540D01*
Y587080D01*
X417460D01*
Y584540D01*
X414920D01*
Y579460D01*
X417460D01*
X337710Y537460D02*
Y534920D01*
X342790D01*
Y537460D01*
X345330D01*
Y542540D01*
X342790D01*
Y545080D01*
X337710D01*
Y542540D01*
X335170D01*
Y537460D01*
X337710D01*
X332710Y542460D02*
Y539920D01*
X337790D01*
Y542460D01*
X340330D01*
Y547540D01*
X337790D01*
Y550080D01*
X332710D01*
Y547540D01*
X330170D01*
Y542460D01*
X332710D01*
X656960Y221710D02*
Y219170D01*
X662040D01*
Y221710D01*
X664580D01*
Y226790D01*
X662040D01*
Y229330D01*
X656960D01*
Y226790D01*
X654420D01*
Y221710D01*
X656960D01*
X668960Y268560D02*
Y266020D01*
X674040D01*
Y268560D01*
X676580D01*
Y273640D01*
X674040D01*
Y276180D01*
X668960D01*
Y273640D01*
X666420D01*
Y268560D01*
X668960D01*
X622460Y252710D02*
Y250170D01*
X627540D01*
Y252710D01*
X630080D01*
Y257790D01*
X627540D01*
Y260330D01*
X622460D01*
Y257790D01*
X619920D01*
Y252710D01*
X622460D01*
X592210Y392960D02*
Y390420D01*
X597290D01*
Y392960D01*
X599830D01*
Y398040D01*
X597290D01*
Y400580D01*
X592210D01*
Y398040D01*
X589670D01*
Y392960D01*
X592210D01*
X597010Y414960D02*
Y412420D01*
X602090D01*
Y414960D01*
X604630D01*
Y420040D01*
X602090D01*
Y422580D01*
X597010D01*
Y420040D01*
X594470D01*
Y414960D01*
X597010D01*
X497670Y338170D02*
X500210D01*
X502750Y340710D01*
X505290Y338170D01*
X507830D01*
Y340710D01*
X505290Y343250D01*
X507830Y345790D01*
Y348330D01*
X505290D01*
X502750Y345790D01*
X500210Y348330D01*
X497670D01*
Y345790D01*
X500210Y343250D01*
X497670Y340710D01*
Y338170D01*
X575670Y337920D02*
X578210D01*
X580750Y340460D01*
X583290Y337920D01*
X585830D01*
Y340460D01*
X583290Y343000D01*
X585830Y345540D01*
Y348080D01*
X583290D01*
X580750Y345540D01*
X578210Y348080D01*
X575670D01*
Y345540D01*
X578210Y343000D01*
X575670Y340460D01*
Y337920D01*
X632570Y434250D02*
X637650Y439330D01*
X642730Y434250D01*
X637650Y429170D01*
X632570Y434250D01*
X518270D02*
X523350Y439330D01*
X528430Y434250D01*
X523350Y429170D01*
X518270Y434250D01*
X546210Y414960D02*
Y412420D01*
X551290D01*
Y414960D01*
X553830D01*
Y420040D01*
X551290D01*
Y422580D01*
X546210D01*
Y420040D01*
X543670D01*
Y414960D01*
X546210D01*
X546210Y461460D02*
Y458920D01*
X551290D01*
Y461460D01*
X553830D01*
Y466540D01*
X551290D01*
Y469080D01*
X546210D01*
Y466540D01*
X543670D01*
Y461460D01*
X546210D01*
X596960D02*
Y458920D01*
X602040D01*
Y461460D01*
X604580D01*
Y466540D01*
X602040D01*
Y469080D01*
X596960D01*
Y466540D01*
X594420D01*
Y461460D01*
X596960D01*
X597010Y431710D02*
Y429170D01*
X602090D01*
Y431710D01*
X604630D01*
Y436790D01*
X602090D01*
Y439330D01*
X597010D01*
Y436790D01*
X594470D01*
Y431710D01*
X597010D01*
X621960Y370960D02*
Y368420D01*
X627040D01*
Y370960D01*
X629580D01*
Y376040D01*
X627040D01*
Y378580D01*
X621960D01*
Y376040D01*
X619420D01*
Y370960D01*
X621960D01*
X546460Y390960D02*
Y388420D01*
X551540D01*
Y390960D01*
X554080D01*
Y396040D01*
X551540D01*
Y398580D01*
X546460D01*
Y396040D01*
X543920D01*
Y390960D01*
X546460D01*
X546210Y431710D02*
Y429170D01*
X551290D01*
Y431710D01*
X553830D01*
Y436790D01*
X551290D01*
Y439330D01*
X546210D01*
Y436790D01*
X543670D01*
Y431710D01*
X546210D01*
X533460Y252810D02*
Y250270D01*
X538540D01*
Y252810D01*
X541080D01*
Y257890D01*
X538540D01*
Y260430D01*
X533460D01*
Y257890D01*
X530920D01*
Y252810D01*
X533460D01*
X655210Y354211D02*
Y351670D01*
X660290D01*
Y354211D01*
X662830D01*
Y359291D01*
X660290D01*
Y361830D01*
X655210D01*
Y359291D01*
X652670D01*
Y354211D01*
X655210D01*
Y363210D02*
Y360670D01*
X660290D01*
Y363210D01*
X662830D01*
Y368290D01*
X660290D01*
Y370830D01*
X655210D01*
Y368290D01*
X652670D01*
Y363210D01*
X655210D01*
X655210Y391960D02*
Y389420D01*
X660290D01*
Y391960D01*
X662830D01*
Y397040D01*
X660290D01*
Y399580D01*
X655210D01*
Y397040D01*
X652670D01*
Y391960D01*
X655210D01*
Y400960D02*
Y398420D01*
X660290D01*
Y400960D01*
X662830D01*
Y406040D01*
X660290D01*
Y408580D01*
X655210D01*
Y406040D01*
X652670D01*
Y400960D01*
X655210D01*
X671210D02*
Y398420D01*
X676290D01*
Y400960D01*
X678830D01*
Y406040D01*
X676290D01*
Y408580D01*
X671210D01*
Y406040D01*
X668670D01*
Y400960D01*
X671210D01*
X671210Y363210D02*
Y360670D01*
X676290D01*
Y363210D01*
X678830D01*
Y368290D01*
X676290D01*
Y370830D01*
X671210D01*
Y368290D01*
X668670D01*
Y363210D01*
X671210D01*
X500210Y400960D02*
Y398420D01*
X505290D01*
Y400960D01*
X507830D01*
Y406040D01*
X505290D01*
Y408580D01*
X500210D01*
Y406040D01*
X497670D01*
Y400960D01*
X500210D01*
Y391960D02*
Y389420D01*
X505290D01*
Y391960D01*
X507830D01*
Y397040D01*
X505290D01*
Y399580D01*
X500210D01*
Y397040D01*
X497670D01*
Y391960D01*
X500210D01*
X500210Y363210D02*
Y360670D01*
X505290D01*
Y363210D01*
X507830D01*
Y368290D01*
X505290D01*
Y370830D01*
X500210D01*
Y368290D01*
X497670D01*
Y363210D01*
X500210D01*
Y354210D02*
Y351670D01*
X505290D01*
Y354210D01*
X507830D01*
Y359290D01*
X505290D01*
Y361830D01*
X500210D01*
Y359290D01*
X497670D01*
Y354210D01*
X500210D01*
X484210Y391960D02*
Y389420D01*
X489290D01*
Y391960D01*
X491830D01*
Y397040D01*
X489290D01*
Y399580D01*
X484210D01*
Y397040D01*
X481670D01*
Y391960D01*
X484210D01*
X484210Y354210D02*
Y351670D01*
X489290D01*
Y354210D01*
X491830D01*
Y359290D01*
X489290D01*
Y361830D01*
X484210D01*
Y359290D01*
X481670D01*
Y354210D01*
X484210D01*
X487460Y269560D02*
Y267020D01*
X492540D01*
Y269560D01*
X495080D01*
Y274640D01*
X492540D01*
Y277180D01*
X487460D01*
Y274640D01*
X484920D01*
Y269560D01*
X487460D01*
X424960Y221710D02*
Y219170D01*
X430040D01*
Y221710D01*
X432580D01*
Y226790D01*
X430040D01*
Y229330D01*
X424960D01*
Y226790D01*
X422420D01*
Y221710D01*
X424960D01*
X436960Y268560D02*
Y266020D01*
X442040D01*
Y268560D01*
X444580D01*
Y273640D01*
X442040D01*
Y276180D01*
X436960D01*
Y273640D01*
X434420D01*
Y268560D01*
X436960D01*
X390460Y252710D02*
Y250170D01*
X395540D01*
Y252710D01*
X398080D01*
Y257790D01*
X395540D01*
Y260330D01*
X390460D01*
Y257790D01*
X387920D01*
Y252710D01*
X390460D01*
X360210Y392960D02*
Y390420D01*
X365290D01*
Y392960D01*
X367830D01*
Y398040D01*
X365290D01*
Y400580D01*
X360210D01*
Y398040D01*
X357670D01*
Y392960D01*
X360210D01*
X365010Y414960D02*
Y412420D01*
X370090D01*
Y414960D01*
X372630D01*
Y420040D01*
X370090D01*
Y422580D01*
X365010D01*
Y420040D01*
X362470D01*
Y414960D01*
X365010D01*
X265671Y338170D02*
X268211D01*
X270751Y340710D01*
X273291Y338170D01*
X275830D01*
Y340710D01*
X273291Y343250D01*
X275830Y345790D01*
Y348330D01*
X273291D01*
X270751Y345790D01*
X268211Y348330D01*
X265671D01*
Y345790D01*
X268211Y343250D01*
X265671Y340710D01*
Y338170D01*
X343670Y337920D02*
X346210D01*
X348750Y340460D01*
X351290Y337920D01*
X353830D01*
Y340460D01*
X351290Y343000D01*
X353830Y345540D01*
Y348080D01*
X351290D01*
X348750Y345540D01*
X346210Y348080D01*
X343670D01*
Y345540D01*
X346210Y343000D01*
X343670Y340460D01*
Y337920D01*
X400570Y434250D02*
X405650Y439330D01*
X410730Y434250D01*
X405650Y429170D01*
X400570Y434250D01*
X286270D02*
X291350Y439330D01*
X296430Y434250D01*
X291350Y429170D01*
X286270Y434250D01*
X314210Y414960D02*
Y412420D01*
X319290D01*
Y414960D01*
X321830D01*
Y420040D01*
X319290D01*
Y422580D01*
X314210D01*
Y420040D01*
X311670D01*
Y414960D01*
X314210D01*
X314210Y461460D02*
Y458920D01*
X319290D01*
Y461460D01*
X321830D01*
Y466540D01*
X319290D01*
Y469080D01*
X314210D01*
Y466540D01*
X311670D01*
Y461460D01*
X314210D01*
X364960D02*
Y458920D01*
X370040D01*
Y461460D01*
X372580D01*
Y466540D01*
X370040D01*
Y469080D01*
X364960D01*
Y466540D01*
X362420D01*
Y461460D01*
X364960D01*
X365010Y431710D02*
Y429170D01*
X370090D01*
Y431710D01*
X372630D01*
Y436790D01*
X370090D01*
Y439330D01*
X365010D01*
Y436790D01*
X362470D01*
Y431710D01*
X365010D01*
X389960Y370960D02*
Y368420D01*
X395040D01*
Y370960D01*
X397580D01*
Y376040D01*
X395040D01*
Y378580D01*
X389960D01*
Y376040D01*
X387420D01*
Y370960D01*
X389960D01*
X314460Y390960D02*
Y388420D01*
X319540D01*
Y390960D01*
X322080D01*
Y396040D01*
X319540D01*
Y398580D01*
X314460D01*
Y396040D01*
X311920D01*
Y390960D01*
X314460D01*
X314210Y431710D02*
Y429170D01*
X319290D01*
Y431710D01*
X321830D01*
Y436790D01*
X319290D01*
Y439330D01*
X314210D01*
Y436790D01*
X311670D01*
Y431710D01*
X314210D01*
X301460Y252810D02*
Y250270D01*
X306540D01*
Y252810D01*
X309080D01*
Y257890D01*
X306540D01*
Y260430D01*
X301460D01*
Y257890D01*
X298920D01*
Y252810D01*
X301460D01*
X423210Y354210D02*
Y351670D01*
X428290D01*
Y354210D01*
X430830D01*
Y359290D01*
X428290D01*
Y361830D01*
X423210D01*
Y359290D01*
X420670D01*
Y354210D01*
X423210D01*
Y363210D02*
Y360670D01*
X428290D01*
Y363210D01*
X430830D01*
Y368290D01*
X428290D01*
Y370830D01*
X423210D01*
Y368290D01*
X420670D01*
Y363210D01*
X423210D01*
X423210Y391960D02*
Y389420D01*
X428290D01*
Y391960D01*
X430830D01*
Y397040D01*
X428290D01*
Y399580D01*
X423210D01*
Y397040D01*
X420670D01*
Y391960D01*
X423210D01*
Y400960D02*
Y398420D01*
X428290D01*
Y400960D01*
X430830D01*
Y406040D01*
X428290D01*
Y408580D01*
X423210D01*
Y406040D01*
X420670D01*
Y400960D01*
X423210D01*
X439210D02*
Y398420D01*
X444290D01*
Y400960D01*
X446830D01*
Y406040D01*
X444290D01*
Y408580D01*
X439210D01*
Y406040D01*
X436670D01*
Y400960D01*
X439210D01*
X439210Y363210D02*
Y360670D01*
X444290D01*
Y363210D01*
X446830D01*
Y368290D01*
X444290D01*
Y370830D01*
X439210D01*
Y368290D01*
X436670D01*
Y363210D01*
X439210D01*
X268210Y400960D02*
Y398420D01*
X273290D01*
Y400960D01*
X275830D01*
Y406040D01*
X273290D01*
Y408580D01*
X268210D01*
Y406040D01*
X265670D01*
Y400960D01*
X268210D01*
Y391960D02*
Y389420D01*
X273290D01*
Y391960D01*
X275830D01*
Y397040D01*
X273290D01*
Y399580D01*
X268210D01*
Y397040D01*
X265670D01*
Y391960D01*
X268210D01*
X268211Y363210D02*
Y360670D01*
X273291D01*
Y363210D01*
X275830D01*
Y368290D01*
X273291D01*
Y370830D01*
X268211D01*
Y368290D01*
X265671D01*
Y363210D01*
X268211D01*
Y354210D02*
Y351670D01*
X273291D01*
Y354210D01*
X275830D01*
Y359290D01*
X273291D01*
Y361830D01*
X268211D01*
Y359290D01*
X265671D01*
Y354210D01*
X268211D01*
X252210Y391960D02*
Y389420D01*
X257290D01*
Y391960D01*
X259830D01*
Y397040D01*
X257290D01*
Y399580D01*
X252210D01*
Y397040D01*
X249670D01*
Y391960D01*
X252210D01*
X252210Y354210D02*
Y351670D01*
X257290D01*
Y354210D01*
X259830D01*
Y359290D01*
X257290D01*
Y361830D01*
X252210D01*
Y359290D01*
X249670D01*
Y354210D01*
X252210D01*
X255460Y269560D02*
Y267020D01*
X260540D01*
Y269560D01*
X263080D01*
Y274640D01*
X260540D01*
Y277180D01*
X255460D01*
Y274640D01*
X252920D01*
Y269560D01*
X255460D01*
X191710Y221710D02*
Y219170D01*
X196790D01*
Y221710D01*
X199330D01*
Y226790D01*
X196790D01*
Y229330D01*
X191710D01*
Y226790D01*
X189170D01*
Y221710D01*
X191710D01*
X203710Y268560D02*
Y266020D01*
X208790D01*
Y268560D01*
X211330D01*
Y273640D01*
X208790D01*
Y276180D01*
X203710D01*
Y273640D01*
X201170D01*
Y268560D01*
X203710D01*
X157210Y252710D02*
Y250170D01*
X162290D01*
Y252710D01*
X164830D01*
Y257790D01*
X162290D01*
Y260330D01*
X157210D01*
Y257790D01*
X154670D01*
Y252710D01*
X157210D01*
X126960Y392960D02*
Y390420D01*
X132040D01*
Y392960D01*
X134580D01*
Y398040D01*
X132040D01*
Y400580D01*
X126960D01*
Y398040D01*
X124420D01*
Y392960D01*
X126960D01*
X282710Y527460D02*
Y524920D01*
X287790D01*
Y527460D01*
X290330D01*
Y532540D01*
X287790D01*
Y535080D01*
X282710D01*
Y532540D01*
X280170D01*
Y527460D01*
X282710D01*
X277710Y532460D02*
Y529920D01*
X282790D01*
Y532460D01*
X285330D01*
Y537540D01*
X282790D01*
Y540080D01*
X277710D01*
Y537540D01*
X275170D01*
Y532460D01*
X277710D01*
X267710Y542460D02*
Y539920D01*
X272790D01*
Y542460D01*
X275330D01*
Y547540D01*
X272790D01*
Y550080D01*
X267710D01*
Y547540D01*
X265170D01*
Y542460D01*
X267710D01*
X272710Y537460D02*
Y534920D01*
X277790D01*
Y537460D01*
X280330D01*
Y542540D01*
X277790D01*
Y545080D01*
X272710D01*
Y542540D01*
X270170D01*
Y537460D01*
X272710D01*
X131760Y414960D02*
Y412420D01*
X136840D01*
Y414960D01*
X139380D01*
Y420040D01*
X136840D01*
Y422580D01*
X131760D01*
Y420040D01*
X129220D01*
Y414960D01*
X131760D01*
X32420Y338170D02*
X34960D01*
X37500Y340710D01*
X40040Y338170D01*
X42580D01*
Y340710D01*
X40040Y343250D01*
X42580Y345790D01*
Y348330D01*
X40040D01*
X37500Y345790D01*
X34960Y348330D01*
X32420D01*
Y345790D01*
X34960Y343250D01*
X32420Y340710D01*
Y338170D01*
X110420Y337920D02*
X112960D01*
X115500Y340460D01*
X118040Y337920D01*
X120580D01*
Y340460D01*
X118040Y343000D01*
X120580Y345540D01*
Y348080D01*
X118040D01*
X115500Y345540D01*
X112960Y348080D01*
X110420D01*
Y345540D01*
X112960Y343000D01*
X110420Y340460D01*
Y337920D01*
X167320Y434250D02*
X172400Y439330D01*
X177480Y434250D01*
X172400Y429170D01*
X167320Y434250D01*
X53020D02*
X58100Y439330D01*
X63180Y434250D01*
X58100Y429170D01*
X53020Y434250D01*
X80960Y414960D02*
Y412420D01*
X86040D01*
Y414960D01*
X88580D01*
Y420040D01*
X86040D01*
Y422580D01*
X80960D01*
Y420040D01*
X78420D01*
Y414960D01*
X80960D01*
X80960Y461460D02*
Y458920D01*
X86040D01*
Y461460D01*
X88580D01*
Y466540D01*
X86040D01*
Y469080D01*
X80960D01*
Y466540D01*
X78420D01*
Y461460D01*
X80960D01*
X131710D02*
Y458920D01*
X136790D01*
Y461460D01*
X139330D01*
Y466540D01*
X136790D01*
Y469080D01*
X131710D01*
Y466540D01*
X129170D01*
Y461460D01*
X131710D01*
X131760Y431710D02*
Y429170D01*
X136840D01*
Y431710D01*
X139380D01*
Y436790D01*
X136840D01*
Y439330D01*
X131760D01*
Y436790D01*
X129220D01*
Y431710D01*
X131760D01*
X156710Y370960D02*
Y368420D01*
X161790D01*
Y370960D01*
X164330D01*
Y376040D01*
X161790D01*
Y378580D01*
X156710D01*
Y376040D01*
X154170D01*
Y370960D01*
X156710D01*
X81210Y390960D02*
Y388420D01*
X86290D01*
Y390960D01*
X88830D01*
Y396040D01*
X86290D01*
Y398580D01*
X81210D01*
Y396040D01*
X78670D01*
Y390960D01*
X81210D01*
X80960Y431710D02*
Y429170D01*
X86040D01*
Y431710D01*
X88580D01*
Y436790D01*
X86040D01*
Y439330D01*
X80960D01*
Y436790D01*
X78420D01*
Y431710D01*
X80960D01*
X68210Y252810D02*
Y250270D01*
X73290D01*
Y252810D01*
X75830D01*
Y257890D01*
X73290D01*
Y260430D01*
X68210D01*
Y257890D01*
X65670D01*
Y252810D01*
X68210D01*
X189960Y354211D02*
Y351670D01*
X195040D01*
Y354211D01*
X197580D01*
Y359291D01*
X195040D01*
Y361830D01*
X189960D01*
Y359291D01*
X187420D01*
Y354211D01*
X189960D01*
Y363210D02*
Y360670D01*
X195040D01*
Y363210D01*
X197580D01*
Y368290D01*
X195040D01*
Y370830D01*
X189960D01*
Y368290D01*
X187420D01*
Y363210D01*
X189960D01*
X189960Y391960D02*
Y389420D01*
X195040D01*
Y391960D01*
X197580D01*
Y397040D01*
X195040D01*
Y399580D01*
X189960D01*
Y397040D01*
X187420D01*
Y391960D01*
X189960D01*
Y400960D02*
Y398420D01*
X195040D01*
Y400960D01*
X197580D01*
Y406040D01*
X195040D01*
Y408580D01*
X189960D01*
Y406040D01*
X187420D01*
Y400960D01*
X189960D01*
X205960D02*
Y398420D01*
X211040D01*
Y400960D01*
X213580D01*
Y406040D01*
X211040D01*
Y408580D01*
X205960D01*
Y406040D01*
X203420D01*
Y400960D01*
X205960D01*
X205960Y363210D02*
Y360670D01*
X211040D01*
Y363210D01*
X213580D01*
Y368290D01*
X211040D01*
Y370830D01*
X205960D01*
Y368290D01*
X203420D01*
Y363210D01*
X205960D01*
X34960Y400960D02*
Y398420D01*
X40040D01*
Y400960D01*
X42580D01*
Y406040D01*
X40040D01*
Y408580D01*
X34960D01*
Y406040D01*
X32420D01*
Y400960D01*
X34960D01*
Y391960D02*
Y389420D01*
X40040D01*
Y391960D01*
X42580D01*
Y397040D01*
X40040D01*
Y399580D01*
X34960D01*
Y397040D01*
X32420D01*
Y391960D01*
X34960D01*
X34960Y363210D02*
Y360670D01*
X40040D01*
Y363210D01*
X42580D01*
Y368290D01*
X40040D01*
Y370830D01*
X34960D01*
Y368290D01*
X32420D01*
Y363210D01*
X34960D01*
Y354210D02*
Y351670D01*
X40040D01*
Y354210D01*
X42580D01*
Y359290D01*
X40040D01*
Y361830D01*
X34960D01*
Y359290D01*
X32420D01*
Y354210D01*
X34960D01*
X18960Y391960D02*
Y389420D01*
X24040D01*
Y391960D01*
X26580D01*
Y397040D01*
X24040D01*
Y399580D01*
X18960D01*
Y397040D01*
X16420D01*
Y391960D01*
X18960D01*
X18960Y354210D02*
Y351670D01*
X24040D01*
Y354210D01*
X26580D01*
Y359290D01*
X24040D01*
Y361830D01*
X18960D01*
Y359290D01*
X16420D01*
Y354210D01*
X18960D01*
X22210Y269560D02*
Y267020D01*
X27290D01*
Y269560D01*
X29830D01*
Y274640D01*
X27290D01*
Y277180D01*
X22210D01*
Y274640D01*
X19670D01*
Y269560D01*
X22210D01*
X216460Y630210D02*
Y627670D01*
X221540D01*
Y630210D01*
X224080D01*
Y635290D01*
X221540D01*
Y637830D01*
X216460D01*
Y635290D01*
X213920D01*
Y630210D01*
X216460D01*
X168210Y752626D02*
Y750086D01*
X173290D01*
Y752626D01*
X175830D01*
Y757706D01*
X173290D01*
Y760246D01*
X168210D01*
Y757706D01*
X165670D01*
Y752626D01*
X168210D01*
X185710Y729627D02*
Y727087D01*
X190790D01*
Y729627D01*
X193330D01*
Y734707D01*
X190790D01*
Y737247D01*
X185710D01*
Y734707D01*
X183170D01*
Y729627D01*
X185710D01*
X215585Y741210D02*
Y738670D01*
X220665D01*
Y741210D01*
X223205D01*
Y746290D01*
X220665D01*
Y748830D01*
X215585D01*
Y746290D01*
X213045D01*
Y741210D01*
X215585D01*
X223835D02*
Y738670D01*
X228915D01*
Y741210D01*
X231455D01*
Y746290D01*
X228915D01*
Y748830D01*
X223835D01*
Y746290D01*
X221295D01*
Y741210D01*
X223835D01*
X327460Y731210D02*
Y728670D01*
X332540D01*
Y731210D01*
X335080D01*
Y736290D01*
X332540D01*
Y738830D01*
X327460D01*
Y736290D01*
X324920D01*
Y731210D01*
X327460D01*
X296410Y857460D02*
Y854920D01*
X301490D01*
Y857460D01*
X304030D01*
Y862540D01*
X301490D01*
Y865080D01*
X296410D01*
Y862540D01*
X293870D01*
Y857460D01*
X296410D01*
X283710D02*
Y854920D01*
X288790D01*
Y857460D01*
X291330D01*
Y862540D01*
X288790D01*
Y865080D01*
X283710D01*
Y862540D01*
X281170D01*
Y857460D01*
X283710D01*
Y897760D02*
Y895220D01*
X288790D01*
Y897760D01*
X291330D01*
Y902840D01*
X288790D01*
Y905380D01*
X283710D01*
Y902840D01*
X281170D01*
Y897760D01*
X283710D01*
X296410D02*
Y895220D01*
X301490D01*
Y897760D01*
X304030D01*
Y902840D01*
X301490D01*
Y905380D01*
X296410D01*
Y902840D01*
X293870D01*
Y897760D01*
X296410D01*
X309110D02*
Y895220D01*
X314190D01*
Y897760D01*
X316730D01*
Y902840D01*
X314190D01*
Y905380D01*
X309110D01*
Y902840D01*
X306570D01*
Y897760D01*
X309110D01*
X321810D02*
Y895220D01*
X326890D01*
Y897760D01*
X329430D01*
Y902840D01*
X326890D01*
Y905380D01*
X321810D01*
Y902840D01*
X319270D01*
Y897760D01*
X321810D01*
X334510D02*
Y895220D01*
X339590D01*
Y897760D01*
X342130D01*
Y902840D01*
X339590D01*
Y905380D01*
X334510D01*
Y902840D01*
X331970D01*
Y897760D01*
X334510D01*
Y857460D02*
Y854920D01*
X339590D01*
Y857460D01*
X342130D01*
Y862540D01*
X339590D01*
Y865080D01*
X334510D01*
Y862540D01*
X331970D01*
Y857460D01*
X334510D01*
X321810D02*
Y854920D01*
X326890D01*
Y857460D01*
X329430D01*
Y862540D01*
X326890D01*
Y865080D01*
X321810D01*
Y862540D01*
X319270D01*
Y857460D01*
X321810D01*
X309110D02*
Y854920D01*
X314190D01*
Y857460D01*
X316730D01*
Y862540D01*
X314190D01*
Y865080D01*
X309110D01*
Y862540D01*
X306570D01*
Y857460D01*
X309110D01*
X204960Y881160D02*
Y878620D01*
X210040D01*
Y881160D01*
X212580D01*
Y886240D01*
X210040D01*
Y888780D01*
X204960D01*
Y886240D01*
X202420D01*
Y881160D01*
X204960D01*
X258810Y629460D02*
Y626920D01*
X263890D01*
Y629460D01*
X266430D01*
Y634540D01*
X263890D01*
Y637080D01*
X258810D01*
Y634540D01*
X256270D01*
Y629460D01*
X258810D01*
X287710Y747460D02*
Y744920D01*
X292790D01*
Y747460D01*
X295330D01*
Y752540D01*
X292790D01*
Y755080D01*
X287710D01*
Y752540D01*
X285170D01*
Y747460D01*
X287710D01*
X118960Y892960D02*
Y890420D01*
X124040D01*
Y892960D01*
X126580D01*
Y898040D01*
X124040D01*
Y900580D01*
X118960D01*
Y898040D01*
X116420D01*
Y892960D01*
X118960D01*
X220960Y792460D02*
Y789920D01*
X226040D01*
Y792460D01*
X228580D01*
Y797540D01*
X226040D01*
Y800080D01*
X220960D01*
Y797540D01*
X218420D01*
Y792460D01*
X220960D01*
X109760Y746710D02*
Y744170D01*
X114840D01*
Y746710D01*
X117380D01*
Y751790D01*
X114840D01*
Y754330D01*
X109760D01*
Y751790D01*
X107220D01*
Y746710D01*
X109760D01*
X92986D02*
Y744170D01*
X98066D01*
Y746710D01*
X100606D01*
Y751790D01*
X98066D01*
Y754330D01*
X92986D01*
Y751790D01*
X90446D01*
Y746710D01*
X92986D01*
X53460Y831960D02*
Y829420D01*
X58540D01*
Y831960D01*
X61080D01*
Y837040D01*
X58540D01*
Y839580D01*
X53460D01*
Y837040D01*
X50920D01*
Y831960D01*
X53460D01*
Y822960D02*
Y820420D01*
X58540D01*
Y822960D01*
X61080D01*
Y828040D01*
X58540D01*
Y830580D01*
X53460D01*
Y828040D01*
X50920D01*
Y822960D01*
X53460D01*
X37460Y831960D02*
Y829420D01*
X42540D01*
Y831960D01*
X45080D01*
Y837040D01*
X42540D01*
Y839580D01*
X37460D01*
Y837040D01*
X34920D01*
Y831960D01*
X37460D01*
Y822960D02*
Y820420D01*
X42540D01*
Y822960D01*
X45080D01*
Y828040D01*
X42540D01*
Y830580D01*
X37460D01*
Y828040D01*
X34920D01*
Y822960D01*
X37460D01*
X53460Y782710D02*
Y780170D01*
X58540D01*
Y782710D01*
X61080D01*
Y787790D01*
X58540D01*
Y790330D01*
X53460D01*
Y787790D01*
X50920D01*
Y782710D01*
X53460D01*
Y791710D02*
Y789170D01*
X58540D01*
Y791710D01*
X61080D01*
Y796790D01*
X58540D01*
Y799330D01*
X53460D01*
Y796790D01*
X50920D01*
Y791710D01*
X53460D01*
X37460D02*
Y789170D01*
X42540D01*
Y791710D01*
X45080D01*
Y796790D01*
X42540D01*
Y799330D01*
X37460D01*
Y796790D01*
X34920D01*
Y791710D01*
X37460D01*
Y782710D02*
Y780170D01*
X42540D01*
Y782710D01*
X45080D01*
Y787790D01*
X42540D01*
Y790330D01*
X37460D01*
Y787790D01*
X34920D01*
Y782710D01*
X37460D01*
X37460Y743460D02*
Y740920D01*
X42540D01*
Y743460D01*
X45080D01*
Y748540D01*
X42540D01*
Y751080D01*
X37460D01*
Y748540D01*
X34920D01*
Y743460D01*
X37460D01*
Y752460D02*
Y749920D01*
X42540D01*
Y752460D01*
X45080D01*
Y757540D01*
X42540D01*
Y760080D01*
X37460D01*
Y757540D01*
X34920D01*
Y752460D01*
X37460D01*
X53460D02*
Y749920D01*
X58540D01*
Y752460D01*
X61080D01*
Y757540D01*
X58540D01*
Y760080D01*
X53460D01*
Y757540D01*
X50920D01*
Y752460D01*
X53460D01*
Y743460D02*
Y740920D01*
X58540D01*
Y743460D01*
X61080D01*
Y748540D01*
X58540D01*
Y751080D01*
X53460D01*
Y748540D01*
X50920D01*
Y743460D01*
X53460D01*
X212908Y813961D02*
Y811421D01*
X217988D01*
Y813961D01*
X220528D01*
Y819041D01*
X217988D01*
Y821581D01*
X212908D01*
Y819041D01*
X210368D01*
Y813961D01*
X212908D01*
Y801211D02*
Y798671D01*
X217988D01*
Y801211D01*
X220528D01*
Y806291D01*
X217988D01*
Y808831D01*
X212908D01*
Y806291D01*
X210368D01*
Y801211D01*
X212908D01*
X151408Y812461D02*
Y809921D01*
X156488D01*
Y812461D01*
X159028D01*
Y817541D01*
X156488D01*
Y820081D01*
X151408D01*
Y817541D01*
X148868D01*
Y812461D01*
X151408D01*
X258423Y602419D02*
Y599879D01*
X263503D01*
Y602419D01*
X266043D01*
Y607499D01*
X263503D01*
Y610039D01*
X258423D01*
Y607499D01*
X255883D01*
Y602419D01*
X258423D01*
X292560Y593960D02*
Y591420D01*
X297640D01*
Y593960D01*
X300180D01*
Y599040D01*
X297640D01*
Y601580D01*
X292560D01*
Y599040D01*
X290020D01*
Y593960D01*
X292560D01*
X258560Y592960D02*
Y590420D01*
X263640D01*
Y592960D01*
X266180D01*
Y598040D01*
X263640D01*
Y600580D01*
X258560D01*
Y598040D01*
X256020D01*
Y592960D01*
X258560D01*
X262710Y575710D02*
Y573170D01*
X267790D01*
Y575710D01*
X270330D01*
Y580790D01*
X267790D01*
Y583330D01*
X262710D01*
Y580790D01*
X260170D01*
Y575710D01*
X262710D01*
X363960Y575710D02*
Y573170D01*
X369040D01*
Y575710D01*
X371580D01*
Y580790D01*
X369040D01*
Y583330D01*
X363960D01*
Y580790D01*
X361420D01*
Y575710D01*
X363960D01*
X376460D02*
Y573170D01*
X381540D01*
Y575710D01*
X384080D01*
Y580790D01*
X381540D01*
Y583330D01*
X376460D01*
Y580790D01*
X373920D01*
Y575710D01*
X376460D01*
X393460Y714210D02*
Y711670D01*
X398540D01*
Y714210D01*
X401080D01*
Y719290D01*
X398540D01*
Y721830D01*
X393460D01*
Y719290D01*
X390920D01*
Y714210D01*
X393460D01*
X258960Y693210D02*
Y690670D01*
X264040D01*
Y693210D01*
X266580D01*
Y698290D01*
X264040D01*
Y700830D01*
X258960D01*
Y698290D01*
X256420D01*
Y693210D01*
X258960D01*
X258519Y672710D02*
Y670170D01*
X263599D01*
Y672710D01*
X266139D01*
Y677790D01*
X263599D01*
Y680330D01*
X258519D01*
Y677790D01*
X255979D01*
Y672710D01*
X258519D01*
X258810Y644460D02*
Y641920D01*
X263890D01*
Y644460D01*
X266430D01*
Y649540D01*
X263890D01*
Y652080D01*
X258810D01*
Y649540D01*
X256270D01*
Y644460D01*
X258810D01*
X155710Y893710D02*
Y891170D01*
X160790D01*
Y893710D01*
X163330D01*
Y898790D01*
X160790D01*
Y901330D01*
X155710D01*
Y898790D01*
X153170D01*
Y893710D01*
X155710D01*
Y861210D02*
Y858670D01*
X160790D01*
Y861210D01*
X163330D01*
Y866290D01*
X160790D01*
Y868830D01*
X155710D01*
Y866290D01*
X153170D01*
Y861210D01*
X155710D01*
X106460Y892960D02*
Y890420D01*
X111540D01*
Y892960D01*
X114080D01*
Y898040D01*
X111540D01*
Y900580D01*
X106460D01*
Y898040D01*
X103920D01*
Y892960D01*
X106460D01*
X204960Y893710D02*
Y891170D01*
X210040D01*
Y893710D01*
X212580D01*
Y898790D01*
X210040D01*
Y901330D01*
X204960D01*
Y898790D01*
X202420D01*
Y893710D01*
X204960D01*
X711710Y554960D02*
Y552420D01*
X716790D01*
Y554960D01*
X719330D01*
Y560040D01*
X716790D01*
Y562580D01*
X711710D01*
Y560040D01*
X709170D01*
Y554960D01*
X711710D01*
X697460Y683960D02*
Y681420D01*
X702540D01*
Y683960D01*
X705080D01*
Y689040D01*
X702540D01*
Y691580D01*
X697460D01*
Y689040D01*
X694920D01*
Y683960D01*
X697460D01*
X642460Y606210D02*
Y603670D01*
X647540D01*
Y606210D01*
X650080D01*
Y611290D01*
X647540D01*
Y613830D01*
X642460D01*
Y611290D01*
X639920D01*
Y606210D01*
X642460D01*
X688460Y599960D02*
Y597420D01*
X693540D01*
Y599960D01*
X696080D01*
Y605040D01*
X693540D01*
Y607580D01*
X688460D01*
Y605040D01*
X685920D01*
Y599960D01*
X688460D01*
X653210Y683460D02*
Y680920D01*
X658290D01*
Y683460D01*
X660830D01*
Y688540D01*
X658290D01*
Y691080D01*
X653210D01*
Y688540D01*
X650670D01*
Y683460D01*
X653210D01*
X667460Y554710D02*
Y552170D01*
X672540D01*
Y554710D01*
X675080D01*
Y559790D01*
X672540D01*
Y562330D01*
X667460D01*
Y559790D01*
X664920D01*
Y554710D01*
X667460D01*
X694397Y574710D02*
Y572170D01*
X699477D01*
Y574710D01*
X702017D01*
Y579790D01*
X699477D01*
Y582330D01*
X694397D01*
Y579790D01*
X691857D01*
Y574710D01*
X694397D01*
X680460Y663960D02*
Y661420D01*
X685540D01*
Y663960D01*
X688080D01*
Y669040D01*
X685540D01*
Y671580D01*
X680460D01*
Y669040D01*
X677920D01*
Y663960D01*
X680460D01*
X675460Y599960D02*
Y597420D01*
X680540D01*
Y599960D01*
X683080D01*
Y605040D01*
X680540D01*
Y607580D01*
X675460D01*
Y605040D01*
X672920D01*
Y599960D01*
X675460D01*
X661460Y638710D02*
Y636170D01*
X666540D01*
Y638710D01*
X669080D01*
Y643790D01*
X666540D01*
Y646330D01*
X661460D01*
Y643790D01*
X658920D01*
Y638710D01*
X661460D01*
X637357Y532420D02*
X639897D01*
X642437Y534960D01*
X644977Y532420D01*
X647517D01*
Y534960D01*
X644977Y537500D01*
X647517Y540040D01*
Y542580D01*
X644977D01*
X642437Y540040D01*
X639897Y542580D01*
X637357D01*
Y540040D01*
X639897Y537500D01*
X637357Y534960D01*
Y532420D01*
Y572170D02*
X639897D01*
X642437Y574710D01*
X644977Y572170D01*
X647517D01*
Y574710D01*
X644977Y577250D01*
X647517Y579790D01*
Y582330D01*
X644977D01*
X642437Y579790D01*
X639897Y582330D01*
X637357D01*
Y579790D01*
X639897Y577250D01*
X637357Y574710D01*
Y572170D01*
X623570Y661420D02*
X626110D01*
X628650Y663960D01*
X631190Y661420D01*
X633730D01*
Y663960D01*
X631190Y666500D01*
X633730Y669040D01*
Y671580D01*
X631190D01*
X628650Y669040D01*
X626110Y671580D01*
X623570D01*
Y669040D01*
X626110Y666500D01*
X623570Y663960D01*
Y661420D01*
Y701170D02*
X626110D01*
X628650Y703710D01*
X631190Y701170D01*
X633730D01*
Y703710D01*
X631190Y706250D01*
X633730Y708790D01*
Y711330D01*
X631190D01*
X628650Y708790D01*
X626110Y711330D01*
X623570D01*
Y708790D01*
X626110Y706250D01*
X623570Y703710D01*
Y701170D01*
X44920Y494920D02*
Y505080D01*
X55080D01*
Y494920D01*
X44920D01*
X46952Y496952D02*
Y503048D01*
X53048D01*
Y496952D01*
X46952D01*
X944920Y894920D02*
Y905080D01*
X955080D01*
Y894920D01*
X944920D01*
X946952Y896952D02*
Y903048D01*
X953048D01*
Y896952D01*
X946952D01*
X944920Y44920D02*
Y55080D01*
X955080D01*
Y44920D01*
X944920D01*
X946952Y46952D02*
Y53048D01*
X953048D01*
Y46952D01*
X946952D01*
X44920Y894920D02*
Y905080D01*
X55080D01*
Y894920D01*
X44920D01*
X46952Y896952D02*
Y903048D01*
X53048D01*
Y896952D01*
X46952D01*
D114*
X527080Y878000D02*
G03*
X527080Y878000I-5080J0D01*
G01*
X443080D02*
G03*
X443080Y878000I-5080J0D01*
G01*
X77080Y667250D02*
G03*
X77080Y667250I-5080J0D01*
G01*
Y583250D02*
G03*
X77080Y583250I-5080J0D01*
G01*
X743080Y878000D02*
G03*
X743080Y878000I-5080J0D01*
G01*
X827080D02*
G03*
X827080Y878000I-5080J0D01*
G01*
X522580Y71500D02*
G03*
X522580Y71500I-5080J0D01*
G01*
X648580D02*
G03*
X648580Y71500I-5080J0D01*
G01*
X933080Y477000D02*
G03*
X933080Y477000I-5080J0D01*
G01*
Y603000D02*
G03*
X933080Y603000I-5080J0D01*
G01*
X57330Y71500D02*
G03*
X57330Y71500I-5080J0D01*
G01*
X183330D02*
G03*
X183330Y71500I-5080J0D01*
G01*
X290580Y71500D02*
G03*
X290580Y71500I-5080J0D01*
G01*
X416580D02*
G03*
X416580Y71500I-5080J0D01*
G01*
X677080Y878000D02*
G03*
X677080Y878000I-5080J0D01*
G01*
X593080D02*
G03*
X593080Y878000I-5080J0D01*
G01*
M02*
